M48
; DRILL file {KiCad 8.0.5} date 2024-11-25T09:24:01-0700
; FORMAT={-:-/ absolute / inch / decimal}
; #@! TF.CreationDate,2024-11-25T09:24:01-07:00
; #@! TF.GenerationSoftware,Kicad,Pcbnew,8.0.5
; #@! TF.FileFunction,Plated,1,2,PTH
FMAT,2
INCH
; #@! TA.AperFunction,Plated,PTH,ViaDrill
T1C0.0118
; #@! TA.AperFunction,Plated,PTH,ViaDrill
T2C0.0157
; #@! TA.AperFunction,Plated,PTH,ComponentDrill
T3C0.0512
%
G90
G05
T1
X-0.3593Y-0.0433
X-0.2894Y-0.128
X-0.2283Y0.2067
X-0.181Y-0.2726
X-0.1654Y0.063
X-0.0886Y0.311
X-0.0728Y0.0984
X-0.0709Y-0.2795
X-0.063Y0.0256
X-0.0374Y-0.3957
X-0.0138Y-0.2008
X-0.0082Y0.2087
X-0.002Y-0.2382
X0.0152Y-0.3207
X0.0236Y0.2323
X0.0472Y0.1457
X0.0571Y0.3346
X0.0906Y0.439
X0.0984Y0.0265
X0.1339Y-0.1614
X0.1378Y0.3071
X0.1457Y0.1575
X0.1614Y-0.3449
X0.2217Y0.2894
X0.2327Y0.2559
X0.2539Y0.3413
X0.2559Y-0.1465
X0.2598Y-0.1063
X0.261Y-0.2669
X0.2743Y0.25
X0.2921Y0.3102
X0.3016Y0.2835
X0.3108Y-0.1407
X0.3382Y0.1843
X0.3563Y-0.2214
X0.3718Y-0.1779
X0.3752Y0.1799
X0.3858Y0.0807
X0.3864Y0.2041
X0.4154Y0.1579
X0.4417Y0.1618
T2
X-0.3504Y0.313
X0.2451Y0.2087
T3
X-0.252Y-0.189
X0.378Y0.2835
M30
