%TF.GenerationSoftware,KiCad,Pcbnew,8.0.5*%
%TF.CreationDate,2024-11-25T09:23:58-07:00*%
%TF.ProjectId,NoteDetector,4e6f7465-4465-4746-9563-746f722e6b69,rev?*%
%TF.SameCoordinates,Original*%
%TF.FileFunction,Copper,L2,Bot*%
%TF.FilePolarity,Positive*%
%FSLAX46Y46*%
G04 Gerber Fmt 4.6, Leading zero omitted, Abs format (unit mm)*
G04 Created by KiCad (PCBNEW 8.0.5) date 2024-11-25 09:23:58*
%MOMM*%
%LPD*%
G01*
G04 APERTURE LIST*
G04 Aperture macros list*
%AMRoundRect*
0 Rectangle with rounded corners*
0 $1 Rounding radius*
0 $2 $3 $4 $5 $6 $7 $8 $9 X,Y pos of 4 corners*
0 Add a 4 corners polygon primitive as box body*
4,1,4,$2,$3,$4,$5,$6,$7,$8,$9,$2,$3,0*
0 Add four circle primitives for the rounded corners*
1,1,$1+$1,$2,$3*
1,1,$1+$1,$4,$5*
1,1,$1+$1,$6,$7*
1,1,$1+$1,$8,$9*
0 Add four rect primitives between the rounded corners*
20,1,$1+$1,$2,$3,$4,$5,0*
20,1,$1+$1,$4,$5,$6,$7,0*
20,1,$1+$1,$6,$7,$8,$9,0*
20,1,$1+$1,$8,$9,$2,$3,0*%
G04 Aperture macros list end*
%ADD10C,0.200000*%
%TA.AperFunction,NonConductor*%
%ADD11C,0.200000*%
%TD*%
%TA.AperFunction,ComponentPad*%
%ADD12C,2.000000*%
%TD*%
%TA.AperFunction,SMDPad,CuDef*%
%ADD13RoundRect,0.090000X1.210000X0.360000X-1.210000X0.360000X-1.210000X-0.360000X1.210000X-0.360000X0*%
%TD*%
%TA.AperFunction,SMDPad,CuDef*%
%ADD14RoundRect,0.360000X0.140000X0.040000X-0.140000X0.040000X-0.140000X-0.040000X0.140000X-0.040000X0*%
%TD*%
%TA.AperFunction,SMDPad,CuDef*%
%ADD15R,1.000000X0.800000*%
%TD*%
%TA.AperFunction,ViaPad*%
%ADD16C,0.450000*%
%TD*%
%TA.AperFunction,ViaPad*%
%ADD17C,0.508000*%
%TD*%
%TA.AperFunction,ViaPad*%
%ADD18C,0.800000*%
%TD*%
%TA.AperFunction,Conductor*%
%ADD19C,0.254000*%
%TD*%
%TA.AperFunction,Conductor*%
%ADD20C,0.381000*%
%TD*%
%TA.AperFunction,Conductor*%
%ADD21C,0.152400*%
%TD*%
G04 APERTURE END LIST*
D10*
D11*
X-1472054Y3634495D02*
X-1510149Y3596400D01*
X-1510149Y3596400D02*
X-1472054Y3558304D01*
X-1472054Y3558304D02*
X-1433958Y3596400D01*
X-1433958Y3596400D02*
X-1472054Y3634495D01*
X-1472054Y3634495D02*
X-1472054Y3558304D01*
D12*
%TO.P,BT1,1,+*%
%TO.N,+BATT*%
X9599987Y7200017D03*
%TO.P,BT1,2,-*%
%TO.N,/PGnd*%
X-6399991Y-4800011D03*
%TD*%
D13*
%TO.P,MK1,1,-*%
%TO.N,/Audio_raw*%
X0Y650000D03*
%TO.P,MK1,2,+*%
%TO.N,+BATT*%
X0Y-650000D03*
%TD*%
D14*
%TO.P,D1,1,A*%
%TO.N,+BATT*%
X-750000Y4050000D03*
D15*
%TO.P,D1,2,BK*%
%TO.N,Net-(D1-BK)*%
X750000Y4050000D03*
%TO.P,D1,3,GK*%
%TO.N,Net-(D1-GK)*%
X750000Y5150000D03*
%TO.P,D1,4,RK*%
%TO.N,Net-(D1-RK)*%
X-750000Y5150000D03*
%TD*%
D16*
%TO.N,GND*%
X-1850000Y2500000D03*
X-5800000Y5250000D03*
X1450000Y8500000D03*
D17*
X-2250000Y7900000D03*
D18*
X6224500Y5300000D03*
D17*
X6630000Y-6780000D03*
X2500000Y672334D03*
D16*
X-4200000Y1600000D03*
D17*
X-9125000Y-1100000D03*
X3700000Y4000000D03*
D18*
X-8900000Y7950000D03*
D17*
%TO.N,+BATT*%
X-7350000Y-3250000D03*
X-351116Y-5100000D03*
X6500000Y-3720300D03*
X6600000Y-2700000D03*
%TO.N,/Audio_In*%
X7894204Y-3574798D03*
X-1800000Y-7100000D03*
%TO.N,/Midscale*%
X-49909Y-6050091D03*
X-4598371Y-6923371D03*
%TO.N,Net-(U1-V-)*%
X4100000Y-8760000D03*
X385746Y-8147003D03*
%TO.N,Net-(C7-Pad1)*%
X-950000Y-10050000D03*
X3400000Y-4100000D03*
D16*
%TO.N,Net-(D1-RK)*%
X-208439Y5300000D03*
%TO.N,/PWM3*%
X11220000Y4110000D03*
X5630000Y7350000D03*
X7660000Y7200000D03*
X9815000Y5185000D03*
%TO.N,/PWM2*%
X7420000Y7880000D03*
X10550000Y4010000D03*
X9530000Y4570000D03*
X6450000Y8670000D03*
%TO.N,/PWM1*%
X5910000Y6500000D03*
X8590000Y4680000D03*
X9800000Y2050000D03*
X3500000Y7800000D03*
X2300000Y11150000D03*
X6966200Y6350000D03*
D17*
%TO.N,/Audio_raw*%
X-1600000Y650000D03*
%TO.N,Net-(D1-GK)*%
X600000Y5900000D03*
%TO.N,Net-(D1-BK)*%
X1200000Y3700000D03*
%TO.N,/~{MCLR}*%
X9049317Y-5624135D03*
X9444039Y-4519221D03*
%TD*%
D19*
%TO.N,+BATT*%
X-750000Y4050000D02*
X-20000Y3320000D01*
X-20000Y3320000D02*
X310000Y3320000D01*
D20*
X8790017Y7200017D02*
X8080000Y6490000D01*
X9599987Y7200017D02*
X8790017Y7200017D01*
D21*
%TO.N,Net-(D1-RK)*%
X-208439Y5300000D02*
X-358439Y5150000D01*
X-358439Y5150000D02*
X-750000Y5150000D01*
%TO.N,/PWM1*%
X5910000Y6500000D02*
X6060000Y6350000D01*
X6060000Y6350000D02*
X6966200Y6350000D01*
%TO.N,/PWM2*%
X10090000Y4010000D02*
X9530000Y4570000D01*
X10550000Y4010000D02*
X10090000Y4010000D01*
%TO.N,/PWM3*%
X10145000Y5185000D02*
X9815000Y5185000D01*
X11220000Y4110000D02*
X10145000Y5185000D01*
%TO.N,/PWM1*%
X8590000Y4680000D02*
X9800000Y3470000D01*
X9800000Y3470000D02*
X9800000Y2050000D01*
%TO.N,/PWM2*%
X7240000Y7880000D02*
X6450000Y8670000D01*
X7420000Y7880000D02*
X7240000Y7880000D01*
%TO.N,/PWM3*%
X7510000Y7350000D02*
X7660000Y7200000D01*
X5630000Y7350000D02*
X7510000Y7350000D01*
%TO.N,/Audio_In*%
X7219002Y-4250000D02*
X7894204Y-3574798D01*
X4450000Y-4250000D02*
X7219002Y-4250000D01*
X3179711Y-3570289D02*
X3770289Y-3570289D01*
X3770289Y-3570289D02*
X4450000Y-4250000D01*
X-350000Y-7100000D02*
X3179711Y-3570289D01*
X-1800000Y-7100000D02*
X-350000Y-7100000D01*
%TO.N,/Midscale*%
X-3725091Y-6050091D02*
X-4598371Y-6923371D01*
X-49909Y-6050091D02*
X-3725091Y-6050091D01*
%TO.N,Net-(U1-V-)*%
X888743Y-8650000D02*
X385746Y-8147003D01*
X4100000Y-8760000D02*
X3990000Y-8650000D01*
X3990000Y-8650000D02*
X888743Y-8650000D01*
%TO.N,Net-(C7-Pad1)*%
X-950000Y-8700000D02*
X-950000Y-10050000D01*
X3400000Y-4350000D02*
X-950000Y-8700000D01*
X3400000Y-4100000D02*
X3400000Y-4350000D01*
%TO.N,/PWM1*%
X2300000Y9000000D02*
X2300000Y11150000D01*
X3500000Y7800000D02*
X2300000Y9000000D01*
%TO.N,/Audio_raw*%
X-1600000Y650000D02*
X0Y650000D01*
%TO.N,Net-(D1-GK)*%
X750000Y5750000D02*
X600000Y5900000D01*
X750000Y5150000D02*
X750000Y5750000D01*
%TO.N,Net-(D1-BK)*%
X850000Y4050000D02*
X1200000Y3700000D01*
X750000Y4050000D02*
X850000Y4050000D01*
%TO.N,/~{MCLR}*%
X9444039Y-5229413D02*
X9049317Y-5624135D01*
X9444039Y-4519221D02*
X9444039Y-5229413D01*
%TD*%
%TA.AperFunction,Conductor*%
%TO.N,GND*%
G36*
X359784Y12697304D02*
G01*
X1064122Y12657749D01*
X1071164Y12657155D01*
X1772171Y12578171D01*
X1779170Y12577183D01*
X2474652Y12459015D01*
X2481584Y12457636D01*
X3169335Y12300662D01*
X3176178Y12298897D01*
X3854067Y12103600D01*
X3860801Y12101453D01*
X4526640Y11868466D01*
X4533243Y11865946D01*
X5185002Y11595979D01*
X5191453Y11593092D01*
X5827026Y11287016D01*
X5833306Y11283772D01*
X6450737Y10942530D01*
X6456824Y10938939D01*
X6814391Y10714264D01*
X6861429Y10661085D01*
X6872249Y10590918D01*
X6857321Y10546068D01*
X6822825Y10484396D01*
X6822824Y10484394D01*
X6802827Y10416288D01*
X6802824Y10416275D01*
X6794500Y10358377D01*
X6794500Y9177631D01*
X6774498Y9109510D01*
X6720842Y9063017D01*
X6650568Y9052913D01*
X6611301Y9065363D01*
X6583126Y9079719D01*
X6450000Y9100804D01*
X6316874Y9079719D01*
X6231911Y9036428D01*
X6196780Y9018528D01*
X6101471Y8923219D01*
X6086172Y8893193D01*
X6040281Y8803126D01*
X6019196Y8670000D01*
X6040281Y8536874D01*
X6040281Y8536872D01*
X6040282Y8536872D01*
X6101471Y8416780D01*
X6196780Y8321471D01*
X6303324Y8267185D01*
X6316874Y8260281D01*
X6404448Y8246410D01*
X6456488Y8238168D01*
X6520641Y8207755D01*
X6525871Y8202815D01*
X6886892Y7841793D01*
X6920916Y7779483D01*
X6915852Y7708668D01*
X6873305Y7651832D01*
X6806785Y7627021D01*
X6797796Y7626700D01*
X6007238Y7626700D01*
X5939117Y7646702D01*
X5918143Y7663605D01*
X5914874Y7666874D01*
X5883220Y7698528D01*
X5763126Y7759719D01*
X5630000Y7780804D01*
X5496874Y7759719D01*
X5376780Y7698528D01*
X5281472Y7603220D01*
X5220281Y7483126D01*
X5199196Y7350000D01*
X5220281Y7216874D01*
X5220281Y7216872D01*
X5220282Y7216872D01*
X5281471Y7096780D01*
X5376780Y7001471D01*
X5505710Y6935779D01*
X5504759Y6933913D01*
X5552764Y6901082D01*
X5580394Y6835682D01*
X5568280Y6765726D01*
X5565472Y6761070D01*
X5561473Y6753221D01*
X5561472Y6753220D01*
X5500281Y6633126D01*
X5479196Y6500000D01*
X5500281Y6366874D01*
X5500281Y6366872D01*
X5500282Y6366872D01*
X5561471Y6246780D01*
X5656780Y6151471D01*
X5776872Y6090282D01*
X5776874Y6090281D01*
X5910000Y6069196D01*
X5964555Y6077836D01*
X6016868Y6075096D01*
X6023570Y6073300D01*
X6023572Y6073300D01*
X6526537Y6073300D01*
X6594658Y6053298D01*
X6641151Y5999642D01*
X6651255Y5929368D01*
X6629208Y5874262D01*
X6592213Y5822258D01*
X6560429Y5758761D01*
X6550579Y5735650D01*
X6539874Y5644817D01*
X6547463Y5574235D01*
X6561929Y5517557D01*
X6602985Y5418439D01*
X6611498Y5386668D01*
X6620743Y5316446D01*
X6620743Y5283554D01*
X6611498Y5213331D01*
X6602984Y5181557D01*
X6575876Y5116115D01*
X6559431Y5087632D01*
X6516317Y5031444D01*
X6493060Y5008186D01*
X6436861Y4965062D01*
X6408383Y4948620D01*
X6342931Y4921509D01*
X6311172Y4913000D01*
X6240939Y4903755D01*
X6208062Y4903755D01*
X6137822Y4913001D01*
X6106061Y4921512D01*
X5992767Y4968440D01*
X5991135Y4969103D01*
X5990395Y4969405D01*
X5990360Y4969419D01*
X5987366Y4970615D01*
X5927863Y4984596D01*
X5857102Y4990376D01*
X5831970Y4990886D01*
X5831969Y4990885D01*
X5831969Y4990886D01*
X5831968Y4990886D01*
X5743716Y4966908D01*
X5743715Y4966907D01*
X5743713Y4966907D01*
X5681060Y4933513D01*
X5633884Y4898935D01*
X4463701Y3752156D01*
X4452837Y3741509D01*
X4390184Y3708115D01*
X4364646Y3705500D01*
X1767562Y3705500D01*
X1699441Y3725502D01*
X1652948Y3779158D01*
X1642845Y3813566D01*
X1640574Y3829364D01*
X1586282Y3948248D01*
X1586279Y3948252D01*
X1500700Y4047016D01*
X1500697Y4047018D01*
X1500695Y4047021D01*
X1500692Y4047022D01*
X1493989Y4052831D01*
X1455605Y4112557D01*
X1450500Y4148057D01*
X1450500Y4469746D01*
X1450500Y4469748D01*
X1438867Y4528231D01*
X1437685Y4529998D01*
X1436297Y4534433D01*
X1434118Y4539694D01*
X1434588Y4539889D01*
X1416471Y4597751D01*
X1435254Y4666218D01*
X1437686Y4670002D01*
X1438866Y4671768D01*
X1438867Y4671769D01*
X1450500Y4730252D01*
X1450500Y5569748D01*
X1438867Y5628231D01*
X1394552Y5694552D01*
X1328231Y5738867D01*
X1269748Y5750500D01*
X1269747Y5750500D01*
X1183091Y5750500D01*
X1114970Y5770502D01*
X1068477Y5824158D01*
X1058373Y5894431D01*
X1059174Y5900002D01*
X1059174Y5900003D01*
X1040575Y6029357D01*
X1040574Y6029364D01*
X986282Y6148248D01*
X983489Y6151471D01*
X900697Y6247019D01*
X900696Y6247019D01*
X900695Y6247021D01*
X790748Y6317679D01*
X665347Y6354500D01*
X534653Y6354500D01*
X534650Y6354499D01*
X534649Y6354499D01*
X497386Y6343557D01*
X409252Y6317679D01*
X409250Y6317678D01*
X299306Y6247022D01*
X299302Y6247019D01*
X213720Y6148252D01*
X213718Y6148248D01*
X172009Y6056918D01*
X159426Y6029364D01*
X159424Y6029357D01*
X140826Y5900003D01*
X140826Y5899996D01*
X152852Y5816354D01*
X142749Y5746080D01*
X96256Y5692424D01*
X28135Y5672422D01*
X-29067Y5686155D01*
X-75313Y5709719D01*
X-117252Y5716361D01*
X-167549Y5736047D01*
X-167699Y5736147D01*
X-171769Y5738867D01*
X-230252Y5750500D01*
X-1269748Y5750500D01*
X-1328231Y5738867D01*
X-1394552Y5694552D01*
X-1438867Y5628231D01*
X-1450500Y5569748D01*
X-1450500Y4730252D01*
X-1438867Y4671769D01*
X-1438866Y4671768D01*
X-1394551Y4605447D01*
X-1378442Y4594683D01*
X-1332915Y4540206D01*
X-1324068Y4469763D01*
X-1348481Y4413217D01*
X-1379596Y4372669D01*
X-1436074Y4236320D01*
X-1448149Y4144595D01*
X-1450499Y4126746D01*
X-1450500Y4126741D01*
X-1450500Y4065995D01*
X-1470502Y3997874D01*
X-1524158Y3951381D01*
X-1576500Y3939995D01*
X-1815649Y3939995D01*
X-1815649Y3252803D01*
X-1791793Y3228947D01*
X-1757767Y3166635D01*
X-1755210Y3130854D01*
X-1755500Y3126803D01*
X-1755500Y2853927D01*
X-1755499Y2853926D01*
X-1754323Y2831975D01*
X-1751444Y2805192D01*
X-1727483Y2728667D01*
X-1727482Y2728666D01*
X-1693457Y2666355D01*
X-1682388Y2651570D01*
X-1670986Y2633259D01*
X-1644562Y2581398D01*
X-1634002Y2552293D01*
X-1632788Y2546987D01*
X-1622955Y2514360D01*
X-1622953Y2514355D01*
X-1581507Y2439090D01*
X-1581504Y2439086D01*
X-1581503Y2439084D01*
X-1535010Y2385428D01*
X-1517417Y2367473D01*
X-1517414Y2367471D01*
X-1437595Y2322823D01*
X-1369490Y2302827D01*
X-1369481Y2302825D01*
X-1369478Y2302824D01*
X-1311582Y2294500D01*
X2668500Y2294500D01*
X2736621Y2274498D01*
X2783114Y2220842D01*
X2794500Y2168500D01*
X2794500Y331500D01*
X2774498Y263379D01*
X2720842Y216886D01*
X2668500Y205500D01*
X1918656Y205500D01*
X1861934Y197517D01*
X1795080Y178318D01*
X1772518Y170391D01*
X1772514Y170388D01*
X1697427Y116728D01*
X1630375Y93394D01*
X1561351Y110016D01*
X1512271Y161316D01*
X1498718Y231006D01*
X1498994Y233653D01*
X1500500Y246627D01*
X1500499Y1053372D01*
X1497682Y1077662D01*
X1453813Y1177016D01*
X1377016Y1253813D01*
X1277662Y1297682D01*
X1253373Y1300500D01*
X-1253372Y1300499D01*
X-1277662Y1297682D01*
X-1377016Y1253813D01*
X-1453813Y1177016D01*
X-1453814Y1177013D01*
X-1460412Y1167383D01*
X-1462046Y1168502D01*
X-1498488Y1125365D01*
X-1566353Y1104510D01*
X-1567934Y1104500D01*
X-1665347Y1104500D01*
X-1790748Y1067679D01*
X-1900695Y997021D01*
X-1986282Y898248D01*
X-2040574Y779364D01*
X-2040575Y779357D01*
X-2059174Y650003D01*
X-2059174Y649996D01*
X-2040575Y520642D01*
X-2040574Y520636D01*
X-1986282Y401752D01*
X-1986280Y401750D01*
X-1986279Y401747D01*
X-1900697Y302980D01*
X-1900693Y302977D01*
X-1790748Y232321D01*
X-1790750Y232321D01*
X-1665350Y195500D01*
X-1567934Y195500D01*
X-1499813Y175498D01*
X-1461820Y131652D01*
X-1460412Y132617D01*
X-1453811Y122981D01*
X-1419925Y89095D01*
X-1385899Y26783D01*
X-1390964Y-44032D01*
X-1419925Y-89095D01*
X-1453811Y-122981D01*
X-1453812Y-122983D01*
X-1453813Y-122984D01*
X-1497682Y-222338D01*
X-1500500Y-246627D01*
X-1500499Y-1053372D01*
X-1497682Y-1077662D01*
X-1453813Y-1177016D01*
X-1377016Y-1253813D01*
X-1277662Y-1297682D01*
X-1253373Y-1300500D01*
X-895308Y-1300499D01*
X-827190Y-1320501D01*
X-780697Y-1374156D01*
X-770592Y-1444430D01*
X-800085Y-1509011D01*
X-806214Y-1515594D01*
X-1548216Y-2257596D01*
X-1610527Y-2291620D01*
X-1637310Y-2294500D01*
X-7374006Y-2294500D01*
X-7417681Y-2299196D01*
X-7470023Y-2310582D01*
X-7480203Y-2313070D01*
X-7560916Y-2356079D01*
X-7614572Y-2402572D01*
X-7632527Y-2420165D01*
X-7632528Y-2420167D01*
X-7677176Y-2499986D01*
X-7694363Y-2558524D01*
X-7697176Y-2568104D01*
X-7705500Y-2626000D01*
X-7705500Y-2626002D01*
X-7705500Y-2919232D01*
X-7725502Y-2987353D01*
X-7736271Y-3001739D01*
X-7736282Y-3001752D01*
X-7790574Y-3120636D01*
X-7790574Y-3120641D01*
X-7790575Y-3120642D01*
X-7809174Y-3249996D01*
X-7809174Y-3250000D01*
X-7790574Y-3379364D01*
X-7736282Y-3498248D01*
X-7736277Y-3498253D01*
X-7736277Y-3498254D01*
X-7736273Y-3498261D01*
X-7731408Y-3505833D01*
X-7732496Y-3506532D01*
X-7706783Y-3562835D01*
X-7705500Y-3580768D01*
X-7705500Y-3892965D01*
X-7705484Y-3895554D01*
X-7705444Y-3898729D01*
X-7695614Y-3958986D01*
X-7673902Y-4026581D01*
X-7664765Y-4049999D01*
X-7608866Y-4122383D01*
X-7554056Y-4167509D01*
X-7554049Y-4167514D01*
X-7546442Y-4173033D01*
X-7503048Y-4229224D01*
X-7496922Y-4299956D01*
X-7507640Y-4331186D01*
X-7524218Y-4364478D01*
X-7524222Y-4364490D01*
X-7570374Y-4526699D01*
X-7585106Y-4578475D01*
X-7605634Y-4800011D01*
X-7585106Y-5021547D01*
X-7524220Y-5235539D01*
X-7524217Y-5235544D01*
X-7524216Y-5235548D01*
X-7425052Y-5434695D01*
X-7425050Y-5434696D01*
X-7425049Y-5434700D01*
X-7326799Y-5564804D01*
X-7293874Y-5608405D01*
X-7290972Y-5612247D01*
X-7126553Y-5762135D01*
X-6937392Y-5879258D01*
X-6830348Y-5920727D01*
X-6729937Y-5959627D01*
X-6729935Y-5959627D01*
X-6729931Y-5959629D01*
X-6511234Y-6000511D01*
X-6511231Y-6000511D01*
X-6288751Y-6000511D01*
X-6288748Y-6000511D01*
X-6070051Y-5959629D01*
X-6070047Y-5959627D01*
X-6070044Y-5959627D01*
X-5952300Y-5914012D01*
X-5862590Y-5879258D01*
X-5862581Y-5879252D01*
X-5862578Y-5879251D01*
X-5673430Y-5762136D01*
X-5673423Y-5762131D01*
X-5552188Y-5651611D01*
X-5488371Y-5620500D01*
X-5417865Y-5628830D01*
X-5405793Y-5634760D01*
X-5329968Y-5677174D01*
X-5261847Y-5697176D01*
X-5203951Y-5705500D01*
X-4076004Y-5705500D01*
X-4007883Y-5725502D01*
X-3961390Y-5779158D01*
X-3951286Y-5849432D01*
X-3980780Y-5914012D01*
X-3986908Y-5920595D01*
X-4498280Y-6431967D01*
X-4560591Y-6465991D01*
X-4587374Y-6468871D01*
X-4663721Y-6468871D01*
X-4789120Y-6505692D01*
X-4899064Y-6576348D01*
X-4899068Y-6576351D01*
X-4984650Y-6675118D01*
X-4984651Y-6675121D01*
X-4984653Y-6675123D01*
X-5038945Y-6794007D01*
X-5038945Y-6794012D01*
X-5038946Y-6794013D01*
X-5057545Y-6923367D01*
X-5057545Y-6923374D01*
X-5039220Y-7050818D01*
X-5038945Y-7052735D01*
X-4984653Y-7171619D01*
X-4899066Y-7270392D01*
X-4789119Y-7341050D01*
X-4663718Y-7377871D01*
X-4663715Y-7377871D01*
X-4533027Y-7377871D01*
X-4533024Y-7377871D01*
X-4533021Y-7377870D01*
X-4533020Y-7377870D01*
X-4495757Y-7366928D01*
X-4407623Y-7341050D01*
X-4377070Y-7321415D01*
X-4297677Y-7270393D01*
X-4297673Y-7270390D01*
X-4212091Y-7171623D01*
X-4157797Y-7052735D01*
X-4157795Y-7052728D01*
X-4139197Y-6923374D01*
X-4139197Y-6914360D01*
X-4137011Y-6914360D01*
X-4128646Y-6856190D01*
X-4103129Y-6819442D01*
X-3647383Y-6363696D01*
X-3585071Y-6329670D01*
X-3558288Y-6326791D01*
X-469080Y-6326791D01*
X-400959Y-6346793D01*
X-373856Y-6370278D01*
X-350604Y-6397112D01*
X-292092Y-6434714D01*
X-245601Y-6488367D01*
X-235496Y-6558640D01*
X-264988Y-6623222D01*
X-271119Y-6629806D01*
X-427708Y-6786395D01*
X-490020Y-6820421D01*
X-516803Y-6823300D01*
X-1380829Y-6823300D01*
X-1448950Y-6803298D01*
X-1476053Y-6779813D01*
X-1499305Y-6752978D01*
X-1499306Y-6752977D01*
X-1609251Y-6682321D01*
X-1609249Y-6682321D01*
X-1734649Y-6645500D01*
X-1734653Y-6645500D01*
X-1865347Y-6645500D01*
X-1865350Y-6645500D01*
X-1990749Y-6682321D01*
X-2100693Y-6752977D01*
X-2100697Y-6752980D01*
X-2186279Y-6851747D01*
X-2186280Y-6851750D01*
X-2186282Y-6851752D01*
X-2240574Y-6970636D01*
X-2240574Y-6970641D01*
X-2240575Y-6970642D01*
X-2259174Y-7099996D01*
X-2259174Y-7100000D01*
X-2240574Y-7229364D01*
X-2186282Y-7348248D01*
X-2186279Y-7348250D01*
X-2186279Y-7348252D01*
X-2160614Y-7377871D01*
X-2100695Y-7447021D01*
X-1990748Y-7517679D01*
X-1865347Y-7554500D01*
X-1865344Y-7554500D01*
X-1734656Y-7554500D01*
X-1734653Y-7554500D01*
X-1734650Y-7554499D01*
X-1734649Y-7554499D01*
X-1697386Y-7543557D01*
X-1609252Y-7517679D01*
X-1609250Y-7517678D01*
X-1499306Y-7447022D01*
X-1499305Y-7447021D01*
X-1476053Y-7420187D01*
X-1416327Y-7381804D01*
X-1380829Y-7376700D01*
X-322204Y-7376700D01*
X-254083Y-7396702D01*
X-207590Y-7450358D01*
X-197486Y-7520632D01*
X-226980Y-7585212D01*
X-233109Y-7591795D01*
X-1171408Y-8530094D01*
X-1171410Y-8530097D01*
X-1171415Y-8530102D01*
X-1207844Y-8593197D01*
X-1207844Y-8593198D01*
X-1212136Y-8609213D01*
X-1212137Y-8609219D01*
X-1226699Y-8663569D01*
X-1226700Y-8663574D01*
X-1226700Y-9628291D01*
X-1246702Y-9696412D01*
X-1257475Y-9710803D01*
X-1336282Y-9801752D01*
X-1390574Y-9920636D01*
X-1390574Y-9920641D01*
X-1390575Y-9920642D01*
X-1409174Y-10049996D01*
X-1409174Y-10050000D01*
X-1390574Y-10179364D01*
X-1336282Y-10298248D01*
X-1250695Y-10397021D01*
X-1140748Y-10467679D01*
X-1015347Y-10504500D01*
X-1015344Y-10504500D01*
X-884656Y-10504500D01*
X-884653Y-10504500D01*
X-884650Y-10504499D01*
X-884649Y-10504499D01*
X-847386Y-10493557D01*
X-759252Y-10467679D01*
X-759250Y-10467678D01*
X-649306Y-10397022D01*
X-649302Y-10397019D01*
X-563720Y-10298252D01*
X-509426Y-10179364D01*
X-509424Y-10179357D01*
X-490826Y-10050003D01*
X-490826Y-10049996D01*
X-509424Y-9920642D01*
X-509426Y-9920635D01*
X-563719Y-9801750D01*
X-642525Y-9710803D01*
X-672018Y-9646222D01*
X-673300Y-9628291D01*
X-673300Y-8866803D01*
X-653298Y-8798682D01*
X-636395Y-8777708D01*
X-208301Y-8349614D01*
X-145989Y-8315588D01*
X-75174Y-8320653D01*
X-18338Y-8363200D01*
X-4594Y-8386364D01*
X-536Y-8395251D01*
X-533Y-8395254D01*
X85048Y-8494022D01*
X85052Y-8494025D01*
X140024Y-8529353D01*
X194996Y-8564681D01*
X194995Y-8564681D01*
X320395Y-8601502D01*
X320396Y-8601502D01*
X320399Y-8601503D01*
X396743Y-8601503D01*
X464864Y-8621505D01*
X485833Y-8638403D01*
X718845Y-8871415D01*
X749921Y-8889357D01*
X781936Y-8907842D01*
X781940Y-8907844D01*
X852315Y-8926700D01*
X3595501Y-8926700D01*
X3663622Y-8946702D01*
X3710114Y-9000356D01*
X3713719Y-9008251D01*
X3799302Y-9107019D01*
X3799306Y-9107022D01*
X3854278Y-9142350D01*
X3909250Y-9177678D01*
X3909249Y-9177678D01*
X4034649Y-9214499D01*
X4034650Y-9214499D01*
X4034653Y-9214500D01*
X4034656Y-9214500D01*
X4165344Y-9214500D01*
X4165347Y-9214500D01*
X4290748Y-9177679D01*
X4400695Y-9107021D01*
X4486282Y-9008248D01*
X4540574Y-8889364D01*
X4551322Y-8814613D01*
X4559174Y-8760003D01*
X4559174Y-8759996D01*
X4540575Y-8630642D01*
X4540574Y-8630641D01*
X4540574Y-8630636D01*
X4486282Y-8511752D01*
X4486280Y-8511750D01*
X4486279Y-8511747D01*
X4400697Y-8412980D01*
X4400693Y-8412977D01*
X4290748Y-8342321D01*
X4290750Y-8342321D01*
X4165350Y-8305500D01*
X4165347Y-8305500D01*
X4034653Y-8305500D01*
X4034649Y-8305500D01*
X3909253Y-8342320D01*
X3904300Y-8345502D01*
X3892168Y-8353299D01*
X3824051Y-8373300D01*
X1055546Y-8373300D01*
X987425Y-8353298D01*
X966451Y-8336395D01*
X880987Y-8250931D01*
X846961Y-8188619D01*
X845800Y-8156016D01*
X844920Y-8156016D01*
X844920Y-8146999D01*
X826321Y-8017645D01*
X826320Y-8017644D01*
X826320Y-8017639D01*
X772028Y-7898755D01*
X772026Y-7898753D01*
X772025Y-7898750D01*
X686443Y-7799983D01*
X686441Y-7799982D01*
X607883Y-7749496D01*
X561390Y-7695840D01*
X551286Y-7625567D01*
X580779Y-7560986D01*
X586895Y-7554417D01*
X3621415Y-4519898D01*
X3626257Y-4511510D01*
X3667259Y-4468508D01*
X3700695Y-4447021D01*
X3700698Y-4447017D01*
X3700700Y-4447016D01*
X3772214Y-4364483D01*
X3786282Y-4348248D01*
X3827098Y-4258871D01*
X3873589Y-4205217D01*
X3941710Y-4185214D01*
X4009831Y-4205215D01*
X4030801Y-4222114D01*
X4156935Y-4348248D01*
X4280104Y-4471417D01*
X4280105Y-4471418D01*
X4343189Y-4507839D01*
X4343198Y-4507844D01*
X4413572Y-4526700D01*
X4413574Y-4526700D01*
X7255428Y-4526700D01*
X7255430Y-4526700D01*
X7325805Y-4507844D01*
X7388900Y-4471415D01*
X7794113Y-4066201D01*
X7856424Y-4032178D01*
X7883207Y-4029298D01*
X7959548Y-4029298D01*
X7959551Y-4029298D01*
X7992556Y-4019607D01*
X8063550Y-4019607D01*
X8123277Y-4057990D01*
X8123278Y-4057992D01*
X8172292Y-4114559D01*
X8172305Y-4114572D01*
X8189898Y-4132527D01*
X8189900Y-4132528D01*
X8269719Y-4177176D01*
X8328257Y-4194363D01*
X8337837Y-4197176D01*
X8395733Y-4205500D01*
X8395736Y-4205500D01*
X8870722Y-4205500D01*
X8870727Y-4205500D01*
X8878073Y-4204662D01*
X8948020Y-4216815D01*
X9000294Y-4264856D01*
X9018297Y-4333532D01*
X9006967Y-4382187D01*
X9003466Y-4389852D01*
X9003463Y-4389863D01*
X8984865Y-4519217D01*
X8984865Y-4519224D01*
X9003463Y-4648578D01*
X9003465Y-4648585D01*
X9057757Y-4767469D01*
X9057758Y-4767470D01*
X9136563Y-4858416D01*
X9166056Y-4922997D01*
X9167339Y-4940929D01*
X9167339Y-5043635D01*
X9147337Y-5111756D01*
X9093681Y-5158249D01*
X9041339Y-5169635D01*
X8983966Y-5169635D01*
X8858567Y-5206456D01*
X8748623Y-5277112D01*
X8748619Y-5277115D01*
X8663037Y-5375882D01*
X8608743Y-5494770D01*
X8608741Y-5494777D01*
X8590143Y-5624131D01*
X8590143Y-5624138D01*
X8608741Y-5753492D01*
X8608743Y-5753499D01*
X8626438Y-5792247D01*
X8663037Y-5872387D01*
X8748619Y-5971154D01*
X8748623Y-5971157D01*
X8794300Y-6000511D01*
X8858567Y-6041813D01*
X8858566Y-6041813D01*
X8983966Y-6078634D01*
X8983967Y-6078634D01*
X8983970Y-6078635D01*
X8983973Y-6078635D01*
X9114661Y-6078635D01*
X9114664Y-6078635D01*
X9240065Y-6041814D01*
X9350012Y-5971156D01*
X9393709Y-5920727D01*
X9435596Y-5872387D01*
X9435596Y-5872385D01*
X9435599Y-5872383D01*
X9489891Y-5753499D01*
X9490166Y-5751582D01*
X9508491Y-5624138D01*
X9508491Y-5615123D01*
X9510680Y-5615123D01*
X9519031Y-5556977D01*
X9544555Y-5520209D01*
X9665454Y-5399311D01*
X9701883Y-5336216D01*
X9720739Y-5265841D01*
X9720739Y-5192985D01*
X9720739Y-4940929D01*
X9740741Y-4872808D01*
X9751515Y-4858416D01*
X9830321Y-4767469D01*
X9884613Y-4648585D01*
X9884888Y-4646668D01*
X9903213Y-4519224D01*
X9903213Y-4519217D01*
X9884614Y-4389863D01*
X9884613Y-4389862D01*
X9884613Y-4389857D01*
X9830321Y-4270973D01*
X9830319Y-4270971D01*
X9830318Y-4270968D01*
X9744736Y-4172201D01*
X9744732Y-4172198D01*
X9634787Y-4101542D01*
X9634789Y-4101542D01*
X9509389Y-4064721D01*
X9509386Y-4064721D01*
X9378692Y-4064721D01*
X9378690Y-4064721D01*
X9353796Y-4072031D01*
X9282799Y-4072030D01*
X9223073Y-4033645D01*
X9193581Y-3969064D01*
X9194533Y-3927514D01*
X9195281Y-3923594D01*
X9198581Y-3895554D01*
X9202118Y-3865502D01*
X9106721Y-145022D01*
X9105312Y-125698D01*
X9102473Y-102145D01*
X9078813Y-28252D01*
X9044789Y34059D01*
X9009736Y80884D01*
X8627522Y463098D01*
X8627522Y463099D01*
X8342404Y748215D01*
X8308380Y810528D01*
X8305500Y837311D01*
X8305500Y2412690D01*
X8325502Y2480811D01*
X8342405Y2501785D01*
X9270557Y3429937D01*
X9332869Y3463963D01*
X9403684Y3458898D01*
X9448746Y3429939D01*
X9486394Y3392292D01*
X9520420Y3329980D01*
X9523300Y3303195D01*
X9523300Y2427238D01*
X9503298Y2359117D01*
X9486395Y2338143D01*
X9451471Y2303219D01*
X9451270Y2302824D01*
X9390281Y2183126D01*
X9369196Y2050000D01*
X9390281Y1916874D01*
X9390281Y1916872D01*
X9390282Y1916872D01*
X9451471Y1796780D01*
X9546780Y1701471D01*
X9666872Y1640282D01*
X9666874Y1640281D01*
X9800000Y1619196D01*
X9933126Y1640281D01*
X9993173Y1670876D01*
X10053219Y1701471D01*
X10148528Y1796780D01*
X10209719Y1916874D01*
X10230804Y2050000D01*
X10209719Y2183126D01*
X10148528Y2303220D01*
X10113605Y2338143D01*
X10079579Y2400455D01*
X10076700Y2427238D01*
X10076700Y3506425D01*
X10076700Y3506428D01*
X10061101Y3564645D01*
X10062791Y3635618D01*
X10102585Y3694414D01*
X10167850Y3722362D01*
X10237863Y3710588D01*
X10271902Y3686350D01*
X10296780Y3661471D01*
X10416872Y3600282D01*
X10416874Y3600281D01*
X10550000Y3579196D01*
X10683126Y3600281D01*
X10760879Y3639898D01*
X10803219Y3661471D01*
X10859942Y3718194D01*
X10922254Y3752220D01*
X10993069Y3747155D01*
X11006240Y3741366D01*
X11037375Y3725502D01*
X11086874Y3700281D01*
X11220000Y3679196D01*
X11353126Y3700281D01*
X11433760Y3741366D01*
X11473219Y3761471D01*
X11568528Y3856780D01*
X11615135Y3948252D01*
X11629719Y3976874D01*
X11650804Y4110000D01*
X11629719Y4243126D01*
X11568528Y4363220D01*
X11473220Y4458528D01*
X11353126Y4519719D01*
X11220000Y4540804D01*
X11219996Y4540803D01*
X11213510Y4541831D01*
X11149357Y4572243D01*
X11144144Y4577167D01*
X10870059Y4851252D01*
X10836035Y4913562D01*
X10841100Y4984377D01*
X10870061Y5029440D01*
X11285169Y5444548D01*
X11347481Y5478574D01*
X11418296Y5473509D01*
X11475132Y5430962D01*
X11487786Y5410122D01*
X11593095Y5191446D01*
X11595982Y5184995D01*
X11865946Y4533243D01*
X11868466Y4526640D01*
X12101453Y3860801D01*
X12103600Y3854067D01*
X12298897Y3176178D01*
X12300662Y3169335D01*
X12457636Y2481584D01*
X12459015Y2474652D01*
X12577183Y1779170D01*
X12578171Y1772171D01*
X12657155Y1071164D01*
X12657749Y1064122D01*
X12697328Y359343D01*
X12697523Y353161D01*
X12699993Y883D01*
X12699993Y-883D01*
X12697523Y-353161D01*
X12697328Y-359343D01*
X12657749Y-1064122D01*
X12657155Y-1071164D01*
X12578171Y-1772171D01*
X12577183Y-1779170D01*
X12459015Y-2474652D01*
X12457636Y-2481584D01*
X12300662Y-3169335D01*
X12298897Y-3176178D01*
X12103600Y-3854067D01*
X12101453Y-3860801D01*
X11868466Y-4526640D01*
X11865946Y-4533243D01*
X11595979Y-5185002D01*
X11593092Y-5191453D01*
X11287016Y-5827026D01*
X11283772Y-5833306D01*
X10942530Y-6450737D01*
X10938939Y-6456824D01*
X10563629Y-7054125D01*
X10559703Y-7060001D01*
X10151474Y-7635348D01*
X10147224Y-7640996D01*
X9707387Y-8192533D01*
X9702827Y-8197933D01*
X9232746Y-8723954D01*
X9227890Y-8729089D01*
X8729089Y-9227890D01*
X8723954Y-9232746D01*
X8197933Y-9702827D01*
X8192533Y-9707387D01*
X7640996Y-10147224D01*
X7635348Y-10151474D01*
X7060001Y-10559703D01*
X7054125Y-10563629D01*
X6456824Y-10938939D01*
X6450737Y-10942530D01*
X5833306Y-11283772D01*
X5827026Y-11287016D01*
X5191453Y-11593092D01*
X5185002Y-11595979D01*
X4533243Y-11865946D01*
X4526640Y-11868466D01*
X3860801Y-12101453D01*
X3854067Y-12103600D01*
X3176178Y-12298897D01*
X3169335Y-12300662D01*
X2481584Y-12457636D01*
X2474652Y-12459015D01*
X1779170Y-12577183D01*
X1772171Y-12578171D01*
X1071164Y-12657155D01*
X1064122Y-12657749D01*
X359784Y-12697304D01*
X352719Y-12697502D01*
X-352719Y-12697502D01*
X-359784Y-12697304D01*
X-1064122Y-12657749D01*
X-1071164Y-12657155D01*
X-1772171Y-12578171D01*
X-1779170Y-12577183D01*
X-2474652Y-12459015D01*
X-2481584Y-12457636D01*
X-3169335Y-12300662D01*
X-3176178Y-12298897D01*
X-3854067Y-12103600D01*
X-3860801Y-12101453D01*
X-4526640Y-11868466D01*
X-4533243Y-11865946D01*
X-5185002Y-11595979D01*
X-5191453Y-11593092D01*
X-5827026Y-11287016D01*
X-5833306Y-11283772D01*
X-6450737Y-10942530D01*
X-6456824Y-10938939D01*
X-7054125Y-10563629D01*
X-7060001Y-10559703D01*
X-7635348Y-10151474D01*
X-7640996Y-10147224D01*
X-8192533Y-9707387D01*
X-8197933Y-9702827D01*
X-8723954Y-9232746D01*
X-8729089Y-9227890D01*
X-9227890Y-8729089D01*
X-9232746Y-8723954D01*
X-9702827Y-8197933D01*
X-9707387Y-8192533D01*
X-10147224Y-7640996D01*
X-10151474Y-7635348D01*
X-10559703Y-7060001D01*
X-10563629Y-7054125D01*
X-10938939Y-6456824D01*
X-10942530Y-6450737D01*
X-11283772Y-5833306D01*
X-11287016Y-5827026D01*
X-11593092Y-5191453D01*
X-11595979Y-5185002D01*
X-11865946Y-4533243D01*
X-11868466Y-4526640D01*
X-12101453Y-3860801D01*
X-12103600Y-3854067D01*
X-12298897Y-3176178D01*
X-12300662Y-3169335D01*
X-12457636Y-2481584D01*
X-12459015Y-2474652D01*
X-12577183Y-1779170D01*
X-12578171Y-1772171D01*
X-12657155Y-1071164D01*
X-12657749Y-1064122D01*
X-12697304Y-359783D01*
X-12697502Y-352718D01*
X-12697502Y352718D01*
X-12697304Y359783D01*
X-12657749Y1064122D01*
X-12657155Y1071164D01*
X-12578171Y1772171D01*
X-12577183Y1779170D01*
X-12459015Y2474652D01*
X-12457636Y2481584D01*
X-12300662Y3169335D01*
X-12298897Y3176178D01*
X-12103600Y3854067D01*
X-12101453Y3860801D01*
X-11868466Y4526640D01*
X-11865946Y4533243D01*
X-11595979Y5185002D01*
X-11593092Y5191453D01*
X-11287016Y5827026D01*
X-11283772Y5833306D01*
X-10942530Y6450737D01*
X-10938939Y6456824D01*
X-10563629Y7054125D01*
X-10559703Y7060001D01*
X-10151474Y7635348D01*
X-10147224Y7640996D01*
X-9707387Y8192533D01*
X-9702827Y8197933D01*
X-9232746Y8723954D01*
X-9227890Y8729089D01*
X-8729089Y9227890D01*
X-8723954Y9232746D01*
X-8197933Y9702827D01*
X-8192533Y9707387D01*
X-7640996Y10147224D01*
X-7635348Y10151474D01*
X-7060001Y10559703D01*
X-7054125Y10563629D01*
X-6456824Y10938939D01*
X-6450737Y10942530D01*
X-6075348Y11150000D01*
X1869196Y11150000D01*
X1890281Y11016874D01*
X1890281Y11016872D01*
X1890282Y11016872D01*
X1951471Y10896780D01*
X1951473Y10896778D01*
X1986395Y10861857D01*
X2020421Y10799545D01*
X2023300Y10772762D01*
X2023300Y8963572D01*
X2042156Y8893197D01*
X2042157Y8893193D01*
X2078583Y8830105D01*
X2078588Y8830098D01*
X3032815Y7875871D01*
X3066840Y7813559D01*
X3068168Y7806488D01*
X3075576Y7759719D01*
X3090281Y7666874D01*
X3090281Y7666872D01*
X3090282Y7666872D01*
X3151471Y7546780D01*
X3246780Y7451471D01*
X3366872Y7390282D01*
X3366874Y7390281D01*
X3500000Y7369196D01*
X3633126Y7390281D01*
X3703872Y7426328D01*
X3753219Y7451471D01*
X3848528Y7546780D01*
X3877285Y7603219D01*
X3909719Y7666874D01*
X3930804Y7800000D01*
X3909719Y7933126D01*
X3848528Y8053220D01*
X3753220Y8148528D01*
X3633126Y8209719D01*
X3500000Y8230804D01*
X3499997Y8230803D01*
X3493511Y8231831D01*
X3429358Y8262243D01*
X3424144Y8267167D01*
X2613602Y9077710D01*
X2579579Y9140020D01*
X2576700Y9166803D01*
X2576700Y10772762D01*
X2596702Y10840883D01*
X2613605Y10861857D01*
X2648528Y10896780D01*
X2670009Y10938939D01*
X2709719Y11016874D01*
X2730804Y11150000D01*
X2709719Y11283126D01*
X2648528Y11403220D01*
X2553220Y11498528D01*
X2433126Y11559719D01*
X2300000Y11580804D01*
X2166874Y11559719D01*
X2046780Y11498528D01*
X1951472Y11403220D01*
X1890281Y11283126D01*
X1869196Y11150000D01*
X-6075348Y11150000D01*
X-5833306Y11283772D01*
X-5827026Y11287016D01*
X-5191453Y11593092D01*
X-5185002Y11595979D01*
X-4533243Y11865946D01*
X-4526640Y11868466D01*
X-3860801Y12101453D01*
X-3854067Y12103600D01*
X-3176178Y12298897D01*
X-3169335Y12300662D01*
X-2481584Y12457636D01*
X-2474652Y12459015D01*
X-1779170Y12577183D01*
X-1772171Y12578171D01*
X-1071164Y12657155D01*
X-1064122Y12657749D01*
X-359784Y12697304D01*
X-352719Y12697502D01*
X352719Y12697502D01*
X359784Y12697304D01*
G37*
%TD.AperFunction*%
%TD*%
%TA.AperFunction,Conductor*%
%TO.N,+BATT*%
G36*
X8064337Y6898423D02*
G01*
X8121173Y6855876D01*
X8142823Y6809782D01*
X8161356Y6732587D01*
X8161358Y6732581D01*
X8252193Y6513283D01*
X8376218Y6310894D01*
X8376219Y6310892D01*
X8530372Y6130402D01*
X8710862Y5976249D01*
X8710864Y5976248D01*
X8913253Y5852223D01*
X9132544Y5761390D01*
X9137714Y5760149D01*
X9263818Y6642889D01*
X9292097Y6623995D01*
X9410389Y6574996D01*
X9535968Y6550017D01*
X9664006Y6550017D01*
X9766625Y6570429D01*
X9632374Y5630660D01*
X9628188Y5631257D01*
X9624913Y5599866D01*
X9580539Y5544446D01*
X9565555Y5535451D01*
X9561780Y5533528D01*
X9561778Y5533526D01*
X9466471Y5438219D01*
X9450264Y5406411D01*
X9405281Y5318126D01*
X9394491Y5250000D01*
X9384196Y5184999D01*
X9400907Y5079487D01*
X9391807Y5009076D01*
X9346085Y4954762D01*
X9333665Y4947512D01*
X9305615Y4933220D01*
X9276780Y4918528D01*
X9180290Y4822038D01*
X9117978Y4788012D01*
X9047163Y4793077D01*
X8990327Y4835624D01*
X8978928Y4853930D01*
X8953705Y4903433D01*
X8938528Y4933220D01*
X8843220Y5028528D01*
X8723126Y5089719D01*
X8590000Y5110804D01*
X8456874Y5089719D01*
X8336780Y5028528D01*
X8241471Y4933219D01*
X8210876Y4873173D01*
X8180281Y4813126D01*
X8159196Y4680000D01*
X8180281Y4546874D01*
X8180281Y4546872D01*
X8180282Y4546872D01*
X8241471Y4426780D01*
X8336780Y4331471D01*
X8456872Y4270282D01*
X8456874Y4270281D01*
X8544448Y4256410D01*
X8596488Y4248168D01*
X8660641Y4217755D01*
X8665871Y4212814D01*
X9125247Y3753438D01*
X9159273Y3691126D01*
X9154208Y3620311D01*
X9125247Y3575248D01*
X8100000Y2550001D01*
X8100000Y700000D01*
X8099999Y700000D01*
X8482212Y317788D01*
X8864426Y-64426D01*
X8898450Y-126737D01*
X8901289Y-150290D01*
X8996686Y-3870770D01*
X8978436Y-3939381D01*
X8925990Y-3987234D01*
X8870727Y-4000000D01*
X8395733Y-4000000D01*
X8327612Y-3979998D01*
X8281119Y-3926342D01*
X8271015Y-3856068D01*
X8281117Y-3821663D01*
X8334778Y-3704162D01*
X8349825Y-3599511D01*
X8353378Y-3574801D01*
X8353378Y-3574794D01*
X8334779Y-3445440D01*
X8334778Y-3445439D01*
X8334778Y-3445434D01*
X8280486Y-3326550D01*
X8280484Y-3326548D01*
X8280483Y-3326545D01*
X8194901Y-3227778D01*
X8194897Y-3227775D01*
X8084952Y-3157119D01*
X8084954Y-3157119D01*
X7959554Y-3120298D01*
X7959551Y-3120298D01*
X7828857Y-3120298D01*
X7828853Y-3120298D01*
X7703454Y-3157119D01*
X7593510Y-3227775D01*
X7593506Y-3227778D01*
X7507924Y-3326545D01*
X7453630Y-3445433D01*
X7453628Y-3445440D01*
X7435030Y-3574794D01*
X7435030Y-3583809D01*
X7432846Y-3583809D01*
X7424471Y-3641990D01*
X7398962Y-3678725D01*
X7141294Y-3936395D01*
X7078982Y-3970420D01*
X7052198Y-3973300D01*
X4616803Y-3973300D01*
X4548682Y-3953298D01*
X4527712Y-3936399D01*
X3940187Y-3348874D01*
X3901522Y-3326550D01*
X3877095Y-3312446D01*
X3877092Y-3312445D01*
X3806717Y-3293589D01*
X3216139Y-3293589D01*
X3143283Y-3293589D01*
X3072908Y-3312445D01*
X3072904Y-3312446D01*
X3009816Y-3348872D01*
X3009809Y-3348877D01*
X2783893Y-3574794D01*
X2395590Y-3963096D01*
X2333280Y-3997120D01*
X2306497Y-4000000D01*
X1499998Y-4000000D01*
X36905Y-5463095D01*
X-25407Y-5497120D01*
X-52190Y-5500000D01*
X-5203951Y-5500000D01*
X-5272072Y-5479998D01*
X-5318565Y-5426342D01*
X-5328669Y-5356068D01*
X-5316741Y-5317837D01*
X-5275765Y-5235548D01*
X-5275759Y-5235531D01*
X-5214876Y-5021550D01*
X-5194348Y-4800011D01*
X-5214876Y-4578471D01*
X-5275759Y-4364490D01*
X-5275765Y-4364473D01*
X-5374929Y-4165326D01*
X-5374933Y-4165321D01*
X-5509008Y-3987775D01*
X-5673429Y-3837886D01*
X-5673430Y-3837885D01*
X-5862578Y-3720770D01*
X-5862594Y-3720762D01*
X-6070044Y-3640394D01*
X-6147665Y-3625884D01*
X-6288748Y-3599511D01*
X-6511234Y-3599511D01*
X-6690963Y-3633108D01*
X-6729937Y-3640394D01*
X-6937387Y-3720762D01*
X-6937392Y-3720764D01*
X-6937396Y-3720766D01*
X-6937403Y-3720770D01*
X-7126551Y-3837885D01*
X-7126552Y-3837886D01*
X-7289114Y-3986080D01*
X-7352932Y-4017191D01*
X-7423438Y-4008861D01*
X-7478248Y-3963735D01*
X-7499960Y-3896140D01*
X-7500000Y-3892965D01*
X-7500000Y-2626000D01*
X-7479998Y-2557879D01*
X-7426342Y-2511386D01*
X-7374000Y-2500000D01*
X-1500000Y-2500000D01*
X-644903Y-1644903D01*
X-582593Y-1610880D01*
X-555810Y-1608000D01*
X-254000Y-1608000D01*
X254000Y-1608000D01*
X1249187Y-1608000D01*
X1249196Y-1607999D01*
X1366107Y-1592608D01*
X1511578Y-1532352D01*
X1511581Y-1532350D01*
X1636498Y-1436498D01*
X1732350Y-1311581D01*
X1732352Y-1311578D01*
X1792608Y-1166107D01*
X1807999Y-1049196D01*
X1808000Y-1049187D01*
X1808000Y-904000D01*
X254000Y-904000D01*
X254000Y-1608000D01*
X-254000Y-1608000D01*
X-254000Y-1254000D01*
X604000Y-396000D01*
X1808000Y-396000D01*
X1808000Y-250813D01*
X1807999Y-250803D01*
X1793734Y-142446D01*
X1804673Y-72297D01*
X1851802Y-19199D01*
X1918656Y0D01*
X3000000Y0D01*
X3000000Y2500000D01*
X-1311582Y2500000D01*
X-1379703Y2520002D01*
X-1426196Y2573658D01*
X-1436029Y2606285D01*
X-1440281Y2633126D01*
X-1440281Y2633127D01*
X-1501471Y2753219D01*
X-1513095Y2764843D01*
X-1547121Y2827155D01*
X-1550000Y2853938D01*
X-1550000Y3126804D01*
X-1529998Y3194925D01*
X-1476342Y3241418D01*
X-1424000Y3252804D01*
X-1346367Y3252804D01*
X-1290384Y3239684D01*
X-1191092Y3190440D01*
X-1007870Y3144875D01*
X-1004000Y3144612D01*
X-1004000Y4178000D01*
X-983998Y4246121D01*
X-930342Y4292614D01*
X-878000Y4304000D01*
X-622000Y4304000D01*
X-553879Y4283998D01*
X-507386Y4230342D01*
X-496000Y4178000D01*
X-496000Y3144612D01*
X-492129Y3144875D01*
X-308907Y3190440D01*
X-139773Y3274322D01*
X-139764Y3274328D01*
X7383Y3392608D01*
X7387Y3392612D01*
X30598Y3421487D01*
X88866Y3462050D01*
X159814Y3464671D01*
X168527Y3461777D01*
X230249Y3449500D01*
X230252Y3449500D01*
X758127Y3449500D01*
X826248Y3429498D01*
X853352Y3406012D01*
X899306Y3352977D01*
X1009251Y3282321D01*
X1009249Y3282321D01*
X1134649Y3245500D01*
X1134653Y3245500D01*
X1265350Y3245500D01*
X1390749Y3282321D01*
X1500693Y3352977D01*
X1502782Y3355387D01*
X1546648Y3406012D01*
X1590408Y3456513D01*
X1650134Y3494896D01*
X1685632Y3500000D01*
X4500000Y3500000D01*
X5777719Y4752164D01*
X5840372Y4785558D01*
X5911133Y4779778D01*
X5914127Y4778582D01*
X6067737Y4714956D01*
X6224500Y4694318D01*
X6381260Y4714955D01*
X6527339Y4775463D01*
X6527342Y4775465D01*
X6532963Y4779778D01*
X6652782Y4871718D01*
X6749036Y4997159D01*
X6809544Y5143238D01*
X6830182Y5300000D01*
X6809544Y5456762D01*
X6751786Y5596201D01*
X6744198Y5666785D01*
X6775977Y5730272D01*
X6780005Y5734405D01*
X6940285Y5891479D01*
X7002938Y5924873D01*
X7008764Y5925936D01*
X7099324Y5940280D01*
X7219419Y6001471D01*
X7314728Y6096780D01*
X7342595Y6151472D01*
X7375919Y6216874D01*
X7397004Y6350000D01*
X7375919Y6483126D01*
X7314728Y6603220D01*
X7275478Y6642469D01*
X7241454Y6704778D01*
X7246518Y6775594D01*
X7289064Y6832430D01*
X7355584Y6857242D01*
X7421776Y6843830D01*
X7526870Y6790282D01*
X7526872Y6790281D01*
X7526874Y6790281D01*
X7660000Y6769196D01*
X7793126Y6790281D01*
X7898222Y6843830D01*
X7913219Y6851471D01*
X7931210Y6869462D01*
X7993522Y6903488D01*
X8064337Y6898423D01*
G37*
%TD.AperFunction*%
%TD*%
M02*
