%TF.GenerationSoftware,KiCad,Pcbnew,8.0.5*%
%TF.CreationDate,2024-11-25T09:23:58-07:00*%
%TF.ProjectId,NoteDetector,4e6f7465-4465-4746-9563-746f722e6b69,rev?*%
%TF.SameCoordinates,Original*%
%TF.FileFunction,Legend,Top*%
%TF.FilePolarity,Positive*%
%FSLAX46Y46*%
G04 Gerber Fmt 4.6, Leading zero omitted, Abs format (unit mm)*
G04 Created by KiCad (PCBNEW 8.0.5) date 2024-11-25 09:23:58*
%MOMM*%
%LPD*%
G01*
G04 APERTURE LIST*
%ADD10C,0.150000*%
%ADD11C,0.100000*%
%ADD12C,0.120000*%
G04 APERTURE END LIST*
D10*
X7400000Y-1450000D02*
G75*
G02*
X7000000Y-1450000I-200000J0D01*
G01*
X7000000Y-1450000D02*
G75*
G02*
X7400000Y-1450000I200000J0D01*
G01*
D11*
X-10148623Y5702068D02*
X-10148623Y5940163D01*
X-10148623Y5940163D02*
X-9648623Y5940163D01*
X-10148623Y5535401D02*
X-9815290Y5535401D01*
X-9648623Y5535401D02*
X-9672433Y5559210D01*
X-9672433Y5559210D02*
X-9696242Y5535401D01*
X-9696242Y5535401D02*
X-9672433Y5511591D01*
X-9672433Y5511591D02*
X-9648623Y5535401D01*
X-9648623Y5535401D02*
X-9696242Y5535401D01*
X-9815290Y5083020D02*
X-10220052Y5083020D01*
X-10220052Y5083020D02*
X-10267671Y5106830D01*
X-10267671Y5106830D02*
X-10291480Y5130639D01*
X-10291480Y5130639D02*
X-10315290Y5178258D01*
X-10315290Y5178258D02*
X-10315290Y5249687D01*
X-10315290Y5249687D02*
X-10291480Y5297306D01*
X-10124814Y5083020D02*
X-10148623Y5130639D01*
X-10148623Y5130639D02*
X-10148623Y5225877D01*
X-10148623Y5225877D02*
X-10124814Y5273496D01*
X-10124814Y5273496D02*
X-10101004Y5297306D01*
X-10101004Y5297306D02*
X-10053385Y5321115D01*
X-10053385Y5321115D02*
X-9910528Y5321115D01*
X-9910528Y5321115D02*
X-9862909Y5297306D01*
X-9862909Y5297306D02*
X-9839099Y5273496D01*
X-9839099Y5273496D02*
X-9815290Y5225877D01*
X-9815290Y5225877D02*
X-9815290Y5130639D01*
X-9815290Y5130639D02*
X-9839099Y5083020D01*
X-10148623Y4844925D02*
X-9648623Y4844925D01*
X-10148623Y4630639D02*
X-9886718Y4630639D01*
X-9886718Y4630639D02*
X-9839099Y4654449D01*
X-9839099Y4654449D02*
X-9815290Y4702068D01*
X-9815290Y4702068D02*
X-9815290Y4773496D01*
X-9815290Y4773496D02*
X-9839099Y4821115D01*
X-9839099Y4821115D02*
X-9862909Y4844925D01*
X-9815290Y4463972D02*
X-9815290Y4273496D01*
X-9648623Y4392544D02*
X-10077194Y4392544D01*
X-10077194Y4392544D02*
X-10124814Y4368734D01*
X-10124814Y4368734D02*
X-10148623Y4321115D01*
X-10148623Y4321115D02*
X-10148623Y4273496D01*
X-9815290Y3892544D02*
X-10148623Y3892544D01*
X-9815290Y4106830D02*
X-10077194Y4106830D01*
X-10077194Y4106830D02*
X-10124814Y4083020D01*
X-10124814Y4083020D02*
X-10148623Y4035401D01*
X-10148623Y4035401D02*
X-10148623Y3963973D01*
X-10148623Y3963973D02*
X-10124814Y3916354D01*
X-10124814Y3916354D02*
X-10101004Y3892544D01*
X-9815290Y3654449D02*
X-10315290Y3654449D01*
X-9839099Y3654449D02*
X-9815290Y3606830D01*
X-9815290Y3606830D02*
X-9815290Y3511592D01*
X-9815290Y3511592D02*
X-9839099Y3463973D01*
X-9839099Y3463973D02*
X-9862909Y3440163D01*
X-9862909Y3440163D02*
X-9910528Y3416354D01*
X-9910528Y3416354D02*
X-10053385Y3416354D01*
X-10053385Y3416354D02*
X-10101004Y3440163D01*
X-10101004Y3440163D02*
X-10124814Y3463973D01*
X-10124814Y3463973D02*
X-10148623Y3511592D01*
X-10148623Y3511592D02*
X-10148623Y3606830D01*
X-10148623Y3606830D02*
X-10124814Y3654449D01*
X-9815290Y2821116D02*
X-10148623Y2821116D01*
X-9862909Y2821116D02*
X-9839099Y2797306D01*
X-9839099Y2797306D02*
X-9815290Y2749687D01*
X-9815290Y2749687D02*
X-9815290Y2678259D01*
X-9815290Y2678259D02*
X-9839099Y2630640D01*
X-9839099Y2630640D02*
X-9886718Y2606830D01*
X-9886718Y2606830D02*
X-10148623Y2606830D01*
X-10148623Y2297306D02*
X-10124814Y2344925D01*
X-10124814Y2344925D02*
X-10101004Y2368735D01*
X-10101004Y2368735D02*
X-10053385Y2392544D01*
X-10053385Y2392544D02*
X-9910528Y2392544D01*
X-9910528Y2392544D02*
X-9862909Y2368735D01*
X-9862909Y2368735D02*
X-9839099Y2344925D01*
X-9839099Y2344925D02*
X-9815290Y2297306D01*
X-9815290Y2297306D02*
X-9815290Y2225878D01*
X-9815290Y2225878D02*
X-9839099Y2178259D01*
X-9839099Y2178259D02*
X-9862909Y2154449D01*
X-9862909Y2154449D02*
X-9910528Y2130640D01*
X-9910528Y2130640D02*
X-10053385Y2130640D01*
X-10053385Y2130640D02*
X-10101004Y2154449D01*
X-10101004Y2154449D02*
X-10124814Y2178259D01*
X-10124814Y2178259D02*
X-10148623Y2225878D01*
X-10148623Y2225878D02*
X-10148623Y2297306D01*
X-9815290Y1987782D02*
X-9815290Y1797306D01*
X-9648623Y1916354D02*
X-10077194Y1916354D01*
X-10077194Y1916354D02*
X-10124814Y1892544D01*
X-10124814Y1892544D02*
X-10148623Y1844925D01*
X-10148623Y1844925D02*
X-10148623Y1797306D01*
X-10124814Y1440164D02*
X-10148623Y1487783D01*
X-10148623Y1487783D02*
X-10148623Y1583021D01*
X-10148623Y1583021D02*
X-10124814Y1630640D01*
X-10124814Y1630640D02*
X-10077194Y1654449D01*
X-10077194Y1654449D02*
X-9886718Y1654449D01*
X-9886718Y1654449D02*
X-9839099Y1630640D01*
X-9839099Y1630640D02*
X-9815290Y1583021D01*
X-9815290Y1583021D02*
X-9815290Y1487783D01*
X-9815290Y1487783D02*
X-9839099Y1440164D01*
X-9839099Y1440164D02*
X-9886718Y1416354D01*
X-9886718Y1416354D02*
X-9934337Y1416354D01*
X-9934337Y1416354D02*
X-9981956Y1654449D01*
X-10953595Y5725877D02*
X-10453595Y5725877D01*
X-10929786Y5725877D02*
X-10953595Y5773496D01*
X-10953595Y5773496D02*
X-10953595Y5868734D01*
X-10953595Y5868734D02*
X-10929786Y5916353D01*
X-10929786Y5916353D02*
X-10905976Y5940163D01*
X-10905976Y5940163D02*
X-10858357Y5963972D01*
X-10858357Y5963972D02*
X-10715500Y5963972D01*
X-10715500Y5963972D02*
X-10667881Y5940163D01*
X-10667881Y5940163D02*
X-10644071Y5916353D01*
X-10644071Y5916353D02*
X-10620262Y5868734D01*
X-10620262Y5868734D02*
X-10620262Y5773496D01*
X-10620262Y5773496D02*
X-10644071Y5725877D01*
X-10929786Y5297306D02*
X-10953595Y5344925D01*
X-10953595Y5344925D02*
X-10953595Y5440163D01*
X-10953595Y5440163D02*
X-10929786Y5487782D01*
X-10929786Y5487782D02*
X-10882166Y5511591D01*
X-10882166Y5511591D02*
X-10691690Y5511591D01*
X-10691690Y5511591D02*
X-10644071Y5487782D01*
X-10644071Y5487782D02*
X-10620262Y5440163D01*
X-10620262Y5440163D02*
X-10620262Y5344925D01*
X-10620262Y5344925D02*
X-10644071Y5297306D01*
X-10644071Y5297306D02*
X-10691690Y5273496D01*
X-10691690Y5273496D02*
X-10739309Y5273496D01*
X-10739309Y5273496D02*
X-10786928Y5511591D01*
X-10620262Y5130639D02*
X-10620262Y4940163D01*
X-10453595Y5059211D02*
X-10882166Y5059211D01*
X-10882166Y5059211D02*
X-10929786Y5035401D01*
X-10929786Y5035401D02*
X-10953595Y4987782D01*
X-10953595Y4987782D02*
X-10953595Y4940163D01*
X-10929786Y4583021D02*
X-10953595Y4630640D01*
X-10953595Y4630640D02*
X-10953595Y4725878D01*
X-10953595Y4725878D02*
X-10929786Y4773497D01*
X-10929786Y4773497D02*
X-10882166Y4797306D01*
X-10882166Y4797306D02*
X-10691690Y4797306D01*
X-10691690Y4797306D02*
X-10644071Y4773497D01*
X-10644071Y4773497D02*
X-10620262Y4725878D01*
X-10620262Y4725878D02*
X-10620262Y4630640D01*
X-10620262Y4630640D02*
X-10644071Y4583021D01*
X-10644071Y4583021D02*
X-10691690Y4559211D01*
X-10691690Y4559211D02*
X-10739309Y4559211D01*
X-10739309Y4559211D02*
X-10786928Y4797306D01*
X-10929786Y4130640D02*
X-10953595Y4178259D01*
X-10953595Y4178259D02*
X-10953595Y4273497D01*
X-10953595Y4273497D02*
X-10929786Y4321116D01*
X-10929786Y4321116D02*
X-10905976Y4344926D01*
X-10905976Y4344926D02*
X-10858357Y4368735D01*
X-10858357Y4368735D02*
X-10715500Y4368735D01*
X-10715500Y4368735D02*
X-10667881Y4344926D01*
X-10667881Y4344926D02*
X-10644071Y4321116D01*
X-10644071Y4321116D02*
X-10620262Y4273497D01*
X-10620262Y4273497D02*
X-10620262Y4178259D01*
X-10620262Y4178259D02*
X-10644071Y4130640D01*
X-10620262Y3987783D02*
X-10620262Y3797307D01*
X-10453595Y3916355D02*
X-10882166Y3916355D01*
X-10882166Y3916355D02*
X-10929786Y3892545D01*
X-10929786Y3892545D02*
X-10953595Y3844926D01*
X-10953595Y3844926D02*
X-10953595Y3797307D01*
X-10953595Y3559212D02*
X-10929786Y3606831D01*
X-10929786Y3606831D02*
X-10905976Y3630641D01*
X-10905976Y3630641D02*
X-10858357Y3654450D01*
X-10858357Y3654450D02*
X-10715500Y3654450D01*
X-10715500Y3654450D02*
X-10667881Y3630641D01*
X-10667881Y3630641D02*
X-10644071Y3606831D01*
X-10644071Y3606831D02*
X-10620262Y3559212D01*
X-10620262Y3559212D02*
X-10620262Y3487784D01*
X-10620262Y3487784D02*
X-10644071Y3440165D01*
X-10644071Y3440165D02*
X-10667881Y3416355D01*
X-10667881Y3416355D02*
X-10715500Y3392546D01*
X-10715500Y3392546D02*
X-10858357Y3392546D01*
X-10858357Y3392546D02*
X-10905976Y3416355D01*
X-10905976Y3416355D02*
X-10929786Y3440165D01*
X-10929786Y3440165D02*
X-10953595Y3487784D01*
X-10953595Y3487784D02*
X-10953595Y3559212D01*
X-10953595Y3178260D02*
X-10620262Y3178260D01*
X-10715500Y3178260D02*
X-10667881Y3154450D01*
X-10667881Y3154450D02*
X-10644071Y3130641D01*
X-10644071Y3130641D02*
X-10620262Y3083022D01*
X-10620262Y3083022D02*
X-10620262Y3035403D01*
D10*
X7878571Y6430228D02*
X8078571Y5830228D01*
X8078571Y5830228D02*
X8278571Y6430228D01*
X8478572Y6058800D02*
X8935715Y6058800D01*
X8707143Y5830228D02*
X8707143Y6287371D01*
D11*
X-12001109Y2904449D02*
X-11763014Y3071115D01*
X-12001109Y3190163D02*
X-11501109Y3190163D01*
X-11501109Y3190163D02*
X-11501109Y2999687D01*
X-11501109Y2999687D02*
X-11524919Y2952068D01*
X-11524919Y2952068D02*
X-11548728Y2928258D01*
X-11548728Y2928258D02*
X-11596347Y2904449D01*
X-11596347Y2904449D02*
X-11667776Y2904449D01*
X-11667776Y2904449D02*
X-11715395Y2928258D01*
X-11715395Y2928258D02*
X-11739204Y2952068D01*
X-11739204Y2952068D02*
X-11763014Y2999687D01*
X-11763014Y2999687D02*
X-11763014Y3190163D01*
X-11977300Y2499687D02*
X-12001109Y2547306D01*
X-12001109Y2547306D02*
X-12001109Y2642544D01*
X-12001109Y2642544D02*
X-11977300Y2690163D01*
X-11977300Y2690163D02*
X-11929680Y2713972D01*
X-11929680Y2713972D02*
X-11739204Y2713972D01*
X-11739204Y2713972D02*
X-11691585Y2690163D01*
X-11691585Y2690163D02*
X-11667776Y2642544D01*
X-11667776Y2642544D02*
X-11667776Y2547306D01*
X-11667776Y2547306D02*
X-11691585Y2499687D01*
X-11691585Y2499687D02*
X-11739204Y2475877D01*
X-11739204Y2475877D02*
X-11786823Y2475877D01*
X-11786823Y2475877D02*
X-11834442Y2713972D01*
X-11667776Y2309211D02*
X-12001109Y2190163D01*
X-12001109Y2190163D02*
X-11667776Y2071116D01*
X-11501109Y1261593D02*
X-11501109Y1499688D01*
X-11501109Y1499688D02*
X-11739204Y1523497D01*
X-11739204Y1523497D02*
X-11715395Y1499688D01*
X-11715395Y1499688D02*
X-11691585Y1452069D01*
X-11691585Y1452069D02*
X-11691585Y1333021D01*
X-11691585Y1333021D02*
X-11715395Y1285402D01*
X-11715395Y1285402D02*
X-11739204Y1261593D01*
X-11739204Y1261593D02*
X-11786823Y1237783D01*
X-11786823Y1237783D02*
X-11905871Y1237783D01*
X-11905871Y1237783D02*
X-11953490Y1261593D01*
X-11953490Y1261593D02*
X-11977300Y1285402D01*
X-11977300Y1285402D02*
X-12001109Y1333021D01*
X-12001109Y1333021D02*
X-12001109Y1452069D01*
X-12001109Y1452069D02*
X-11977300Y1499688D01*
X-11977300Y1499688D02*
X-11953490Y1523497D01*
X-12001109Y642546D02*
X-11501109Y642546D01*
X-11501109Y642546D02*
X-12001109Y356832D01*
X-12001109Y356832D02*
X-11501109Y356832D01*
X-12001109Y47307D02*
X-11977300Y94926D01*
X-11977300Y94926D02*
X-11953490Y118736D01*
X-11953490Y118736D02*
X-11905871Y142545D01*
X-11905871Y142545D02*
X-11763014Y142545D01*
X-11763014Y142545D02*
X-11715395Y118736D01*
X-11715395Y118736D02*
X-11691585Y94926D01*
X-11691585Y94926D02*
X-11667776Y47307D01*
X-11667776Y47307D02*
X-11667776Y-24120D01*
X-11667776Y-24120D02*
X-11691585Y-71739D01*
X-11691585Y-71739D02*
X-11715395Y-95549D01*
X-11715395Y-95549D02*
X-11763014Y-119358D01*
X-11763014Y-119358D02*
X-11905871Y-119358D01*
X-11905871Y-119358D02*
X-11953490Y-95549D01*
X-11953490Y-95549D02*
X-11977300Y-71739D01*
X-11977300Y-71739D02*
X-12001109Y-24120D01*
X-12001109Y-24120D02*
X-12001109Y47307D01*
X-11667776Y-286025D02*
X-12001109Y-405073D01*
X-12001109Y-405073D02*
X-11667776Y-524120D01*
X-11548728Y-1071739D02*
X-11524919Y-1095548D01*
X-11524919Y-1095548D02*
X-11501109Y-1143167D01*
X-11501109Y-1143167D02*
X-11501109Y-1262215D01*
X-11501109Y-1262215D02*
X-11524919Y-1309834D01*
X-11524919Y-1309834D02*
X-11548728Y-1333643D01*
X-11548728Y-1333643D02*
X-11596347Y-1357453D01*
X-11596347Y-1357453D02*
X-11643966Y-1357453D01*
X-11643966Y-1357453D02*
X-11715395Y-1333643D01*
X-11715395Y-1333643D02*
X-12001109Y-1047929D01*
X-12001109Y-1047929D02*
X-12001109Y-1357453D01*
X-11501109Y-1666976D02*
X-11501109Y-1714595D01*
X-11501109Y-1714595D02*
X-11524919Y-1762214D01*
X-11524919Y-1762214D02*
X-11548728Y-1786024D01*
X-11548728Y-1786024D02*
X-11596347Y-1809833D01*
X-11596347Y-1809833D02*
X-11691585Y-1833643D01*
X-11691585Y-1833643D02*
X-11810633Y-1833643D01*
X-11810633Y-1833643D02*
X-11905871Y-1809833D01*
X-11905871Y-1809833D02*
X-11953490Y-1786024D01*
X-11953490Y-1786024D02*
X-11977300Y-1762214D01*
X-11977300Y-1762214D02*
X-12001109Y-1714595D01*
X-12001109Y-1714595D02*
X-12001109Y-1666976D01*
X-12001109Y-1666976D02*
X-11977300Y-1619357D01*
X-11977300Y-1619357D02*
X-11953490Y-1595548D01*
X-11953490Y-1595548D02*
X-11905871Y-1571738D01*
X-11905871Y-1571738D02*
X-11810633Y-1547929D01*
X-11810633Y-1547929D02*
X-11691585Y-1547929D01*
X-11691585Y-1547929D02*
X-11596347Y-1571738D01*
X-11596347Y-1571738D02*
X-11548728Y-1595548D01*
X-11548728Y-1595548D02*
X-11524919Y-1619357D01*
X-11524919Y-1619357D02*
X-11501109Y-1666976D01*
X-11548728Y-2024119D02*
X-11524919Y-2047928D01*
X-11524919Y-2047928D02*
X-11501109Y-2095547D01*
X-11501109Y-2095547D02*
X-11501109Y-2214595D01*
X-11501109Y-2214595D02*
X-11524919Y-2262214D01*
X-11524919Y-2262214D02*
X-11548728Y-2286023D01*
X-11548728Y-2286023D02*
X-11596347Y-2309833D01*
X-11596347Y-2309833D02*
X-11643966Y-2309833D01*
X-11643966Y-2309833D02*
X-11715395Y-2286023D01*
X-11715395Y-2286023D02*
X-12001109Y-2000309D01*
X-12001109Y-2000309D02*
X-12001109Y-2309833D01*
X-11667776Y-2738404D02*
X-12001109Y-2738404D01*
X-11477300Y-2619356D02*
X-11834442Y-2500309D01*
X-11834442Y-2500309D02*
X-11834442Y-2809832D01*
D10*
X-6835714Y-2948342D02*
X-6892857Y-2919771D01*
X-6892857Y-2919771D02*
X-6978571Y-2919771D01*
X-6978571Y-2919771D02*
X-7064285Y-2948342D01*
X-7064285Y-2948342D02*
X-7121428Y-3005485D01*
X-7121428Y-3005485D02*
X-7149999Y-3062628D01*
X-7149999Y-3062628D02*
X-7178571Y-3176914D01*
X-7178571Y-3176914D02*
X-7178571Y-3262628D01*
X-7178571Y-3262628D02*
X-7149999Y-3376914D01*
X-7149999Y-3376914D02*
X-7121428Y-3434057D01*
X-7121428Y-3434057D02*
X-7064285Y-3491200D01*
X-7064285Y-3491200D02*
X-6978571Y-3519771D01*
X-6978571Y-3519771D02*
X-6921428Y-3519771D01*
X-6921428Y-3519771D02*
X-6835714Y-3491200D01*
X-6835714Y-3491200D02*
X-6807142Y-3462628D01*
X-6807142Y-3462628D02*
X-6807142Y-3262628D01*
X-6807142Y-3262628D02*
X-6921428Y-3262628D01*
X-6549999Y-3119771D02*
X-6549999Y-3519771D01*
X-6549999Y-3176914D02*
X-6521428Y-3148342D01*
X-6521428Y-3148342D02*
X-6464285Y-3119771D01*
X-6464285Y-3119771D02*
X-6378571Y-3119771D01*
X-6378571Y-3119771D02*
X-6321428Y-3148342D01*
X-6321428Y-3148342D02*
X-6292857Y-3205485D01*
X-6292857Y-3205485D02*
X-6292857Y-3519771D01*
X-5750000Y-3519771D02*
X-5750000Y-2919771D01*
X-5750000Y-3491200D02*
X-5807142Y-3519771D01*
X-5807142Y-3519771D02*
X-5921428Y-3519771D01*
X-5921428Y-3519771D02*
X-5978571Y-3491200D01*
X-5978571Y-3491200D02*
X-6007142Y-3462628D01*
X-6007142Y-3462628D02*
X-6035714Y-3405485D01*
X-6035714Y-3405485D02*
X-6035714Y-3234057D01*
X-6035714Y-3234057D02*
X-6007142Y-3176914D01*
X-6007142Y-3176914D02*
X-5978571Y-3148342D01*
X-5978571Y-3148342D02*
X-5921428Y-3119771D01*
X-5921428Y-3119771D02*
X-5807142Y-3119771D01*
X-5807142Y-3119771D02*
X-5750000Y-3148342D01*
D11*
X-1534771Y-9749999D02*
X-1506200Y-9778571D01*
X-1506200Y-9778571D02*
X-1477628Y-9864285D01*
X-1477628Y-9864285D02*
X-1477628Y-9921428D01*
X-1477628Y-9921428D02*
X-1506200Y-10007142D01*
X-1506200Y-10007142D02*
X-1563342Y-10064285D01*
X-1563342Y-10064285D02*
X-1620485Y-10092856D01*
X-1620485Y-10092856D02*
X-1734771Y-10121428D01*
X-1734771Y-10121428D02*
X-1820485Y-10121428D01*
X-1820485Y-10121428D02*
X-1934771Y-10092856D01*
X-1934771Y-10092856D02*
X-1991914Y-10064285D01*
X-1991914Y-10064285D02*
X-2049057Y-10007142D01*
X-2049057Y-10007142D02*
X-2077628Y-9921428D01*
X-2077628Y-9921428D02*
X-2077628Y-9864285D01*
X-2077628Y-9864285D02*
X-2049057Y-9778571D01*
X-2049057Y-9778571D02*
X-2020485Y-9749999D01*
X-1820485Y-9407142D02*
X-1849057Y-9464285D01*
X-1849057Y-9464285D02*
X-1877628Y-9492856D01*
X-1877628Y-9492856D02*
X-1934771Y-9521428D01*
X-1934771Y-9521428D02*
X-1963342Y-9521428D01*
X-1963342Y-9521428D02*
X-2020485Y-9492856D01*
X-2020485Y-9492856D02*
X-2049057Y-9464285D01*
X-2049057Y-9464285D02*
X-2077628Y-9407142D01*
X-2077628Y-9407142D02*
X-2077628Y-9292856D01*
X-2077628Y-9292856D02*
X-2049057Y-9235714D01*
X-2049057Y-9235714D02*
X-2020485Y-9207142D01*
X-2020485Y-9207142D02*
X-1963342Y-9178571D01*
X-1963342Y-9178571D02*
X-1934771Y-9178571D01*
X-1934771Y-9178571D02*
X-1877628Y-9207142D01*
X-1877628Y-9207142D02*
X-1849057Y-9235714D01*
X-1849057Y-9235714D02*
X-1820485Y-9292856D01*
X-1820485Y-9292856D02*
X-1820485Y-9407142D01*
X-1820485Y-9407142D02*
X-1791914Y-9464285D01*
X-1791914Y-9464285D02*
X-1763342Y-9492856D01*
X-1763342Y-9492856D02*
X-1706200Y-9521428D01*
X-1706200Y-9521428D02*
X-1591914Y-9521428D01*
X-1591914Y-9521428D02*
X-1534771Y-9492856D01*
X-1534771Y-9492856D02*
X-1506200Y-9464285D01*
X-1506200Y-9464285D02*
X-1477628Y-9407142D01*
X-1477628Y-9407142D02*
X-1477628Y-9292856D01*
X-1477628Y-9292856D02*
X-1506200Y-9235714D01*
X-1506200Y-9235714D02*
X-1534771Y-9207142D01*
X-1534771Y-9207142D02*
X-1591914Y-9178571D01*
X-1591914Y-9178571D02*
X-1706200Y-9178571D01*
X-1706200Y-9178571D02*
X-1763342Y-9207142D01*
X-1763342Y-9207142D02*
X-1791914Y-9235714D01*
X-1791914Y-9235714D02*
X-1820485Y-9292856D01*
X-8182142Y920485D02*
X-8239285Y949057D01*
X-8239285Y949057D02*
X-8296428Y1006200D01*
X-8296428Y1006200D02*
X-8382142Y1091914D01*
X-8382142Y1091914D02*
X-8439285Y1120485D01*
X-8439285Y1120485D02*
X-8496428Y1120485D01*
X-8467857Y977628D02*
X-8525000Y1006200D01*
X-8525000Y1006200D02*
X-8582142Y1063342D01*
X-8582142Y1063342D02*
X-8610714Y1177628D01*
X-8610714Y1177628D02*
X-8610714Y1377628D01*
X-8610714Y1377628D02*
X-8582142Y1491914D01*
X-8582142Y1491914D02*
X-8525000Y1549057D01*
X-8525000Y1549057D02*
X-8467857Y1577628D01*
X-8467857Y1577628D02*
X-8353571Y1577628D01*
X-8353571Y1577628D02*
X-8296428Y1549057D01*
X-8296428Y1549057D02*
X-8239285Y1491914D01*
X-8239285Y1491914D02*
X-8210714Y1377628D01*
X-8210714Y1377628D02*
X-8210714Y1177628D01*
X-8210714Y1177628D02*
X-8239285Y1063342D01*
X-8239285Y1063342D02*
X-8296428Y1006200D01*
X-8296428Y1006200D02*
X-8353571Y977628D01*
X-8353571Y977628D02*
X-8467857Y977628D01*
X-7667857Y1577628D02*
X-7953571Y1577628D01*
X-7953571Y1577628D02*
X-7982143Y1291914D01*
X-7982143Y1291914D02*
X-7953571Y1320485D01*
X-7953571Y1320485D02*
X-7896429Y1349057D01*
X-7896429Y1349057D02*
X-7753571Y1349057D01*
X-7753571Y1349057D02*
X-7696429Y1320485D01*
X-7696429Y1320485D02*
X-7667857Y1291914D01*
X-7667857Y1291914D02*
X-7639286Y1234771D01*
X-7639286Y1234771D02*
X-7639286Y1091914D01*
X-7639286Y1091914D02*
X-7667857Y1034771D01*
X-7667857Y1034771D02*
X-7696429Y1006200D01*
X-7696429Y1006200D02*
X-7753571Y977628D01*
X-7753571Y977628D02*
X-7896429Y977628D01*
X-7896429Y977628D02*
X-7953571Y1006200D01*
X-7953571Y1006200D02*
X-7982143Y1034771D01*
X-235714Y-2597371D02*
X-435714Y-2311657D01*
X-578571Y-2597371D02*
X-578571Y-1997371D01*
X-578571Y-1997371D02*
X-350000Y-1997371D01*
X-350000Y-1997371D02*
X-292857Y-2025942D01*
X-292857Y-2025942D02*
X-264286Y-2054514D01*
X-264286Y-2054514D02*
X-235714Y-2111657D01*
X-235714Y-2111657D02*
X-235714Y-2197371D01*
X-235714Y-2197371D02*
X-264286Y-2254514D01*
X-264286Y-2254514D02*
X-292857Y-2283085D01*
X-292857Y-2283085D02*
X-350000Y-2311657D01*
X-350000Y-2311657D02*
X-578571Y-2311657D01*
X335713Y-2597371D02*
X-7143Y-2597371D01*
X164285Y-2597371D02*
X164285Y-1997371D01*
X164285Y-1997371D02*
X107142Y-2083085D01*
X107142Y-2083085D02*
X49999Y-2140228D01*
X49999Y-2140228D02*
X-7143Y-2168800D01*
X907142Y-2597371D02*
X564285Y-2597371D01*
X735714Y-2597371D02*
X735714Y-1997371D01*
X735714Y-1997371D02*
X678571Y-2083085D01*
X678571Y-2083085D02*
X621428Y-2140228D01*
X621428Y-2140228D02*
X564285Y-2168800D01*
X1422371Y5214285D02*
X1136657Y5014285D01*
X1422371Y4871428D02*
X822371Y4871428D01*
X822371Y4871428D02*
X822371Y5099999D01*
X822371Y5099999D02*
X850942Y5157142D01*
X850942Y5157142D02*
X879514Y5185713D01*
X879514Y5185713D02*
X936657Y5214285D01*
X936657Y5214285D02*
X1022371Y5214285D01*
X1022371Y5214285D02*
X1079514Y5185713D01*
X1079514Y5185713D02*
X1108085Y5157142D01*
X1108085Y5157142D02*
X1136657Y5099999D01*
X1136657Y5099999D02*
X1136657Y4871428D01*
X879514Y5442856D02*
X850942Y5471428D01*
X850942Y5471428D02*
X822371Y5528571D01*
X822371Y5528571D02*
X822371Y5671428D01*
X822371Y5671428D02*
X850942Y5728571D01*
X850942Y5728571D02*
X879514Y5757142D01*
X879514Y5757142D02*
X936657Y5785713D01*
X936657Y5785713D02*
X993800Y5785713D01*
X993800Y5785713D02*
X1079514Y5757142D01*
X1079514Y5757142D02*
X1422371Y5414285D01*
X1422371Y5414285D02*
X1422371Y5785713D01*
X822371Y6157142D02*
X822371Y6214285D01*
X822371Y6214285D02*
X850942Y6271428D01*
X850942Y6271428D02*
X879514Y6300000D01*
X879514Y6300000D02*
X936657Y6328571D01*
X936657Y6328571D02*
X1050942Y6357142D01*
X1050942Y6357142D02*
X1193800Y6357142D01*
X1193800Y6357142D02*
X1308085Y6328571D01*
X1308085Y6328571D02*
X1365228Y6300000D01*
X1365228Y6300000D02*
X1393800Y6271428D01*
X1393800Y6271428D02*
X1422371Y6214285D01*
X1422371Y6214285D02*
X1422371Y6157142D01*
X1422371Y6157142D02*
X1393800Y6100000D01*
X1393800Y6100000D02*
X1365228Y6071428D01*
X1365228Y6071428D02*
X1308085Y6042857D01*
X1308085Y6042857D02*
X1193800Y6014285D01*
X1193800Y6014285D02*
X1050942Y6014285D01*
X1050942Y6014285D02*
X936657Y6042857D01*
X936657Y6042857D02*
X879514Y6071428D01*
X879514Y6071428D02*
X850942Y6100000D01*
X850942Y6100000D02*
X822371Y6157142D01*
X-3177628Y-6085714D02*
X-3463342Y-6285714D01*
X-3177628Y-6428571D02*
X-3777628Y-6428571D01*
X-3777628Y-6428571D02*
X-3777628Y-6200000D01*
X-3777628Y-6200000D02*
X-3749057Y-6142857D01*
X-3749057Y-6142857D02*
X-3720485Y-6114286D01*
X-3720485Y-6114286D02*
X-3663342Y-6085714D01*
X-3663342Y-6085714D02*
X-3577628Y-6085714D01*
X-3577628Y-6085714D02*
X-3520485Y-6114286D01*
X-3520485Y-6114286D02*
X-3491914Y-6142857D01*
X-3491914Y-6142857D02*
X-3463342Y-6200000D01*
X-3463342Y-6200000D02*
X-3463342Y-6428571D01*
X-3177628Y-5514286D02*
X-3177628Y-5857143D01*
X-3177628Y-5685714D02*
X-3777628Y-5685714D01*
X-3777628Y-5685714D02*
X-3691914Y-5742857D01*
X-3691914Y-5742857D02*
X-3634771Y-5800000D01*
X-3634771Y-5800000D02*
X-3606200Y-5857143D01*
X-3777628Y-5000000D02*
X-3777628Y-5114285D01*
X-3777628Y-5114285D02*
X-3749057Y-5171428D01*
X-3749057Y-5171428D02*
X-3720485Y-5200000D01*
X-3720485Y-5200000D02*
X-3634771Y-5257142D01*
X-3634771Y-5257142D02*
X-3520485Y-5285714D01*
X-3520485Y-5285714D02*
X-3291914Y-5285714D01*
X-3291914Y-5285714D02*
X-3234771Y-5257142D01*
X-3234771Y-5257142D02*
X-3206200Y-5228571D01*
X-3206200Y-5228571D02*
X-3177628Y-5171428D01*
X-3177628Y-5171428D02*
X-3177628Y-5057142D01*
X-3177628Y-5057142D02*
X-3206200Y-5000000D01*
X-3206200Y-5000000D02*
X-3234771Y-4971428D01*
X-3234771Y-4971428D02*
X-3291914Y-4942857D01*
X-3291914Y-4942857D02*
X-3434771Y-4942857D01*
X-3434771Y-4942857D02*
X-3491914Y-4971428D01*
X-3491914Y-4971428D02*
X-3520485Y-5000000D01*
X-3520485Y-5000000D02*
X-3549057Y-5057142D01*
X-3549057Y-5057142D02*
X-3549057Y-5171428D01*
X-3549057Y-5171428D02*
X-3520485Y-5228571D01*
X-3520485Y-5228571D02*
X-3491914Y-5257142D01*
X-3491914Y-5257142D02*
X-3434771Y-5285714D01*
X-10261383Y-2565228D02*
X-10289955Y-2593800D01*
X-10289955Y-2593800D02*
X-10375669Y-2622371D01*
X-10375669Y-2622371D02*
X-10432812Y-2622371D01*
X-10432812Y-2622371D02*
X-10518526Y-2593800D01*
X-10518526Y-2593800D02*
X-10575669Y-2536657D01*
X-10575669Y-2536657D02*
X-10604240Y-2479514D01*
X-10604240Y-2479514D02*
X-10632812Y-2365228D01*
X-10632812Y-2365228D02*
X-10632812Y-2279514D01*
X-10632812Y-2279514D02*
X-10604240Y-2165228D01*
X-10604240Y-2165228D02*
X-10575669Y-2108085D01*
X-10575669Y-2108085D02*
X-10518526Y-2050942D01*
X-10518526Y-2050942D02*
X-10432812Y-2022371D01*
X-10432812Y-2022371D02*
X-10375669Y-2022371D01*
X-10375669Y-2022371D02*
X-10289955Y-2050942D01*
X-10289955Y-2050942D02*
X-10261383Y-2079514D01*
X-9689955Y-2622371D02*
X-10032812Y-2622371D01*
X-9861383Y-2622371D02*
X-9861383Y-2022371D01*
X-9861383Y-2022371D02*
X-9918526Y-2108085D01*
X-9918526Y-2108085D02*
X-9975669Y-2165228D01*
X-9975669Y-2165228D02*
X-10032812Y-2193800D01*
X-3850000Y-6872371D02*
X-3850000Y-7300942D01*
X-3850000Y-7300942D02*
X-3878571Y-7386657D01*
X-3878571Y-7386657D02*
X-3935714Y-7443800D01*
X-3935714Y-7443800D02*
X-4021428Y-7472371D01*
X-4021428Y-7472371D02*
X-4078571Y-7472371D01*
X-3592857Y-6929514D02*
X-3564285Y-6900942D01*
X-3564285Y-6900942D02*
X-3507143Y-6872371D01*
X-3507143Y-6872371D02*
X-3364285Y-6872371D01*
X-3364285Y-6872371D02*
X-3307143Y-6900942D01*
X-3307143Y-6900942D02*
X-3278571Y-6929514D01*
X-3278571Y-6929514D02*
X-3250000Y-6986657D01*
X-3250000Y-6986657D02*
X-3250000Y-7043800D01*
X-3250000Y-7043800D02*
X-3278571Y-7129514D01*
X-3278571Y-7129514D02*
X-3621428Y-7472371D01*
X-3621428Y-7472371D02*
X-3250000Y-7472371D01*
X-4084771Y-3549999D02*
X-4056200Y-3578571D01*
X-4056200Y-3578571D02*
X-4027628Y-3664285D01*
X-4027628Y-3664285D02*
X-4027628Y-3721428D01*
X-4027628Y-3721428D02*
X-4056200Y-3807142D01*
X-4056200Y-3807142D02*
X-4113342Y-3864285D01*
X-4113342Y-3864285D02*
X-4170485Y-3892856D01*
X-4170485Y-3892856D02*
X-4284771Y-3921428D01*
X-4284771Y-3921428D02*
X-4370485Y-3921428D01*
X-4370485Y-3921428D02*
X-4484771Y-3892856D01*
X-4484771Y-3892856D02*
X-4541914Y-3864285D01*
X-4541914Y-3864285D02*
X-4599057Y-3807142D01*
X-4599057Y-3807142D02*
X-4627628Y-3721428D01*
X-4627628Y-3721428D02*
X-4627628Y-3664285D01*
X-4627628Y-3664285D02*
X-4599057Y-3578571D01*
X-4599057Y-3578571D02*
X-4570485Y-3549999D01*
X-4627628Y-3007142D02*
X-4627628Y-3292856D01*
X-4627628Y-3292856D02*
X-4341914Y-3321428D01*
X-4341914Y-3321428D02*
X-4370485Y-3292856D01*
X-4370485Y-3292856D02*
X-4399057Y-3235714D01*
X-4399057Y-3235714D02*
X-4399057Y-3092856D01*
X-4399057Y-3092856D02*
X-4370485Y-3035714D01*
X-4370485Y-3035714D02*
X-4341914Y-3007142D01*
X-4341914Y-3007142D02*
X-4284771Y-2978571D01*
X-4284771Y-2978571D02*
X-4141914Y-2978571D01*
X-4141914Y-2978571D02*
X-4084771Y-3007142D01*
X-4084771Y-3007142D02*
X-4056200Y-3035714D01*
X-4056200Y-3035714D02*
X-4027628Y-3092856D01*
X-4027628Y-3092856D02*
X-4027628Y-3235714D01*
X-4027628Y-3235714D02*
X-4056200Y-3292856D01*
X-4056200Y-3292856D02*
X-4084771Y-3321428D01*
X2657371Y-8620714D02*
X2371657Y-8820714D01*
X2657371Y-8963571D02*
X2057371Y-8963571D01*
X2057371Y-8963571D02*
X2057371Y-8735000D01*
X2057371Y-8735000D02*
X2085942Y-8677857D01*
X2085942Y-8677857D02*
X2114514Y-8649286D01*
X2114514Y-8649286D02*
X2171657Y-8620714D01*
X2171657Y-8620714D02*
X2257371Y-8620714D01*
X2257371Y-8620714D02*
X2314514Y-8649286D01*
X2314514Y-8649286D02*
X2343085Y-8677857D01*
X2343085Y-8677857D02*
X2371657Y-8735000D01*
X2371657Y-8735000D02*
X2371657Y-8963571D01*
X2657371Y-8049286D02*
X2657371Y-8392143D01*
X2657371Y-8220714D02*
X2057371Y-8220714D01*
X2057371Y-8220714D02*
X2143085Y-8277857D01*
X2143085Y-8277857D02*
X2200228Y-8335000D01*
X2200228Y-8335000D02*
X2228800Y-8392143D01*
X2114514Y-7820714D02*
X2085942Y-7792142D01*
X2085942Y-7792142D02*
X2057371Y-7735000D01*
X2057371Y-7735000D02*
X2057371Y-7592142D01*
X2057371Y-7592142D02*
X2085942Y-7535000D01*
X2085942Y-7535000D02*
X2114514Y-7506428D01*
X2114514Y-7506428D02*
X2171657Y-7477857D01*
X2171657Y-7477857D02*
X2228800Y-7477857D01*
X2228800Y-7477857D02*
X2314514Y-7506428D01*
X2314514Y-7506428D02*
X2657371Y-7849285D01*
X2657371Y-7849285D02*
X2657371Y-7477857D01*
X9459999Y-6182371D02*
X9459999Y-6610942D01*
X9459999Y-6610942D02*
X9431428Y-6696657D01*
X9431428Y-6696657D02*
X9374285Y-6753800D01*
X9374285Y-6753800D02*
X9288571Y-6782371D01*
X9288571Y-6782371D02*
X9231428Y-6782371D01*
X10059999Y-6782371D02*
X9717142Y-6782371D01*
X9888571Y-6782371D02*
X9888571Y-6182371D01*
X9888571Y-6182371D02*
X9831428Y-6268085D01*
X9831428Y-6268085D02*
X9774285Y-6325228D01*
X9774285Y-6325228D02*
X9717142Y-6353800D01*
X5145228Y-5875714D02*
X5173800Y-5904286D01*
X5173800Y-5904286D02*
X5202371Y-5990000D01*
X5202371Y-5990000D02*
X5202371Y-6047143D01*
X5202371Y-6047143D02*
X5173800Y-6132857D01*
X5173800Y-6132857D02*
X5116657Y-6190000D01*
X5116657Y-6190000D02*
X5059514Y-6218571D01*
X5059514Y-6218571D02*
X4945228Y-6247143D01*
X4945228Y-6247143D02*
X4859514Y-6247143D01*
X4859514Y-6247143D02*
X4745228Y-6218571D01*
X4745228Y-6218571D02*
X4688085Y-6190000D01*
X4688085Y-6190000D02*
X4630942Y-6132857D01*
X4630942Y-6132857D02*
X4602371Y-6047143D01*
X4602371Y-6047143D02*
X4602371Y-5990000D01*
X4602371Y-5990000D02*
X4630942Y-5904286D01*
X4630942Y-5904286D02*
X4659514Y-5875714D01*
X5202371Y-5304286D02*
X5202371Y-5647143D01*
X5202371Y-5475714D02*
X4602371Y-5475714D01*
X4602371Y-5475714D02*
X4688085Y-5532857D01*
X4688085Y-5532857D02*
X4745228Y-5590000D01*
X4745228Y-5590000D02*
X4773800Y-5647143D01*
X4659514Y-5075714D02*
X4630942Y-5047142D01*
X4630942Y-5047142D02*
X4602371Y-4990000D01*
X4602371Y-4990000D02*
X4602371Y-4847142D01*
X4602371Y-4847142D02*
X4630942Y-4790000D01*
X4630942Y-4790000D02*
X4659514Y-4761428D01*
X4659514Y-4761428D02*
X4716657Y-4732857D01*
X4716657Y-4732857D02*
X4773800Y-4732857D01*
X4773800Y-4732857D02*
X4859514Y-4761428D01*
X4859514Y-4761428D02*
X5202371Y-5104285D01*
X5202371Y-5104285D02*
X5202371Y-4732857D01*
X-4835714Y10077628D02*
X-5035714Y10363342D01*
X-5178571Y10077628D02*
X-5178571Y10677628D01*
X-5178571Y10677628D02*
X-4950000Y10677628D01*
X-4950000Y10677628D02*
X-4892857Y10649057D01*
X-4892857Y10649057D02*
X-4864286Y10620485D01*
X-4864286Y10620485D02*
X-4835714Y10563342D01*
X-4835714Y10563342D02*
X-4835714Y10477628D01*
X-4835714Y10477628D02*
X-4864286Y10420485D01*
X-4864286Y10420485D02*
X-4892857Y10391914D01*
X-4892857Y10391914D02*
X-4950000Y10363342D01*
X-4950000Y10363342D02*
X-5178571Y10363342D01*
X-4264286Y10077628D02*
X-4607143Y10077628D01*
X-4435714Y10077628D02*
X-4435714Y10677628D01*
X-4435714Y10677628D02*
X-4492857Y10591914D01*
X-4492857Y10591914D02*
X-4550000Y10534771D01*
X-4550000Y10534771D02*
X-4607143Y10506200D01*
X-4064285Y10677628D02*
X-3664285Y10677628D01*
X-3664285Y10677628D02*
X-3921428Y10077628D01*
X2122371Y-10185714D02*
X1836657Y-10385714D01*
X2122371Y-10528571D02*
X1522371Y-10528571D01*
X1522371Y-10528571D02*
X1522371Y-10300000D01*
X1522371Y-10300000D02*
X1550942Y-10242857D01*
X1550942Y-10242857D02*
X1579514Y-10214286D01*
X1579514Y-10214286D02*
X1636657Y-10185714D01*
X1636657Y-10185714D02*
X1722371Y-10185714D01*
X1722371Y-10185714D02*
X1779514Y-10214286D01*
X1779514Y-10214286D02*
X1808085Y-10242857D01*
X1808085Y-10242857D02*
X1836657Y-10300000D01*
X1836657Y-10300000D02*
X1836657Y-10528571D01*
X2122371Y-9614286D02*
X2122371Y-9957143D01*
X2122371Y-9785714D02*
X1522371Y-9785714D01*
X1522371Y-9785714D02*
X1608085Y-9842857D01*
X1608085Y-9842857D02*
X1665228Y-9900000D01*
X1665228Y-9900000D02*
X1693800Y-9957143D01*
X1722371Y-9100000D02*
X2122371Y-9100000D01*
X1493800Y-9242857D02*
X1922371Y-9385714D01*
X1922371Y-9385714D02*
X1922371Y-9014285D01*
X2413616Y-1165228D02*
X2385044Y-1193800D01*
X2385044Y-1193800D02*
X2299330Y-1222371D01*
X2299330Y-1222371D02*
X2242187Y-1222371D01*
X2242187Y-1222371D02*
X2156473Y-1193800D01*
X2156473Y-1193800D02*
X2099330Y-1136657D01*
X2099330Y-1136657D02*
X2070759Y-1079514D01*
X2070759Y-1079514D02*
X2042187Y-965228D01*
X2042187Y-965228D02*
X2042187Y-879514D01*
X2042187Y-879514D02*
X2070759Y-765228D01*
X2070759Y-765228D02*
X2099330Y-708085D01*
X2099330Y-708085D02*
X2156473Y-650942D01*
X2156473Y-650942D02*
X2242187Y-622371D01*
X2242187Y-622371D02*
X2299330Y-622371D01*
X2299330Y-622371D02*
X2385044Y-650942D01*
X2385044Y-650942D02*
X2413616Y-679514D01*
X2613616Y-622371D02*
X3013616Y-622371D01*
X3013616Y-622371D02*
X2756473Y-1222371D01*
X-3585714Y-10322371D02*
X-3785714Y-10036657D01*
X-3928571Y-10322371D02*
X-3928571Y-9722371D01*
X-3928571Y-9722371D02*
X-3700000Y-9722371D01*
X-3700000Y-9722371D02*
X-3642857Y-9750942D01*
X-3642857Y-9750942D02*
X-3614286Y-9779514D01*
X-3614286Y-9779514D02*
X-3585714Y-9836657D01*
X-3585714Y-9836657D02*
X-3585714Y-9922371D01*
X-3585714Y-9922371D02*
X-3614286Y-9979514D01*
X-3614286Y-9979514D02*
X-3642857Y-10008085D01*
X-3642857Y-10008085D02*
X-3700000Y-10036657D01*
X-3700000Y-10036657D02*
X-3928571Y-10036657D01*
X-3014286Y-10322371D02*
X-3357143Y-10322371D01*
X-3185714Y-10322371D02*
X-3185714Y-9722371D01*
X-3185714Y-9722371D02*
X-3242857Y-9808085D01*
X-3242857Y-9808085D02*
X-3300000Y-9865228D01*
X-3300000Y-9865228D02*
X-3357143Y-9893800D01*
X-2471428Y-9722371D02*
X-2757142Y-9722371D01*
X-2757142Y-9722371D02*
X-2785714Y-10008085D01*
X-2785714Y-10008085D02*
X-2757142Y-9979514D01*
X-2757142Y-9979514D02*
X-2700000Y-9950942D01*
X-2700000Y-9950942D02*
X-2557142Y-9950942D01*
X-2557142Y-9950942D02*
X-2500000Y-9979514D01*
X-2500000Y-9979514D02*
X-2471428Y-10008085D01*
X-2471428Y-10008085D02*
X-2442857Y-10065228D01*
X-2442857Y-10065228D02*
X-2442857Y-10208085D01*
X-2442857Y-10208085D02*
X-2471428Y-10265228D01*
X-2471428Y-10265228D02*
X-2500000Y-10293800D01*
X-2500000Y-10293800D02*
X-2557142Y-10322371D01*
X-2557142Y-10322371D02*
X-2700000Y-10322371D01*
X-2700000Y-10322371D02*
X-2757142Y-10293800D01*
X-2757142Y-10293800D02*
X-2785714Y-10265228D01*
X-3335714Y4477628D02*
X-3535714Y4763342D01*
X-3678571Y4477628D02*
X-3678571Y5077628D01*
X-3678571Y5077628D02*
X-3450000Y5077628D01*
X-3450000Y5077628D02*
X-3392857Y5049057D01*
X-3392857Y5049057D02*
X-3364286Y5020485D01*
X-3364286Y5020485D02*
X-3335714Y4963342D01*
X-3335714Y4963342D02*
X-3335714Y4877628D01*
X-3335714Y4877628D02*
X-3364286Y4820485D01*
X-3364286Y4820485D02*
X-3392857Y4791914D01*
X-3392857Y4791914D02*
X-3450000Y4763342D01*
X-3450000Y4763342D02*
X-3678571Y4763342D01*
X-2764286Y4477628D02*
X-3107143Y4477628D01*
X-2935714Y4477628D02*
X-2935714Y5077628D01*
X-2935714Y5077628D02*
X-2992857Y4991914D01*
X-2992857Y4991914D02*
X-3050000Y4934771D01*
X-3050000Y4934771D02*
X-3107143Y4906200D01*
X-2421428Y4820485D02*
X-2478571Y4849057D01*
X-2478571Y4849057D02*
X-2507142Y4877628D01*
X-2507142Y4877628D02*
X-2535714Y4934771D01*
X-2535714Y4934771D02*
X-2535714Y4963342D01*
X-2535714Y4963342D02*
X-2507142Y5020485D01*
X-2507142Y5020485D02*
X-2478571Y5049057D01*
X-2478571Y5049057D02*
X-2421428Y5077628D01*
X-2421428Y5077628D02*
X-2307142Y5077628D01*
X-2307142Y5077628D02*
X-2250000Y5049057D01*
X-2250000Y5049057D02*
X-2221428Y5020485D01*
X-2221428Y5020485D02*
X-2192857Y4963342D01*
X-2192857Y4963342D02*
X-2192857Y4934771D01*
X-2192857Y4934771D02*
X-2221428Y4877628D01*
X-2221428Y4877628D02*
X-2250000Y4849057D01*
X-2250000Y4849057D02*
X-2307142Y4820485D01*
X-2307142Y4820485D02*
X-2421428Y4820485D01*
X-2421428Y4820485D02*
X-2478571Y4791914D01*
X-2478571Y4791914D02*
X-2507142Y4763342D01*
X-2507142Y4763342D02*
X-2535714Y4706200D01*
X-2535714Y4706200D02*
X-2535714Y4591914D01*
X-2535714Y4591914D02*
X-2507142Y4534771D01*
X-2507142Y4534771D02*
X-2478571Y4506200D01*
X-2478571Y4506200D02*
X-2421428Y4477628D01*
X-2421428Y4477628D02*
X-2307142Y4477628D01*
X-2307142Y4477628D02*
X-2250000Y4506200D01*
X-2250000Y4506200D02*
X-2221428Y4534771D01*
X-2221428Y4534771D02*
X-2192857Y4591914D01*
X-2192857Y4591914D02*
X-2192857Y4706200D01*
X-2192857Y4706200D02*
X-2221428Y4763342D01*
X-2221428Y4763342D02*
X-2250000Y4791914D01*
X-2250000Y4791914D02*
X-2307142Y4820485D01*
X-1135714Y8484771D02*
X-1164286Y8456200D01*
X-1164286Y8456200D02*
X-1250000Y8427628D01*
X-1250000Y8427628D02*
X-1307143Y8427628D01*
X-1307143Y8427628D02*
X-1392857Y8456200D01*
X-1392857Y8456200D02*
X-1450000Y8513342D01*
X-1450000Y8513342D02*
X-1478571Y8570485D01*
X-1478571Y8570485D02*
X-1507143Y8684771D01*
X-1507143Y8684771D02*
X-1507143Y8770485D01*
X-1507143Y8770485D02*
X-1478571Y8884771D01*
X-1478571Y8884771D02*
X-1450000Y8941914D01*
X-1450000Y8941914D02*
X-1392857Y8999057D01*
X-1392857Y8999057D02*
X-1307143Y9027628D01*
X-1307143Y9027628D02*
X-1250000Y9027628D01*
X-1250000Y9027628D02*
X-1164286Y8999057D01*
X-1164286Y8999057D02*
X-1135714Y8970485D01*
X-564286Y8427628D02*
X-907143Y8427628D01*
X-735714Y8427628D02*
X-735714Y9027628D01*
X-735714Y9027628D02*
X-792857Y8941914D01*
X-792857Y8941914D02*
X-850000Y8884771D01*
X-850000Y8884771D02*
X-907143Y8856200D01*
X-50000Y8827628D02*
X-50000Y8427628D01*
X-192857Y9056200D02*
X-335714Y8627628D01*
X-335714Y8627628D02*
X35714Y8627628D01*
X8675228Y-5925714D02*
X8703800Y-5954286D01*
X8703800Y-5954286D02*
X8732371Y-6040000D01*
X8732371Y-6040000D02*
X8732371Y-6097143D01*
X8732371Y-6097143D02*
X8703800Y-6182857D01*
X8703800Y-6182857D02*
X8646657Y-6240000D01*
X8646657Y-6240000D02*
X8589514Y-6268571D01*
X8589514Y-6268571D02*
X8475228Y-6297143D01*
X8475228Y-6297143D02*
X8389514Y-6297143D01*
X8389514Y-6297143D02*
X8275228Y-6268571D01*
X8275228Y-6268571D02*
X8218085Y-6240000D01*
X8218085Y-6240000D02*
X8160942Y-6182857D01*
X8160942Y-6182857D02*
X8132371Y-6097143D01*
X8132371Y-6097143D02*
X8132371Y-6040000D01*
X8132371Y-6040000D02*
X8160942Y-5954286D01*
X8160942Y-5954286D02*
X8189514Y-5925714D01*
X8732371Y-5354286D02*
X8732371Y-5697143D01*
X8732371Y-5525714D02*
X8132371Y-5525714D01*
X8132371Y-5525714D02*
X8218085Y-5582857D01*
X8218085Y-5582857D02*
X8275228Y-5640000D01*
X8275228Y-5640000D02*
X8303800Y-5697143D01*
X8732371Y-4782857D02*
X8732371Y-5125714D01*
X8732371Y-4954285D02*
X8132371Y-4954285D01*
X8132371Y-4954285D02*
X8218085Y-5011428D01*
X8218085Y-5011428D02*
X8275228Y-5068571D01*
X8275228Y-5068571D02*
X8303800Y-5125714D01*
X-6027628Y-7299999D02*
X-6313342Y-7499999D01*
X-6027628Y-7642856D02*
X-6627628Y-7642856D01*
X-6627628Y-7642856D02*
X-6627628Y-7414285D01*
X-6627628Y-7414285D02*
X-6599057Y-7357142D01*
X-6599057Y-7357142D02*
X-6570485Y-7328571D01*
X-6570485Y-7328571D02*
X-6513342Y-7299999D01*
X-6513342Y-7299999D02*
X-6427628Y-7299999D01*
X-6427628Y-7299999D02*
X-6370485Y-7328571D01*
X-6370485Y-7328571D02*
X-6341914Y-7357142D01*
X-6341914Y-7357142D02*
X-6313342Y-7414285D01*
X-6313342Y-7414285D02*
X-6313342Y-7642856D01*
X-6627628Y-6757142D02*
X-6627628Y-7042856D01*
X-6627628Y-7042856D02*
X-6341914Y-7071428D01*
X-6341914Y-7071428D02*
X-6370485Y-7042856D01*
X-6370485Y-7042856D02*
X-6399057Y-6985714D01*
X-6399057Y-6985714D02*
X-6399057Y-6842856D01*
X-6399057Y-6842856D02*
X-6370485Y-6785714D01*
X-6370485Y-6785714D02*
X-6341914Y-6757142D01*
X-6341914Y-6757142D02*
X-6284771Y-6728571D01*
X-6284771Y-6728571D02*
X-6141914Y-6728571D01*
X-6141914Y-6728571D02*
X-6084771Y-6757142D01*
X-6084771Y-6757142D02*
X-6056200Y-6785714D01*
X-6056200Y-6785714D02*
X-6027628Y-6842856D01*
X-6027628Y-6842856D02*
X-6027628Y-6985714D01*
X-6027628Y-6985714D02*
X-6056200Y-7042856D01*
X-6056200Y-7042856D02*
X-6084771Y-7071428D01*
X4064285Y5927628D02*
X3864285Y6213342D01*
X3721428Y5927628D02*
X3721428Y6527628D01*
X3721428Y6527628D02*
X3949999Y6527628D01*
X3949999Y6527628D02*
X4007142Y6499057D01*
X4007142Y6499057D02*
X4035713Y6470485D01*
X4035713Y6470485D02*
X4064285Y6413342D01*
X4064285Y6413342D02*
X4064285Y6327628D01*
X4064285Y6327628D02*
X4035713Y6270485D01*
X4035713Y6270485D02*
X4007142Y6241914D01*
X4007142Y6241914D02*
X3949999Y6213342D01*
X3949999Y6213342D02*
X3721428Y6213342D01*
X4292856Y6470485D02*
X4321428Y6499057D01*
X4321428Y6499057D02*
X4378571Y6527628D01*
X4378571Y6527628D02*
X4521428Y6527628D01*
X4521428Y6527628D02*
X4578571Y6499057D01*
X4578571Y6499057D02*
X4607142Y6470485D01*
X4607142Y6470485D02*
X4635713Y6413342D01*
X4635713Y6413342D02*
X4635713Y6356200D01*
X4635713Y6356200D02*
X4607142Y6270485D01*
X4607142Y6270485D02*
X4264285Y5927628D01*
X4264285Y5927628D02*
X4635713Y5927628D01*
X4864285Y6470485D02*
X4892857Y6499057D01*
X4892857Y6499057D02*
X4950000Y6527628D01*
X4950000Y6527628D02*
X5092857Y6527628D01*
X5092857Y6527628D02*
X5150000Y6499057D01*
X5150000Y6499057D02*
X5178571Y6470485D01*
X5178571Y6470485D02*
X5207142Y6413342D01*
X5207142Y6413342D02*
X5207142Y6356200D01*
X5207142Y6356200D02*
X5178571Y6270485D01*
X5178571Y6270485D02*
X4835714Y5927628D01*
X4835714Y5927628D02*
X5207142Y5927628D01*
X-8911383Y-2672371D02*
X-9111383Y-2386657D01*
X-9254240Y-2672371D02*
X-9254240Y-2072371D01*
X-9254240Y-2072371D02*
X-9025669Y-2072371D01*
X-9025669Y-2072371D02*
X-8968526Y-2100942D01*
X-8968526Y-2100942D02*
X-8939955Y-2129514D01*
X-8939955Y-2129514D02*
X-8911383Y-2186657D01*
X-8911383Y-2186657D02*
X-8911383Y-2272371D01*
X-8911383Y-2272371D02*
X-8939955Y-2329514D01*
X-8939955Y-2329514D02*
X-8968526Y-2358085D01*
X-8968526Y-2358085D02*
X-9025669Y-2386657D01*
X-9025669Y-2386657D02*
X-9254240Y-2386657D01*
X-8397098Y-2272371D02*
X-8397098Y-2672371D01*
X-8539955Y-2043800D02*
X-8682812Y-2472371D01*
X-8682812Y-2472371D02*
X-8311383Y-2472371D01*
X-8284771Y-7399999D02*
X-8256200Y-7428571D01*
X-8256200Y-7428571D02*
X-8227628Y-7514285D01*
X-8227628Y-7514285D02*
X-8227628Y-7571428D01*
X-8227628Y-7571428D02*
X-8256200Y-7657142D01*
X-8256200Y-7657142D02*
X-8313342Y-7714285D01*
X-8313342Y-7714285D02*
X-8370485Y-7742856D01*
X-8370485Y-7742856D02*
X-8484771Y-7771428D01*
X-8484771Y-7771428D02*
X-8570485Y-7771428D01*
X-8570485Y-7771428D02*
X-8684771Y-7742856D01*
X-8684771Y-7742856D02*
X-8741914Y-7714285D01*
X-8741914Y-7714285D02*
X-8799057Y-7657142D01*
X-8799057Y-7657142D02*
X-8827628Y-7571428D01*
X-8827628Y-7571428D02*
X-8827628Y-7514285D01*
X-8827628Y-7514285D02*
X-8799057Y-7428571D01*
X-8799057Y-7428571D02*
X-8770485Y-7399999D01*
X-8770485Y-7171428D02*
X-8799057Y-7142856D01*
X-8799057Y-7142856D02*
X-8827628Y-7085714D01*
X-8827628Y-7085714D02*
X-8827628Y-6942856D01*
X-8827628Y-6942856D02*
X-8799057Y-6885714D01*
X-8799057Y-6885714D02*
X-8770485Y-6857142D01*
X-8770485Y-6857142D02*
X-8713342Y-6828571D01*
X-8713342Y-6828571D02*
X-8656200Y-6828571D01*
X-8656200Y-6828571D02*
X-8570485Y-6857142D01*
X-8570485Y-6857142D02*
X-8227628Y-7199999D01*
X-8227628Y-7199999D02*
X-8227628Y-6828571D01*
X-4649999Y-2072371D02*
X-4849999Y-1786657D01*
X-4992856Y-2072371D02*
X-4992856Y-1472371D01*
X-4992856Y-1472371D02*
X-4764285Y-1472371D01*
X-4764285Y-1472371D02*
X-4707142Y-1500942D01*
X-4707142Y-1500942D02*
X-4678571Y-1529514D01*
X-4678571Y-1529514D02*
X-4649999Y-1586657D01*
X-4649999Y-1586657D02*
X-4649999Y-1672371D01*
X-4649999Y-1672371D02*
X-4678571Y-1729514D01*
X-4678571Y-1729514D02*
X-4707142Y-1758085D01*
X-4707142Y-1758085D02*
X-4764285Y-1786657D01*
X-4764285Y-1786657D02*
X-4992856Y-1786657D01*
X-4449999Y-1472371D02*
X-4078571Y-1472371D01*
X-4078571Y-1472371D02*
X-4278571Y-1700942D01*
X-4278571Y-1700942D02*
X-4192856Y-1700942D01*
X-4192856Y-1700942D02*
X-4135714Y-1729514D01*
X-4135714Y-1729514D02*
X-4107142Y-1758085D01*
X-4107142Y-1758085D02*
X-4078571Y-1815228D01*
X-4078571Y-1815228D02*
X-4078571Y-1958085D01*
X-4078571Y-1958085D02*
X-4107142Y-2015228D01*
X-4107142Y-2015228D02*
X-4135714Y-2043800D01*
X-4135714Y-2043800D02*
X-4192856Y-2072371D01*
X-4192856Y-2072371D02*
X-4364285Y-2072371D01*
X-4364285Y-2072371D02*
X-4421428Y-2043800D01*
X-4421428Y-2043800D02*
X-4449999Y-2015228D01*
X-4200000Y377628D02*
X-4200000Y-50942D01*
X-4200000Y-50942D02*
X-4228571Y-136657D01*
X-4228571Y-136657D02*
X-4285714Y-193800D01*
X-4285714Y-193800D02*
X-4371428Y-222371D01*
X-4371428Y-222371D02*
X-4428571Y-222371D01*
X-3971428Y377628D02*
X-3600000Y377628D01*
X-3600000Y377628D02*
X-3800000Y149057D01*
X-3800000Y149057D02*
X-3714285Y149057D01*
X-3714285Y149057D02*
X-3657143Y120485D01*
X-3657143Y120485D02*
X-3628571Y91914D01*
X-3628571Y91914D02*
X-3600000Y34771D01*
X-3600000Y34771D02*
X-3600000Y-108085D01*
X-3600000Y-108085D02*
X-3628571Y-165228D01*
X-3628571Y-165228D02*
X-3657143Y-193800D01*
X-3657143Y-193800D02*
X-3714285Y-222371D01*
X-3714285Y-222371D02*
X-3885714Y-222371D01*
X-3885714Y-222371D02*
X-3942857Y-193800D01*
X-3942857Y-193800D02*
X-3971428Y-165228D01*
X1315228Y1714285D02*
X1343800Y1685713D01*
X1343800Y1685713D02*
X1372371Y1599999D01*
X1372371Y1599999D02*
X1372371Y1542856D01*
X1372371Y1542856D02*
X1343800Y1457142D01*
X1343800Y1457142D02*
X1286657Y1399999D01*
X1286657Y1399999D02*
X1229514Y1371428D01*
X1229514Y1371428D02*
X1115228Y1342856D01*
X1115228Y1342856D02*
X1029514Y1342856D01*
X1029514Y1342856D02*
X915228Y1371428D01*
X915228Y1371428D02*
X858085Y1399999D01*
X858085Y1399999D02*
X800942Y1457142D01*
X800942Y1457142D02*
X772371Y1542856D01*
X772371Y1542856D02*
X772371Y1599999D01*
X772371Y1599999D02*
X800942Y1685713D01*
X800942Y1685713D02*
X829514Y1714285D01*
X1372371Y2285713D02*
X1372371Y1942856D01*
X1372371Y2114285D02*
X772371Y2114285D01*
X772371Y2114285D02*
X858085Y2057142D01*
X858085Y2057142D02*
X915228Y1999999D01*
X915228Y1999999D02*
X943800Y1942856D01*
X772371Y2828571D02*
X772371Y2542857D01*
X772371Y2542857D02*
X1058085Y2514285D01*
X1058085Y2514285D02*
X1029514Y2542857D01*
X1029514Y2542857D02*
X1000942Y2600000D01*
X1000942Y2600000D02*
X1000942Y2742857D01*
X1000942Y2742857D02*
X1029514Y2800000D01*
X1029514Y2800000D02*
X1058085Y2828571D01*
X1058085Y2828571D02*
X1115228Y2857142D01*
X1115228Y2857142D02*
X1258085Y2857142D01*
X1258085Y2857142D02*
X1315228Y2828571D01*
X1315228Y2828571D02*
X1343800Y2800000D01*
X1343800Y2800000D02*
X1372371Y2742857D01*
X1372371Y2742857D02*
X1372371Y2600000D01*
X1372371Y2600000D02*
X1343800Y2542857D01*
X1343800Y2542857D02*
X1315228Y2514285D01*
X879514Y9692857D02*
X850942Y9635714D01*
X850942Y9635714D02*
X793800Y9578571D01*
X793800Y9578571D02*
X708085Y9492857D01*
X708085Y9492857D02*
X679514Y9435714D01*
X679514Y9435714D02*
X679514Y9378571D01*
X822371Y9407142D02*
X793800Y9350000D01*
X793800Y9350000D02*
X736657Y9292857D01*
X736657Y9292857D02*
X622371Y9264285D01*
X622371Y9264285D02*
X422371Y9264285D01*
X422371Y9264285D02*
X308085Y9292857D01*
X308085Y9292857D02*
X250942Y9350000D01*
X250942Y9350000D02*
X222371Y9407142D01*
X222371Y9407142D02*
X222371Y9521428D01*
X222371Y9521428D02*
X250942Y9578571D01*
X250942Y9578571D02*
X308085Y9635714D01*
X308085Y9635714D02*
X422371Y9664285D01*
X422371Y9664285D02*
X622371Y9664285D01*
X622371Y9664285D02*
X736657Y9635714D01*
X736657Y9635714D02*
X793800Y9578571D01*
X793800Y9578571D02*
X822371Y9521428D01*
X822371Y9521428D02*
X822371Y9407142D01*
X422371Y10178571D02*
X822371Y10178571D01*
X193800Y10035713D02*
X622371Y9892856D01*
X622371Y9892856D02*
X622371Y10264285D01*
X-2277628Y5814285D02*
X-2563342Y5614285D01*
X-2277628Y5471428D02*
X-2877628Y5471428D01*
X-2877628Y5471428D02*
X-2877628Y5699999D01*
X-2877628Y5699999D02*
X-2849057Y5757142D01*
X-2849057Y5757142D02*
X-2820485Y5785713D01*
X-2820485Y5785713D02*
X-2763342Y5814285D01*
X-2763342Y5814285D02*
X-2677628Y5814285D01*
X-2677628Y5814285D02*
X-2620485Y5785713D01*
X-2620485Y5785713D02*
X-2591914Y5757142D01*
X-2591914Y5757142D02*
X-2563342Y5699999D01*
X-2563342Y5699999D02*
X-2563342Y5471428D01*
X-2277628Y6385713D02*
X-2277628Y6042856D01*
X-2277628Y6214285D02*
X-2877628Y6214285D01*
X-2877628Y6214285D02*
X-2791914Y6157142D01*
X-2791914Y6157142D02*
X-2734771Y6099999D01*
X-2734771Y6099999D02*
X-2706200Y6042856D01*
X-2277628Y6671428D02*
X-2277628Y6785714D01*
X-2277628Y6785714D02*
X-2306200Y6842857D01*
X-2306200Y6842857D02*
X-2334771Y6871428D01*
X-2334771Y6871428D02*
X-2420485Y6928571D01*
X-2420485Y6928571D02*
X-2534771Y6957142D01*
X-2534771Y6957142D02*
X-2763342Y6957142D01*
X-2763342Y6957142D02*
X-2820485Y6928571D01*
X-2820485Y6928571D02*
X-2849057Y6900000D01*
X-2849057Y6900000D02*
X-2877628Y6842857D01*
X-2877628Y6842857D02*
X-2877628Y6728571D01*
X-2877628Y6728571D02*
X-2849057Y6671428D01*
X-2849057Y6671428D02*
X-2820485Y6642857D01*
X-2820485Y6642857D02*
X-2763342Y6614285D01*
X-2763342Y6614285D02*
X-2620485Y6614285D01*
X-2620485Y6614285D02*
X-2563342Y6642857D01*
X-2563342Y6642857D02*
X-2534771Y6671428D01*
X-2534771Y6671428D02*
X-2506200Y6728571D01*
X-2506200Y6728571D02*
X-2506200Y6842857D01*
X-2506200Y6842857D02*
X-2534771Y6900000D01*
X-2534771Y6900000D02*
X-2563342Y6928571D01*
X-2563342Y6928571D02*
X-2620485Y6957142D01*
X4564285Y10477628D02*
X4364285Y10763342D01*
X4221428Y10477628D02*
X4221428Y11077628D01*
X4221428Y11077628D02*
X4449999Y11077628D01*
X4449999Y11077628D02*
X4507142Y11049057D01*
X4507142Y11049057D02*
X4535713Y11020485D01*
X4535713Y11020485D02*
X4564285Y10963342D01*
X4564285Y10963342D02*
X4564285Y10877628D01*
X4564285Y10877628D02*
X4535713Y10820485D01*
X4535713Y10820485D02*
X4507142Y10791914D01*
X4507142Y10791914D02*
X4449999Y10763342D01*
X4449999Y10763342D02*
X4221428Y10763342D01*
X4792856Y11020485D02*
X4821428Y11049057D01*
X4821428Y11049057D02*
X4878571Y11077628D01*
X4878571Y11077628D02*
X5021428Y11077628D01*
X5021428Y11077628D02*
X5078571Y11049057D01*
X5078571Y11049057D02*
X5107142Y11020485D01*
X5107142Y11020485D02*
X5135713Y10963342D01*
X5135713Y10963342D02*
X5135713Y10906200D01*
X5135713Y10906200D02*
X5107142Y10820485D01*
X5107142Y10820485D02*
X4764285Y10477628D01*
X4764285Y10477628D02*
X5135713Y10477628D01*
X5707142Y10477628D02*
X5364285Y10477628D01*
X5535714Y10477628D02*
X5535714Y11077628D01*
X5535714Y11077628D02*
X5478571Y10991914D01*
X5478571Y10991914D02*
X5421428Y10934771D01*
X5421428Y10934771D02*
X5364285Y10906200D01*
X-6820485Y7542857D02*
X-6849057Y7485714D01*
X-6849057Y7485714D02*
X-6906200Y7428571D01*
X-6906200Y7428571D02*
X-6991914Y7342857D01*
X-6991914Y7342857D02*
X-7020485Y7285714D01*
X-7020485Y7285714D02*
X-7020485Y7228571D01*
X-6877628Y7257142D02*
X-6906200Y7200000D01*
X-6906200Y7200000D02*
X-6963342Y7142857D01*
X-6963342Y7142857D02*
X-7077628Y7114285D01*
X-7077628Y7114285D02*
X-7277628Y7114285D01*
X-7277628Y7114285D02*
X-7391914Y7142857D01*
X-7391914Y7142857D02*
X-7449057Y7200000D01*
X-7449057Y7200000D02*
X-7477628Y7257142D01*
X-7477628Y7257142D02*
X-7477628Y7371428D01*
X-7477628Y7371428D02*
X-7449057Y7428571D01*
X-7449057Y7428571D02*
X-7391914Y7485714D01*
X-7391914Y7485714D02*
X-7277628Y7514285D01*
X-7277628Y7514285D02*
X-7077628Y7514285D01*
X-7077628Y7514285D02*
X-6963342Y7485714D01*
X-6963342Y7485714D02*
X-6906200Y7428571D01*
X-6906200Y7428571D02*
X-6877628Y7371428D01*
X-6877628Y7371428D02*
X-6877628Y7257142D01*
X-7477628Y7714285D02*
X-7477628Y8085713D01*
X-7477628Y8085713D02*
X-7249057Y7885713D01*
X-7249057Y7885713D02*
X-7249057Y7971428D01*
X-7249057Y7971428D02*
X-7220485Y8028571D01*
X-7220485Y8028571D02*
X-7191914Y8057142D01*
X-7191914Y8057142D02*
X-7134771Y8085713D01*
X-7134771Y8085713D02*
X-6991914Y8085713D01*
X-6991914Y8085713D02*
X-6934771Y8057142D01*
X-6934771Y8057142D02*
X-6906200Y8028571D01*
X-6906200Y8028571D02*
X-6877628Y7971428D01*
X-6877628Y7971428D02*
X-6877628Y7799999D01*
X-6877628Y7799999D02*
X-6906200Y7742856D01*
X-6906200Y7742856D02*
X-6934771Y7714285D01*
X1897371Y-6732142D02*
X2383085Y-6732142D01*
X2383085Y-6732142D02*
X2440228Y-6703571D01*
X2440228Y-6703571D02*
X2468800Y-6675000D01*
X2468800Y-6675000D02*
X2497371Y-6617857D01*
X2497371Y-6617857D02*
X2497371Y-6503571D01*
X2497371Y-6503571D02*
X2468800Y-6446428D01*
X2468800Y-6446428D02*
X2440228Y-6417857D01*
X2440228Y-6417857D02*
X2383085Y-6389285D01*
X2383085Y-6389285D02*
X1897371Y-6389285D01*
X2497371Y-5789286D02*
X2497371Y-6132143D01*
X2497371Y-5960714D02*
X1897371Y-5960714D01*
X1897371Y-5960714D02*
X1983085Y-6017857D01*
X1983085Y-6017857D02*
X2040228Y-6075000D01*
X2040228Y-6075000D02*
X2068800Y-6132143D01*
X-1185714Y1934771D02*
X-1214286Y1906200D01*
X-1214286Y1906200D02*
X-1300000Y1877628D01*
X-1300000Y1877628D02*
X-1357143Y1877628D01*
X-1357143Y1877628D02*
X-1442857Y1906200D01*
X-1442857Y1906200D02*
X-1500000Y1963342D01*
X-1500000Y1963342D02*
X-1528571Y2020485D01*
X-1528571Y2020485D02*
X-1557143Y2134771D01*
X-1557143Y2134771D02*
X-1557143Y2220485D01*
X-1557143Y2220485D02*
X-1528571Y2334771D01*
X-1528571Y2334771D02*
X-1500000Y2391914D01*
X-1500000Y2391914D02*
X-1442857Y2449057D01*
X-1442857Y2449057D02*
X-1357143Y2477628D01*
X-1357143Y2477628D02*
X-1300000Y2477628D01*
X-1300000Y2477628D02*
X-1214286Y2449057D01*
X-1214286Y2449057D02*
X-1185714Y2420485D01*
X-614286Y1877628D02*
X-957143Y1877628D01*
X-785714Y1877628D02*
X-785714Y2477628D01*
X-785714Y2477628D02*
X-842857Y2391914D01*
X-842857Y2391914D02*
X-900000Y2334771D01*
X-900000Y2334771D02*
X-957143Y2306200D01*
X-414285Y2477628D02*
X-42857Y2477628D01*
X-42857Y2477628D02*
X-242857Y2249057D01*
X-242857Y2249057D02*
X-157142Y2249057D01*
X-157142Y2249057D02*
X-100000Y2220485D01*
X-100000Y2220485D02*
X-71428Y2191914D01*
X-71428Y2191914D02*
X-42857Y2134771D01*
X-42857Y2134771D02*
X-42857Y1991914D01*
X-42857Y1991914D02*
X-71428Y1934771D01*
X-71428Y1934771D02*
X-100000Y1906200D01*
X-100000Y1906200D02*
X-157142Y1877628D01*
X-157142Y1877628D02*
X-328571Y1877628D01*
X-328571Y1877628D02*
X-385714Y1906200D01*
X-385714Y1906200D02*
X-414285Y1934771D01*
X-6270485Y1542857D02*
X-6299057Y1485714D01*
X-6299057Y1485714D02*
X-6356200Y1428571D01*
X-6356200Y1428571D02*
X-6441914Y1342857D01*
X-6441914Y1342857D02*
X-6470485Y1285714D01*
X-6470485Y1285714D02*
X-6470485Y1228571D01*
X-6327628Y1257142D02*
X-6356200Y1200000D01*
X-6356200Y1200000D02*
X-6413342Y1142857D01*
X-6413342Y1142857D02*
X-6527628Y1114285D01*
X-6527628Y1114285D02*
X-6727628Y1114285D01*
X-6727628Y1114285D02*
X-6841914Y1142857D01*
X-6841914Y1142857D02*
X-6899057Y1200000D01*
X-6899057Y1200000D02*
X-6927628Y1257142D01*
X-6927628Y1257142D02*
X-6927628Y1371428D01*
X-6927628Y1371428D02*
X-6899057Y1428571D01*
X-6899057Y1428571D02*
X-6841914Y1485714D01*
X-6841914Y1485714D02*
X-6727628Y1514285D01*
X-6727628Y1514285D02*
X-6527628Y1514285D01*
X-6527628Y1514285D02*
X-6413342Y1485714D01*
X-6413342Y1485714D02*
X-6356200Y1428571D01*
X-6356200Y1428571D02*
X-6327628Y1371428D01*
X-6327628Y1371428D02*
X-6327628Y1257142D01*
X-6870485Y1742856D02*
X-6899057Y1771428D01*
X-6899057Y1771428D02*
X-6927628Y1828571D01*
X-6927628Y1828571D02*
X-6927628Y1971428D01*
X-6927628Y1971428D02*
X-6899057Y2028571D01*
X-6899057Y2028571D02*
X-6870485Y2057142D01*
X-6870485Y2057142D02*
X-6813342Y2085713D01*
X-6813342Y2085713D02*
X-6756200Y2085713D01*
X-6756200Y2085713D02*
X-6670485Y2057142D01*
X-6670485Y2057142D02*
X-6327628Y1714285D01*
X-6327628Y1714285D02*
X-6327628Y2085713D01*
X6140228Y-8294999D02*
X6168800Y-8323571D01*
X6168800Y-8323571D02*
X6197371Y-8409285D01*
X6197371Y-8409285D02*
X6197371Y-8466428D01*
X6197371Y-8466428D02*
X6168800Y-8552142D01*
X6168800Y-8552142D02*
X6111657Y-8609285D01*
X6111657Y-8609285D02*
X6054514Y-8637856D01*
X6054514Y-8637856D02*
X5940228Y-8666428D01*
X5940228Y-8666428D02*
X5854514Y-8666428D01*
X5854514Y-8666428D02*
X5740228Y-8637856D01*
X5740228Y-8637856D02*
X5683085Y-8609285D01*
X5683085Y-8609285D02*
X5625942Y-8552142D01*
X5625942Y-8552142D02*
X5597371Y-8466428D01*
X5597371Y-8466428D02*
X5597371Y-8409285D01*
X5597371Y-8409285D02*
X5625942Y-8323571D01*
X5625942Y-8323571D02*
X5654514Y-8294999D01*
X5597371Y-7780714D02*
X5597371Y-7894999D01*
X5597371Y-7894999D02*
X5625942Y-7952142D01*
X5625942Y-7952142D02*
X5654514Y-7980714D01*
X5654514Y-7980714D02*
X5740228Y-8037856D01*
X5740228Y-8037856D02*
X5854514Y-8066428D01*
X5854514Y-8066428D02*
X6083085Y-8066428D01*
X6083085Y-8066428D02*
X6140228Y-8037856D01*
X6140228Y-8037856D02*
X6168800Y-8009285D01*
X6168800Y-8009285D02*
X6197371Y-7952142D01*
X6197371Y-7952142D02*
X6197371Y-7837856D01*
X6197371Y-7837856D02*
X6168800Y-7780714D01*
X6168800Y-7780714D02*
X6140228Y-7752142D01*
X6140228Y-7752142D02*
X6083085Y-7723571D01*
X6083085Y-7723571D02*
X5940228Y-7723571D01*
X5940228Y-7723571D02*
X5883085Y-7752142D01*
X5883085Y-7752142D02*
X5854514Y-7780714D01*
X5854514Y-7780714D02*
X5825942Y-7837856D01*
X5825942Y-7837856D02*
X5825942Y-7952142D01*
X5825942Y-7952142D02*
X5854514Y-8009285D01*
X5854514Y-8009285D02*
X5883085Y-8037856D01*
X5883085Y-8037856D02*
X5940228Y-8066428D01*
X-9900000Y7127628D02*
X-9900000Y6699057D01*
X-9900000Y6699057D02*
X-9928571Y6613342D01*
X-9928571Y6613342D02*
X-9985714Y6556200D01*
X-9985714Y6556200D02*
X-10071428Y6527628D01*
X-10071428Y6527628D02*
X-10128571Y6527628D01*
X-9328571Y7127628D02*
X-9614285Y7127628D01*
X-9614285Y7127628D02*
X-9642857Y6841914D01*
X-9642857Y6841914D02*
X-9614285Y6870485D01*
X-9614285Y6870485D02*
X-9557143Y6899057D01*
X-9557143Y6899057D02*
X-9414285Y6899057D01*
X-9414285Y6899057D02*
X-9357143Y6870485D01*
X-9357143Y6870485D02*
X-9328571Y6841914D01*
X-9328571Y6841914D02*
X-9300000Y6784771D01*
X-9300000Y6784771D02*
X-9300000Y6641914D01*
X-9300000Y6641914D02*
X-9328571Y6584771D01*
X-9328571Y6584771D02*
X-9357143Y6556200D01*
X-9357143Y6556200D02*
X-9414285Y6527628D01*
X-9414285Y6527628D02*
X-9557143Y6527628D01*
X-9557143Y6527628D02*
X-9614285Y6556200D01*
X-9614285Y6556200D02*
X-9642857Y6584771D01*
X3234285Y-4852371D02*
X3034285Y-4566657D01*
X2891428Y-4852371D02*
X2891428Y-4252371D01*
X2891428Y-4252371D02*
X3119999Y-4252371D01*
X3119999Y-4252371D02*
X3177142Y-4280942D01*
X3177142Y-4280942D02*
X3205713Y-4309514D01*
X3205713Y-4309514D02*
X3234285Y-4366657D01*
X3234285Y-4366657D02*
X3234285Y-4452371D01*
X3234285Y-4452371D02*
X3205713Y-4509514D01*
X3205713Y-4509514D02*
X3177142Y-4538085D01*
X3177142Y-4538085D02*
X3119999Y-4566657D01*
X3119999Y-4566657D02*
X2891428Y-4566657D01*
X3805713Y-4852371D02*
X3462856Y-4852371D01*
X3634285Y-4852371D02*
X3634285Y-4252371D01*
X3634285Y-4252371D02*
X3577142Y-4338085D01*
X3577142Y-4338085D02*
X3519999Y-4395228D01*
X3519999Y-4395228D02*
X3462856Y-4423800D01*
X4005714Y-4252371D02*
X4377142Y-4252371D01*
X4377142Y-4252371D02*
X4177142Y-4480942D01*
X4177142Y-4480942D02*
X4262857Y-4480942D01*
X4262857Y-4480942D02*
X4320000Y-4509514D01*
X4320000Y-4509514D02*
X4348571Y-4538085D01*
X4348571Y-4538085D02*
X4377142Y-4595228D01*
X4377142Y-4595228D02*
X4377142Y-4738085D01*
X4377142Y-4738085D02*
X4348571Y-4795228D01*
X4348571Y-4795228D02*
X4320000Y-4823800D01*
X4320000Y-4823800D02*
X4262857Y-4852371D01*
X4262857Y-4852371D02*
X4091428Y-4852371D01*
X4091428Y-4852371D02*
X4034285Y-4823800D01*
X4034285Y-4823800D02*
X4005714Y-4795228D01*
X10549999Y-3972371D02*
X10549999Y-4400942D01*
X10549999Y-4400942D02*
X10521428Y-4486657D01*
X10521428Y-4486657D02*
X10464285Y-4543800D01*
X10464285Y-4543800D02*
X10378571Y-4572371D01*
X10378571Y-4572371D02*
X10321428Y-4572371D01*
X11092857Y-4172371D02*
X11092857Y-4572371D01*
X10949999Y-3943800D02*
X10807142Y-4372371D01*
X10807142Y-4372371D02*
X11178571Y-4372371D01*
X9699999Y5827628D02*
X9699999Y5399057D01*
X9699999Y5399057D02*
X9671428Y5313342D01*
X9671428Y5313342D02*
X9614285Y5256200D01*
X9614285Y5256200D02*
X9528571Y5227628D01*
X9528571Y5227628D02*
X9471428Y5227628D01*
X9928571Y5827628D02*
X10328571Y5827628D01*
X10328571Y5827628D02*
X10071428Y5227628D01*
X-8552628Y5250000D02*
X-8838342Y5050000D01*
X-8552628Y4907143D02*
X-9152628Y4907143D01*
X-9152628Y4907143D02*
X-9152628Y5135714D01*
X-9152628Y5135714D02*
X-9124057Y5192857D01*
X-9124057Y5192857D02*
X-9095485Y5221428D01*
X-9095485Y5221428D02*
X-9038342Y5250000D01*
X-9038342Y5250000D02*
X-8952628Y5250000D01*
X-8952628Y5250000D02*
X-8895485Y5221428D01*
X-8895485Y5221428D02*
X-8866914Y5192857D01*
X-8866914Y5192857D02*
X-8838342Y5135714D01*
X-8838342Y5135714D02*
X-8838342Y4907143D01*
X-8552628Y5821428D02*
X-8552628Y5478571D01*
X-8552628Y5650000D02*
X-9152628Y5650000D01*
X-9152628Y5650000D02*
X-9066914Y5592857D01*
X-9066914Y5592857D02*
X-9009771Y5535714D01*
X-9009771Y5535714D02*
X-8981200Y5478571D01*
X3829514Y792857D02*
X3800942Y735714D01*
X3800942Y735714D02*
X3743800Y678571D01*
X3743800Y678571D02*
X3658085Y592857D01*
X3658085Y592857D02*
X3629514Y535714D01*
X3629514Y535714D02*
X3629514Y478571D01*
X3772371Y507142D02*
X3743800Y450000D01*
X3743800Y450000D02*
X3686657Y392857D01*
X3686657Y392857D02*
X3572371Y364285D01*
X3572371Y364285D02*
X3372371Y364285D01*
X3372371Y364285D02*
X3258085Y392857D01*
X3258085Y392857D02*
X3200942Y450000D01*
X3200942Y450000D02*
X3172371Y507142D01*
X3172371Y507142D02*
X3172371Y621428D01*
X3172371Y621428D02*
X3200942Y678571D01*
X3200942Y678571D02*
X3258085Y735714D01*
X3258085Y735714D02*
X3372371Y764285D01*
X3372371Y764285D02*
X3572371Y764285D01*
X3572371Y764285D02*
X3686657Y735714D01*
X3686657Y735714D02*
X3743800Y678571D01*
X3743800Y678571D02*
X3772371Y621428D01*
X3772371Y621428D02*
X3772371Y507142D01*
X3772371Y1335713D02*
X3772371Y992856D01*
X3772371Y1164285D02*
X3172371Y1164285D01*
X3172371Y1164285D02*
X3258085Y1107142D01*
X3258085Y1107142D02*
X3315228Y1049999D01*
X3315228Y1049999D02*
X3343800Y992856D01*
X5822371Y-2357142D02*
X6308085Y-2357142D01*
X6308085Y-2357142D02*
X6365228Y-2328571D01*
X6365228Y-2328571D02*
X6393800Y-2300000D01*
X6393800Y-2300000D02*
X6422371Y-2242857D01*
X6422371Y-2242857D02*
X6422371Y-2128571D01*
X6422371Y-2128571D02*
X6393800Y-2071428D01*
X6393800Y-2071428D02*
X6365228Y-2042857D01*
X6365228Y-2042857D02*
X6308085Y-2014285D01*
X6308085Y-2014285D02*
X5822371Y-2014285D01*
X5879514Y-1757143D02*
X5850942Y-1728571D01*
X5850942Y-1728571D02*
X5822371Y-1671429D01*
X5822371Y-1671429D02*
X5822371Y-1528571D01*
X5822371Y-1528571D02*
X5850942Y-1471429D01*
X5850942Y-1471429D02*
X5879514Y-1442857D01*
X5879514Y-1442857D02*
X5936657Y-1414286D01*
X5936657Y-1414286D02*
X5993800Y-1414286D01*
X5993800Y-1414286D02*
X6079514Y-1442857D01*
X6079514Y-1442857D02*
X6422371Y-1785714D01*
X6422371Y-1785714D02*
X6422371Y-1414286D01*
X6999999Y10027628D02*
X6999999Y9599057D01*
X6999999Y9599057D02*
X6971428Y9513342D01*
X6971428Y9513342D02*
X6914285Y9456200D01*
X6914285Y9456200D02*
X6828571Y9427628D01*
X6828571Y9427628D02*
X6771428Y9427628D01*
X7542857Y10027628D02*
X7428571Y10027628D01*
X7428571Y10027628D02*
X7371428Y9999057D01*
X7371428Y9999057D02*
X7342857Y9970485D01*
X7342857Y9970485D02*
X7285714Y9884771D01*
X7285714Y9884771D02*
X7257142Y9770485D01*
X7257142Y9770485D02*
X7257142Y9541914D01*
X7257142Y9541914D02*
X7285714Y9484771D01*
X7285714Y9484771D02*
X7314285Y9456200D01*
X7314285Y9456200D02*
X7371428Y9427628D01*
X7371428Y9427628D02*
X7485714Y9427628D01*
X7485714Y9427628D02*
X7542857Y9456200D01*
X7542857Y9456200D02*
X7571428Y9484771D01*
X7571428Y9484771D02*
X7599999Y9541914D01*
X7599999Y9541914D02*
X7599999Y9684771D01*
X7599999Y9684771D02*
X7571428Y9741914D01*
X7571428Y9741914D02*
X7542857Y9770485D01*
X7542857Y9770485D02*
X7485714Y9799057D01*
X7485714Y9799057D02*
X7371428Y9799057D01*
X7371428Y9799057D02*
X7314285Y9770485D01*
X7314285Y9770485D02*
X7285714Y9741914D01*
X7285714Y9741914D02*
X7257142Y9684771D01*
X-6199999Y-10822371D02*
X-6399999Y-10536657D01*
X-6542856Y-10822371D02*
X-6542856Y-10222371D01*
X-6542856Y-10222371D02*
X-6314285Y-10222371D01*
X-6314285Y-10222371D02*
X-6257142Y-10250942D01*
X-6257142Y-10250942D02*
X-6228571Y-10279514D01*
X-6228571Y-10279514D02*
X-6199999Y-10336657D01*
X-6199999Y-10336657D02*
X-6199999Y-10422371D01*
X-6199999Y-10422371D02*
X-6228571Y-10479514D01*
X-6228571Y-10479514D02*
X-6257142Y-10508085D01*
X-6257142Y-10508085D02*
X-6314285Y-10536657D01*
X-6314285Y-10536657D02*
X-6542856Y-10536657D01*
X-5971428Y-10279514D02*
X-5942856Y-10250942D01*
X-5942856Y-10250942D02*
X-5885714Y-10222371D01*
X-5885714Y-10222371D02*
X-5742856Y-10222371D01*
X-5742856Y-10222371D02*
X-5685714Y-10250942D01*
X-5685714Y-10250942D02*
X-5657142Y-10279514D01*
X-5657142Y-10279514D02*
X-5628571Y-10336657D01*
X-5628571Y-10336657D02*
X-5628571Y-10393800D01*
X-5628571Y-10393800D02*
X-5657142Y-10479514D01*
X-5657142Y-10479514D02*
X-5999999Y-10822371D01*
X-5999999Y-10822371D02*
X-5628571Y-10822371D01*
D12*
%TO.C,C8*%
X-1323616Y-9684420D02*
X-1323616Y-9965580D01*
X-303616Y-9684420D02*
X-303616Y-9965580D01*
%TO.C,Q5*%
X-8187500Y760000D02*
X-8837500Y760000D01*
X-8187500Y760000D02*
X-7537500Y760000D01*
X-8187500Y-2360000D02*
X-8837500Y-2360000D01*
X-8187500Y-2360000D02*
X-7537500Y-2360000D01*
X-9350000Y710000D02*
X-9590000Y1040000D01*
X-9110000Y1040000D01*
X-9350000Y710000D01*
G36*
X-9350000Y710000D02*
G01*
X-9590000Y1040000D01*
X-9110000Y1040000D01*
X-9350000Y710000D01*
G37*
%TO.C,R11*%
X149126Y-2852500D02*
X623642Y-2852500D01*
X149126Y-3897500D02*
X623642Y-3897500D01*
%TO.C,R20*%
X1627500Y4762742D02*
X1627500Y5237258D01*
X2672500Y4762742D02*
X2672500Y5237258D01*
%TO.C,R16*%
X-2886116Y-5462742D02*
X-2886116Y-5937258D01*
X-1841116Y-5462742D02*
X-1841116Y-5937258D01*
%TO.C,C1*%
X-10510000Y-4315580D02*
X-10510000Y-4034420D01*
X-9490000Y-4315580D02*
X-9490000Y-4034420D01*
%TO.C,J2*%
X-2350000Y-8300000D02*
G75*
G02*
X-3750000Y-8300000I-700000J0D01*
G01*
X-3750000Y-8300000D02*
G75*
G02*
X-2350000Y-8300000I700000J0D01*
G01*
%TO.C,C5*%
X-2754196Y-2865000D02*
X-2473036Y-2865000D01*
X-2754196Y-3885000D02*
X-2473036Y-3885000D01*
%TO.C,R12*%
X2887500Y-8197742D02*
X2887500Y-8672258D01*
X3932500Y-8197742D02*
X3932500Y-8672258D01*
%TO.C,J1*%
X9810000Y-7610000D02*
G75*
G02*
X8410000Y-7610000I-700000J0D01*
G01*
X8410000Y-7610000D02*
G75*
G02*
X9810000Y-7610000I700000J0D01*
G01*
%TO.C,C12*%
X5370000Y-5299420D02*
X5370000Y-5580580D01*
X6390000Y-5299420D02*
X6390000Y-5580580D01*
%TO.C,R17*%
X-5237258Y9872500D02*
X-4762742Y9872500D01*
X-5237258Y8827500D02*
X-4762742Y8827500D01*
%TO.C,R14*%
X163884Y-10062258D02*
X163884Y-9587742D01*
X1208884Y-10062258D02*
X1208884Y-9587742D01*
%TO.C,C7*%
X2640580Y-1365000D02*
X2359420Y-1365000D01*
X2640580Y-2385000D02*
X2359420Y-2385000D01*
%TO.C,R15*%
X-2901358Y-10452500D02*
X-3375874Y-10452500D01*
X-2901358Y-11497500D02*
X-3375874Y-11497500D01*
%TO.C,R18*%
X-512742Y5222500D02*
X-987258Y5222500D01*
X-512742Y4177500D02*
X-987258Y4177500D01*
%TO.C,C14*%
X-609420Y8210000D02*
X-890580Y8210000D01*
X-609420Y7190000D02*
X-890580Y7190000D01*
%TO.C,C11*%
X6890000Y-5299420D02*
X6890000Y-5580580D01*
X7910000Y-5299420D02*
X7910000Y-5580580D01*
%TO.C,R5*%
X-5861116Y-7412258D02*
X-5861116Y-6937742D01*
X-4816116Y-7412258D02*
X-4816116Y-6937742D01*
%TO.C,R22*%
X4162742Y5722500D02*
X4637258Y5722500D01*
X4162742Y4677500D02*
X4637258Y4677500D01*
%TO.C,R4*%
X-9022500Y-4412258D02*
X-9022500Y-3937742D01*
X-7977500Y-4412258D02*
X-7977500Y-3937742D01*
%TO.C,C2*%
X-8010000Y-7315580D02*
X-8010000Y-7034420D01*
X-6990000Y-7315580D02*
X-6990000Y-7034420D01*
%TO.C,R3*%
X-2850874Y-1352500D02*
X-2376358Y-1352500D01*
X-2850874Y-2397500D02*
X-2376358Y-2397500D01*
%TO.C,J3*%
X-4500000Y-550000D02*
G75*
G02*
X-5900000Y-550000I-700000J0D01*
G01*
X-5900000Y-550000D02*
G75*
G02*
X-4500000Y-550000I700000J0D01*
G01*
%TO.C,C15*%
X1640000Y2140580D02*
X1640000Y1859420D01*
X2660000Y2140580D02*
X2660000Y1859420D01*
%TO.C,Q4*%
X990000Y8450000D02*
X990000Y9100000D01*
X990000Y8450000D02*
X990000Y7800000D01*
X4110000Y8450000D02*
X4110000Y10125000D01*
X4110000Y8450000D02*
X4110000Y7800000D01*
%TO.C,R19*%
X-512742Y6722500D02*
X-987258Y6722500D01*
X-512742Y5677500D02*
X-987258Y5677500D01*
%TO.C,R21*%
X4577500Y8612742D02*
X4577500Y9087258D01*
X5622500Y8612742D02*
X5622500Y9087258D01*
%TO.C,Q3*%
X-4950000Y8410000D02*
X-6625000Y8410000D01*
X-4950000Y8410000D02*
X-4300000Y8410000D01*
X-4950000Y5290000D02*
X-5600000Y5290000D01*
X-4950000Y5290000D02*
X-4300000Y5290000D01*
%TO.C,U1*%
X-1423616Y-6250000D02*
X-1423616Y-5450000D01*
X-1423616Y-6250000D02*
X-1423616Y-8050000D01*
X1696384Y-6250000D02*
X1696384Y-5450000D01*
X1696384Y-6250000D02*
X1696384Y-7050000D01*
%TO.C,C13*%
X-609420Y3710000D02*
X-890580Y3710000D01*
X-609420Y2690000D02*
X-890580Y2690000D01*
%TO.C,Q2*%
X-4300000Y4260000D02*
X-5975000Y4260000D01*
X-4300000Y4260000D02*
X-3650000Y4260000D01*
X-4300000Y1140000D02*
X-4950000Y1140000D01*
X-4300000Y1140000D02*
X-3650000Y1140000D01*
%TO.C,C6*%
X4415000Y-8304420D02*
X4415000Y-8585580D01*
X5435000Y-8304420D02*
X5435000Y-8585580D01*
%TO.C,J5*%
X-8200000Y7950000D02*
G75*
G02*
X-9600000Y7950000I-700000J0D01*
G01*
X-9600000Y7950000D02*
G75*
G02*
X-8200000Y7950000I700000J0D01*
G01*
%TO.C,R13*%
X3149126Y-2852500D02*
X3623642Y-2852500D01*
X3149126Y-3897500D02*
X3623642Y-3897500D01*
%TO.C,J4*%
X11400000Y-5300000D02*
G75*
G02*
X10000000Y-5300000I-700000J0D01*
G01*
X10000000Y-5300000D02*
G75*
G02*
X11400000Y-5300000I700000J0D01*
G01*
%TO.C,J7*%
X11600000Y5000000D02*
G75*
G02*
X10200000Y5000000I-700000J0D01*
G01*
X10200000Y5000000D02*
G75*
G02*
X11600000Y5000000I700000J0D01*
G01*
%TO.C,R1*%
X-8222500Y4612742D02*
X-8222500Y5087258D01*
X-7177500Y4612742D02*
X-7177500Y5087258D01*
%TO.C,Q1*%
X3090000Y2100000D02*
X3090000Y2750000D01*
X3090000Y2100000D02*
X3090000Y1450000D01*
X6210000Y2100000D02*
X6210000Y3775000D01*
X6210000Y2100000D02*
X6210000Y1450000D01*
%TO.C,U2*%
X6540000Y150000D02*
X6540000Y2350000D01*
X6540000Y150000D02*
X6540000Y-3450000D01*
X11760000Y150000D02*
X11760000Y2350000D01*
X11760000Y150000D02*
X11760000Y-2050000D01*
%TO.C,J6*%
X8800000Y8850000D02*
G75*
G02*
X7400000Y8850000I-700000J0D01*
G01*
X7400000Y8850000D02*
G75*
G02*
X8800000Y8850000I700000J0D01*
G01*
%TO.C,R2*%
X-5913858Y-8902500D02*
X-6388374Y-8902500D01*
X-5913858Y-9947500D02*
X-6388374Y-9947500D01*
%TD*%
M02*
