%TF.GenerationSoftware,KiCad,Pcbnew,8.0.5*%
%TF.CreationDate,2024-11-25T09:23:57-07:00*%
%TF.ProjectId,NoteDetector,4e6f7465-4465-4746-9563-746f722e6b69,rev?*%
%TF.SameCoordinates,Original*%
%TF.FileFunction,Copper,L1,Top*%
%TF.FilePolarity,Positive*%
%FSLAX46Y46*%
G04 Gerber Fmt 4.6, Leading zero omitted, Abs format (unit mm)*
G04 Created by KiCad (PCBNEW 8.0.5) date 2024-11-25 09:23:57*
%MOMM*%
%LPD*%
G01*
G04 APERTURE LIST*
G04 Aperture macros list*
%AMRoundRect*
0 Rectangle with rounded corners*
0 $1 Rounding radius*
0 $2 $3 $4 $5 $6 $7 $8 $9 X,Y pos of 4 corners*
0 Add a 4 corners polygon primitive as box body*
4,1,4,$2,$3,$4,$5,$6,$7,$8,$9,$2,$3,0*
0 Add four circle primitives for the rounded corners*
1,1,$1+$1,$2,$3*
1,1,$1+$1,$4,$5*
1,1,$1+$1,$6,$7*
1,1,$1+$1,$8,$9*
0 Add four rect primitives between the rounded corners*
20,1,$1+$1,$2,$3,$4,$5,0*
20,1,$1+$1,$4,$5,$6,$7,0*
20,1,$1+$1,$6,$7,$8,$9,0*
20,1,$1+$1,$8,$9,$2,$3,0*%
G04 Aperture macros list end*
%TA.AperFunction,ComponentPad*%
%ADD10C,2.000000*%
%TD*%
%TA.AperFunction,SMDPad,CuDef*%
%ADD11RoundRect,0.225000X-0.250000X0.225000X-0.250000X-0.225000X0.250000X-0.225000X0.250000X0.225000X0*%
%TD*%
%TA.AperFunction,SMDPad,CuDef*%
%ADD12RoundRect,0.150000X-0.587500X-0.150000X0.587500X-0.150000X0.587500X0.150000X-0.587500X0.150000X0*%
%TD*%
%TA.AperFunction,SMDPad,CuDef*%
%ADD13RoundRect,0.200000X-0.200000X-0.275000X0.200000X-0.275000X0.200000X0.275000X-0.200000X0.275000X0*%
%TD*%
%TA.AperFunction,SMDPad,CuDef*%
%ADD14RoundRect,0.200000X0.275000X-0.200000X0.275000X0.200000X-0.275000X0.200000X-0.275000X-0.200000X0*%
%TD*%
%TA.AperFunction,SMDPad,CuDef*%
%ADD15RoundRect,0.200000X-0.275000X0.200000X-0.275000X-0.200000X0.275000X-0.200000X0.275000X0.200000X0*%
%TD*%
%TA.AperFunction,SMDPad,CuDef*%
%ADD16RoundRect,0.225000X0.250000X-0.225000X0.250000X0.225000X-0.250000X0.225000X-0.250000X-0.225000X0*%
%TD*%
%TA.AperFunction,SMDPad,CuDef*%
%ADD17C,1.000000*%
%TD*%
%TA.AperFunction,SMDPad,CuDef*%
%ADD18RoundRect,0.225000X-0.225000X-0.250000X0.225000X-0.250000X0.225000X0.250000X-0.225000X0.250000X0*%
%TD*%
%TA.AperFunction,SMDPad,CuDef*%
%ADD19RoundRect,0.225000X0.225000X0.250000X-0.225000X0.250000X-0.225000X-0.250000X0.225000X-0.250000X0*%
%TD*%
%TA.AperFunction,SMDPad,CuDef*%
%ADD20RoundRect,0.200000X0.200000X0.275000X-0.200000X0.275000X-0.200000X-0.275000X0.200000X-0.275000X0*%
%TD*%
%TA.AperFunction,SMDPad,CuDef*%
%ADD21RoundRect,0.150000X-0.150000X0.587500X-0.150000X-0.587500X0.150000X-0.587500X0.150000X0.587500X0*%
%TD*%
%TA.AperFunction,SMDPad,CuDef*%
%ADD22RoundRect,0.150000X0.150000X-0.512500X0.150000X0.512500X-0.150000X0.512500X-0.150000X-0.512500X0*%
%TD*%
%TA.AperFunction,SMDPad,CuDef*%
%ADD23RoundRect,0.100000X0.100000X-0.637500X0.100000X0.637500X-0.100000X0.637500X-0.100000X-0.637500X0*%
%TD*%
%TA.AperFunction,ViaPad*%
%ADD24C,0.450000*%
%TD*%
%TA.AperFunction,ViaPad*%
%ADD25C,0.508000*%
%TD*%
%TA.AperFunction,ViaPad*%
%ADD26C,0.800000*%
%TD*%
%TA.AperFunction,Conductor*%
%ADD27C,0.152400*%
%TD*%
%TA.AperFunction,Conductor*%
%ADD28C,0.250000*%
%TD*%
%TA.AperFunction,Conductor*%
%ADD29C,0.381000*%
%TD*%
G04 APERTURE END LIST*
D10*
%TO.P,BT1,1,+*%
%TO.N,+BATT*%
X9599987Y7200017D03*
%TO.P,BT1,2,-*%
%TO.N,/PGnd*%
X-6399991Y-4800011D03*
%TD*%
D11*
%TO.P,C8,1*%
%TO.N,Net-(C8-Pad1)*%
X-813616Y-9050000D03*
%TO.P,C8,2*%
%TO.N,Net-(C7-Pad1)*%
X-813616Y-10600000D03*
%TD*%
D12*
%TO.P,Q5,1,G*%
%TO.N,+BATT*%
X-9125000Y150000D03*
%TO.P,Q5,2,S*%
%TO.N,GND*%
X-9125000Y-1750000D03*
%TO.P,Q5,3,D*%
%TO.N,/PGnd*%
X-7250000Y-800000D03*
%TD*%
D13*
%TO.P,R11,1*%
%TO.N,Net-(C5-Pad2)*%
X-438616Y-3375000D03*
%TO.P,R11,2*%
%TO.N,Net-(U1--)*%
X1211384Y-3375000D03*
%TD*%
D14*
%TO.P,R20,1*%
%TO.N,Net-(D1-BK)*%
X2150000Y4175000D03*
%TO.P,R20,2*%
%TO.N,Net-(Q4-D)*%
X2150000Y5825000D03*
%TD*%
D15*
%TO.P,R16,1*%
%TO.N,Net-(C8-Pad1)*%
X-2363616Y-4875000D03*
%TO.P,R16,2*%
%TO.N,/Audio_In*%
X-2363616Y-6525000D03*
%TD*%
D16*
%TO.P,C1,1*%
%TO.N,/Midscale*%
X-10000000Y-4950000D03*
%TO.P,C1,2*%
%TO.N,+BATT*%
X-10000000Y-3400000D03*
%TD*%
D17*
%TO.P,J2,1,Pin_1*%
%TO.N,/Audio_In*%
X-3050000Y-8300000D03*
%TD*%
D18*
%TO.P,C5,1*%
%TO.N,/Audio_raw*%
X-3388616Y-3375000D03*
%TO.P,C5,2*%
%TO.N,Net-(C5-Pad2)*%
X-1838616Y-3375000D03*
%TD*%
D15*
%TO.P,R12,1*%
%TO.N,/gnd_switch*%
X3410000Y-7610000D03*
%TO.P,R12,2*%
%TO.N,Net-(U1-V-)*%
X3410000Y-9260000D03*
%TD*%
D17*
%TO.P,J1,1,Pin_1*%
%TO.N,/~{MCLR}*%
X9110000Y-7610000D03*
%TD*%
D11*
%TO.P,C12,1*%
%TO.N,+BATT*%
X5880000Y-4665000D03*
%TO.P,C12,2*%
%TO.N,GND*%
X5880000Y-6215000D03*
%TD*%
D13*
%TO.P,R17,1*%
%TO.N,Net-(Q3-G)*%
X-5825000Y9350000D03*
%TO.P,R17,2*%
%TO.N,/PWM2*%
X-4175000Y9350000D03*
%TD*%
D14*
%TO.P,R14,1*%
%TO.N,Net-(C7-Pad1)*%
X686384Y-10650000D03*
%TO.P,R14,2*%
%TO.N,Net-(C8-Pad1)*%
X686384Y-9000000D03*
%TD*%
D19*
%TO.P,C7,1*%
%TO.N,Net-(C7-Pad1)*%
X3275000Y-1875000D03*
%TO.P,C7,2*%
%TO.N,Net-(U1--)*%
X1725000Y-1875000D03*
%TD*%
D20*
%TO.P,R15,1*%
%TO.N,Net-(C7-Pad1)*%
X-2313616Y-10975000D03*
%TO.P,R15,2*%
%TO.N,/Midscale*%
X-3963616Y-10975000D03*
%TD*%
%TO.P,R18,1*%
%TO.N,Net-(D1-RK)*%
X75000Y4700000D03*
%TO.P,R18,2*%
%TO.N,Net-(Q2-D)*%
X-1575000Y4700000D03*
%TD*%
D19*
%TO.P,C14,1*%
%TO.N,Net-(D1-GK)*%
X25000Y7700000D03*
%TO.P,C14,2*%
%TO.N,GND*%
X-1525000Y7700000D03*
%TD*%
D11*
%TO.P,C11,1*%
%TO.N,+BATT*%
X7400000Y-4665000D03*
%TO.P,C11,2*%
%TO.N,GND*%
X7400000Y-6215000D03*
%TD*%
D14*
%TO.P,R5,1*%
%TO.N,Net-(C2-Pad1)*%
X-5338616Y-8000000D03*
%TO.P,R5,2*%
%TO.N,/Midscale*%
X-5338616Y-6350000D03*
%TD*%
D13*
%TO.P,R22,1*%
%TO.N,Net-(Q1-G)*%
X3575000Y5200000D03*
%TO.P,R22,2*%
%TO.N,/AFE_En*%
X5225000Y5200000D03*
%TD*%
D14*
%TO.P,R4,1*%
%TO.N,/Midscale*%
X-8500000Y-5000000D03*
%TO.P,R4,2*%
%TO.N,+BATT*%
X-8500000Y-3350000D03*
%TD*%
D16*
%TO.P,C2,1*%
%TO.N,Net-(C2-Pad1)*%
X-7500000Y-7950000D03*
%TO.P,C2,2*%
%TO.N,/Midscale*%
X-7500000Y-6400000D03*
%TD*%
D13*
%TO.P,R3,1*%
%TO.N,/Audio_raw*%
X-3438616Y-1875000D03*
%TO.P,R3,2*%
%TO.N,/gnd_switch*%
X-1788616Y-1875000D03*
%TD*%
D17*
%TO.P,J3,1,Pin_1*%
%TO.N,/Audio_raw*%
X-5200000Y-550000D03*
%TD*%
D11*
%TO.P,C15,1*%
%TO.N,Net-(D1-BK)*%
X2150000Y2775000D03*
%TO.P,C15,2*%
%TO.N,GND*%
X2150000Y1225000D03*
%TD*%
D21*
%TO.P,Q4,1,G*%
%TO.N,Net-(Q4-G)*%
X3500000Y9387500D03*
%TO.P,Q4,2,S*%
%TO.N,GND*%
X1600000Y9387500D03*
%TO.P,Q4,3,D*%
%TO.N,Net-(Q4-D)*%
X2550000Y7512500D03*
%TD*%
D20*
%TO.P,R19,1*%
%TO.N,Net-(D1-GK)*%
X75000Y6200000D03*
%TO.P,R19,2*%
%TO.N,Net-(Q3-D)*%
X-1575000Y6200000D03*
%TD*%
D14*
%TO.P,R21,1*%
%TO.N,/PWM3*%
X5100000Y8025000D03*
%TO.P,R21,2*%
%TO.N,Net-(Q4-G)*%
X5100000Y9675000D03*
%TD*%
D12*
%TO.P,Q3,1,G*%
%TO.N,Net-(Q3-G)*%
X-5887500Y7800000D03*
%TO.P,Q3,2,S*%
%TO.N,GND*%
X-5887500Y5900000D03*
%TO.P,Q3,3,D*%
%TO.N,Net-(Q3-D)*%
X-4012500Y6850000D03*
%TD*%
D22*
%TO.P,U1,1*%
%TO.N,Net-(C8-Pad1)*%
X-813616Y-7387500D03*
%TO.P,U1,2,V-*%
%TO.N,Net-(U1-V-)*%
X136384Y-7387500D03*
%TO.P,U1,3,+*%
%TO.N,/Midscale*%
X1086384Y-7387500D03*
%TO.P,U1,4,-*%
%TO.N,Net-(U1--)*%
X1086384Y-5112500D03*
%TO.P,U1,5,V+*%
%TO.N,+BATT*%
X-813616Y-5112500D03*
%TD*%
D19*
%TO.P,C13,1*%
%TO.N,Net-(D1-RK)*%
X25000Y3200000D03*
%TO.P,C13,2*%
%TO.N,GND*%
X-1525000Y3200000D03*
%TD*%
D12*
%TO.P,Q2,1,G*%
%TO.N,Net-(Q2-G)*%
X-5237500Y3650000D03*
%TO.P,Q2,2,S*%
%TO.N,GND*%
X-5237500Y1750000D03*
%TO.P,Q2,3,D*%
%TO.N,Net-(Q2-D)*%
X-3362500Y2700000D03*
%TD*%
D11*
%TO.P,C6,1*%
%TO.N,+BATT*%
X4925000Y-7670000D03*
%TO.P,C6,2*%
%TO.N,Net-(U1-V-)*%
X4925000Y-9220000D03*
%TD*%
D17*
%TO.P,J5,1,Pin_1*%
%TO.N,GND*%
X-8900000Y7950000D03*
%TD*%
D13*
%TO.P,R13,1*%
%TO.N,Net-(U1--)*%
X2561384Y-3375000D03*
%TO.P,R13,2*%
%TO.N,Net-(C7-Pad1)*%
X4211384Y-3375000D03*
%TD*%
D17*
%TO.P,J4,1,Pin_1*%
%TO.N,+BATT*%
X10700000Y-5300000D03*
%TD*%
%TO.P,J7,1,Pin_1*%
%TO.N,/ICSP_CLK*%
X10900000Y5000000D03*
%TD*%
D14*
%TO.P,R1,1*%
%TO.N,Net-(Q2-G)*%
X-7700000Y4025000D03*
%TO.P,R1,2*%
%TO.N,/PWM1*%
X-7700000Y5675000D03*
%TD*%
D21*
%TO.P,Q1,1,G*%
%TO.N,Net-(Q1-G)*%
X5600000Y3037500D03*
%TO.P,Q1,2,S*%
%TO.N,GND*%
X3700000Y3037500D03*
%TO.P,Q1,3,D*%
%TO.N,/gnd_switch*%
X4650000Y1162500D03*
%TD*%
D23*
%TO.P,U2,1,VDD*%
%TO.N,+BATT*%
X7200000Y-2712500D03*
%TO.P,U2,2,RA5*%
%TO.N,/Audio_In*%
X7850000Y-2712500D03*
%TO.P,U2,3,RA4*%
%TO.N,unconnected-(U2-RA4-Pad3)*%
X8500000Y-2712500D03*
%TO.P,U2,4,~{MCLR}/VPP/RA3*%
%TO.N,/~{MCLR}*%
X9150000Y-2712500D03*
%TO.P,U2,5,RC5*%
%TO.N,unconnected-(U2-RC5-Pad5)*%
X9800000Y-2712500D03*
%TO.P,U2,6,RC4*%
%TO.N,unconnected-(U2-RC4-Pad6)*%
X10450000Y-2712500D03*
%TO.P,U2,7,RC3*%
%TO.N,unconnected-(U2-RC3-Pad7)*%
X11100000Y-2712500D03*
%TO.P,U2,8,RC2*%
%TO.N,/PWM3*%
X11100000Y3012500D03*
%TO.P,U2,9,RC1*%
%TO.N,/PWM2*%
X10450000Y3012500D03*
%TO.P,U2,10,RC0*%
%TO.N,/PWM1*%
X9800000Y3012500D03*
%TO.P,U2,11,RA2*%
%TO.N,/AFE_En*%
X9150000Y3012500D03*
%TO.P,U2,12,RA1/ICSPCLK*%
%TO.N,/ICSP_CLK*%
X8500000Y3012500D03*
%TO.P,U2,13,RA0/ICSPDAT*%
%TO.N,/ICSP_DAT*%
X7850000Y3012500D03*
%TO.P,U2,14,VSS*%
%TO.N,GND*%
X7200000Y3012500D03*
%TD*%
D17*
%TO.P,J6,1,Pin_1*%
%TO.N,/ICSP_DAT*%
X8100000Y8850000D03*
%TD*%
D20*
%TO.P,R2,1*%
%TO.N,/gnd_switch*%
X-5326116Y-9425000D03*
%TO.P,R2,2*%
%TO.N,Net-(C2-Pad1)*%
X-6976116Y-9425000D03*
%TD*%
D24*
%TO.N,GND*%
X-1850000Y2500000D03*
X-5800000Y5250000D03*
X1450000Y8500000D03*
D25*
X-2250000Y7900000D03*
D26*
X6224500Y5300000D03*
D25*
X6630000Y-6780000D03*
X2500000Y672334D03*
D24*
X-4200000Y1600000D03*
D25*
X-9125000Y-1100000D03*
X3700000Y4000000D03*
D26*
X-8900000Y7950000D03*
D25*
%TO.N,+BATT*%
X-7350000Y-3250000D03*
X-351116Y-5100000D03*
X6500000Y-3720300D03*
X6600000Y-2700000D03*
%TO.N,/Audio_In*%
X7894204Y-3574798D03*
X-1800000Y-7100000D03*
%TO.N,/Midscale*%
X-49909Y-6050091D03*
X-4598371Y-6923371D03*
%TO.N,Net-(U1-V-)*%
X4100000Y-8760000D03*
X385746Y-8147003D03*
%TO.N,Net-(C7-Pad1)*%
X-950000Y-10050000D03*
X3400000Y-4100000D03*
D24*
%TO.N,Net-(D1-RK)*%
X-208439Y5300000D03*
%TO.N,/PWM3*%
X11220000Y4110000D03*
X5630000Y7350000D03*
X7660000Y7200000D03*
X9815000Y5185000D03*
%TO.N,/PWM2*%
X7420000Y7880000D03*
X10550000Y4010000D03*
X9530000Y4570000D03*
X6450000Y8670000D03*
%TO.N,/PWM1*%
X5910000Y6500000D03*
X8590000Y4680000D03*
X9800000Y2050000D03*
X3500000Y7800000D03*
X2300000Y11150000D03*
X6966200Y6350000D03*
D25*
%TO.N,/Audio_raw*%
X-1600000Y650000D03*
%TO.N,Net-(D1-GK)*%
X600000Y5900000D03*
%TO.N,Net-(D1-BK)*%
X1200000Y3700000D03*
%TO.N,/~{MCLR}*%
X9049317Y-5624135D03*
X9444039Y-4519221D03*
%TD*%
D27*
%TO.N,Net-(D1-RK)*%
X-208439Y4983439D02*
X75000Y4700000D01*
X-208439Y5300000D02*
X-208439Y4983439D01*
%TO.N,/ICSP_DAT*%
X7850000Y4630101D02*
X7850000Y3012500D01*
X6440000Y6040101D02*
X7850000Y4630101D01*
X8100000Y8850000D02*
X7550000Y8850000D01*
X7550000Y8850000D02*
X6440000Y7740000D01*
X6440000Y7740000D02*
X6440000Y6040101D01*
%TO.N,/PWM1*%
X4800000Y6500000D02*
X3500000Y7800000D01*
X5910000Y6500000D02*
X4800000Y6500000D01*
%TO.N,/PWM2*%
X10450000Y3910000D02*
X10450000Y3012500D01*
X10550000Y4010000D02*
X10450000Y3910000D01*
%TO.N,/PWM3*%
X11100000Y3990000D02*
X11100000Y3012500D01*
X11220000Y4110000D02*
X11100000Y3990000D01*
X8324276Y6675724D02*
X7800000Y7200000D01*
X7800000Y7200000D02*
X7660000Y7200000D01*
X8324276Y6671599D02*
X8324276Y6675724D01*
X9075694Y5924306D02*
X9071569Y5924306D01*
X9815000Y5185000D02*
X9075694Y5924306D01*
X9071569Y5924306D02*
X8324276Y6671599D01*
%TO.N,/PWM2*%
X6900000Y7509323D02*
X7206888Y7816211D01*
X6900000Y7190677D02*
X6900000Y7509323D01*
X7206888Y6883789D02*
X6900000Y7190677D01*
X7206888Y7816211D02*
X7356211Y7816211D01*
X7216211Y6883789D02*
X7206888Y6883789D01*
X9530000Y4570000D02*
X7216211Y6883789D01*
X7356211Y7816211D02*
X7420000Y7880000D01*
%TO.N,/PWM1*%
X8590000Y4726200D02*
X6966200Y6350000D01*
X8590000Y4680000D02*
X8590000Y4726200D01*
%TO.N,/PWM3*%
X5630000Y7350000D02*
X5630000Y7495000D01*
X5630000Y7495000D02*
X5100000Y8025000D01*
%TO.N,/PWM2*%
X-1650000Y9350000D02*
X-4175000Y9350000D01*
X-550000Y10450000D02*
X-1650000Y9350000D01*
X5560000Y10450000D02*
X-550000Y10450000D01*
X6450000Y9560000D02*
X5560000Y10450000D01*
X6450000Y8670000D02*
X6450000Y9560000D01*
D28*
%TO.N,GND*%
X6660000Y-6750000D02*
X6630000Y-6780000D01*
D27*
X1600000Y9387500D02*
X1600000Y8650000D01*
D28*
X6660000Y-6215000D02*
X5880000Y-6215000D01*
D27*
X-5237500Y1750000D02*
X-4350000Y1750000D01*
X2150000Y1022334D02*
X2500000Y672334D01*
X-1525000Y3200000D02*
X-1525000Y2825000D01*
X-5887500Y5337500D02*
X-5800000Y5250000D01*
X-1525000Y2825000D02*
X-1850000Y2500000D01*
D29*
X-9125000Y-1750000D02*
X-9125000Y-1100000D01*
D28*
X6660000Y-6215000D02*
X6660000Y-6750000D01*
D27*
X-1725000Y7900000D02*
X-1525000Y7700000D01*
X-4350000Y1750000D02*
X-4200000Y1600000D01*
X1600000Y8650000D02*
X1450000Y8500000D01*
X3700000Y3037500D02*
X3700000Y4000000D01*
D28*
X7400000Y-6215000D02*
X6660000Y-6215000D01*
D27*
X6224500Y5300000D02*
X7200000Y4324500D01*
X-5887500Y5900000D02*
X-5887500Y5337500D01*
X-2250000Y7900000D02*
X-1725000Y7900000D01*
X7200000Y4324500D02*
X7200000Y3012500D01*
X2150000Y1225000D02*
X2150000Y1022334D01*
%TO.N,+BATT*%
X4925000Y-5620000D02*
X4925000Y-7525000D01*
X7135000Y-4665000D02*
X7400000Y-4665000D01*
X-8400000Y-3250000D02*
X-7350000Y-3250000D01*
X-9950000Y-3350000D02*
X-10000000Y-3400000D01*
X6500000Y-4045000D02*
X5880000Y-4665000D01*
X7200000Y-2712500D02*
X6612500Y-2712500D01*
X-7350000Y-3250000D02*
X-7275000Y-3250000D01*
X6500000Y-4030000D02*
X7135000Y-4665000D01*
X-10000000Y-3400000D02*
X-10138700Y-3261300D01*
X-10138700Y-863700D02*
X-9125000Y150000D01*
X9475000Y-5300000D02*
X8840000Y-4665000D01*
X10700000Y-5300000D02*
X9475000Y-5300000D01*
X6500000Y-3720300D02*
X6500000Y-4045000D01*
X-351116Y-5100000D02*
X-363616Y-5112500D01*
X-10138700Y-3261300D02*
X-10138700Y-863700D01*
X-8500000Y-3350000D02*
X-9950000Y-3350000D01*
X5880000Y-4665000D02*
X4925000Y-5620000D01*
X-8500000Y-3350000D02*
X-8400000Y-3250000D01*
X-363616Y-5112500D02*
X-813616Y-5112500D01*
X8840000Y-4665000D02*
X7400000Y-4665000D01*
X6612500Y-2712500D02*
X6600000Y-2700000D01*
X6500000Y-3720300D02*
X6500000Y-4030000D01*
%TO.N,/Audio_In*%
X7894204Y-3574798D02*
X7894204Y-2756704D01*
X-2363616Y-6536384D02*
X-1800000Y-7100000D01*
X-2363616Y-7613616D02*
X-2363616Y-6525000D01*
X7894204Y-2756704D02*
X7850000Y-2712500D01*
X-2363616Y-6525000D02*
X-2363616Y-6536384D01*
X-3050000Y-8300000D02*
X-2363616Y-7613616D01*
%TO.N,Net-(C5-Pad2)*%
X-363616Y-3300000D02*
X-438616Y-3375000D01*
X-438616Y-3375000D02*
X-1838616Y-3375000D01*
%TO.N,/Midscale*%
X-5388616Y-6400000D02*
X-5338616Y-6350000D01*
X-10000000Y-4950000D02*
X-8550000Y-4950000D01*
X-8550000Y-4950000D02*
X-8500000Y-5000000D01*
X-4598371Y-6923371D02*
X-5171741Y-6350000D01*
X-4450000Y-10488616D02*
X-4450000Y-7071741D01*
X68369Y-6050091D02*
X-49909Y-6050091D01*
X-4450000Y-7071741D02*
X-4598371Y-6923371D01*
X-3963616Y-10975000D02*
X-4450000Y-10488616D01*
X-7500000Y-6400000D02*
X-5388616Y-6400000D01*
X1086384Y-7068106D02*
X68369Y-6050091D01*
X-7500000Y-6000000D02*
X-8500000Y-5000000D01*
X-5171741Y-6350000D02*
X-5338616Y-6350000D01*
X1086384Y-7387500D02*
X1086384Y-7068106D01*
X-7500000Y-6400000D02*
X-7500000Y-6000000D01*
%TO.N,Net-(C2-Pad1)*%
X-6976116Y-8473884D02*
X-7500000Y-7950000D01*
X-5338616Y-8000000D02*
X-7450000Y-8000000D01*
X-7450000Y-8000000D02*
X-7500000Y-7950000D01*
X-6976116Y-9425000D02*
X-6976116Y-8473884D01*
%TO.N,Net-(U1-V-)*%
X385746Y-7636862D02*
X136384Y-7387500D01*
X385746Y-8147003D02*
X385746Y-7636862D01*
X4100000Y-8760000D02*
X3910000Y-8760000D01*
X4100000Y-8760000D02*
X4465000Y-8760000D01*
X4465000Y-8760000D02*
X4925000Y-9220000D01*
X3910000Y-8760000D02*
X3410000Y-9260000D01*
%TO.N,/AFE_En*%
X9150000Y2150000D02*
X8958080Y1958080D01*
X9150000Y3012500D02*
X9150000Y2150000D01*
X6450000Y2450000D02*
X6450000Y3975000D01*
X6450000Y3975000D02*
X5225000Y5200000D01*
X8958080Y1958080D02*
X6941920Y1958080D01*
X6941920Y1958080D02*
X6450000Y2450000D01*
%TO.N,Net-(U1--)*%
X1086384Y-3500000D02*
X1211384Y-3375000D01*
X1211384Y-3375000D02*
X2561384Y-3375000D01*
X1086384Y-5112500D02*
X1086384Y-3500000D01*
X1725000Y-1875000D02*
X2561384Y-2711384D01*
X2561384Y-2711384D02*
X2561384Y-3375000D01*
%TO.N,Net-(C7-Pad1)*%
X3400000Y-4100000D02*
X4125000Y-3375000D01*
X-2313616Y-10975000D02*
X-1188616Y-10975000D01*
X3275000Y-1875000D02*
X3275000Y-2438616D01*
X686384Y-10650000D02*
X-763616Y-10650000D01*
X4125000Y-3375000D02*
X4211384Y-3375000D01*
X-950000Y-10463616D02*
X-813616Y-10600000D01*
X-763616Y-10650000D02*
X-813616Y-10600000D01*
X3275000Y-2438616D02*
X4211384Y-3375000D01*
X-1188616Y-10975000D02*
X-813616Y-10600000D01*
X-950000Y-10050000D02*
X-950000Y-10463616D01*
%TO.N,Net-(D1-RK)*%
X75000Y4700000D02*
X75000Y3250000D01*
X75000Y3250000D02*
X25000Y3200000D01*
%TO.N,/PWM1*%
X-5350000Y11150000D02*
X-7350000Y9150000D01*
X-7350000Y9150000D02*
X-7350000Y6025000D01*
X-7350000Y6025000D02*
X-7700000Y5675000D01*
X2300000Y11150000D02*
X-5350000Y11150000D01*
X9800000Y3012500D02*
X9800000Y2050000D01*
%TO.N,/Audio_raw*%
X-5200000Y-550000D02*
X-3613616Y-550000D01*
X-3388616Y-3375000D02*
X-3388616Y-1925000D01*
X-2413616Y650000D02*
X-3438616Y-375000D01*
X-3388616Y-1925000D02*
X-3438616Y-1875000D01*
X-3613616Y-550000D02*
X-3438616Y-375000D01*
X-3438616Y-1875000D02*
X-3438616Y-375000D01*
X-1600000Y650000D02*
X-2413616Y650000D01*
%TO.N,Net-(D1-GK)*%
X25000Y7700000D02*
X25000Y6250000D01*
X375000Y5900000D02*
X75000Y6200000D01*
X25000Y6250000D02*
X75000Y6200000D01*
X600000Y5900000D02*
X375000Y5900000D01*
%TO.N,Net-(D1-BK)*%
X1675000Y3700000D02*
X2150000Y4175000D01*
X2150000Y3225000D02*
X1675000Y3700000D01*
X2150000Y2775000D02*
X2150000Y3225000D01*
X1200000Y3700000D02*
X1675000Y3700000D01*
%TO.N,/~{MCLR}*%
X9150000Y-2712500D02*
X9150000Y-4225182D01*
X9150000Y-4225182D02*
X9444039Y-4519221D01*
X9110000Y-5684818D02*
X9110000Y-7610000D01*
X9049317Y-5624135D02*
X9110000Y-5684818D01*
%TO.N,Net-(C8-Pad1)*%
X-813616Y-9050000D02*
X-813616Y-7387500D01*
X-763616Y-9000000D02*
X-813616Y-9050000D01*
X-2363616Y-4875000D02*
X-2363616Y-5377231D01*
X686384Y-9000000D02*
X-763616Y-9000000D01*
X-813616Y-6927231D02*
X-813616Y-7387500D01*
X-2363616Y-5377231D02*
X-813616Y-6927231D01*
%TO.N,/ICSP_DAT*%
X7850000Y3631348D02*
X7850000Y3012500D01*
%TO.N,/ICSP_CLK*%
X8500000Y3631348D02*
X8500000Y3012500D01*
X9825720Y4025720D02*
X8894372Y4025720D01*
X10900000Y5000000D02*
X10800000Y5000000D01*
X10800000Y5000000D02*
X9825720Y4025720D01*
X8894372Y4025720D02*
X8500000Y3631348D01*
%TO.N,/gnd_switch*%
X312104Y375720D02*
X1608433Y375720D01*
X-4400000Y-11750000D02*
X1400000Y-11750000D01*
X-1788616Y-1875000D02*
X-1788616Y-1725000D01*
X1608433Y375720D02*
X1841519Y142634D01*
X3410000Y-5470000D02*
X5075000Y-3805000D01*
X5075000Y-3805000D02*
X5075000Y-2175000D01*
X2600000Y-10550000D02*
X2600000Y-8420000D01*
X3824565Y-924565D02*
X3824565Y142634D01*
X-1788616Y-1725000D02*
X-363616Y-300000D01*
X1400000Y-11750000D02*
X2600000Y-10550000D01*
X-5326116Y-10823884D02*
X-4400000Y-11750000D01*
X-363616Y-300000D02*
X312104Y375720D01*
X1841519Y142634D02*
X3824565Y142634D01*
X4650000Y1162500D02*
X4650000Y968069D01*
X-5326116Y-9425000D02*
X-5326116Y-10823884D01*
X2600000Y-8420000D02*
X3410000Y-7610000D01*
X4650000Y968069D02*
X3824565Y142634D01*
X3410000Y-7610000D02*
X3410000Y-5470000D01*
X5075000Y-2175000D02*
X3824565Y-924565D01*
%TO.N,Net-(Q1-G)*%
X3575000Y5200000D02*
X3800000Y5200000D01*
X5600000Y3897690D02*
X5600000Y3037500D01*
X5145770Y4351920D02*
X5600000Y3897690D01*
X4648080Y4351920D02*
X5145770Y4351920D01*
X3800000Y5200000D02*
X4648080Y4351920D01*
%TO.N,Net-(Q2-G)*%
X-5662500Y4075000D02*
X-5237500Y3650000D01*
X-7650000Y4075000D02*
X-5662500Y4075000D01*
%TO.N,Net-(Q2-D)*%
X-1575000Y4700000D02*
X-3362500Y2912500D01*
X-3362500Y2912500D02*
X-3362500Y2700000D01*
%TO.N,Net-(Q3-D)*%
X-3250000Y6200000D02*
X-1575000Y6200000D01*
X-4012500Y6850000D02*
X-3900000Y6850000D01*
X-3900000Y6850000D02*
X-3250000Y6200000D01*
%TO.N,Net-(Q3-G)*%
X-5825000Y9350000D02*
X-5825000Y7862500D01*
X-5825000Y7862500D02*
X-5887500Y7800000D01*
%TO.N,Net-(Q4-D)*%
X2550000Y7512500D02*
X2550000Y6225000D01*
X2550000Y6225000D02*
X2150000Y5825000D01*
%TO.N,Net-(Q4-G)*%
X5075000Y9650000D02*
X5100000Y9675000D01*
X3762500Y9650000D02*
X5075000Y9650000D01*
X3500000Y9387500D02*
X3762500Y9650000D01*
D29*
%TO.N,/PGnd*%
X-6399991Y-4800011D02*
X-6399991Y-1650009D01*
X-6399991Y-1650009D02*
X-7250000Y-800000D01*
%TD*%
M02*
