%TF.GenerationSoftware,KiCad,Pcbnew,(6.0.1)*%
%TF.CreationDate,2023-02-09T13:33:18-07:00*%
%TF.ProjectId,NoteDetector,4e6f7465-4465-4746-9563-746f722e6b69,rev?*%
%TF.SameCoordinates,Original*%
%TF.FileFunction,Legend,Top*%
%TF.FilePolarity,Positive*%
%FSLAX46Y46*%
G04 Gerber Fmt 4.6, Leading zero omitted, Abs format (unit mm)*
G04 Created by KiCad (PCBNEW (6.0.1)) date 2023-02-09 13:33:18*
%MOMM*%
%LPD*%
G01*
G04 APERTURE LIST*
%ADD10C,0.100000*%
%ADD11C,0.150000*%
%ADD12C,0.120000*%
G04 APERTURE END LIST*
D10*
X-8055428Y7292142D02*
X-7455428Y7292142D01*
X-7884000Y7092142D01*
X-7455428Y6892142D01*
X-8055428Y6892142D01*
X-8055428Y6349285D02*
X-7741142Y6349285D01*
X-7684000Y6377857D01*
X-7655428Y6435000D01*
X-7655428Y6549285D01*
X-7684000Y6606428D01*
X-8026857Y6349285D02*
X-8055428Y6406428D01*
X-8055428Y6549285D01*
X-8026857Y6606428D01*
X-7969714Y6635000D01*
X-7912571Y6635000D01*
X-7855428Y6606428D01*
X-7826857Y6549285D01*
X-7826857Y6406428D01*
X-7798285Y6349285D01*
X-7655428Y6149285D02*
X-7655428Y5920714D01*
X-7455428Y6063571D02*
X-7969714Y6063571D01*
X-8026857Y6035000D01*
X-8055428Y5977857D01*
X-8055428Y5920714D01*
X-7655428Y5806428D02*
X-7655428Y5577857D01*
X-7455428Y5720714D02*
X-7969714Y5720714D01*
X-8026857Y5692142D01*
X-8055428Y5635000D01*
X-8055428Y5577857D01*
X-8055428Y4920714D02*
X-7455428Y4920714D01*
X-7455428Y4777857D01*
X-7484000Y4692142D01*
X-7541142Y4635000D01*
X-7598285Y4606428D01*
X-7712571Y4577857D01*
X-7798285Y4577857D01*
X-7912571Y4606428D01*
X-7969714Y4635000D01*
X-8026857Y4692142D01*
X-8055428Y4777857D01*
X-8055428Y4920714D01*
X-8055428Y4320714D02*
X-7655428Y4320714D01*
X-7455428Y4320714D02*
X-7484000Y4349285D01*
X-7512571Y4320714D01*
X-7484000Y4292142D01*
X-7455428Y4320714D01*
X-7512571Y4320714D01*
X-8055428Y3949285D02*
X-8026857Y4006428D01*
X-7998285Y4035000D01*
X-7941142Y4063571D01*
X-7769714Y4063571D01*
X-7712571Y4035000D01*
X-7684000Y4006428D01*
X-7655428Y3949285D01*
X-7655428Y3863571D01*
X-7684000Y3806428D01*
X-7712571Y3777857D01*
X-7769714Y3749285D01*
X-7941142Y3749285D01*
X-7998285Y3777857D01*
X-8026857Y3806428D01*
X-8055428Y3863571D01*
X-8055428Y3949285D01*
X-7655428Y3492142D02*
X-8055428Y3492142D01*
X-7712571Y3492142D02*
X-7684000Y3463571D01*
X-7655428Y3406428D01*
X-7655428Y3320714D01*
X-7684000Y3263571D01*
X-7741142Y3235000D01*
X-8055428Y3235000D01*
X-9021428Y7006428D02*
X-9021428Y7292142D01*
X-8421428Y7292142D01*
X-9021428Y6806428D02*
X-8621428Y6806428D01*
X-8421428Y6806428D02*
X-8450000Y6835000D01*
X-8478571Y6806428D01*
X-8450000Y6777857D01*
X-8421428Y6806428D01*
X-8478571Y6806428D01*
X-8621428Y6263571D02*
X-9107142Y6263571D01*
X-9164285Y6292142D01*
X-9192857Y6320714D01*
X-9221428Y6377857D01*
X-9221428Y6463571D01*
X-9192857Y6520714D01*
X-8992857Y6263571D02*
X-9021428Y6320714D01*
X-9021428Y6435000D01*
X-8992857Y6492142D01*
X-8964285Y6520714D01*
X-8907142Y6549285D01*
X-8735714Y6549285D01*
X-8678571Y6520714D01*
X-8650000Y6492142D01*
X-8621428Y6435000D01*
X-8621428Y6320714D01*
X-8650000Y6263571D01*
X-9021428Y5977857D02*
X-8421428Y5977857D01*
X-9021428Y5720714D02*
X-8707142Y5720714D01*
X-8650000Y5749285D01*
X-8621428Y5806428D01*
X-8621428Y5892142D01*
X-8650000Y5949285D01*
X-8678571Y5977857D01*
X-8621428Y5520714D02*
X-8621428Y5292142D01*
X-8421428Y5435000D02*
X-8935714Y5435000D01*
X-8992857Y5406428D01*
X-9021428Y5349285D01*
X-9021428Y5292142D01*
X-8621428Y4835000D02*
X-9021428Y4835000D01*
X-8621428Y5092142D02*
X-8935714Y5092142D01*
X-8992857Y5063571D01*
X-9021428Y5006428D01*
X-9021428Y4920714D01*
X-8992857Y4863571D01*
X-8964285Y4835000D01*
X-8621428Y4549285D02*
X-9221428Y4549285D01*
X-8650000Y4549285D02*
X-8621428Y4492142D01*
X-8621428Y4377857D01*
X-8650000Y4320714D01*
X-8678571Y4292142D01*
X-8735714Y4263571D01*
X-8907142Y4263571D01*
X-8964285Y4292142D01*
X-8992857Y4320714D01*
X-9021428Y4377857D01*
X-9021428Y4492142D01*
X-8992857Y4549285D01*
X-8621428Y3549285D02*
X-9021428Y3549285D01*
X-8678571Y3549285D02*
X-8650000Y3520714D01*
X-8621428Y3463571D01*
X-8621428Y3377857D01*
X-8650000Y3320714D01*
X-8707142Y3292142D01*
X-9021428Y3292142D01*
X-9021428Y2920714D02*
X-8992857Y2977857D01*
X-8964285Y3006428D01*
X-8907142Y3035000D01*
X-8735714Y3035000D01*
X-8678571Y3006428D01*
X-8650000Y2977857D01*
X-8621428Y2920714D01*
X-8621428Y2835000D01*
X-8650000Y2777857D01*
X-8678571Y2749285D01*
X-8735714Y2720714D01*
X-8907142Y2720714D01*
X-8964285Y2749285D01*
X-8992857Y2777857D01*
X-9021428Y2835000D01*
X-9021428Y2920714D01*
X-8621428Y2549285D02*
X-8621428Y2320714D01*
X-8421428Y2463571D02*
X-8935714Y2463571D01*
X-8992857Y2435000D01*
X-9021428Y2377857D01*
X-9021428Y2320714D01*
X-8992857Y1892142D02*
X-9021428Y1949285D01*
X-9021428Y2063571D01*
X-8992857Y2120714D01*
X-8935714Y2149285D01*
X-8707142Y2149285D01*
X-8650000Y2120714D01*
X-8621428Y2063571D01*
X-8621428Y1949285D01*
X-8650000Y1892142D01*
X-8707142Y1863571D01*
X-8764285Y1863571D01*
X-8821428Y2149285D01*
X-9021428Y892142D02*
X-8421428Y892142D01*
X-8992857Y892142D02*
X-9021428Y949285D01*
X-9021428Y1063571D01*
X-8992857Y1120714D01*
X-8964285Y1149285D01*
X-8907142Y1177857D01*
X-8735714Y1177857D01*
X-8678571Y1149285D01*
X-8650000Y1120714D01*
X-8621428Y1063571D01*
X-8621428Y949285D01*
X-8650000Y892142D01*
X-8992857Y377857D02*
X-9021428Y435000D01*
X-9021428Y549285D01*
X-8992857Y606428D01*
X-8935714Y635000D01*
X-8707142Y635000D01*
X-8650000Y606428D01*
X-8621428Y549285D01*
X-8621428Y435000D01*
X-8650000Y377857D01*
X-8707142Y349285D01*
X-8764285Y349285D01*
X-8821428Y635000D01*
X-8621428Y177857D02*
X-8621428Y-50714D01*
X-8421428Y92142D02*
X-8935714Y92142D01*
X-8992857Y63571D01*
X-9021428Y6428D01*
X-9021428Y-50714D01*
X-8992857Y-479285D02*
X-9021428Y-422142D01*
X-9021428Y-307857D01*
X-8992857Y-250714D01*
X-8935714Y-222142D01*
X-8707142Y-222142D01*
X-8650000Y-250714D01*
X-8621428Y-307857D01*
X-8621428Y-422142D01*
X-8650000Y-479285D01*
X-8707142Y-507857D01*
X-8764285Y-507857D01*
X-8821428Y-222142D01*
X-8992857Y-1022142D02*
X-9021428Y-965000D01*
X-9021428Y-850714D01*
X-8992857Y-793571D01*
X-8964285Y-765000D01*
X-8907142Y-736428D01*
X-8735714Y-736428D01*
X-8678571Y-765000D01*
X-8650000Y-793571D01*
X-8621428Y-850714D01*
X-8621428Y-965000D01*
X-8650000Y-1022142D01*
X-8621428Y-1193571D02*
X-8621428Y-1422142D01*
X-8421428Y-1279285D02*
X-8935714Y-1279285D01*
X-8992857Y-1307857D01*
X-9021428Y-1365000D01*
X-9021428Y-1422142D01*
X-9021428Y-1707857D02*
X-8992857Y-1650714D01*
X-8964285Y-1622142D01*
X-8907142Y-1593571D01*
X-8735714Y-1593571D01*
X-8678571Y-1622142D01*
X-8650000Y-1650714D01*
X-8621428Y-1707857D01*
X-8621428Y-1793571D01*
X-8650000Y-1850714D01*
X-8678571Y-1879285D01*
X-8735714Y-1907857D01*
X-8907142Y-1907857D01*
X-8964285Y-1879285D01*
X-8992857Y-1850714D01*
X-9021428Y-1793571D01*
X-9021428Y-1707857D01*
X-9021428Y-2165000D02*
X-8621428Y-2165000D01*
X-8735714Y-2165000D02*
X-8678571Y-2193571D01*
X-8650000Y-2222142D01*
X-8621428Y-2279285D01*
X-8621428Y-2336428D01*
X-9987428Y6949285D02*
X-9701714Y7149285D01*
X-9987428Y7292142D02*
X-9387428Y7292142D01*
X-9387428Y7063571D01*
X-9416000Y7006428D01*
X-9444571Y6977857D01*
X-9501714Y6949285D01*
X-9587428Y6949285D01*
X-9644571Y6977857D01*
X-9673142Y7006428D01*
X-9701714Y7063571D01*
X-9701714Y7292142D01*
X-9958857Y6463571D02*
X-9987428Y6520714D01*
X-9987428Y6635000D01*
X-9958857Y6692142D01*
X-9901714Y6720714D01*
X-9673142Y6720714D01*
X-9616000Y6692142D01*
X-9587428Y6635000D01*
X-9587428Y6520714D01*
X-9616000Y6463571D01*
X-9673142Y6435000D01*
X-9730285Y6435000D01*
X-9787428Y6720714D01*
X-9587428Y6235000D02*
X-9987428Y6092142D01*
X-9587428Y5949285D01*
X-9444571Y5749285D02*
X-9416000Y5720714D01*
X-9387428Y5663571D01*
X-9387428Y5520714D01*
X-9416000Y5463571D01*
X-9444571Y5435000D01*
X-9501714Y5406428D01*
X-9558857Y5406428D01*
X-9644571Y5435000D01*
X-9987428Y5777857D01*
X-9987428Y5406428D01*
X-9673142Y4492142D02*
X-9673142Y4692142D01*
X-9987428Y4692142D02*
X-9387428Y4692142D01*
X-9387428Y4406428D01*
X-9958857Y3949285D02*
X-9987428Y4006428D01*
X-9987428Y4120714D01*
X-9958857Y4177857D01*
X-9901714Y4206428D01*
X-9673142Y4206428D01*
X-9616000Y4177857D01*
X-9587428Y4120714D01*
X-9587428Y4006428D01*
X-9616000Y3949285D01*
X-9673142Y3920714D01*
X-9730285Y3920714D01*
X-9787428Y4206428D01*
X-9987428Y3663571D02*
X-9387428Y3663571D01*
X-9616000Y3663571D02*
X-9587428Y3606428D01*
X-9587428Y3492142D01*
X-9616000Y3435000D01*
X-9644571Y3406428D01*
X-9701714Y3377857D01*
X-9873142Y3377857D01*
X-9930285Y3406428D01*
X-9958857Y3435000D01*
X-9987428Y3492142D01*
X-9987428Y3606428D01*
X-9958857Y3663571D01*
X-9387428Y2549285D02*
X-9387428Y2492142D01*
X-9416000Y2435000D01*
X-9444571Y2406428D01*
X-9501714Y2377857D01*
X-9616000Y2349285D01*
X-9758857Y2349285D01*
X-9873142Y2377857D01*
X-9930285Y2406428D01*
X-9958857Y2435000D01*
X-9987428Y2492142D01*
X-9987428Y2549285D01*
X-9958857Y2606428D01*
X-9930285Y2635000D01*
X-9873142Y2663571D01*
X-9758857Y2692142D01*
X-9616000Y2692142D01*
X-9501714Y2663571D01*
X-9444571Y2635000D01*
X-9416000Y2606428D01*
X-9387428Y2549285D01*
X-9987428Y2063571D02*
X-9987428Y1949285D01*
X-9958857Y1892142D01*
X-9930285Y1863571D01*
X-9844571Y1806428D01*
X-9730285Y1777857D01*
X-9501714Y1777857D01*
X-9444571Y1806428D01*
X-9416000Y1835000D01*
X-9387428Y1892142D01*
X-9387428Y2006428D01*
X-9416000Y2063571D01*
X-9444571Y2092142D01*
X-9501714Y2120714D01*
X-9644571Y2120714D01*
X-9701714Y2092142D01*
X-9730285Y2063571D01*
X-9758857Y2006428D01*
X-9758857Y1892142D01*
X-9730285Y1835000D01*
X-9701714Y1806428D01*
X-9644571Y1777857D01*
X-9444571Y1092142D02*
X-9416000Y1063571D01*
X-9387428Y1006428D01*
X-9387428Y863571D01*
X-9416000Y806428D01*
X-9444571Y777857D01*
X-9501714Y749285D01*
X-9558857Y749285D01*
X-9644571Y777857D01*
X-9987428Y1120714D01*
X-9987428Y749285D01*
X-9387428Y377857D02*
X-9387428Y320714D01*
X-9416000Y263571D01*
X-9444571Y235000D01*
X-9501714Y206428D01*
X-9616000Y177857D01*
X-9758857Y177857D01*
X-9873142Y206428D01*
X-9930285Y235000D01*
X-9958857Y263571D01*
X-9987428Y320714D01*
X-9987428Y377857D01*
X-9958857Y435000D01*
X-9930285Y463571D01*
X-9873142Y492142D01*
X-9758857Y520714D01*
X-9616000Y520714D01*
X-9501714Y492142D01*
X-9444571Y463571D01*
X-9416000Y435000D01*
X-9387428Y377857D01*
X-9444571Y-50714D02*
X-9416000Y-79285D01*
X-9387428Y-136428D01*
X-9387428Y-279285D01*
X-9416000Y-336428D01*
X-9444571Y-364999D01*
X-9501714Y-393571D01*
X-9558857Y-393571D01*
X-9644571Y-364999D01*
X-9987428Y-22142D01*
X-9987428Y-393571D01*
X-9387428Y-593571D02*
X-9387428Y-964999D01*
X-9616000Y-764999D01*
X-9616000Y-850714D01*
X-9644571Y-907857D01*
X-9673142Y-936428D01*
X-9730285Y-964999D01*
X-9873142Y-964999D01*
X-9930285Y-936428D01*
X-9958857Y-907857D01*
X-9987428Y-850714D01*
X-9987428Y-679285D01*
X-9958857Y-622142D01*
X-9930285Y-593571D01*
D11*
X-1600000Y-11850000D02*
X-1600000Y-9350000D01*
X5100000Y-6900000D02*
X4850000Y-7150000D01*
X-7450000Y-5700000D02*
X-8100000Y-5250000D01*
X1550000Y-9100000D02*
X1550000Y-11400000D01*
X2126384Y-8625000D02*
X3613884Y-8625000D01*
X-7700000Y-8600000D02*
X-4450000Y-8650000D01*
X-1600000Y-8800000D02*
X-1841116Y-8700000D01*
X-7450000Y-5700000D02*
X-2886116Y-5700000D01*
X-1850000Y-12100000D02*
X-1600000Y-11850000D01*
X-1600000Y-9350000D02*
X-1600000Y-8800000D01*
X2126384Y-8625000D02*
X1550000Y-9100000D01*
X4850000Y-7150000D02*
X3450000Y-7150000D01*
X3450000Y-7150000D02*
X3250000Y-6900000D01*
D10*
%TO.C,R7*%
X5521428Y-5000000D02*
X5235714Y-5200000D01*
X5521428Y-5342857D02*
X4921428Y-5342857D01*
X4921428Y-5114285D01*
X4950000Y-5057142D01*
X4978571Y-5028571D01*
X5035714Y-5000000D01*
X5121428Y-5000000D01*
X5178571Y-5028571D01*
X5207142Y-5057142D01*
X5235714Y-5114285D01*
X5235714Y-5342857D01*
X4921428Y-4800000D02*
X4921428Y-4400000D01*
X5521428Y-4657142D01*
%TO.C,C8*%
X364285Y-11950000D02*
X392857Y-11978571D01*
X421428Y-12064285D01*
X421428Y-12121428D01*
X392857Y-12207142D01*
X335714Y-12264285D01*
X278571Y-12292857D01*
X164285Y-12321428D01*
X78571Y-12321428D01*
X-35714Y-12292857D01*
X-92857Y-12264285D01*
X-150000Y-12207142D01*
X-178571Y-12121428D01*
X-178571Y-12064285D01*
X-150000Y-11978571D01*
X-121428Y-11950000D01*
X78571Y-11607142D02*
X50000Y-11664285D01*
X21428Y-11692857D01*
X-35714Y-11721428D01*
X-64285Y-11721428D01*
X-121428Y-11692857D01*
X-150000Y-11664285D01*
X-178571Y-11607142D01*
X-178571Y-11492857D01*
X-150000Y-11435714D01*
X-121428Y-11407142D01*
X-64285Y-11378571D01*
X-35714Y-11378571D01*
X21428Y-11407142D01*
X50000Y-11435714D01*
X78571Y-11492857D01*
X78571Y-11607142D01*
X107142Y-11664285D01*
X135714Y-11692857D01*
X192857Y-11721428D01*
X307142Y-11721428D01*
X364285Y-11692857D01*
X392857Y-11664285D01*
X421428Y-11607142D01*
X421428Y-11492857D01*
X392857Y-11435714D01*
X364285Y-11407142D01*
X307142Y-11378571D01*
X192857Y-11378571D01*
X135714Y-11407142D01*
X107142Y-11435714D01*
X78571Y-11492857D01*
%TO.C,R11*%
X-135714Y-4571428D02*
X-335714Y-4285714D01*
X-478571Y-4571428D02*
X-478571Y-3971428D01*
X-249999Y-3971428D01*
X-192857Y-4000000D01*
X-164285Y-4028571D01*
X-135714Y-4085714D01*
X-135714Y-4171428D01*
X-164285Y-4228571D01*
X-192857Y-4257142D01*
X-249999Y-4285714D01*
X-478571Y-4285714D01*
X435714Y-4571428D02*
X92857Y-4571428D01*
X264285Y-4571428D02*
X264285Y-3971428D01*
X207142Y-4057142D01*
X150000Y-4114285D01*
X92857Y-4142857D01*
X1007142Y-4571428D02*
X664285Y-4571428D01*
X835714Y-4571428D02*
X835714Y-3971428D01*
X778571Y-4057142D01*
X721428Y-4114285D01*
X664285Y-4142857D01*
%TO.C,R20*%
X1421428Y4614285D02*
X1135714Y4414285D01*
X1421428Y4271428D02*
X821428Y4271428D01*
X821428Y4500000D01*
X850000Y4557142D01*
X878571Y4585714D01*
X935714Y4614285D01*
X1021428Y4614285D01*
X1078571Y4585714D01*
X1107142Y4557142D01*
X1135714Y4500000D01*
X1135714Y4271428D01*
X878571Y4842857D02*
X850000Y4871428D01*
X821428Y4928571D01*
X821428Y5071428D01*
X850000Y5128571D01*
X878571Y5157142D01*
X935714Y5185714D01*
X992857Y5185714D01*
X1078571Y5157142D01*
X1421428Y4814285D01*
X1421428Y5185714D01*
X821428Y5557142D02*
X821428Y5614285D01*
X850000Y5671428D01*
X878571Y5700000D01*
X935714Y5728571D01*
X1050000Y5757142D01*
X1192857Y5757142D01*
X1307142Y5728571D01*
X1364285Y5700000D01*
X1392857Y5671428D01*
X1421428Y5614285D01*
X1421428Y5557142D01*
X1392857Y5500000D01*
X1364285Y5471428D01*
X1307142Y5442857D01*
X1192857Y5414285D01*
X1050000Y5414285D01*
X935714Y5442857D01*
X878571Y5471428D01*
X850000Y5500000D01*
X821428Y5557142D01*
%TO.C,R16*%
X-8078571Y-4735714D02*
X-8364285Y-4935714D01*
X-8078571Y-5078571D02*
X-8678571Y-5078571D01*
X-8678571Y-4850000D01*
X-8650000Y-4792857D01*
X-8621428Y-4764285D01*
X-8564285Y-4735714D01*
X-8478571Y-4735714D01*
X-8421428Y-4764285D01*
X-8392857Y-4792857D01*
X-8364285Y-4850000D01*
X-8364285Y-5078571D01*
X-8078571Y-4164285D02*
X-8078571Y-4507142D01*
X-8078571Y-4335714D02*
X-8678571Y-4335714D01*
X-8592857Y-4392857D01*
X-8535714Y-4450000D01*
X-8507142Y-4507142D01*
X-8678571Y-3650000D02*
X-8678571Y-3764285D01*
X-8650000Y-3821428D01*
X-8621428Y-3850000D01*
X-8535714Y-3907142D01*
X-8421428Y-3935714D01*
X-8192857Y-3935714D01*
X-8135714Y-3907142D01*
X-8107142Y-3878571D01*
X-8078571Y-3821428D01*
X-8078571Y-3707142D01*
X-8107142Y-3650000D01*
X-8135714Y-3621428D01*
X-8192857Y-3592857D01*
X-8335714Y-3592857D01*
X-8392857Y-3621428D01*
X-8421428Y-3650000D01*
X-8450000Y-3707142D01*
X-8450000Y-3821428D01*
X-8421428Y-3878571D01*
X-8392857Y-3907142D01*
X-8335714Y-3935714D01*
%TO.C,C1*%
X-7100000Y-2564285D02*
X-7128571Y-2592857D01*
X-7214285Y-2621428D01*
X-7271428Y-2621428D01*
X-7357142Y-2592857D01*
X-7414285Y-2535714D01*
X-7442857Y-2478571D01*
X-7471428Y-2364285D01*
X-7471428Y-2278571D01*
X-7442857Y-2164285D01*
X-7414285Y-2107142D01*
X-7357142Y-2050000D01*
X-7271428Y-2021428D01*
X-7214285Y-2021428D01*
X-7128571Y-2050000D01*
X-7100000Y-2078571D01*
X-6528571Y-2621428D02*
X-6871428Y-2621428D01*
X-6700000Y-2621428D02*
X-6700000Y-2021428D01*
X-6757142Y-2107142D01*
X-6814285Y-2164285D01*
X-6871428Y-2192857D01*
%TO.C,J2*%
X11200000Y-3771428D02*
X11200000Y-4200000D01*
X11171428Y-4285714D01*
X11114285Y-4342857D01*
X11028571Y-4371428D01*
X10971428Y-4371428D01*
X11457142Y-3828571D02*
X11485714Y-3800000D01*
X11542857Y-3771428D01*
X11685714Y-3771428D01*
X11742857Y-3800000D01*
X11771428Y-3828571D01*
X11800000Y-3885714D01*
X11800000Y-3942857D01*
X11771428Y-4028571D01*
X11428571Y-4371428D01*
X11800000Y-4371428D01*
%TO.C,C5*%
X-4085714Y-3550000D02*
X-4057142Y-3578571D01*
X-4028571Y-3664285D01*
X-4028571Y-3721428D01*
X-4057142Y-3807142D01*
X-4114285Y-3864285D01*
X-4171428Y-3892857D01*
X-4285714Y-3921428D01*
X-4371428Y-3921428D01*
X-4485714Y-3892857D01*
X-4542857Y-3864285D01*
X-4600000Y-3807142D01*
X-4628571Y-3721428D01*
X-4628571Y-3664285D01*
X-4600000Y-3578571D01*
X-4571428Y-3550000D01*
X-4628571Y-3007142D02*
X-4628571Y-3292857D01*
X-4342857Y-3321428D01*
X-4371428Y-3292857D01*
X-4400000Y-3235714D01*
X-4400000Y-3092857D01*
X-4371428Y-3035714D01*
X-4342857Y-3007142D01*
X-4285714Y-2978571D01*
X-4142857Y-2978571D01*
X-4085714Y-3007142D01*
X-4057142Y-3035714D01*
X-4028571Y-3092857D01*
X-4028571Y-3235714D01*
X-4057142Y-3292857D01*
X-4085714Y-3321428D01*
%TO.C,R12*%
X5464285Y-10421428D02*
X5264285Y-10135714D01*
X5121428Y-10421428D02*
X5121428Y-9821428D01*
X5350000Y-9821428D01*
X5407142Y-9850000D01*
X5435714Y-9878571D01*
X5464285Y-9935714D01*
X5464285Y-10021428D01*
X5435714Y-10078571D01*
X5407142Y-10107142D01*
X5350000Y-10135714D01*
X5121428Y-10135714D01*
X6035714Y-10421428D02*
X5692857Y-10421428D01*
X5864285Y-10421428D02*
X5864285Y-9821428D01*
X5807142Y-9907142D01*
X5750000Y-9964285D01*
X5692857Y-9992857D01*
X6264285Y-9878571D02*
X6292857Y-9850000D01*
X6350000Y-9821428D01*
X6492857Y-9821428D01*
X6550000Y-9850000D01*
X6578571Y-9878571D01*
X6607142Y-9935714D01*
X6607142Y-9992857D01*
X6578571Y-10078571D01*
X6235714Y-10421428D01*
X6607142Y-10421428D01*
%TO.C,C12*%
X6414285Y-5685714D02*
X6442857Y-5714285D01*
X6471428Y-5799999D01*
X6471428Y-5857142D01*
X6442857Y-5942857D01*
X6385714Y-5999999D01*
X6328571Y-6028571D01*
X6214285Y-6057142D01*
X6128571Y-6057142D01*
X6014285Y-6028571D01*
X5957142Y-5999999D01*
X5900000Y-5942857D01*
X5871428Y-5857142D01*
X5871428Y-5799999D01*
X5900000Y-5714285D01*
X5928571Y-5685714D01*
X6471428Y-5114285D02*
X6471428Y-5457142D01*
X6471428Y-5285714D02*
X5871428Y-5285714D01*
X5957142Y-5342857D01*
X6014285Y-5400000D01*
X6042857Y-5457142D01*
X5928571Y-4885714D02*
X5900000Y-4857142D01*
X5871428Y-4800000D01*
X5871428Y-4657142D01*
X5900000Y-4600000D01*
X5928571Y-4571428D01*
X5985714Y-4542857D01*
X6042857Y-4542857D01*
X6128571Y-4571428D01*
X6471428Y-4914285D01*
X6471428Y-4542857D01*
%TO.C,R17*%
X-3085714Y-12521428D02*
X-3285714Y-12235714D01*
X-3428571Y-12521428D02*
X-3428571Y-11921428D01*
X-3200000Y-11921428D01*
X-3142857Y-11950000D01*
X-3114285Y-11978571D01*
X-3085714Y-12035714D01*
X-3085714Y-12121428D01*
X-3114285Y-12178571D01*
X-3142857Y-12207142D01*
X-3200000Y-12235714D01*
X-3428571Y-12235714D01*
X-2514285Y-12521428D02*
X-2857142Y-12521428D01*
X-2685714Y-12521428D02*
X-2685714Y-11921428D01*
X-2742857Y-12007142D01*
X-2800000Y-12064285D01*
X-2857142Y-12092857D01*
X-2314285Y-11921428D02*
X-1914285Y-11921428D01*
X-2171428Y-12521428D01*
%TO.C,R14*%
X-728571Y-12221428D02*
X-1014285Y-12388095D01*
X-728571Y-12507142D02*
X-1328571Y-12507142D01*
X-1328571Y-12316666D01*
X-1300000Y-12269047D01*
X-1271428Y-12245238D01*
X-1214285Y-12221428D01*
X-1128571Y-12221428D01*
X-1071428Y-12245238D01*
X-1042857Y-12269047D01*
X-1014285Y-12316666D01*
X-1014285Y-12507142D01*
X-728571Y-11745238D02*
X-728571Y-12030952D01*
X-728571Y-11888095D02*
X-1328571Y-11888095D01*
X-1242857Y-11935714D01*
X-1185714Y-11983333D01*
X-1157142Y-12030952D01*
X-1128571Y-11316666D02*
X-728571Y-11316666D01*
X-1357142Y-11435714D02*
X-928571Y-11554761D01*
X-928571Y-11245238D01*
%TO.C,C7*%
X3300000Y-1164285D02*
X3271428Y-1192857D01*
X3185714Y-1221428D01*
X3128571Y-1221428D01*
X3042857Y-1192857D01*
X2985714Y-1135714D01*
X2957142Y-1078571D01*
X2928571Y-964285D01*
X2928571Y-878571D01*
X2957142Y-764285D01*
X2985714Y-707142D01*
X3042857Y-650000D01*
X3128571Y-621428D01*
X3185714Y-621428D01*
X3271428Y-650000D01*
X3300000Y-678571D01*
X3500000Y-621428D02*
X3900000Y-621428D01*
X3642857Y-1221428D01*
%TO.C,R15*%
X-4678571Y-11271428D02*
X-4964285Y-11438095D01*
X-4678571Y-11557142D02*
X-5278571Y-11557142D01*
X-5278571Y-11366666D01*
X-5250000Y-11319047D01*
X-5221428Y-11295238D01*
X-5164285Y-11271428D01*
X-5078571Y-11271428D01*
X-5021428Y-11295238D01*
X-4992857Y-11319047D01*
X-4964285Y-11366666D01*
X-4964285Y-11557142D01*
X-4678571Y-10795238D02*
X-4678571Y-11080952D01*
X-4678571Y-10938095D02*
X-5278571Y-10938095D01*
X-5192857Y-10985714D01*
X-5135714Y-11033333D01*
X-5107142Y-11080952D01*
X-5278571Y-10342857D02*
X-5278571Y-10580952D01*
X-4992857Y-10604761D01*
X-5021428Y-10580952D01*
X-5050000Y-10533333D01*
X-5050000Y-10414285D01*
X-5021428Y-10366666D01*
X-4992857Y-10342857D01*
X-4935714Y-10319047D01*
X-4792857Y-10319047D01*
X-4735714Y-10342857D01*
X-4707142Y-10366666D01*
X-4678571Y-10414285D01*
X-4678571Y-10533333D01*
X-4707142Y-10580952D01*
X-4735714Y-10604761D01*
%TO.C,R18*%
X-3485714Y4378571D02*
X-3685714Y4664285D01*
X-3828571Y4378571D02*
X-3828571Y4978571D01*
X-3600000Y4978571D01*
X-3542857Y4950000D01*
X-3514285Y4921428D01*
X-3485714Y4864285D01*
X-3485714Y4778571D01*
X-3514285Y4721428D01*
X-3542857Y4692857D01*
X-3600000Y4664285D01*
X-3828571Y4664285D01*
X-2914285Y4378571D02*
X-3257142Y4378571D01*
X-3085714Y4378571D02*
X-3085714Y4978571D01*
X-3142857Y4892857D01*
X-3200000Y4835714D01*
X-3257142Y4807142D01*
X-2571428Y4721428D02*
X-2628571Y4750000D01*
X-2657142Y4778571D01*
X-2685714Y4835714D01*
X-2685714Y4864285D01*
X-2657142Y4921428D01*
X-2628571Y4950000D01*
X-2571428Y4978571D01*
X-2457142Y4978571D01*
X-2400000Y4950000D01*
X-2371428Y4921428D01*
X-2342857Y4864285D01*
X-2342857Y4835714D01*
X-2371428Y4778571D01*
X-2400000Y4750000D01*
X-2457142Y4721428D01*
X-2571428Y4721428D01*
X-2628571Y4692857D01*
X-2657142Y4664285D01*
X-2685714Y4607142D01*
X-2685714Y4492857D01*
X-2657142Y4435714D01*
X-2628571Y4407142D01*
X-2571428Y4378571D01*
X-2457142Y4378571D01*
X-2400000Y4407142D01*
X-2371428Y4435714D01*
X-2342857Y4492857D01*
X-2342857Y4607142D01*
X-2371428Y4664285D01*
X-2400000Y4692857D01*
X-2457142Y4721428D01*
%TO.C,C14*%
X-3485714Y7535714D02*
X-3514285Y7507142D01*
X-3600000Y7478571D01*
X-3657142Y7478571D01*
X-3742857Y7507142D01*
X-3800000Y7564285D01*
X-3828571Y7621428D01*
X-3857142Y7735714D01*
X-3857142Y7821428D01*
X-3828571Y7935714D01*
X-3800000Y7992857D01*
X-3742857Y8050000D01*
X-3657142Y8078571D01*
X-3600000Y8078571D01*
X-3514285Y8050000D01*
X-3485714Y8021428D01*
X-2914285Y7478571D02*
X-3257142Y7478571D01*
X-3085714Y7478571D02*
X-3085714Y8078571D01*
X-3142857Y7992857D01*
X-3200000Y7935714D01*
X-3257142Y7907142D01*
X-2400000Y7878571D02*
X-2400000Y7478571D01*
X-2542857Y8107142D02*
X-2685714Y7678571D01*
X-2314285Y7678571D01*
%TO.C,C11*%
X9964285Y-7035714D02*
X9992857Y-7064285D01*
X10021428Y-7150000D01*
X10021428Y-7207142D01*
X9992857Y-7292857D01*
X9935714Y-7350000D01*
X9878571Y-7378571D01*
X9764285Y-7407142D01*
X9678571Y-7407142D01*
X9564285Y-7378571D01*
X9507142Y-7350000D01*
X9450000Y-7292857D01*
X9421428Y-7207142D01*
X9421428Y-7150000D01*
X9450000Y-7064285D01*
X9478571Y-7035714D01*
X10021428Y-6464285D02*
X10021428Y-6807142D01*
X10021428Y-6635714D02*
X9421428Y-6635714D01*
X9507142Y-6692857D01*
X9564285Y-6750000D01*
X9592857Y-6807142D01*
X10021428Y-5892857D02*
X10021428Y-6235714D01*
X10021428Y-6064285D02*
X9421428Y-6064285D01*
X9507142Y-6121428D01*
X9564285Y-6178571D01*
X9592857Y-6235714D01*
%TO.C,R5*%
X-7578571Y-7350000D02*
X-7864285Y-7550000D01*
X-7578571Y-7692857D02*
X-8178571Y-7692857D01*
X-8178571Y-7464285D01*
X-8150000Y-7407142D01*
X-8121428Y-7378571D01*
X-8064285Y-7350000D01*
X-7978571Y-7350000D01*
X-7921428Y-7378571D01*
X-7892857Y-7407142D01*
X-7864285Y-7464285D01*
X-7864285Y-7692857D01*
X-8178571Y-6807142D02*
X-8178571Y-7092857D01*
X-7892857Y-7121428D01*
X-7921428Y-7092857D01*
X-7950000Y-7035714D01*
X-7950000Y-6892857D01*
X-7921428Y-6835714D01*
X-7892857Y-6807142D01*
X-7835714Y-6778571D01*
X-7692857Y-6778571D01*
X-7635714Y-6807142D01*
X-7607142Y-6835714D01*
X-7578571Y-6892857D01*
X-7578571Y-7035714D01*
X-7607142Y-7092857D01*
X-7635714Y-7121428D01*
%TO.C,R4*%
X-5750000Y-2671428D02*
X-5950000Y-2385714D01*
X-6092857Y-2671428D02*
X-6092857Y-2071428D01*
X-5864285Y-2071428D01*
X-5807142Y-2100000D01*
X-5778571Y-2128571D01*
X-5750000Y-2185714D01*
X-5750000Y-2271428D01*
X-5778571Y-2328571D01*
X-5807142Y-2357142D01*
X-5864285Y-2385714D01*
X-6092857Y-2385714D01*
X-5235714Y-2271428D02*
X-5235714Y-2671428D01*
X-5378571Y-2042857D02*
X-5521428Y-2471428D01*
X-5150000Y-2471428D01*
%TO.C,C2*%
X-8435714Y-7950000D02*
X-8407142Y-7978571D01*
X-8378571Y-8064285D01*
X-8378571Y-8121428D01*
X-8407142Y-8207142D01*
X-8464285Y-8264285D01*
X-8521428Y-8292857D01*
X-8635714Y-8321428D01*
X-8721428Y-8321428D01*
X-8835714Y-8292857D01*
X-8892857Y-8264285D01*
X-8950000Y-8207142D01*
X-8978571Y-8121428D01*
X-8978571Y-8064285D01*
X-8950000Y-7978571D01*
X-8921428Y-7950000D01*
X-8921428Y-7721428D02*
X-8950000Y-7692857D01*
X-8978571Y-7635714D01*
X-8978571Y-7492857D01*
X-8950000Y-7435714D01*
X-8921428Y-7407142D01*
X-8864285Y-7378571D01*
X-8807142Y-7378571D01*
X-8721428Y-7407142D01*
X-8378571Y-7750000D01*
X-8378571Y-7378571D01*
%TO.C,R3*%
X-4650000Y-2071428D02*
X-4850000Y-1785714D01*
X-4992857Y-2071428D02*
X-4992857Y-1471428D01*
X-4764285Y-1471428D01*
X-4707142Y-1500000D01*
X-4678571Y-1528571D01*
X-4650000Y-1585714D01*
X-4650000Y-1671428D01*
X-4678571Y-1728571D01*
X-4707142Y-1757142D01*
X-4764285Y-1785714D01*
X-4992857Y-1785714D01*
X-4450000Y-1471428D02*
X-4078571Y-1471428D01*
X-4278571Y-1700000D01*
X-4192857Y-1700000D01*
X-4135714Y-1728571D01*
X-4107142Y-1757142D01*
X-4078571Y-1814285D01*
X-4078571Y-1957142D01*
X-4107142Y-2014285D01*
X-4135714Y-2042857D01*
X-4192857Y-2071428D01*
X-4364285Y-2071428D01*
X-4421428Y-2042857D01*
X-4450000Y-2014285D01*
%TO.C,J3*%
X-6650000Y-221428D02*
X-6650000Y-650000D01*
X-6678571Y-735714D01*
X-6735714Y-792857D01*
X-6821428Y-821428D01*
X-6878571Y-821428D01*
X-6421428Y-221428D02*
X-6050000Y-221428D01*
X-6250000Y-450000D01*
X-6164285Y-450000D01*
X-6107142Y-478571D01*
X-6078571Y-507142D01*
X-6050000Y-564285D01*
X-6050000Y-707142D01*
X-6078571Y-764285D01*
X-6107142Y-792857D01*
X-6164285Y-821428D01*
X-6335714Y-821428D01*
X-6392857Y-792857D01*
X-6421428Y-764285D01*
%TO.C,C9*%
X-8885714Y-4600000D02*
X-8857142Y-4628571D01*
X-8828571Y-4714285D01*
X-8828571Y-4771428D01*
X-8857142Y-4857142D01*
X-8914285Y-4914285D01*
X-8971428Y-4942857D01*
X-9085714Y-4971428D01*
X-9171428Y-4971428D01*
X-9285714Y-4942857D01*
X-9342857Y-4914285D01*
X-9400000Y-4857142D01*
X-9428571Y-4771428D01*
X-9428571Y-4714285D01*
X-9400000Y-4628571D01*
X-9371428Y-4600000D01*
X-8828571Y-4314285D02*
X-8828571Y-4200000D01*
X-8857142Y-4142857D01*
X-8885714Y-4114285D01*
X-8971428Y-4057142D01*
X-9085714Y-4028571D01*
X-9314285Y-4028571D01*
X-9371428Y-4057142D01*
X-9400000Y-4085714D01*
X-9428571Y-4142857D01*
X-9428571Y-4257142D01*
X-9400000Y-4314285D01*
X-9371428Y-4342857D01*
X-9314285Y-4371428D01*
X-9171428Y-4371428D01*
X-9114285Y-4342857D01*
X-9085714Y-4314285D01*
X-9057142Y-4257142D01*
X-9057142Y-4142857D01*
X-9085714Y-4085714D01*
X-9114285Y-4057142D01*
X-9171428Y-4028571D01*
%TO.C,C15*%
X1314285Y1714285D02*
X1342857Y1685714D01*
X1371428Y1600000D01*
X1371428Y1542857D01*
X1342857Y1457142D01*
X1285714Y1400000D01*
X1228571Y1371428D01*
X1114285Y1342857D01*
X1028571Y1342857D01*
X914285Y1371428D01*
X857142Y1400000D01*
X800000Y1457142D01*
X771428Y1542857D01*
X771428Y1600000D01*
X800000Y1685714D01*
X828571Y1714285D01*
X1371428Y2285714D02*
X1371428Y1942857D01*
X1371428Y2114285D02*
X771428Y2114285D01*
X857142Y2057142D01*
X914285Y2000000D01*
X942857Y1942857D01*
X771428Y2828571D02*
X771428Y2542857D01*
X1057142Y2514285D01*
X1028571Y2542857D01*
X1000000Y2600000D01*
X1000000Y2742857D01*
X1028571Y2800000D01*
X1057142Y2828571D01*
X1114285Y2857142D01*
X1257142Y2857142D01*
X1314285Y2828571D01*
X1342857Y2800000D01*
X1371428Y2742857D01*
X1371428Y2600000D01*
X1342857Y2542857D01*
X1314285Y2514285D01*
%TO.C,Q4*%
X2092857Y10571428D02*
X2035714Y10600000D01*
X1978571Y10657142D01*
X1892857Y10742857D01*
X1835714Y10771428D01*
X1778571Y10771428D01*
X1807142Y10628571D02*
X1750000Y10657142D01*
X1692857Y10714285D01*
X1664285Y10828571D01*
X1664285Y11028571D01*
X1692857Y11142857D01*
X1750000Y11200000D01*
X1807142Y11228571D01*
X1921428Y11228571D01*
X1978571Y11200000D01*
X2035714Y11142857D01*
X2064285Y11028571D01*
X2064285Y10828571D01*
X2035714Y10714285D01*
X1978571Y10657142D01*
X1921428Y10628571D01*
X1807142Y10628571D01*
X2578571Y11028571D02*
X2578571Y10628571D01*
X2435714Y11257142D02*
X2292857Y10828571D01*
X2664285Y10828571D01*
%TO.C,C3*%
X5464285Y-6400000D02*
X5492857Y-6428571D01*
X5521428Y-6514285D01*
X5521428Y-6571428D01*
X5492857Y-6657142D01*
X5435714Y-6714285D01*
X5378571Y-6742857D01*
X5264285Y-6771428D01*
X5178571Y-6771428D01*
X5064285Y-6742857D01*
X5007142Y-6714285D01*
X4950000Y-6657142D01*
X4921428Y-6571428D01*
X4921428Y-6514285D01*
X4950000Y-6428571D01*
X4978571Y-6400000D01*
X4921428Y-6200000D02*
X4921428Y-5828571D01*
X5150000Y-6028571D01*
X5150000Y-5942857D01*
X5178571Y-5885714D01*
X5207142Y-5857142D01*
X5264285Y-5828571D01*
X5407142Y-5828571D01*
X5464285Y-5857142D01*
X5492857Y-5885714D01*
X5521428Y-5942857D01*
X5521428Y-6114285D01*
X5492857Y-6171428D01*
X5464285Y-6200000D01*
%TO.C,R19*%
X-3435714Y5828571D02*
X-3635714Y6114285D01*
X-3778571Y5828571D02*
X-3778571Y6428571D01*
X-3550000Y6428571D01*
X-3492857Y6400000D01*
X-3464285Y6371428D01*
X-3435714Y6314285D01*
X-3435714Y6228571D01*
X-3464285Y6171428D01*
X-3492857Y6142857D01*
X-3550000Y6114285D01*
X-3778571Y6114285D01*
X-2864285Y5828571D02*
X-3207142Y5828571D01*
X-3035714Y5828571D02*
X-3035714Y6428571D01*
X-3092857Y6342857D01*
X-3150000Y6285714D01*
X-3207142Y6257142D01*
X-2578571Y5828571D02*
X-2464285Y5828571D01*
X-2407142Y5857142D01*
X-2378571Y5885714D01*
X-2321428Y5971428D01*
X-2292857Y6085714D01*
X-2292857Y6314285D01*
X-2321428Y6371428D01*
X-2350000Y6400000D01*
X-2407142Y6428571D01*
X-2521428Y6428571D01*
X-2578571Y6400000D01*
X-2607142Y6371428D01*
X-2635714Y6314285D01*
X-2635714Y6171428D01*
X-2607142Y6114285D01*
X-2578571Y6085714D01*
X-2521428Y6057142D01*
X-2407142Y6057142D01*
X-2350000Y6085714D01*
X-2321428Y6114285D01*
X-2292857Y6171428D01*
%TO.C,C10*%
X-7785714Y-9171428D02*
X-7757142Y-9195238D01*
X-7728571Y-9266666D01*
X-7728571Y-9314285D01*
X-7757142Y-9385714D01*
X-7814285Y-9433333D01*
X-7871428Y-9457142D01*
X-7985714Y-9480952D01*
X-8071428Y-9480952D01*
X-8185714Y-9457142D01*
X-8242857Y-9433333D01*
X-8300000Y-9385714D01*
X-8328571Y-9314285D01*
X-8328571Y-9266666D01*
X-8300000Y-9195238D01*
X-8271428Y-9171428D01*
X-7728571Y-8695238D02*
X-7728571Y-8980952D01*
X-7728571Y-8838095D02*
X-8328571Y-8838095D01*
X-8242857Y-8885714D01*
X-8185714Y-8933333D01*
X-8157142Y-8980952D01*
X-8328571Y-8385714D02*
X-8328571Y-8338095D01*
X-8300000Y-8290476D01*
X-8271428Y-8266666D01*
X-8214285Y-8242857D01*
X-8100000Y-8219047D01*
X-7957142Y-8219047D01*
X-7842857Y-8242857D01*
X-7785714Y-8266666D01*
X-7757142Y-8290476D01*
X-7728571Y-8338095D01*
X-7728571Y-8385714D01*
X-7757142Y-8433333D01*
X-7785714Y-8457142D01*
X-7842857Y-8480952D01*
X-7957142Y-8504761D01*
X-8100000Y-8504761D01*
X-8214285Y-8480952D01*
X-8271428Y-8457142D01*
X-8300000Y-8433333D01*
X-8328571Y-8385714D01*
%TO.C,Q3*%
X-1757142Y11021428D02*
X-1814285Y11050000D01*
X-1871428Y11107142D01*
X-1957142Y11192857D01*
X-2014285Y11221428D01*
X-2071428Y11221428D01*
X-2042857Y11078571D02*
X-2100000Y11107142D01*
X-2157142Y11164285D01*
X-2185714Y11278571D01*
X-2185714Y11478571D01*
X-2157142Y11592857D01*
X-2100000Y11650000D01*
X-2042857Y11678571D01*
X-1928571Y11678571D01*
X-1871428Y11650000D01*
X-1814285Y11592857D01*
X-1785714Y11478571D01*
X-1785714Y11278571D01*
X-1814285Y11164285D01*
X-1871428Y11107142D01*
X-1928571Y11078571D01*
X-2042857Y11078571D01*
X-1585714Y11678571D02*
X-1214285Y11678571D01*
X-1414285Y11450000D01*
X-1328571Y11450000D01*
X-1271428Y11421428D01*
X-1242857Y11392857D01*
X-1214285Y11335714D01*
X-1214285Y11192857D01*
X-1242857Y11135714D01*
X-1271428Y11107142D01*
X-1328571Y11078571D01*
X-1500000Y11078571D01*
X-1557142Y11107142D01*
X-1585714Y11135714D01*
%TO.C,U1*%
X-178571Y-6307142D02*
X307142Y-6307142D01*
X364285Y-6278571D01*
X392857Y-6250000D01*
X421428Y-6192857D01*
X421428Y-6078571D01*
X392857Y-6021428D01*
X364285Y-5992857D01*
X307142Y-5964285D01*
X-178571Y-5964285D01*
X421428Y-5364285D02*
X421428Y-5707142D01*
X421428Y-5535714D02*
X-178571Y-5535714D01*
X-92857Y-5592857D01*
X-35714Y-5650000D01*
X-7142Y-5707142D01*
%TO.C,C13*%
X-3435714Y3035714D02*
X-3464285Y3007142D01*
X-3550000Y2978571D01*
X-3607142Y2978571D01*
X-3692857Y3007142D01*
X-3750000Y3064285D01*
X-3778571Y3121428D01*
X-3807142Y3235714D01*
X-3807142Y3321428D01*
X-3778571Y3435714D01*
X-3750000Y3492857D01*
X-3692857Y3550000D01*
X-3607142Y3578571D01*
X-3550000Y3578571D01*
X-3464285Y3550000D01*
X-3435714Y3521428D01*
X-2864285Y2978571D02*
X-3207142Y2978571D01*
X-3035714Y2978571D02*
X-3035714Y3578571D01*
X-3092857Y3492857D01*
X-3150000Y3435714D01*
X-3207142Y3407142D01*
X-2664285Y3578571D02*
X-2292857Y3578571D01*
X-2492857Y3350000D01*
X-2407142Y3350000D01*
X-2350000Y3321428D01*
X-2321428Y3292857D01*
X-2292857Y3235714D01*
X-2292857Y3092857D01*
X-2321428Y3035714D01*
X-2350000Y3007142D01*
X-2407142Y2978571D01*
X-2578571Y2978571D01*
X-2635714Y3007142D01*
X-2664285Y3035714D01*
%TO.C,R8*%
X2121428Y-12050000D02*
X1835714Y-12250000D01*
X2121428Y-12392857D02*
X1521428Y-12392857D01*
X1521428Y-12164285D01*
X1550000Y-12107142D01*
X1578571Y-12078571D01*
X1635714Y-12050000D01*
X1721428Y-12050000D01*
X1778571Y-12078571D01*
X1807142Y-12107142D01*
X1835714Y-12164285D01*
X1835714Y-12392857D01*
X1778571Y-11707142D02*
X1750000Y-11764285D01*
X1721428Y-11792857D01*
X1664285Y-11821428D01*
X1635714Y-11821428D01*
X1578571Y-11792857D01*
X1550000Y-11764285D01*
X1521428Y-11707142D01*
X1521428Y-11592857D01*
X1550000Y-11535714D01*
X1578571Y-11507142D01*
X1635714Y-11478571D01*
X1664285Y-11478571D01*
X1721428Y-11507142D01*
X1750000Y-11535714D01*
X1778571Y-11592857D01*
X1778571Y-11707142D01*
X1807142Y-11764285D01*
X1835714Y-11792857D01*
X1892857Y-11821428D01*
X2007142Y-11821428D01*
X2064285Y-11792857D01*
X2092857Y-11764285D01*
X2121428Y-11707142D01*
X2121428Y-11592857D01*
X2092857Y-11535714D01*
X2064285Y-11507142D01*
X2007142Y-11478571D01*
X1892857Y-11478571D01*
X1835714Y-11507142D01*
X1807142Y-11535714D01*
X1778571Y-11592857D01*
%TO.C,Q2*%
X7428571Y5942857D02*
X7400000Y5885714D01*
X7342857Y5828571D01*
X7257142Y5742857D01*
X7228571Y5685714D01*
X7228571Y5628571D01*
X7371428Y5657142D02*
X7342857Y5600000D01*
X7285714Y5542857D01*
X7171428Y5514285D01*
X6971428Y5514285D01*
X6857142Y5542857D01*
X6800000Y5600000D01*
X6771428Y5657142D01*
X6771428Y5771428D01*
X6800000Y5828571D01*
X6857142Y5885714D01*
X6971428Y5914285D01*
X7171428Y5914285D01*
X7285714Y5885714D01*
X7342857Y5828571D01*
X7371428Y5771428D01*
X7371428Y5657142D01*
X6828571Y6142857D02*
X6800000Y6171428D01*
X6771428Y6228571D01*
X6771428Y6371428D01*
X6800000Y6428571D01*
X6828571Y6457142D01*
X6885714Y6485714D01*
X6942857Y6485714D01*
X7028571Y6457142D01*
X7371428Y6114285D01*
X7371428Y6485714D01*
%TO.C,C6*%
X8564285Y-8400000D02*
X8592857Y-8428571D01*
X8621428Y-8514285D01*
X8621428Y-8571428D01*
X8592857Y-8657142D01*
X8535714Y-8714285D01*
X8478571Y-8742857D01*
X8364285Y-8771428D01*
X8278571Y-8771428D01*
X8164285Y-8742857D01*
X8107142Y-8714285D01*
X8050000Y-8657142D01*
X8021428Y-8571428D01*
X8021428Y-8514285D01*
X8050000Y-8428571D01*
X8078571Y-8400000D01*
X8021428Y-7885714D02*
X8021428Y-8000000D01*
X8050000Y-8057142D01*
X8078571Y-8085714D01*
X8164285Y-8142857D01*
X8278571Y-8171428D01*
X8507142Y-8171428D01*
X8564285Y-8142857D01*
X8592857Y-8114285D01*
X8621428Y-8057142D01*
X8621428Y-7942857D01*
X8592857Y-7885714D01*
X8564285Y-7857142D01*
X8507142Y-7828571D01*
X8364285Y-7828571D01*
X8307142Y-7857142D01*
X8278571Y-7885714D01*
X8250000Y-7942857D01*
X8250000Y-8057142D01*
X8278571Y-8114285D01*
X8307142Y-8142857D01*
X8364285Y-8171428D01*
%TO.C,J5*%
X-10850000Y-5171428D02*
X-10850000Y-5600000D01*
X-10878571Y-5685714D01*
X-10935714Y-5742857D01*
X-11021428Y-5771428D01*
X-11078571Y-5771428D01*
X-10278571Y-5171428D02*
X-10564285Y-5171428D01*
X-10592857Y-5457142D01*
X-10564285Y-5428571D01*
X-10507142Y-5400000D01*
X-10364285Y-5400000D01*
X-10307142Y-5428571D01*
X-10278571Y-5457142D01*
X-10250000Y-5514285D01*
X-10250000Y-5657142D01*
X-10278571Y-5714285D01*
X-10307142Y-5742857D01*
X-10364285Y-5771428D01*
X-10507142Y-5771428D01*
X-10564285Y-5742857D01*
X-10592857Y-5714285D01*
%TO.C,R13*%
X5471428Y-3035714D02*
X5185714Y-3235714D01*
X5471428Y-3378571D02*
X4871428Y-3378571D01*
X4871428Y-3150000D01*
X4900000Y-3092857D01*
X4928571Y-3064285D01*
X4985714Y-3035714D01*
X5071428Y-3035714D01*
X5128571Y-3064285D01*
X5157142Y-3092857D01*
X5185714Y-3150000D01*
X5185714Y-3378571D01*
X5471428Y-2464285D02*
X5471428Y-2807142D01*
X5471428Y-2635714D02*
X4871428Y-2635714D01*
X4957142Y-2692857D01*
X5014285Y-2750000D01*
X5042857Y-2807142D01*
X4871428Y-2264285D02*
X4871428Y-1892857D01*
X5100000Y-2092857D01*
X5100000Y-2007142D01*
X5128571Y-1950000D01*
X5157142Y-1921428D01*
X5214285Y-1892857D01*
X5357142Y-1892857D01*
X5414285Y-1921428D01*
X5442857Y-1950000D01*
X5471428Y-2007142D01*
X5471428Y-2178571D01*
X5442857Y-2235714D01*
X5414285Y-2264285D01*
%TO.C,J4*%
X8400000Y8178571D02*
X8400000Y7750000D01*
X8371428Y7664285D01*
X8314285Y7607142D01*
X8228571Y7578571D01*
X8171428Y7578571D01*
X8942857Y7978571D02*
X8942857Y7578571D01*
X8800000Y8207142D02*
X8657142Y7778571D01*
X9028571Y7778571D01*
%TO.C,R9*%
X700000Y428571D02*
X500000Y714285D01*
X357142Y428571D02*
X357142Y1028571D01*
X585714Y1028571D01*
X642857Y1000000D01*
X671428Y971428D01*
X700000Y914285D01*
X700000Y828571D01*
X671428Y771428D01*
X642857Y742857D01*
X585714Y714285D01*
X357142Y714285D01*
X985714Y428571D02*
X1100000Y428571D01*
X1157142Y457142D01*
X1185714Y485714D01*
X1242857Y571428D01*
X1271428Y685714D01*
X1271428Y914285D01*
X1242857Y971428D01*
X1214285Y1000000D01*
X1157142Y1028571D01*
X1042857Y1028571D01*
X985714Y1000000D01*
X957142Y971428D01*
X928571Y914285D01*
X928571Y771428D01*
X957142Y714285D01*
X985714Y685714D01*
X1042857Y657142D01*
X1157142Y657142D01*
X1214285Y685714D01*
X1242857Y714285D01*
X1271428Y771428D01*
%TO.C,C4*%
X1314285Y-12100000D02*
X1342857Y-12128571D01*
X1371428Y-12214285D01*
X1371428Y-12271428D01*
X1342857Y-12357142D01*
X1285714Y-12414285D01*
X1228571Y-12442857D01*
X1114285Y-12471428D01*
X1028571Y-12471428D01*
X914285Y-12442857D01*
X857142Y-12414285D01*
X800000Y-12357142D01*
X771428Y-12271428D01*
X771428Y-12214285D01*
X800000Y-12128571D01*
X828571Y-12100000D01*
X971428Y-11585714D02*
X1371428Y-11585714D01*
X742857Y-11728571D02*
X1171428Y-11871428D01*
X1171428Y-11500000D01*
%TO.C,R1*%
X-3550000Y478571D02*
X-3750000Y764285D01*
X-3892857Y478571D02*
X-3892857Y1078571D01*
X-3664285Y1078571D01*
X-3607142Y1050000D01*
X-3578571Y1021428D01*
X-3550000Y964285D01*
X-3550000Y878571D01*
X-3578571Y821428D01*
X-3607142Y792857D01*
X-3664285Y764285D01*
X-3892857Y764285D01*
X-2978571Y478571D02*
X-3321428Y478571D01*
X-3150000Y478571D02*
X-3150000Y1078571D01*
X-3207142Y992857D01*
X-3264285Y935714D01*
X-3321428Y907142D01*
%TO.C,R6*%
X5300000Y-11221428D02*
X5100000Y-10935714D01*
X4957142Y-11221428D02*
X4957142Y-10621428D01*
X5185714Y-10621428D01*
X5242857Y-10650000D01*
X5271428Y-10678571D01*
X5300000Y-10735714D01*
X5300000Y-10821428D01*
X5271428Y-10878571D01*
X5242857Y-10907142D01*
X5185714Y-10935714D01*
X4957142Y-10935714D01*
X5814285Y-10621428D02*
X5700000Y-10621428D01*
X5642857Y-10650000D01*
X5614285Y-10678571D01*
X5557142Y-10764285D01*
X5528571Y-10878571D01*
X5528571Y-11107142D01*
X5557142Y-11164285D01*
X5585714Y-11192857D01*
X5642857Y-11221428D01*
X5757142Y-11221428D01*
X5814285Y-11192857D01*
X5842857Y-11164285D01*
X5871428Y-11107142D01*
X5871428Y-10964285D01*
X5842857Y-10907142D01*
X5814285Y-10878571D01*
X5757142Y-10850000D01*
X5642857Y-10850000D01*
X5585714Y-10878571D01*
X5557142Y-10907142D01*
X5528571Y-10964285D01*
%TO.C,Q1*%
X6028571Y792857D02*
X6000000Y735714D01*
X5942857Y678571D01*
X5857142Y592857D01*
X5828571Y535714D01*
X5828571Y478571D01*
X5971428Y507142D02*
X5942857Y450000D01*
X5885714Y392857D01*
X5771428Y364285D01*
X5571428Y364285D01*
X5457142Y392857D01*
X5400000Y450000D01*
X5371428Y507142D01*
X5371428Y621428D01*
X5400000Y678571D01*
X5457142Y735714D01*
X5571428Y764285D01*
X5771428Y764285D01*
X5885714Y735714D01*
X5942857Y678571D01*
X5971428Y621428D01*
X5971428Y507142D01*
X5971428Y1335714D02*
X5971428Y992857D01*
X5971428Y1164285D02*
X5371428Y1164285D01*
X5457142Y1107142D01*
X5514285Y1050000D01*
X5542857Y992857D01*
%TO.C,U2*%
X5671428Y-1857142D02*
X6157142Y-1857142D01*
X6214285Y-1828571D01*
X6242857Y-1800000D01*
X6271428Y-1742857D01*
X6271428Y-1628571D01*
X6242857Y-1571428D01*
X6214285Y-1542857D01*
X6157142Y-1514285D01*
X5671428Y-1514285D01*
X5728571Y-1257142D02*
X5700000Y-1228571D01*
X5671428Y-1171428D01*
X5671428Y-1028571D01*
X5700000Y-971428D01*
X5728571Y-942857D01*
X5785714Y-914285D01*
X5842857Y-914285D01*
X5928571Y-942857D01*
X6271428Y-1285714D01*
X6271428Y-914285D01*
%TO.C,R2*%
X-6200000Y-10821428D02*
X-6400000Y-10535714D01*
X-6542857Y-10821428D02*
X-6542857Y-10221428D01*
X-6314285Y-10221428D01*
X-6257142Y-10250000D01*
X-6228571Y-10278571D01*
X-6200000Y-10335714D01*
X-6200000Y-10421428D01*
X-6228571Y-10478571D01*
X-6257142Y-10507142D01*
X-6314285Y-10535714D01*
X-6542857Y-10535714D01*
X-5971428Y-10278571D02*
X-5942857Y-10250000D01*
X-5885714Y-10221428D01*
X-5742857Y-10221428D01*
X-5685714Y-10250000D01*
X-5657142Y-10278571D01*
X-5628571Y-10335714D01*
X-5628571Y-10392857D01*
X-5657142Y-10478571D01*
X-6000000Y-10821428D01*
X-5628571Y-10821428D01*
%TO.C,R10*%
X-278571Y714285D02*
X-564285Y514285D01*
X-278571Y371428D02*
X-878571Y371428D01*
X-878571Y600000D01*
X-850000Y657142D01*
X-821428Y685714D01*
X-764285Y714285D01*
X-678571Y714285D01*
X-621428Y685714D01*
X-592857Y657142D01*
X-564285Y600000D01*
X-564285Y371428D01*
X-278571Y1285714D02*
X-278571Y942857D01*
X-278571Y1114285D02*
X-878571Y1114285D01*
X-792857Y1057142D01*
X-735714Y1000000D01*
X-707142Y942857D01*
X-878571Y1657142D02*
X-878571Y1714285D01*
X-850000Y1771428D01*
X-821428Y1800000D01*
X-764285Y1828571D01*
X-650000Y1857142D01*
X-507142Y1857142D01*
X-392857Y1828571D01*
X-335714Y1800000D01*
X-307142Y1771428D01*
X-278571Y1714285D01*
X-278571Y1657142D01*
X-307142Y1600000D01*
X-335714Y1571428D01*
X-392857Y1542857D01*
X-507142Y1514285D01*
X-650000Y1514285D01*
X-764285Y1542857D01*
X-821428Y1571428D01*
X-850000Y1600000D01*
X-878571Y1657142D01*
D12*
%TO.C,R7*%
X3613884Y-5862258D02*
X3613884Y-5387742D01*
X4658884Y-5862258D02*
X4658884Y-5387742D01*
%TO.C,C8*%
X-303616Y-9684420D02*
X-303616Y-9965580D01*
X-1323616Y-9684420D02*
X-1323616Y-9965580D01*
%TO.C,R11*%
X149126Y-3897500D02*
X623642Y-3897500D01*
X149126Y-2852500D02*
X623642Y-2852500D01*
%TO.C,R20*%
X2672500Y4762742D02*
X2672500Y5237258D01*
X1627500Y4762742D02*
X1627500Y5237258D01*
%TO.C,R16*%
X-1841116Y-5462742D02*
X-1841116Y-5937258D01*
X-2886116Y-5462742D02*
X-2886116Y-5937258D01*
%TO.C,C1*%
X-6328616Y-4315580D02*
X-6328616Y-4034420D01*
X-7348616Y-4315580D02*
X-7348616Y-4034420D01*
%TO.C,J2*%
X11200000Y-4850000D02*
G75*
G03*
X11200000Y-4850000I-700000J0D01*
G01*
%TO.C,C5*%
X-2754196Y-2865000D02*
X-2473036Y-2865000D01*
X-2754196Y-3885000D02*
X-2473036Y-3885000D01*
%TO.C,R12*%
X5277500Y-8062742D02*
X5277500Y-8537258D01*
X6322500Y-8062742D02*
X6322500Y-8537258D01*
%TO.C,C12*%
X7660000Y-5109420D02*
X7660000Y-5390580D01*
X6640000Y-5109420D02*
X6640000Y-5390580D01*
%TO.C,R17*%
X-2886116Y-8462742D02*
X-2886116Y-8937258D01*
X-1841116Y-8462742D02*
X-1841116Y-8937258D01*
%TO.C,R14*%
X163884Y-10062258D02*
X163884Y-9587742D01*
X1208884Y-10062258D02*
X1208884Y-9587742D01*
%TO.C,C7*%
X3526964Y-1365000D02*
X3245804Y-1365000D01*
X3526964Y-2385000D02*
X3245804Y-2385000D01*
%TO.C,R15*%
X-2901358Y-10452500D02*
X-3375874Y-10452500D01*
X-2901358Y-11497500D02*
X-3375874Y-11497500D01*
%TO.C,R18*%
X-987258Y4177500D02*
X-512742Y4177500D01*
X-987258Y5222500D02*
X-512742Y5222500D01*
%TO.C,C14*%
X-609420Y8210000D02*
X-890580Y8210000D01*
X-609420Y7190000D02*
X-890580Y7190000D01*
%TO.C,C11*%
X9160000Y-5109420D02*
X9160000Y-5390580D01*
X8140000Y-5109420D02*
X8140000Y-5390580D01*
%TO.C,R5*%
X-4816116Y-7412258D02*
X-4816116Y-6937742D01*
X-5861116Y-7412258D02*
X-5861116Y-6937742D01*
%TO.C,R4*%
X-4816116Y-4412258D02*
X-4816116Y-3937742D01*
X-5861116Y-4412258D02*
X-5861116Y-3937742D01*
%TO.C,C2*%
X-7348616Y-7315580D02*
X-7348616Y-7034420D01*
X-6328616Y-7315580D02*
X-6328616Y-7034420D01*
%TO.C,R3*%
X-2850874Y-1352500D02*
X-2376358Y-1352500D01*
X-2850874Y-2397500D02*
X-2376358Y-2397500D01*
%TO.C,J3*%
X-4500000Y-550000D02*
G75*
G03*
X-4500000Y-550000I-700000J0D01*
G01*
%TO.C,C9*%
X-4373616Y-5840580D02*
X-4373616Y-5559420D01*
X-3353616Y-5840580D02*
X-3353616Y-5559420D01*
%TO.C,C15*%
X2660000Y2140580D02*
X2660000Y1859420D01*
X1640000Y2140580D02*
X1640000Y1859420D01*
%TO.C,Q4*%
X3550000Y11260000D02*
X2900000Y11260000D01*
X3550000Y8140000D02*
X5225000Y8140000D01*
X3550000Y8140000D02*
X2900000Y8140000D01*
X3550000Y11260000D02*
X4200000Y11260000D01*
%TO.C,C3*%
X3146384Y-5765580D02*
X3146384Y-5484420D01*
X2126384Y-5765580D02*
X2126384Y-5484420D01*
%TO.C,R19*%
X-512742Y5677500D02*
X-987258Y5677500D01*
X-512742Y6722500D02*
X-987258Y6722500D01*
%TO.C,C10*%
X-4373616Y-8840580D02*
X-4373616Y-8559420D01*
X-3353616Y-8840580D02*
X-3353616Y-8559420D01*
%TO.C,Q3*%
X-350000Y8640000D02*
X1325000Y8640000D01*
X-350000Y11760000D02*
X-1000000Y11760000D01*
X-350000Y8640000D02*
X-1000000Y8640000D01*
X-350000Y11760000D02*
X300000Y11760000D01*
%TO.C,U1*%
X-1423616Y-6250000D02*
X-1423616Y-5450000D01*
X1696384Y-6250000D02*
X1696384Y-5450000D01*
X1696384Y-6250000D02*
X1696384Y-7050000D01*
X-1423616Y-6250000D02*
X-1423616Y-8050000D01*
%TO.C,C13*%
X-890580Y2690000D02*
X-609420Y2690000D01*
X-890580Y3710000D02*
X-609420Y3710000D01*
%TO.C,R8*%
X4658884Y-8862258D02*
X4658884Y-8387742D01*
X3613884Y-8862258D02*
X3613884Y-8387742D01*
%TO.C,Q2*%
X6260000Y6000000D02*
X6260000Y5350000D01*
X3140000Y6000000D02*
X3140000Y6650000D01*
X6260000Y6000000D02*
X6260000Y7675000D01*
X3140000Y6000000D02*
X3140000Y5350000D01*
%TO.C,C6*%
X6790000Y-8159420D02*
X6790000Y-8440580D01*
X7810000Y-8159420D02*
X7810000Y-8440580D01*
%TO.C,R13*%
X3149126Y-3897500D02*
X3623642Y-3897500D01*
X3149126Y-2852500D02*
X3623642Y-2852500D01*
%TO.C,R9*%
X1658884Y-887742D02*
X1658884Y-1362258D01*
X613884Y-887742D02*
X613884Y-1362258D01*
%TO.C,C4*%
X2126384Y-8765580D02*
X2126384Y-8484420D01*
X3146384Y-8765580D02*
X3146384Y-8484420D01*
%TO.C,R1*%
X-2850874Y147500D02*
X-2376358Y147500D01*
X-2850874Y-897500D02*
X-2376358Y-897500D01*
%TO.C,R6*%
X3623642Y-10352500D02*
X3149126Y-10352500D01*
X3623642Y-11397500D02*
X3149126Y-11397500D01*
%TO.C,Q1*%
X3090000Y2100000D02*
X3090000Y1450000D01*
X6210000Y2100000D02*
X6210000Y1450000D01*
X3090000Y2100000D02*
X3090000Y2750000D01*
X6210000Y2100000D02*
X6210000Y3775000D01*
%TO.C,U2*%
X6540000Y150000D02*
X6540000Y-3450000D01*
X11760000Y150000D02*
X11760000Y-2050000D01*
X6540000Y150000D02*
X6540000Y2350000D01*
X11760000Y150000D02*
X11760000Y2350000D01*
%TO.C,R2*%
X-5913858Y-9947500D02*
X-6388374Y-9947500D01*
X-5913858Y-8902500D02*
X-6388374Y-8902500D01*
%TO.C,R10*%
X-886116Y-1362258D02*
X-886116Y-887742D01*
X158884Y-1362258D02*
X158884Y-887742D01*
%TD*%
M02*
