%TF.GenerationSoftware,KiCad,Pcbnew,(6.0.1)*%
%TF.CreationDate,2023-02-09T13:33:18-07:00*%
%TF.ProjectId,NoteDetector,4e6f7465-4465-4746-9563-746f722e6b69,rev?*%
%TF.SameCoordinates,Original*%
%TF.FileFunction,Copper,L2,Bot*%
%TF.FilePolarity,Positive*%
%FSLAX46Y46*%
G04 Gerber Fmt 4.6, Leading zero omitted, Abs format (unit mm)*
G04 Created by KiCad (PCBNEW (6.0.1)) date 2023-02-09 13:33:18*
%MOMM*%
%LPD*%
G01*
G04 APERTURE LIST*
G04 Aperture macros list*
%AMRoundRect*
0 Rectangle with rounded corners*
0 $1 Rounding radius*
0 $2 $3 $4 $5 $6 $7 $8 $9 X,Y pos of 4 corners*
0 Add a 4 corners polygon primitive as box body*
4,1,4,$2,$3,$4,$5,$6,$7,$8,$9,$2,$3,0*
0 Add four circle primitives for the rounded corners*
1,1,$1+$1,$2,$3*
1,1,$1+$1,$4,$5*
1,1,$1+$1,$6,$7*
1,1,$1+$1,$8,$9*
0 Add four rect primitives between the rounded corners*
20,1,$1+$1,$2,$3,$4,$5,0*
20,1,$1+$1,$4,$5,$6,$7,0*
20,1,$1+$1,$6,$7,$8,$9,0*
20,1,$1+$1,$8,$9,$2,$3,0*%
G04 Aperture macros list end*
%TA.AperFunction,ComponentPad*%
%ADD10C,2.000000*%
%TD*%
%TA.AperFunction,SMDPad,CuDef*%
%ADD11RoundRect,0.090000X1.210000X0.360000X-1.210000X0.360000X-1.210000X-0.360000X1.210000X-0.360000X0*%
%TD*%
%TA.AperFunction,SMDPad,CuDef*%
%ADD12RoundRect,0.360000X0.140000X0.040000X-0.140000X0.040000X-0.140000X-0.040000X0.140000X-0.040000X0*%
%TD*%
%TA.AperFunction,SMDPad,CuDef*%
%ADD13R,1.000000X0.800000*%
%TD*%
%TA.AperFunction,ViaPad*%
%ADD14C,0.508000*%
%TD*%
%TA.AperFunction,ViaPad*%
%ADD15C,1.000000*%
%TD*%
%TA.AperFunction,Conductor*%
%ADD16C,0.152400*%
%TD*%
G04 APERTURE END LIST*
D10*
%TO.P,J5,1,Pin_1*%
%TO.N,GND*%
X-9300000Y-6400000D03*
%TD*%
%TO.P,J4,1,Pin_1*%
%TO.N,+BATT*%
X9300000Y6400000D03*
%TD*%
D11*
%TO.P,MK1,1,-*%
%TO.N,/Audio_raw*%
X0Y650000D03*
%TO.P,MK1,2,+*%
%TO.N,+BATT*%
X0Y-650000D03*
%TD*%
D12*
%TO.P,D1,1,A*%
%TO.N,+BATT*%
X-750000Y4050000D03*
D13*
%TO.P,D1,2,BK*%
%TO.N,Net-(C15-Pad1)*%
X750000Y4050000D03*
%TO.P,D1,3,GK*%
%TO.N,Net-(C14-Pad1)*%
X750000Y5150000D03*
%TO.P,D1,4,RK*%
%TO.N,Net-(C13-Pad1)*%
X-750000Y5150000D03*
%TD*%
D14*
%TO.N,GND*%
X50000Y2000000D03*
X-950000Y8450000D03*
X3700000Y5950000D03*
X-2400000Y-750000D03*
X2500000Y672334D03*
X4500000Y10100000D03*
X550000Y10550000D03*
X7800000Y-6100000D03*
D15*
X9017000Y-127000D03*
D14*
X3700000Y4000000D03*
%TO.N,+BATT*%
X-351116Y-5100000D03*
X5120300Y-3598080D03*
X6500000Y-3720300D03*
D15*
X7747000Y-127000D03*
D14*
X2050000Y-387066D03*
X6600000Y-2700000D03*
%TO.N,/Audio_In*%
X7894204Y-3574798D03*
X9800000Y-4100000D03*
X-2100000Y-9100000D03*
%TO.N,Net-(C6-Pad2)*%
X5700000Y-8650000D03*
X385746Y-8147003D03*
%TO.N,Net-(C7-Pad1)*%
X-950000Y-10050000D03*
X3400000Y-4100000D03*
%TO.N,/Audio_raw*%
X-1600000Y650000D03*
D15*
%TO.N,/~{MCLR}*%
X6477000Y-127000D03*
%TO.N,/ICSP_DAT*%
X10287000Y-127000D03*
%TO.N,/ICSP_CLK*%
X11557000Y-127000D03*
D14*
%TO.N,Net-(C13-Pad1)*%
X-1350000Y5250000D03*
%TO.N,Net-(C14-Pad1)*%
X600000Y5900000D03*
%TO.N,Net-(C15-Pad1)*%
X1200000Y3700000D03*
%TO.N,Net-(Q4-Pad3)*%
X2200000Y7421020D03*
X2400000Y8480420D03*
%TD*%
D16*
%TO.N,+BATT*%
X1787066Y-650000D02*
X2050000Y-387066D01*
X0Y-650000D02*
X1787066Y-650000D01*
%TO.N,/Audio_In*%
X3770289Y-3570289D02*
X3079711Y-3570289D01*
X3079711Y-3570289D02*
X-2100000Y-8750000D01*
X7219002Y-4250000D02*
X4450000Y-4250000D01*
X4450000Y-4250000D02*
X3770289Y-3570289D01*
X-2100000Y-8750000D02*
X-2100000Y-9100000D01*
X9274798Y-3574798D02*
X7894204Y-3574798D01*
X9800000Y-4100000D02*
X9274798Y-3574798D01*
X7894204Y-3574798D02*
X7219002Y-4250000D01*
%TO.N,Net-(C6-Pad2)*%
X385746Y-8147003D02*
X888743Y-8650000D01*
X888743Y-8650000D02*
X5700000Y-8650000D01*
%TO.N,Net-(C7-Pad1)*%
X3300000Y-4100000D02*
X-950000Y-8350000D01*
X3400000Y-4100000D02*
X3300000Y-4100000D01*
X-950000Y-8350000D02*
X-950000Y-10050000D01*
%TO.N,/Audio_raw*%
X-1600000Y650000D02*
X0Y650000D01*
%TO.N,Net-(C13-Pad1)*%
X-750000Y5150000D02*
X-1250000Y5150000D01*
X-1250000Y5150000D02*
X-1350000Y5250000D01*
%TO.N,Net-(C14-Pad1)*%
X750000Y5750000D02*
X600000Y5900000D01*
X750000Y5150000D02*
X750000Y5750000D01*
%TO.N,Net-(C15-Pad1)*%
X850000Y4050000D02*
X1200000Y3700000D01*
X750000Y4050000D02*
X850000Y4050000D01*
%TO.N,Net-(Q4-Pad3)*%
X2200000Y8280420D02*
X2400000Y8480420D01*
X2200000Y7421020D02*
X2200000Y8280420D01*
%TD*%
%TA.AperFunction,Conductor*%
%TO.N,GND*%
G36*
X91116Y12547571D02*
G01*
X437748Y12535467D01*
X784389Y12523361D01*
X791394Y12522921D01*
X1482228Y12460050D01*
X1489214Y12459217D01*
X2175456Y12357882D01*
X2182386Y12356660D01*
X2861888Y12217178D01*
X2868738Y12215572D01*
X3539424Y12038369D01*
X3546174Y12036382D01*
X4205891Y11822027D01*
X4212520Y11819667D01*
X4859273Y11568808D01*
X4865759Y11566081D01*
X5212681Y11408711D01*
X5497482Y11279519D01*
X5503781Y11276447D01*
X6118549Y10955054D01*
X6124691Y10951621D01*
X6720528Y10596431D01*
X6726469Y10592661D01*
X7301563Y10204755D01*
X7307282Y10200661D01*
X7808739Y9820035D01*
X7859819Y9781263D01*
X7865300Y9776857D01*
X8393578Y9327256D01*
X8398789Y9322564D01*
X8901157Y8844166D01*
X8906097Y8839191D01*
X8914635Y8830099D01*
X8931395Y8812251D01*
X8963444Y8748900D01*
X8956156Y8678279D01*
X8911844Y8622808D01*
X8839543Y8600000D01*
X7126000Y8600000D01*
X7122654Y8599640D01*
X7122648Y8599640D01*
X7108564Y8598126D01*
X7083488Y8595430D01*
X7031146Y8584044D01*
X7021238Y8581622D01*
X6942686Y8539764D01*
X6889030Y8493271D01*
X6871555Y8476149D01*
X6828103Y8398467D01*
X6826109Y8391675D01*
X6809496Y8335096D01*
X6808101Y8330346D01*
X6807461Y8325898D01*
X6807460Y8325891D01*
X6802900Y8294170D01*
X6800000Y8274000D01*
X6800000Y6086967D01*
X6779998Y6018846D01*
X6762192Y5996977D01*
X6061371Y5310173D01*
X4585358Y3863680D01*
X4455081Y3736009D01*
X4392428Y3702615D01*
X4366890Y3700000D01*
X1768415Y3700000D01*
X1700294Y3720002D01*
X1653801Y3773658D01*
X1643688Y3808136D01*
X1641991Y3819986D01*
X1640718Y3828875D01*
X1586832Y3947390D01*
X1501850Y4046017D01*
X1494319Y4050899D01*
X1493667Y4051467D01*
X1455485Y4111322D01*
X1450500Y4146413D01*
X1450500Y4469748D01*
X1438867Y4528231D01*
X1431974Y4538547D01*
X1427223Y4550017D01*
X1430937Y4551555D01*
X1416472Y4597751D01*
X1431312Y4648289D01*
X1427223Y4649983D01*
X1431974Y4661453D01*
X1438867Y4671769D01*
X1450500Y4730252D01*
X1450500Y5569748D01*
X1438867Y5628231D01*
X1394552Y5694552D01*
X1328231Y5738867D01*
X1316062Y5741288D01*
X1316061Y5741288D01*
X1275816Y5749293D01*
X1269748Y5750500D01*
X1184065Y5750500D01*
X1115944Y5770502D01*
X1069451Y5824158D01*
X1058717Y5886880D01*
X1059037Y5888781D01*
X1059174Y5900000D01*
X1040718Y6028875D01*
X986832Y6147390D01*
X901850Y6246017D01*
X792601Y6316828D01*
X667870Y6354130D01*
X658894Y6354185D01*
X658893Y6354185D01*
X605678Y6354510D01*
X537683Y6354926D01*
X412505Y6319150D01*
X404918Y6314363D01*
X404916Y6314362D01*
X388083Y6303741D01*
X302400Y6249679D01*
X216219Y6152097D01*
X212404Y6143972D01*
X212403Y6143970D01*
X200468Y6118548D01*
X160890Y6034249D01*
X159509Y6025380D01*
X145091Y5932780D01*
X140860Y5905610D01*
X142024Y5896708D01*
X142024Y5896704D01*
X153520Y5808793D01*
X142520Y5738654D01*
X117679Y5703361D01*
X115761Y5701443D01*
X105448Y5694552D01*
X98557Y5684239D01*
X89778Y5675460D01*
X86757Y5678481D01*
X50279Y5647999D01*
X-20165Y5639157D01*
X-84207Y5669803D01*
X-89419Y5675819D01*
X-89778Y5675460D01*
X-98557Y5684239D01*
X-105448Y5694552D01*
X-171769Y5738867D01*
X-183938Y5741288D01*
X-183939Y5741288D01*
X-224184Y5749293D01*
X-230252Y5750500D01*
X-1269748Y5750500D01*
X-1328231Y5738867D01*
X-1347421Y5726044D01*
X-1348719Y5725177D01*
X-1401620Y5705107D01*
X-1403342Y5704871D01*
X-1412317Y5704926D01*
X-1537495Y5669150D01*
X-1545082Y5664363D01*
X-1545084Y5664362D01*
X-1585031Y5639157D01*
X-1647600Y5599679D01*
X-1733781Y5502097D01*
X-1737596Y5493972D01*
X-1737597Y5493970D01*
X-1785074Y5392846D01*
X-1789110Y5384249D01*
X-1790491Y5375380D01*
X-1798931Y5321173D01*
X-1809140Y5255610D01*
X-1807976Y5246708D01*
X-1807976Y5246705D01*
X-1802479Y5204671D01*
X-1792259Y5126519D01*
X-1739826Y5007355D01*
X-1656054Y4907697D01*
X-1547680Y4835556D01*
X-1539108Y4832878D01*
X-1539106Y4832877D01*
X-1537125Y4832258D01*
X-1535413Y4831116D01*
X-1531011Y4829016D01*
X-1531314Y4828380D01*
X-1478069Y4792850D01*
X-1451688Y4730016D01*
X-1450500Y4730252D01*
X-1438867Y4671769D01*
X-1394552Y4605448D01*
X-1384239Y4598557D01*
X-1384236Y4598554D01*
X-1378443Y4594683D01*
X-1332916Y4540206D01*
X-1324069Y4469762D01*
X-1348483Y4413216D01*
X-1379596Y4372668D01*
X-1436074Y4236320D01*
X-1450500Y4126741D01*
X-1450499Y3973260D01*
X-1449961Y3969175D01*
X-1449961Y3969171D01*
X-1446018Y3939218D01*
X-1436074Y3863680D01*
X-1379596Y3727331D01*
X-1374569Y3720780D01*
X-1374567Y3720776D01*
X-1351378Y3690555D01*
X-1325778Y3624335D01*
X-1340043Y3554786D01*
X-1389645Y3503990D01*
X-1434865Y3491427D01*
X-1434531Y3489101D01*
X-1504805Y3478997D01*
X-1506681Y3478609D01*
X-1506692Y3478607D01*
X-1512543Y3477396D01*
X-1528762Y3474041D01*
X-1607314Y3432183D01*
X-1660970Y3385690D01*
X-1678445Y3368568D01*
X-1721897Y3290886D01*
X-1741899Y3222765D01*
X-1750000Y3166419D01*
X-1750000Y2626000D01*
X-1745430Y2583488D01*
X-1734044Y2531146D01*
X-1731622Y2521238D01*
X-1689764Y2442686D01*
X-1643271Y2389030D01*
X-1626149Y2371555D01*
X-1548467Y2328103D01*
X-1515002Y2318277D01*
X-1484669Y2309370D01*
X-1484665Y2309369D01*
X-1480346Y2308101D01*
X-1475898Y2307461D01*
X-1475891Y2307460D01*
X-1428448Y2300639D01*
X-1428441Y2300639D01*
X-1424000Y2300000D01*
X2674000Y2300000D01*
X2742121Y2279998D01*
X2788614Y2226342D01*
X2800000Y2174000D01*
X2800000Y326000D01*
X2779998Y257879D01*
X2726342Y211386D01*
X2674000Y200000D01*
X1918656Y200000D01*
X1863452Y192231D01*
X1859219Y191016D01*
X1859217Y191015D01*
X1816428Y178727D01*
X1796597Y173032D01*
X1774636Y165315D01*
X1767383Y160132D01*
X1767380Y160130D01*
X1740277Y140760D01*
X1702220Y113562D01*
X1701620Y114402D01*
X1643421Y86494D01*
X1572971Y95280D01*
X1518454Y140760D01*
X1497179Y208494D01*
X1498005Y225440D01*
X1500500Y246842D01*
X1500500Y1053158D01*
X1497486Y1078489D01*
X1493649Y1087128D01*
X1493648Y1087131D01*
X1458277Y1166763D01*
X1458276Y1166764D01*
X1453556Y1177391D01*
X1376966Y1253847D01*
X1277987Y1297605D01*
X1261717Y1299502D01*
X1256797Y1300076D01*
X1256792Y1300076D01*
X1253158Y1300500D01*
X-1253158Y1300500D01*
X-1261745Y1299478D01*
X-1269097Y1298604D01*
X-1269100Y1298603D01*
X-1278489Y1297486D01*
X-1287128Y1293649D01*
X-1287131Y1293648D01*
X-1366763Y1258277D01*
X-1366764Y1258276D01*
X-1377391Y1253556D01*
X-1453847Y1176966D01*
X-1458552Y1166325D01*
X-1463456Y1159162D01*
X-1518446Y1114255D01*
X-1568189Y1104350D01*
X-1662317Y1104926D01*
X-1787495Y1069150D01*
X-1897600Y999679D01*
X-1983781Y902097D01*
X-1987596Y893972D01*
X-1987597Y893970D01*
X-1998019Y871771D01*
X-2039110Y784249D01*
X-2040491Y775380D01*
X-2052962Y695285D01*
X-2059140Y655610D01*
X-2057976Y646708D01*
X-2057976Y646705D01*
X-2043520Y536161D01*
X-2042259Y526519D01*
X-1989826Y407355D01*
X-1906054Y307697D01*
X-1898586Y302726D01*
X-1898585Y302725D01*
X-1805150Y240528D01*
X-1805147Y240527D01*
X-1797680Y235556D01*
X-1789113Y232880D01*
X-1789112Y232879D01*
X-1765326Y225448D01*
X-1673413Y196733D01*
X-1664440Y196569D01*
X-1664437Y196568D01*
X-1564540Y194737D01*
X-1496798Y173489D01*
X-1463011Y140127D01*
X-1458279Y133241D01*
X-1453556Y122609D01*
X-1420051Y89163D01*
X-1385973Y26884D01*
X-1390976Y-43936D01*
X-1419894Y-89022D01*
X-1453847Y-123034D01*
X-1497605Y-222013D01*
X-1500500Y-246842D01*
X-1500500Y-1053158D01*
X-1497486Y-1078489D01*
X-1493649Y-1087128D01*
X-1493648Y-1087131D01*
X-1458277Y-1166763D01*
X-1453556Y-1177391D01*
X-1376966Y-1253847D01*
X-1277987Y-1297605D01*
X-1261717Y-1299502D01*
X-1256797Y-1300076D01*
X-1256792Y-1300076D01*
X-1253158Y-1300500D01*
X-887532Y-1300500D01*
X-819411Y-1320502D01*
X-772918Y-1374158D01*
X-762814Y-1444432D01*
X-792308Y-1509012D01*
X-798437Y-1515595D01*
X-1545937Y-2263095D01*
X-1608249Y-2297121D01*
X-1635032Y-2300000D01*
X-7374000Y-2300000D01*
X-7377346Y-2300360D01*
X-7377352Y-2300360D01*
X-7391436Y-2301874D01*
X-7416512Y-2304570D01*
X-7468854Y-2315956D01*
X-7478762Y-2318378D01*
X-7557314Y-2360236D01*
X-7610970Y-2406729D01*
X-7628445Y-2423851D01*
X-7671897Y-2501533D01*
X-7691899Y-2569654D01*
X-7692539Y-2574102D01*
X-7692540Y-2574109D01*
X-7697538Y-2608876D01*
X-7700000Y-2626000D01*
X-7700000Y-5374000D01*
X-7695430Y-5416512D01*
X-7684044Y-5468854D01*
X-7681622Y-5478762D01*
X-7639764Y-5557314D01*
X-7593271Y-5610970D01*
X-7576149Y-5628445D01*
X-7498467Y-5671897D01*
X-7465002Y-5681723D01*
X-7434669Y-5690630D01*
X-7434665Y-5690631D01*
X-7430346Y-5691899D01*
X-7425898Y-5692539D01*
X-7425891Y-5692540D01*
X-7378448Y-5699361D01*
X-7378441Y-5699361D01*
X-7374000Y-5700000D01*
X-52190Y-5700000D01*
X-30814Y-5698854D01*
X-4031Y-5695975D01*
X70445Y-5672656D01*
X78162Y-5668442D01*
X128806Y-5640788D01*
X128811Y-5640785D01*
X132757Y-5638630D01*
X146362Y-5628445D01*
X174721Y-5607215D01*
X174723Y-5607213D01*
X178326Y-5604516D01*
X1545937Y-4236905D01*
X1608249Y-4202879D01*
X1635032Y-4200000D01*
X1754497Y-4200000D01*
X1822618Y-4220002D01*
X1869111Y-4273658D01*
X1879215Y-4343932D01*
X1849721Y-4408512D01*
X1843592Y-4415095D01*
X-2261857Y-8520544D01*
X-2263320Y-8521807D01*
X-2267833Y-8524013D01*
X-2275704Y-8532498D01*
X-2298366Y-8556928D01*
X-2301646Y-8560333D01*
X-2313855Y-8572542D01*
X-2316427Y-8576292D01*
X-2318175Y-8578282D01*
X-2330023Y-8591054D01*
X-2330024Y-8591056D01*
X-2337935Y-8599584D01*
X-2342246Y-8610389D01*
X-2346211Y-8616662D01*
X-2347768Y-8619578D01*
X-2350775Y-8626363D01*
X-2357356Y-8635956D01*
X-2360042Y-8647272D01*
X-2360042Y-8647273D01*
X-2362429Y-8657332D01*
X-2367992Y-8674919D01*
X-2376132Y-8695324D01*
X-2376700Y-8701117D01*
X-2376700Y-8702944D01*
X-2377299Y-8705405D01*
X-2405286Y-8759024D01*
X-2477839Y-8841174D01*
X-2477841Y-8841178D01*
X-2483781Y-8847903D01*
X-2487596Y-8856028D01*
X-2487597Y-8856030D01*
X-2522132Y-8929588D01*
X-2539110Y-8965751D01*
X-2540491Y-8974620D01*
X-2555929Y-9073770D01*
X-2559140Y-9094390D01*
X-2557976Y-9103291D01*
X-2557976Y-9103295D01*
X-2544756Y-9204389D01*
X-2542259Y-9223481D01*
X-2489826Y-9342645D01*
X-2406054Y-9442303D01*
X-2398586Y-9447274D01*
X-2398585Y-9447275D01*
X-2305150Y-9509472D01*
X-2305147Y-9509473D01*
X-2297680Y-9514444D01*
X-2289113Y-9517120D01*
X-2289112Y-9517121D01*
X-2267829Y-9523770D01*
X-2173413Y-9553267D01*
X-2164440Y-9553431D01*
X-2164437Y-9553432D01*
X-2107210Y-9554481D01*
X-2043245Y-9555653D01*
X-1991083Y-9541432D01*
X-1926299Y-9523770D01*
X-1926297Y-9523769D01*
X-1917640Y-9521409D01*
X-1806694Y-9453288D01*
X-1790533Y-9435434D01*
X-1725356Y-9363427D01*
X-1725355Y-9363426D01*
X-1719328Y-9356767D01*
X-1662563Y-9239604D01*
X-1640963Y-9111219D01*
X-1640826Y-9100000D01*
X-1659282Y-8971125D01*
X-1665420Y-8957625D01*
X-1707694Y-8864647D01*
X-1717680Y-8794356D01*
X-1688080Y-8729825D01*
X-1682088Y-8723401D01*
X-1441795Y-8483108D01*
X-1379483Y-8449082D01*
X-1308668Y-8454147D01*
X-1251832Y-8496694D01*
X-1227021Y-8563214D01*
X-1226700Y-8572203D01*
X-1226700Y-9628982D01*
X-1246702Y-9697103D01*
X-1258259Y-9712389D01*
X-1327836Y-9791170D01*
X-1327840Y-9791176D01*
X-1333781Y-9797903D01*
X-1389110Y-9915751D01*
X-1390491Y-9924620D01*
X-1401427Y-9994857D01*
X-1409140Y-10044390D01*
X-1407976Y-10053292D01*
X-1407976Y-10053295D01*
X-1401632Y-10101808D01*
X-1392259Y-10173481D01*
X-1339826Y-10292645D01*
X-1256054Y-10392303D01*
X-1248586Y-10397274D01*
X-1248585Y-10397275D01*
X-1155150Y-10459472D01*
X-1155147Y-10459473D01*
X-1147680Y-10464444D01*
X-1139113Y-10467120D01*
X-1139112Y-10467121D01*
X-1117829Y-10473770D01*
X-1023413Y-10503267D01*
X-1014440Y-10503431D01*
X-1014437Y-10503432D01*
X-957210Y-10504481D01*
X-893245Y-10505653D01*
X-841083Y-10491432D01*
X-776299Y-10473770D01*
X-776297Y-10473769D01*
X-767640Y-10471409D01*
X-656694Y-10403288D01*
X-569328Y-10306767D01*
X-557062Y-10281451D01*
X-516478Y-10197685D01*
X-516478Y-10197684D01*
X-512563Y-10189604D01*
X-490963Y-10061219D01*
X-490826Y-10050000D01*
X-509282Y-9921125D01*
X-563168Y-9802610D01*
X-642754Y-9710245D01*
X-672067Y-9645585D01*
X-673300Y-9628000D01*
X-673300Y-8516803D01*
X-653298Y-8448682D01*
X-636395Y-8427708D01*
X-286257Y-8077570D01*
X-223945Y-8043544D01*
X-153130Y-8048609D01*
X-96294Y-8091156D01*
X-72226Y-8150327D01*
X-58848Y-8252625D01*
X-56513Y-8270484D01*
X-4080Y-8389648D01*
X79692Y-8489306D01*
X87160Y-8494277D01*
X87161Y-8494278D01*
X180596Y-8556475D01*
X180599Y-8556476D01*
X188066Y-8561447D01*
X196633Y-8564123D01*
X196634Y-8564124D01*
X225452Y-8573127D01*
X312333Y-8600270D01*
X321306Y-8600434D01*
X321309Y-8600435D01*
X399395Y-8601866D01*
X467138Y-8623113D01*
X486181Y-8638750D01*
X659284Y-8811853D01*
X660550Y-8813319D01*
X662756Y-8817833D01*
X671238Y-8825701D01*
X695684Y-8848378D01*
X699089Y-8851658D01*
X711285Y-8863854D01*
X715032Y-8866424D01*
X717003Y-8868155D01*
X729797Y-8880023D01*
X729800Y-8880025D01*
X738327Y-8887935D01*
X749132Y-8892246D01*
X755395Y-8896205D01*
X758329Y-8897772D01*
X765106Y-8900775D01*
X774699Y-8907356D01*
X794596Y-8912078D01*
X796067Y-8912427D01*
X813663Y-8917992D01*
X825807Y-8922837D01*
X825810Y-8922838D01*
X834067Y-8926132D01*
X839860Y-8926700D01*
X842943Y-8926700D01*
X846012Y-8926850D01*
X845993Y-8927230D01*
X852051Y-8927939D01*
X852053Y-8927902D01*
X863671Y-8928470D01*
X874992Y-8931157D01*
X886521Y-8929588D01*
X886522Y-8929588D01*
X895257Y-8928399D01*
X899285Y-8927851D01*
X916275Y-8926700D01*
X5280113Y-8926700D01*
X5348234Y-8946702D01*
X5376561Y-8971621D01*
X5393946Y-8992303D01*
X5401414Y-8997274D01*
X5401415Y-8997275D01*
X5494850Y-9059472D01*
X5494853Y-9059473D01*
X5502320Y-9064444D01*
X5510887Y-9067120D01*
X5510888Y-9067121D01*
X5532171Y-9073770D01*
X5626587Y-9103267D01*
X5635560Y-9103431D01*
X5635563Y-9103432D01*
X5692790Y-9104481D01*
X5756755Y-9105653D01*
X5830609Y-9085518D01*
X5873701Y-9073770D01*
X5873703Y-9073769D01*
X5882360Y-9071409D01*
X5993306Y-9003288D01*
X6021968Y-8971623D01*
X6074644Y-8913427D01*
X6074645Y-8913426D01*
X6080672Y-8906767D01*
X6085790Y-8896205D01*
X6133522Y-8797685D01*
X6133522Y-8797684D01*
X6137437Y-8789604D01*
X6159037Y-8661219D01*
X6159174Y-8650000D01*
X6140718Y-8521125D01*
X6107780Y-8448682D01*
X6090548Y-8410782D01*
X6090547Y-8410780D01*
X6086832Y-8402610D01*
X6001850Y-8303983D01*
X5892601Y-8233172D01*
X5767870Y-8195870D01*
X5758894Y-8195815D01*
X5758893Y-8195815D01*
X5705678Y-8195490D01*
X5637683Y-8195074D01*
X5512505Y-8230850D01*
X5504918Y-8235637D01*
X5504916Y-8235638D01*
X5463793Y-8261585D01*
X5402400Y-8300321D01*
X5396458Y-8307049D01*
X5396457Y-8307050D01*
X5375563Y-8330708D01*
X5315477Y-8368526D01*
X5281122Y-8373300D01*
X1055546Y-8373300D01*
X987425Y-8353298D01*
X966451Y-8336395D01*
X881451Y-8251395D01*
X847425Y-8189083D01*
X845500Y-8158231D01*
X844783Y-8158222D01*
X844861Y-8151863D01*
X844861Y-8151859D01*
X844920Y-8147003D01*
X826464Y-8018128D01*
X799521Y-7958870D01*
X776294Y-7907785D01*
X776293Y-7907783D01*
X772578Y-7899613D01*
X725145Y-7844564D01*
X693459Y-7807790D01*
X693458Y-7807789D01*
X687596Y-7800986D01*
X578347Y-7730175D01*
X453616Y-7692873D01*
X444639Y-7692818D01*
X444638Y-7692818D01*
X402171Y-7692558D01*
X334174Y-7672139D01*
X288011Y-7618200D01*
X278338Y-7547865D01*
X308226Y-7483466D01*
X313848Y-7477465D01*
X3205904Y-4585409D01*
X3268216Y-4551383D01*
X3315143Y-4550125D01*
X3318023Y-4550591D01*
X3326587Y-4553267D01*
X3456755Y-4555653D01*
X3546605Y-4531157D01*
X3573701Y-4523770D01*
X3573703Y-4523769D01*
X3582360Y-4521409D01*
X3669060Y-4468175D01*
X3685658Y-4457984D01*
X3685659Y-4457984D01*
X3693306Y-4453288D01*
X3712373Y-4432223D01*
X3774644Y-4363427D01*
X3774645Y-4363426D01*
X3780672Y-4356767D01*
X3829020Y-4256977D01*
X3876722Y-4204394D01*
X3945281Y-4185948D01*
X4012928Y-4207495D01*
X4031507Y-4222820D01*
X4220544Y-4411857D01*
X4221807Y-4413320D01*
X4224013Y-4417833D01*
X4232498Y-4425704D01*
X4256928Y-4448366D01*
X4260333Y-4451646D01*
X4272542Y-4463855D01*
X4276292Y-4466427D01*
X4278282Y-4468175D01*
X4299584Y-4487935D01*
X4310392Y-4492247D01*
X4316672Y-4496217D01*
X4319578Y-4497769D01*
X4326361Y-4500775D01*
X4335956Y-4507357D01*
X4357327Y-4512428D01*
X4374930Y-4517995D01*
X4387062Y-4522836D01*
X4387065Y-4522837D01*
X4395324Y-4526132D01*
X4401117Y-4526700D01*
X4404202Y-4526700D01*
X4407269Y-4526850D01*
X4407250Y-4527230D01*
X4413312Y-4527939D01*
X4413314Y-4527902D01*
X4424927Y-4528470D01*
X4436250Y-4531157D01*
X4447779Y-4529588D01*
X4447780Y-4529588D01*
X4459161Y-4528039D01*
X4460543Y-4527851D01*
X4477533Y-4526700D01*
X7171202Y-4526700D01*
X7173129Y-4526841D01*
X7177881Y-4528473D01*
X7189442Y-4528039D01*
X7222738Y-4526789D01*
X7227465Y-4526700D01*
X7244738Y-4526700D01*
X7249210Y-4525867D01*
X7251843Y-4525696D01*
X7280887Y-4524606D01*
X7291576Y-4520014D01*
X7298817Y-4518382D01*
X7301980Y-4517421D01*
X7308904Y-4514750D01*
X7320339Y-4512620D01*
X7330238Y-4506518D01*
X7330244Y-4506516D01*
X7339045Y-4501091D01*
X7355414Y-4492588D01*
X7367426Y-4487427D01*
X7367427Y-4487426D01*
X7375595Y-4483917D01*
X7380093Y-4480222D01*
X7382283Y-4478032D01*
X7384545Y-4475981D01*
X7384801Y-4476263D01*
X7389591Y-4472476D01*
X7389567Y-4472449D01*
X7398184Y-4464636D01*
X7408087Y-4458531D01*
X7422928Y-4439014D01*
X7434129Y-4426186D01*
X7794179Y-4066136D01*
X7856491Y-4032110D01*
X7885580Y-4029252D01*
X7950959Y-4030451D01*
X8003121Y-4016230D01*
X8067905Y-3998568D01*
X8067907Y-3998567D01*
X8076564Y-3996207D01*
X8187510Y-3928086D01*
X8219320Y-3892943D01*
X8279863Y-3855861D01*
X8312735Y-3851498D01*
X9107995Y-3851498D01*
X9176116Y-3871500D01*
X9197090Y-3888403D01*
X9305324Y-3996637D01*
X9339350Y-4058949D01*
X9342121Y-4086291D01*
X9340860Y-4094390D01*
X9342024Y-4103292D01*
X9342024Y-4103295D01*
X9356577Y-4214582D01*
X9357741Y-4223481D01*
X9410174Y-4342645D01*
X9493946Y-4442303D01*
X9501414Y-4447274D01*
X9501415Y-4447275D01*
X9594850Y-4509472D01*
X9594853Y-4509473D01*
X9602320Y-4514444D01*
X9610887Y-4517120D01*
X9610888Y-4517121D01*
X9645836Y-4528039D01*
X9726587Y-4553267D01*
X9735560Y-4553431D01*
X9735563Y-4553432D01*
X9792790Y-4554481D01*
X9856755Y-4555653D01*
X9946605Y-4531157D01*
X9973701Y-4523770D01*
X9973703Y-4523769D01*
X9982360Y-4521409D01*
X10069060Y-4468175D01*
X10085658Y-4457984D01*
X10085659Y-4457984D01*
X10093306Y-4453288D01*
X10112373Y-4432223D01*
X10174644Y-4363427D01*
X10174645Y-4363426D01*
X10180672Y-4356767D01*
X10237437Y-4239604D01*
X10259037Y-4111219D01*
X10259174Y-4100000D01*
X10240718Y-3971125D01*
X10213775Y-3911867D01*
X10190548Y-3860782D01*
X10190547Y-3860780D01*
X10186832Y-3852610D01*
X10101850Y-3753983D01*
X9992601Y-3683172D01*
X9867870Y-3645870D01*
X9858894Y-3645815D01*
X9858893Y-3645815D01*
X9788116Y-3645382D01*
X9720119Y-3624963D01*
X9699792Y-3608479D01*
X9504254Y-3412941D01*
X9502991Y-3411478D01*
X9500785Y-3406965D01*
X9467870Y-3376432D01*
X9464465Y-3373152D01*
X9452256Y-3360943D01*
X9448506Y-3358371D01*
X9446516Y-3356623D01*
X9433744Y-3344775D01*
X9433742Y-3344774D01*
X9425214Y-3336863D01*
X9414409Y-3332552D01*
X9408136Y-3328587D01*
X9405220Y-3327030D01*
X9398435Y-3324023D01*
X9388842Y-3317442D01*
X9377526Y-3314756D01*
X9377525Y-3314756D01*
X9367466Y-3312369D01*
X9349879Y-3306806D01*
X9329474Y-3298666D01*
X9323681Y-3298098D01*
X9320596Y-3298098D01*
X9317529Y-3297948D01*
X9317548Y-3297568D01*
X9311488Y-3296859D01*
X9311486Y-3296896D01*
X9299869Y-3296328D01*
X9294734Y-3295109D01*
X9293819Y-3294791D01*
X9292982Y-3294693D01*
X9288549Y-3293641D01*
X9288698Y-3293011D01*
X9230911Y-3272928D01*
X9187096Y-3217065D01*
X9178413Y-3165522D01*
X9178623Y-3163741D01*
X9161473Y-2494873D01*
X9158021Y-2360236D01*
X9120991Y-916088D01*
X9120991Y-916081D01*
X9120961Y-914923D01*
X9120052Y-900326D01*
X9118237Y-882012D01*
X9098651Y-813408D01*
X9067296Y-749710D01*
X9055167Y-728460D01*
X8991054Y-666719D01*
X8930239Y-630086D01*
X8877792Y-607951D01*
X8846140Y-599647D01*
X8817994Y-588503D01*
X8817221Y-588083D01*
X8738333Y-545251D01*
X8713656Y-527714D01*
X8711175Y-525456D01*
X8653650Y-473113D01*
X8646612Y-466709D01*
X8626829Y-443790D01*
X8576271Y-368551D01*
X8562526Y-341573D01*
X8560212Y-335249D01*
X8560212Y-335248D01*
X8540592Y-281634D01*
X8540591Y-281633D01*
X8540590Y-281629D01*
X8540589Y-281628D01*
X8531375Y-256452D01*
X8524462Y-226977D01*
X8514515Y-136878D01*
X8514696Y-119611D01*
X9581394Y-119611D01*
X9599999Y-288135D01*
X9658266Y-447356D01*
X9662502Y-453659D01*
X9662502Y-453660D01*
X9675574Y-473113D01*
X9752830Y-588083D01*
X9758442Y-593190D01*
X9758445Y-593193D01*
X9872612Y-697077D01*
X9872616Y-697080D01*
X9878233Y-702191D01*
X9884906Y-705814D01*
X9884910Y-705817D01*
X10020558Y-779467D01*
X10020560Y-779468D01*
X10027235Y-783092D01*
X10034584Y-785020D01*
X10183883Y-824188D01*
X10183885Y-824188D01*
X10191233Y-826116D01*
X10277609Y-827473D01*
X10353161Y-828660D01*
X10353164Y-828660D01*
X10360760Y-828779D01*
X10368165Y-827083D01*
X10368166Y-827083D01*
X10450020Y-808336D01*
X10526029Y-790928D01*
X10677498Y-714747D01*
X10806423Y-604634D01*
X10818504Y-587821D01*
X10874497Y-544174D01*
X10945201Y-537727D01*
X11008166Y-570529D01*
X11016207Y-579014D01*
X11018594Y-581780D01*
X11022830Y-588083D01*
X11028446Y-593193D01*
X11028449Y-593196D01*
X11142612Y-697077D01*
X11142616Y-697080D01*
X11148233Y-702191D01*
X11154906Y-705814D01*
X11154910Y-705817D01*
X11290558Y-779467D01*
X11290560Y-779468D01*
X11297235Y-783092D01*
X11304584Y-785020D01*
X11453883Y-824188D01*
X11453885Y-824188D01*
X11461233Y-826116D01*
X11547609Y-827473D01*
X11623161Y-828660D01*
X11623164Y-828660D01*
X11630760Y-828779D01*
X11638165Y-827083D01*
X11638166Y-827083D01*
X11720020Y-808336D01*
X11796029Y-790928D01*
X11947498Y-714747D01*
X12076423Y-604634D01*
X12175361Y-466947D01*
X12184670Y-443790D01*
X12235766Y-316687D01*
X12235767Y-316685D01*
X12238601Y-309634D01*
X12262490Y-141778D01*
X12262645Y-127000D01*
X12260840Y-112080D01*
X12258004Y-88653D01*
X12242276Y41320D01*
X12182345Y199923D01*
X12147595Y250484D01*
X12090614Y333392D01*
X12090613Y333393D01*
X12086312Y339651D01*
X12074514Y350163D01*
X11965392Y447388D01*
X11965388Y447390D01*
X11959721Y452440D01*
X11809881Y531776D01*
X11645441Y573081D01*
X11637843Y573121D01*
X11637841Y573121D01*
X11560668Y573525D01*
X11475895Y573969D01*
X11468508Y572195D01*
X11468504Y572195D01*
X11344770Y542488D01*
X11311032Y534388D01*
X11304288Y530907D01*
X11304285Y530906D01*
X11167117Y460108D01*
X11160369Y456625D01*
X11154647Y451633D01*
X11154645Y451632D01*
X11123676Y424616D01*
X11032604Y345169D01*
X11028237Y338955D01*
X11028235Y338953D01*
X11025574Y335167D01*
X10970039Y290936D01*
X10899407Y283751D01*
X10836103Y315893D01*
X10825837Y327867D01*
X10825639Y327692D01*
X10820613Y333392D01*
X10816312Y339651D01*
X10804514Y350163D01*
X10695392Y447388D01*
X10695388Y447390D01*
X10689721Y452440D01*
X10539881Y531776D01*
X10375441Y573081D01*
X10367843Y573121D01*
X10367841Y573121D01*
X10290668Y573525D01*
X10205895Y573969D01*
X10198508Y572195D01*
X10198504Y572195D01*
X10074770Y542488D01*
X10041032Y534388D01*
X10034288Y530907D01*
X10034285Y530906D01*
X9897117Y460108D01*
X9890369Y456625D01*
X9884647Y451633D01*
X9884645Y451632D01*
X9853676Y424616D01*
X9762604Y345169D01*
X9754327Y333392D01*
X9676049Y222013D01*
X9665113Y206453D01*
X9603524Y48487D01*
X9602532Y40954D01*
X9602532Y40953D01*
X9582445Y-111629D01*
X9581394Y-119611D01*
X8514696Y-119611D01*
X8514833Y-106601D01*
X8515911Y-98413D01*
X8515912Y-98402D01*
X8526664Y-16731D01*
X8534193Y12592D01*
X8545349Y41206D01*
X8567284Y97468D01*
X8579188Y120543D01*
X8579743Y121332D01*
X8580789Y123043D01*
X8592012Y141400D01*
X8592022Y141418D01*
X8593067Y143127D01*
X8608036Y171546D01*
X8622444Y222013D01*
X8628783Y244217D01*
X8628783Y244219D01*
X8630572Y250484D01*
X8635637Y321299D01*
X8635703Y327692D01*
X8635795Y336755D01*
X8635887Y345765D01*
X8611682Y431419D01*
X8600645Y451632D01*
X8579814Y489780D01*
X8579811Y489785D01*
X8577656Y493731D01*
X8549175Y531776D01*
X8546241Y535695D01*
X8546239Y535697D01*
X8543542Y539300D01*
X8336905Y745937D01*
X8302879Y808249D01*
X8300000Y835032D01*
X8300000Y2414968D01*
X8320002Y2483089D01*
X8336905Y2504063D01*
X11167601Y5334759D01*
X11229913Y5368785D01*
X11300728Y5363720D01*
X11357564Y5321173D01*
X11371803Y5296913D01*
X11599776Y4784878D01*
X11602457Y4778372D01*
X11848783Y4129914D01*
X11851097Y4123270D01*
X11899980Y3969171D01*
X12055597Y3478607D01*
X12060851Y3462044D01*
X12062786Y3455294D01*
X12138111Y3161923D01*
X12235299Y2783400D01*
X12236856Y2776548D01*
X12301727Y2448925D01*
X12371592Y2096078D01*
X12372766Y2089141D01*
X12469311Y1402191D01*
X12470095Y1395198D01*
X12528140Y703959D01*
X12528533Y696934D01*
X12547926Y2642D01*
X12547963Y-2635D01*
X12543145Y-347717D01*
X12542961Y-352992D01*
X12504188Y-1046481D01*
X12503599Y-1053492D01*
X12426275Y-1742859D01*
X12425296Y-1749823D01*
X12331346Y-2305288D01*
X12309614Y-2433772D01*
X12308250Y-2440666D01*
X12215610Y-2848423D01*
X12154562Y-3117128D01*
X12152812Y-3123943D01*
X11961603Y-3790765D01*
X11959479Y-3797460D01*
X11731668Y-4451646D01*
X11731355Y-4452546D01*
X11728860Y-4459116D01*
X11483338Y-5054795D01*
X11464509Y-5100478D01*
X11461650Y-5106900D01*
X11177991Y-5698945D01*
X11161919Y-5732489D01*
X11158708Y-5738737D01*
X11007101Y-6014510D01*
X10824515Y-6346632D01*
X10820954Y-6352701D01*
X10453349Y-6940991D01*
X10449481Y-6946814D01*
X10212879Y-7282218D01*
X10049604Y-7513675D01*
X10045395Y-7519301D01*
X9880297Y-7727603D01*
X9614510Y-8062943D01*
X9609987Y-8068333D01*
X9149438Y-8587061D01*
X9144622Y-8592190D01*
X8948582Y-8789604D01*
X8672997Y-9067121D01*
X8655818Y-9084420D01*
X8650729Y-9089266D01*
X8135226Y-9553427D01*
X8129886Y-9557972D01*
X7956842Y-9697103D01*
X7589256Y-9992649D01*
X7583652Y-9996903D01*
X7019586Y-10400735D01*
X7013785Y-10404647D01*
X6428086Y-10776343D01*
X6422045Y-10779944D01*
X5929858Y-11055019D01*
X5816517Y-11118363D01*
X5810289Y-11121620D01*
X5186800Y-11425715D01*
X5180392Y-11428622D01*
X4540902Y-11697438D01*
X4534342Y-11699982D01*
X4366660Y-11759691D01*
X3880860Y-11932676D01*
X3874190Y-11934844D01*
X3591424Y-12018067D01*
X3208702Y-12130708D01*
X3201899Y-12132505D01*
X2526557Y-12290905D01*
X2519665Y-12292320D01*
X2282094Y-12334211D01*
X1836500Y-12412781D01*
X1829574Y-12413803D01*
X1140733Y-12495943D01*
X1133741Y-12496578D01*
X441422Y-12540136D01*
X434423Y-12540380D01*
X53936Y-12543037D01*
X-259260Y-12545223D01*
X-266294Y-12545076D01*
X-732091Y-12522295D01*
X-959164Y-12511189D01*
X-966167Y-12510650D01*
X-1656060Y-12438140D01*
X-1663035Y-12437209D01*
X-2347777Y-12326304D01*
X-2354688Y-12324986D01*
X-2892911Y-12206651D01*
X-3032218Y-12176022D01*
X-3039026Y-12174324D01*
X-3707142Y-11987783D01*
X-3713864Y-11985703D01*
X-4370562Y-11762144D01*
X-4377156Y-11759691D01*
X-4672155Y-11640504D01*
X-5020324Y-11499835D01*
X-5026756Y-11497026D01*
X-5654417Y-11201670D01*
X-5660696Y-11198499D01*
X-6270907Y-10868559D01*
X-6277000Y-10865041D01*
X-6867825Y-10501563D01*
X-6873713Y-10497710D01*
X-7443340Y-10101808D01*
X-7449003Y-10097632D01*
X-7995617Y-9670571D01*
X-8001039Y-9666086D01*
X-8424809Y-9295103D01*
X-8522973Y-9209167D01*
X-8528134Y-9204389D01*
X-8631396Y-9103267D01*
X-8828712Y-8910042D01*
X-9023774Y-8719023D01*
X-9028661Y-8713961D01*
X-9496394Y-8201728D01*
X-9500992Y-8196402D01*
X-9575809Y-8104667D01*
X-9603363Y-8039235D01*
X-9591167Y-7969293D01*
X-9543095Y-7917048D01*
X-9468280Y-7899419D01*
X-9304930Y-7912275D01*
X-9295070Y-7912275D01*
X-9068301Y-7894428D01*
X-9058554Y-7892885D01*
X-8837373Y-7839783D01*
X-8827988Y-7836734D01*
X-8617837Y-7749687D01*
X-8609042Y-7745205D01*
X-8441555Y-7642568D01*
X-8432093Y-7632110D01*
X-8435876Y-7623334D01*
X-9658078Y-6401132D01*
X-8935592Y-6401132D01*
X-8935461Y-6402965D01*
X-8931210Y-6409580D01*
X-8079710Y-7261080D01*
X-8067330Y-7267840D01*
X-8059680Y-7262113D01*
X-7954795Y-7090958D01*
X-7950313Y-7082163D01*
X-7863266Y-6872012D01*
X-7860217Y-6862627D01*
X-7807115Y-6641446D01*
X-7805572Y-6631699D01*
X-7787725Y-6404930D01*
X-7787725Y-6395070D01*
X-7805572Y-6168301D01*
X-7807115Y-6158554D01*
X-7860217Y-5937373D01*
X-7863266Y-5927988D01*
X-7950313Y-5717837D01*
X-7954795Y-5709042D01*
X-8057432Y-5541555D01*
X-8067890Y-5532093D01*
X-8076666Y-5535876D01*
X-8927978Y-6387188D01*
X-8935592Y-6401132D01*
X-9658078Y-6401132D01*
X-10520290Y-5538920D01*
X-10532670Y-5532160D01*
X-10540320Y-5537887D01*
X-10645205Y-5709042D01*
X-10649687Y-5717837D01*
X-10736734Y-5927988D01*
X-10739783Y-5937373D01*
X-10758302Y-6014510D01*
X-10793654Y-6076079D01*
X-10856681Y-6108762D01*
X-10927372Y-6102182D01*
X-10983283Y-6058427D01*
X-10990371Y-6047342D01*
X-11077492Y-5893981D01*
X-11080784Y-5887791D01*
X-11174321Y-5699361D01*
X-11389231Y-5266429D01*
X-11392180Y-5260047D01*
X-11431678Y-5167890D01*
X-10167907Y-5167890D01*
X-10164124Y-5176666D01*
X-9312812Y-6027978D01*
X-9298868Y-6035592D01*
X-9297035Y-6035461D01*
X-9290420Y-6031210D01*
X-8438920Y-5179710D01*
X-8432160Y-5167330D01*
X-8437887Y-5159680D01*
X-8609042Y-5054795D01*
X-8617837Y-5050313D01*
X-8827988Y-4963266D01*
X-8837373Y-4960217D01*
X-9058554Y-4907115D01*
X-9068301Y-4905572D01*
X-9295070Y-4887725D01*
X-9304930Y-4887725D01*
X-9531699Y-4905572D01*
X-9541446Y-4907115D01*
X-9762627Y-4960217D01*
X-9772012Y-4963266D01*
X-9982163Y-5050313D01*
X-9990958Y-5054795D01*
X-10158445Y-5157432D01*
X-10167907Y-5167890D01*
X-11431678Y-5167890D01*
X-11520687Y-4960217D01*
X-11665453Y-4622452D01*
X-11668040Y-4615916D01*
X-11905293Y-3964068D01*
X-11907514Y-3957392D01*
X-11991083Y-3680600D01*
X-12108012Y-3293311D01*
X-12109854Y-3286533D01*
X-12150006Y-3120561D01*
X-12187727Y-2964641D01*
X-12272968Y-2612297D01*
X-12274431Y-2605415D01*
X-12330419Y-2300360D01*
X-12399658Y-1923112D01*
X-12400732Y-1916168D01*
X-12421745Y-1749827D01*
X-12487671Y-1227968D01*
X-12488358Y-1220965D01*
X-12536747Y-528973D01*
X-12537042Y-521943D01*
X-12546728Y171692D01*
X-12546629Y178727D01*
X-12517582Y871771D01*
X-12517092Y878791D01*
X-12449398Y1569183D01*
X-12448516Y1576163D01*
X-12342394Y2261672D01*
X-12341124Y2268593D01*
X-12196897Y2947128D01*
X-12195242Y2953967D01*
X-12121037Y3227088D01*
X-12013363Y3623393D01*
X-12011333Y3630115D01*
X-12002138Y3657754D01*
X-11792377Y4288320D01*
X-11789971Y4294932D01*
X-11534604Y4939914D01*
X-11531832Y4946381D01*
X-11358654Y5321173D01*
X-11240858Y5576106D01*
X-11237734Y5582399D01*
X-11219835Y5616061D01*
X-10912074Y6194876D01*
X-10908603Y6200987D01*
X-10885452Y6239213D01*
X-10549252Y6794347D01*
X-10545441Y6800260D01*
X-10444897Y6947101D01*
X-10153534Y7372624D01*
X-10149401Y7378312D01*
X-10112191Y7426630D01*
X1740860Y7426630D01*
X1742024Y7417728D01*
X1742024Y7417725D01*
X1756577Y7306438D01*
X1757741Y7297539D01*
X1810174Y7178375D01*
X1893946Y7078717D01*
X1901414Y7073746D01*
X1901415Y7073745D01*
X1994850Y7011548D01*
X1994853Y7011547D01*
X2002320Y7006576D01*
X2010887Y7003900D01*
X2010888Y7003899D01*
X2032171Y6997250D01*
X2126587Y6967753D01*
X2135560Y6967589D01*
X2135563Y6967588D01*
X2192790Y6966539D01*
X2256755Y6965367D01*
X2308917Y6979588D01*
X2373701Y6997250D01*
X2373703Y6997251D01*
X2382360Y6999611D01*
X2493306Y7067732D01*
X2580672Y7164253D01*
X2601254Y7206733D01*
X2633522Y7273335D01*
X2633522Y7273336D01*
X2637437Y7281416D01*
X2659037Y7409801D01*
X2659174Y7421020D01*
X2640718Y7549895D01*
X2586832Y7668410D01*
X2507246Y7760775D01*
X2477933Y7825435D01*
X2476700Y7843020D01*
X2476700Y7933958D01*
X2496702Y8002079D01*
X2550358Y8048572D01*
X2569553Y8055519D01*
X2582360Y8059011D01*
X2693306Y8127132D01*
X2780672Y8223653D01*
X2825269Y8315700D01*
X2833522Y8332735D01*
X2833522Y8332736D01*
X2837437Y8340816D01*
X2859037Y8469201D01*
X2859174Y8480420D01*
X2840718Y8609295D01*
X2786832Y8727810D01*
X2744341Y8777124D01*
X2707713Y8819633D01*
X2707712Y8819634D01*
X2701850Y8826437D01*
X2592601Y8897248D01*
X2467870Y8934550D01*
X2458894Y8934605D01*
X2458893Y8934605D01*
X2405678Y8934930D01*
X2337683Y8935346D01*
X2212505Y8899570D01*
X2204918Y8894783D01*
X2204916Y8894782D01*
X2147000Y8858240D01*
X2102400Y8830099D01*
X2016219Y8732517D01*
X2012404Y8724392D01*
X2012403Y8724390D01*
X1964711Y8622808D01*
X1960890Y8614669D01*
X1959509Y8605800D01*
X1949227Y8539764D01*
X1940860Y8486030D01*
X1942024Y8477128D01*
X1942024Y8477125D01*
X1946458Y8443220D01*
X1939518Y8395205D01*
X1942644Y8394463D01*
X1937571Y8373088D01*
X1932008Y8355501D01*
X1923868Y8335096D01*
X1923300Y8329303D01*
X1923300Y8326218D01*
X1923150Y8323151D01*
X1922770Y8323170D01*
X1922061Y8317111D01*
X1922098Y8317109D01*
X1921530Y8305491D01*
X1918843Y8294170D01*
X1920412Y8282641D01*
X1920412Y8282640D01*
X1922149Y8269878D01*
X1923300Y8252887D01*
X1923300Y7842038D01*
X1903298Y7773917D01*
X1891741Y7758631D01*
X1822164Y7679850D01*
X1822160Y7679844D01*
X1816219Y7673117D01*
X1812404Y7664992D01*
X1812403Y7664990D01*
X1765253Y7564562D01*
X1760890Y7555269D01*
X1759509Y7546400D01*
X1748273Y7474236D01*
X1740860Y7426630D01*
X-10112191Y7426630D01*
X-9726144Y7927922D01*
X-9721697Y7933375D01*
X-9410268Y8294170D01*
X-9268437Y8458482D01*
X-9263699Y8463672D01*
X-9258359Y8469201D01*
X-8781823Y8962669D01*
X-8776796Y8967592D01*
X-8393469Y9322556D01*
X-8267811Y9438917D01*
X-8262540Y9443532D01*
X-7728010Y9885734D01*
X-7722505Y9890034D01*
X-7164130Y10301704D01*
X-7158359Y10305714D01*
X-6577921Y10685542D01*
X-6571928Y10689229D01*
X-5971189Y11036065D01*
X-5965000Y11039412D01*
X-5345819Y11352184D01*
X-5339452Y11355180D01*
X-4703791Y11632893D01*
X-4697267Y11635529D01*
X-4198720Y11820937D01*
X-4047074Y11877334D01*
X-4040424Y11879597D01*
X-3527514Y12038369D01*
X-3377765Y12084724D01*
X-3370988Y12086616D01*
X-2697915Y12254432D01*
X-2691043Y12255943D01*
X-2440146Y12303804D01*
X-2009630Y12385930D01*
X-2002716Y12387049D01*
X-1632187Y12436489D01*
X-1315120Y12478794D01*
X-1308123Y12479530D01*
X-846662Y12515037D01*
X-616460Y12532750D01*
X-609439Y12533093D01*
X-480103Y12535802D01*
X84080Y12547620D01*
X91116Y12547571D01*
G37*
%TD.AperFunction*%
%TD*%
%TA.AperFunction,Conductor*%
%TO.N,+BATT*%
G36*
X9332120Y8379998D02*
G01*
X9355848Y8360254D01*
X9374102Y8340816D01*
X9380958Y8333515D01*
X9385623Y8328261D01*
X9498925Y8193233D01*
X9571921Y8106240D01*
X9600385Y8041200D01*
X9589168Y7971095D01*
X9541829Y7918184D01*
X9473400Y7899265D01*
X9465513Y7899637D01*
X9304930Y7912275D01*
X9295070Y7912275D01*
X9068301Y7894428D01*
X9058554Y7892885D01*
X8837373Y7839783D01*
X8827988Y7836734D01*
X8617837Y7749687D01*
X8609042Y7745205D01*
X8441555Y7642568D01*
X8432093Y7632110D01*
X8435876Y7623334D01*
X10520290Y5538920D01*
X10532670Y5532160D01*
X10540320Y5537887D01*
X10645205Y5709042D01*
X10649687Y5717837D01*
X10736734Y5927988D01*
X10739783Y5937373D01*
X10759511Y6019544D01*
X10794863Y6081114D01*
X10857890Y6113796D01*
X10928581Y6107215D01*
X10984493Y6063461D01*
X10990711Y6053882D01*
X10994125Y6048062D01*
X10997506Y6041912D01*
X11157291Y5731006D01*
X11170638Y5661278D01*
X11144168Y5595401D01*
X11134319Y5584319D01*
X8100000Y2550000D01*
X8100000Y700000D01*
X8402121Y397879D01*
X8436147Y335567D01*
X8431082Y264752D01*
X8416113Y236333D01*
X8395113Y206453D01*
X8333524Y48487D01*
X8332532Y40954D01*
X8332532Y40953D01*
X8317623Y-72298D01*
X8311394Y-119611D01*
X8329999Y-288135D01*
X8352771Y-350361D01*
X8372394Y-403983D01*
X8388266Y-447356D01*
X8392502Y-453659D01*
X8392502Y-453660D01*
X8405574Y-473113D01*
X8482830Y-588083D01*
X8488442Y-593190D01*
X8488445Y-593193D01*
X8602612Y-697077D01*
X8602616Y-697080D01*
X8608233Y-702191D01*
X8614906Y-705814D01*
X8614910Y-705817D01*
X8750558Y-779467D01*
X8750560Y-779468D01*
X8757235Y-783092D01*
X8827042Y-801405D01*
X8887857Y-838038D01*
X8919212Y-901736D01*
X8921027Y-920050D01*
X8961539Y-2500000D01*
X8978689Y-3168868D01*
X8960439Y-3237479D01*
X8907993Y-3285332D01*
X8852730Y-3298098D01*
X8313534Y-3298098D01*
X8245413Y-3278096D01*
X8218085Y-3254349D01*
X8196054Y-3228781D01*
X8086805Y-3157970D01*
X7962074Y-3120668D01*
X7953098Y-3120613D01*
X7953097Y-3120613D01*
X7899882Y-3120288D01*
X7831887Y-3119872D01*
X7706709Y-3155648D01*
X7699122Y-3160435D01*
X7699120Y-3160436D01*
X7641204Y-3196978D01*
X7596604Y-3225119D01*
X7510423Y-3322701D01*
X7506608Y-3330826D01*
X7506607Y-3330828D01*
X7470676Y-3407360D01*
X7455094Y-3440549D01*
X7435064Y-3569188D01*
X7436228Y-3578092D01*
X7436119Y-3587064D01*
X7433242Y-3587029D01*
X7424515Y-3642715D01*
X7399668Y-3678021D01*
X7141294Y-3936395D01*
X7078982Y-3970421D01*
X7052199Y-3973300D01*
X4616803Y-3973300D01*
X4548682Y-3953298D01*
X4527708Y-3936395D01*
X3999745Y-3408432D01*
X3998482Y-3406969D01*
X3996276Y-3402456D01*
X3963361Y-3371923D01*
X3959956Y-3368643D01*
X3947747Y-3356434D01*
X3943997Y-3353862D01*
X3942007Y-3352114D01*
X3929235Y-3340266D01*
X3929233Y-3340265D01*
X3920705Y-3332354D01*
X3909900Y-3328043D01*
X3903627Y-3324078D01*
X3900711Y-3322521D01*
X3893926Y-3319514D01*
X3884333Y-3312933D01*
X3873017Y-3310247D01*
X3873016Y-3310247D01*
X3862957Y-3307860D01*
X3845370Y-3302297D01*
X3824965Y-3294157D01*
X3819172Y-3293589D01*
X3816087Y-3293589D01*
X3813020Y-3293439D01*
X3813039Y-3293059D01*
X3806980Y-3292350D01*
X3806978Y-3292387D01*
X3795360Y-3291819D01*
X3784039Y-3289132D01*
X3772510Y-3290701D01*
X3772509Y-3290701D01*
X3764317Y-3291816D01*
X3760122Y-3292387D01*
X3759747Y-3292438D01*
X3742756Y-3293589D01*
X3127511Y-3293589D01*
X3125584Y-3293448D01*
X3120832Y-3291816D01*
X3109271Y-3292250D01*
X3075975Y-3293500D01*
X3071248Y-3293589D01*
X3053975Y-3293589D01*
X3049503Y-3294422D01*
X3046870Y-3294593D01*
X3017826Y-3295683D01*
X3007137Y-3300275D01*
X2999896Y-3301907D01*
X2996733Y-3302868D01*
X2989809Y-3305539D01*
X2978374Y-3307669D01*
X2968475Y-3313771D01*
X2968469Y-3313773D01*
X2959668Y-3319198D01*
X2943299Y-3327701D01*
X2931287Y-3332862D01*
X2931286Y-3332863D01*
X2923118Y-3336372D01*
X2918620Y-3340067D01*
X2916430Y-3342257D01*
X2914168Y-3344308D01*
X2913912Y-3344026D01*
X2909122Y-3347813D01*
X2909146Y-3347840D01*
X2900529Y-3355653D01*
X2890626Y-3361758D01*
X2880686Y-3374830D01*
X2875785Y-3381275D01*
X2864584Y-3394103D01*
X2295592Y-3963095D01*
X2233280Y-3997121D01*
X2206497Y-4000000D01*
X1500000Y-4000000D01*
X36905Y-5463095D01*
X-25407Y-5497121D01*
X-52190Y-5500000D01*
X-7374000Y-5500000D01*
X-7442121Y-5479998D01*
X-7488614Y-5426342D01*
X-7500000Y-5374000D01*
X-7500000Y-2626000D01*
X-7479998Y-2557879D01*
X-7426342Y-2511386D01*
X-7374000Y-2500000D01*
X-1500000Y-2500000D01*
X-644905Y-1644905D01*
X-582593Y-1610879D01*
X-555810Y-1608000D01*
X-272115Y-1608000D01*
X-256876Y-1603525D01*
X-255671Y-1602135D01*
X-254000Y-1594452D01*
X-254000Y-1589885D01*
X254000Y-1589885D01*
X258475Y-1605124D01*
X259865Y-1606329D01*
X267548Y-1608000D01*
X1245072Y-1608000D01*
X1253281Y-1607462D01*
X1357921Y-1593686D01*
X1373738Y-1589448D01*
X1503950Y-1535512D01*
X1518131Y-1527325D01*
X1629953Y-1441522D01*
X1641522Y-1429953D01*
X1727325Y-1318131D01*
X1735512Y-1303950D01*
X1789448Y-1173738D01*
X1793686Y-1157921D01*
X1807462Y-1053281D01*
X1808000Y-1045072D01*
X1808000Y-922115D01*
X1803525Y-906876D01*
X1802135Y-905671D01*
X1794452Y-904000D01*
X272115Y-904000D01*
X256876Y-908475D01*
X255671Y-909865D01*
X254000Y-917548D01*
X254000Y-1589885D01*
X-254000Y-1589885D01*
X-254000Y-1254000D01*
X604000Y-396000D01*
X1789885Y-396000D01*
X1805124Y-391525D01*
X1806329Y-390135D01*
X1808000Y-382452D01*
X1808000Y-254928D01*
X1807462Y-246719D01*
X1793734Y-142446D01*
X1797295Y-119611D01*
X5771394Y-119611D01*
X5789999Y-288135D01*
X5812771Y-350361D01*
X5832394Y-403983D01*
X5848266Y-447356D01*
X5852502Y-453659D01*
X5852502Y-453660D01*
X5865574Y-473113D01*
X5942830Y-588083D01*
X5948442Y-593190D01*
X5948445Y-593193D01*
X6062612Y-697077D01*
X6062616Y-697080D01*
X6068233Y-702191D01*
X6074906Y-705814D01*
X6074910Y-705817D01*
X6210558Y-779467D01*
X6210560Y-779468D01*
X6217235Y-783092D01*
X6224584Y-785020D01*
X6373883Y-824188D01*
X6373885Y-824188D01*
X6381233Y-826116D01*
X6467609Y-827473D01*
X6543161Y-828660D01*
X6543164Y-828660D01*
X6550760Y-828779D01*
X6558165Y-827083D01*
X6558166Y-827083D01*
X6670283Y-801405D01*
X6716029Y-790928D01*
X6867498Y-714747D01*
X6996423Y-604634D01*
X7095361Y-466947D01*
X7103237Y-447356D01*
X7155766Y-316687D01*
X7155767Y-316685D01*
X7158601Y-309634D01*
X7182490Y-141778D01*
X7182645Y-127000D01*
X7180840Y-112080D01*
X7176025Y-72298D01*
X7162276Y41320D01*
X7102345Y199923D01*
X7093584Y212670D01*
X7010614Y333392D01*
X7010613Y333393D01*
X7006312Y339651D01*
X6940959Y397879D01*
X6885392Y447388D01*
X6885388Y447390D01*
X6879721Y452440D01*
X6729881Y531776D01*
X6565441Y573081D01*
X6557843Y573121D01*
X6557841Y573121D01*
X6480668Y573525D01*
X6395895Y573969D01*
X6388508Y572195D01*
X6388504Y572195D01*
X6245162Y537780D01*
X6231032Y534388D01*
X6224288Y530907D01*
X6224285Y530906D01*
X6087117Y460108D01*
X6080369Y456625D01*
X6074647Y451633D01*
X6074645Y451632D01*
X6033303Y415567D01*
X5952604Y345169D01*
X5926268Y307697D01*
X5866049Y222013D01*
X5855113Y206453D01*
X5793524Y48487D01*
X5792532Y40954D01*
X5792532Y40953D01*
X5777623Y-72298D01*
X5771394Y-119611D01*
X1797295Y-119611D01*
X1804673Y-72298D01*
X1851801Y-19199D01*
X1918656Y0D01*
X3000000Y0D01*
X3000000Y2500000D01*
X-1424000Y2500000D01*
X-1492121Y2520002D01*
X-1538614Y2573658D01*
X-1550000Y2626000D01*
X-1550000Y3166419D01*
X-1529998Y3234540D01*
X-1476342Y3281033D01*
X-1406068Y3291137D01*
X-1360526Y3274207D01*
X-1360410Y3274440D01*
X-1358197Y3273341D01*
X-1356111Y3272566D01*
X-1354295Y3271404D01*
X-1197596Y3193618D01*
X-1184864Y3188934D01*
X-1016844Y3147041D01*
X-1006816Y3149259D01*
X-1004000Y3160371D01*
X-1004000Y4178000D01*
X-983998Y4246121D01*
X-930342Y4292614D01*
X-878000Y4304000D01*
X-622000Y4304000D01*
X-553879Y4283998D01*
X-507386Y4230342D01*
X-496000Y4178000D01*
X-496000Y3162769D01*
X-491597Y3147775D01*
X-485019Y3146577D01*
X-315136Y3188934D01*
X-302404Y3193618D01*
X-145700Y3271407D01*
X-134274Y3278714D01*
X2070Y3388336D01*
X11664Y3397931D01*
X32191Y3423462D01*
X90464Y3464019D01*
X161412Y3466633D01*
X165639Y3465229D01*
X171769Y3461133D01*
X230252Y3449500D01*
X758089Y3449500D01*
X826210Y3429498D01*
X854539Y3404577D01*
X893946Y3357697D01*
X901414Y3352726D01*
X901415Y3352725D01*
X994850Y3290528D01*
X994853Y3290527D01*
X1002320Y3285556D01*
X1010887Y3282880D01*
X1010888Y3282879D01*
X1057757Y3268237D01*
X1126587Y3246733D01*
X1135560Y3246569D01*
X1135563Y3246568D01*
X1192790Y3245519D01*
X1256755Y3244347D01*
X1360261Y3272566D01*
X1373701Y3276230D01*
X1373703Y3276231D01*
X1382360Y3278591D01*
X1493306Y3346712D01*
X1545682Y3404576D01*
X1574648Y3436577D01*
X1574650Y3436580D01*
X1580672Y3443233D01*
X1582139Y3446260D01*
X1634639Y3489748D01*
X1684422Y3500000D01*
X4500000Y3500000D01*
X6201357Y5167330D01*
X8432160Y5167330D01*
X8437887Y5159680D01*
X8609042Y5054795D01*
X8617837Y5050313D01*
X8827988Y4963266D01*
X8837373Y4960217D01*
X9058554Y4907115D01*
X9068301Y4905572D01*
X9295070Y4887725D01*
X9304930Y4887725D01*
X9531699Y4905572D01*
X9541446Y4907115D01*
X9762627Y4960217D01*
X9772012Y4963266D01*
X9982163Y5050313D01*
X9990958Y5054795D01*
X10158445Y5157432D01*
X10167907Y5167890D01*
X10164124Y5176666D01*
X9312812Y6027978D01*
X9298868Y6035592D01*
X9297035Y6035461D01*
X9290420Y6031210D01*
X8438920Y5179710D01*
X8432160Y5167330D01*
X6201357Y5167330D01*
X7000000Y5950000D01*
X7000000Y6395070D01*
X7787725Y6395070D01*
X7805572Y6168301D01*
X7807115Y6158554D01*
X7860217Y5937373D01*
X7863266Y5927988D01*
X7950313Y5717837D01*
X7954795Y5709042D01*
X8057432Y5541555D01*
X8067890Y5532093D01*
X8076666Y5535876D01*
X8927978Y6387188D01*
X8935592Y6401132D01*
X8935461Y6402965D01*
X8931210Y6409580D01*
X8079710Y7261080D01*
X8067330Y7267840D01*
X8059680Y7262113D01*
X7954795Y7090958D01*
X7950313Y7082163D01*
X7863266Y6872012D01*
X7860217Y6862627D01*
X7807115Y6641446D01*
X7805572Y6631699D01*
X7787725Y6404930D01*
X7787725Y6395070D01*
X7000000Y6395070D01*
X7000000Y8274000D01*
X7020002Y8342121D01*
X7073658Y8388614D01*
X7126000Y8400000D01*
X9263999Y8400000D01*
X9332120Y8379998D01*
G37*
%TD.AperFunction*%
%TD*%
M02*
