%TF.GenerationSoftware,KiCad,Pcbnew,(6.0.1)*%
%TF.CreationDate,2023-02-09T13:33:18-07:00*%
%TF.ProjectId,NoteDetector,4e6f7465-4465-4746-9563-746f722e6b69,rev?*%
%TF.SameCoordinates,Original*%
%TF.FileFunction,Copper,L1,Top*%
%TF.FilePolarity,Positive*%
%FSLAX46Y46*%
G04 Gerber Fmt 4.6, Leading zero omitted, Abs format (unit mm)*
G04 Created by KiCad (PCBNEW (6.0.1)) date 2023-02-09 13:33:18*
%MOMM*%
%LPD*%
G01*
G04 APERTURE LIST*
G04 Aperture macros list*
%AMRoundRect*
0 Rectangle with rounded corners*
0 $1 Rounding radius*
0 $2 $3 $4 $5 $6 $7 $8 $9 X,Y pos of 4 corners*
0 Add a 4 corners polygon primitive as box body*
4,1,4,$2,$3,$4,$5,$6,$7,$8,$9,$2,$3,0*
0 Add four circle primitives for the rounded corners*
1,1,$1+$1,$2,$3*
1,1,$1+$1,$4,$5*
1,1,$1+$1,$6,$7*
1,1,$1+$1,$8,$9*
0 Add four rect primitives between the rounded corners*
20,1,$1+$1,$2,$3,$4,$5,0*
20,1,$1+$1,$4,$5,$6,$7,0*
20,1,$1+$1,$6,$7,$8,$9,0*
20,1,$1+$1,$8,$9,$2,$3,0*%
G04 Aperture macros list end*
%TA.AperFunction,SMDPad,CuDef*%
%ADD10RoundRect,0.200000X0.275000X-0.200000X0.275000X0.200000X-0.275000X0.200000X-0.275000X-0.200000X0*%
%TD*%
%TA.AperFunction,SMDPad,CuDef*%
%ADD11RoundRect,0.225000X-0.250000X0.225000X-0.250000X-0.225000X0.250000X-0.225000X0.250000X0.225000X0*%
%TD*%
%TA.AperFunction,SMDPad,CuDef*%
%ADD12RoundRect,0.200000X-0.200000X-0.275000X0.200000X-0.275000X0.200000X0.275000X-0.200000X0.275000X0*%
%TD*%
%TA.AperFunction,SMDPad,CuDef*%
%ADD13RoundRect,0.200000X-0.275000X0.200000X-0.275000X-0.200000X0.275000X-0.200000X0.275000X0.200000X0*%
%TD*%
%TA.AperFunction,SMDPad,CuDef*%
%ADD14RoundRect,0.225000X0.250000X-0.225000X0.250000X0.225000X-0.250000X0.225000X-0.250000X-0.225000X0*%
%TD*%
%TA.AperFunction,SMDPad,CuDef*%
%ADD15C,1.000000*%
%TD*%
%TA.AperFunction,SMDPad,CuDef*%
%ADD16RoundRect,0.225000X-0.225000X-0.250000X0.225000X-0.250000X0.225000X0.250000X-0.225000X0.250000X0*%
%TD*%
%TA.AperFunction,SMDPad,CuDef*%
%ADD17RoundRect,0.225000X0.225000X0.250000X-0.225000X0.250000X-0.225000X-0.250000X0.225000X-0.250000X0*%
%TD*%
%TA.AperFunction,SMDPad,CuDef*%
%ADD18RoundRect,0.200000X0.200000X0.275000X-0.200000X0.275000X-0.200000X-0.275000X0.200000X-0.275000X0*%
%TD*%
%TA.AperFunction,SMDPad,CuDef*%
%ADD19RoundRect,0.150000X0.587500X0.150000X-0.587500X0.150000X-0.587500X-0.150000X0.587500X-0.150000X0*%
%TD*%
%TA.AperFunction,SMDPad,CuDef*%
%ADD20RoundRect,0.150000X0.150000X-0.512500X0.150000X0.512500X-0.150000X0.512500X-0.150000X-0.512500X0*%
%TD*%
%TA.AperFunction,SMDPad,CuDef*%
%ADD21RoundRect,0.150000X-0.150000X0.587500X-0.150000X-0.587500X0.150000X-0.587500X0.150000X0.587500X0*%
%TD*%
%TA.AperFunction,ComponentPad*%
%ADD22C,2.000000*%
%TD*%
%TA.AperFunction,SMDPad,CuDef*%
%ADD23RoundRect,0.100000X0.100000X-0.637500X0.100000X0.637500X-0.100000X0.637500X-0.100000X-0.637500X0*%
%TD*%
%TA.AperFunction,ViaPad*%
%ADD24C,0.508000*%
%TD*%
%TA.AperFunction,ViaPad*%
%ADD25C,1.000000*%
%TD*%
%TA.AperFunction,Conductor*%
%ADD26C,0.152400*%
%TD*%
G04 APERTURE END LIST*
D10*
%TO.P,R7,1*%
%TO.N,/Midscale1*%
X4136384Y-6450000D03*
%TO.P,R7,2*%
%TO.N,+BATT*%
X4136384Y-4800000D03*
%TD*%
D11*
%TO.P,C8,1*%
%TO.N,Net-(C8-Pad1)*%
X-813616Y-9050000D03*
%TO.P,C8,2*%
%TO.N,Net-(C7-Pad1)*%
X-813616Y-10600000D03*
%TD*%
D12*
%TO.P,R11,1*%
%TO.N,Net-(C5-Pad2)*%
X-438616Y-3375000D03*
%TO.P,R11,2*%
%TO.N,Net-(C7-Pad2)*%
X1211384Y-3375000D03*
%TD*%
D10*
%TO.P,R20,1*%
%TO.N,Net-(C15-Pad1)*%
X2150000Y4175000D03*
%TO.P,R20,2*%
%TO.N,Net-(Q4-Pad3)*%
X2150000Y5825000D03*
%TD*%
D13*
%TO.P,R16,1*%
%TO.N,Net-(C8-Pad1)*%
X-2363616Y-4875000D03*
%TO.P,R16,2*%
%TO.N,Net-(C9-Pad1)*%
X-2363616Y-6525000D03*
%TD*%
D14*
%TO.P,C1,1*%
%TO.N,/Midscale2*%
X-6838616Y-4950000D03*
%TO.P,C1,2*%
%TO.N,+BATT*%
X-6838616Y-3400000D03*
%TD*%
D15*
%TO.P,J2,1,Pin_1*%
%TO.N,/Audio_In*%
X10500000Y-4850000D03*
%TD*%
D16*
%TO.P,C5,1*%
%TO.N,/Audio_raw*%
X-3388616Y-3375000D03*
%TO.P,C5,2*%
%TO.N,Net-(C5-Pad2)*%
X-1838616Y-3375000D03*
%TD*%
D13*
%TO.P,R12,1*%
%TO.N,/gnd_switch*%
X5800000Y-7475000D03*
%TO.P,R12,2*%
%TO.N,Net-(C6-Pad2)*%
X5800000Y-9125000D03*
%TD*%
D11*
%TO.P,C12,1*%
%TO.N,+BATT*%
X7150000Y-4475000D03*
%TO.P,C12,2*%
%TO.N,GND*%
X7150000Y-6025000D03*
%TD*%
D13*
%TO.P,R17,1*%
%TO.N,Net-(C9-Pad1)*%
X-2363616Y-7875000D03*
%TO.P,R17,2*%
%TO.N,/Audio_In*%
X-2363616Y-9525000D03*
%TD*%
D10*
%TO.P,R14,1*%
%TO.N,Net-(C7-Pad1)*%
X686384Y-10650000D03*
%TO.P,R14,2*%
%TO.N,Net-(C8-Pad1)*%
X686384Y-9000000D03*
%TD*%
D17*
%TO.P,C7,1*%
%TO.N,Net-(C7-Pad1)*%
X4161384Y-1875000D03*
%TO.P,C7,2*%
%TO.N,Net-(C7-Pad2)*%
X2611384Y-1875000D03*
%TD*%
D18*
%TO.P,R15,1*%
%TO.N,Net-(C7-Pad1)*%
X-2313616Y-10975000D03*
%TO.P,R15,2*%
%TO.N,/Midscale2*%
X-3963616Y-10975000D03*
%TD*%
D12*
%TO.P,R18,1*%
%TO.N,Net-(C13-Pad1)*%
X-1575000Y4700000D03*
%TO.P,R18,2*%
%TO.N,Net-(Q2-Pad3)*%
X75000Y4700000D03*
%TD*%
D17*
%TO.P,C14,1*%
%TO.N,Net-(C14-Pad1)*%
X25000Y7700000D03*
%TO.P,C14,2*%
%TO.N,GND*%
X-1525000Y7700000D03*
%TD*%
D11*
%TO.P,C11,1*%
%TO.N,+BATT*%
X8650000Y-4475000D03*
%TO.P,C11,2*%
%TO.N,GND*%
X8650000Y-6025000D03*
%TD*%
D10*
%TO.P,R5,1*%
%TO.N,Net-(C2-Pad1)*%
X-5338616Y-8000000D03*
%TO.P,R5,2*%
%TO.N,/Midscale2*%
X-5338616Y-6350000D03*
%TD*%
%TO.P,R4,1*%
%TO.N,/Midscale2*%
X-5338616Y-5000000D03*
%TO.P,R4,2*%
%TO.N,+BATT*%
X-5338616Y-3350000D03*
%TD*%
D14*
%TO.P,C2,1*%
%TO.N,Net-(C2-Pad1)*%
X-6838616Y-7950000D03*
%TO.P,C2,2*%
%TO.N,/Midscale2*%
X-6838616Y-6400000D03*
%TD*%
D12*
%TO.P,R3,1*%
%TO.N,/Audio_raw*%
X-3438616Y-1875000D03*
%TO.P,R3,2*%
%TO.N,/gnd_switch*%
X-1788616Y-1875000D03*
%TD*%
D15*
%TO.P,J3,1,Pin_1*%
%TO.N,/Audio_raw*%
X-5200000Y-550000D03*
%TD*%
D14*
%TO.P,C9,1*%
%TO.N,Net-(C9-Pad1)*%
X-3863616Y-6475000D03*
%TO.P,C9,2*%
%TO.N,/Midscale2*%
X-3863616Y-4925000D03*
%TD*%
D11*
%TO.P,C15,1*%
%TO.N,Net-(C15-Pad1)*%
X2150000Y2775000D03*
%TO.P,C15,2*%
%TO.N,GND*%
X2150000Y1225000D03*
%TD*%
D19*
%TO.P,Q4,1,G*%
%TO.N,/PWM3*%
X4487500Y8750000D03*
%TO.P,Q4,2,S*%
%TO.N,GND*%
X4487500Y10650000D03*
%TO.P,Q4,3,D*%
%TO.N,Net-(Q4-Pad3)*%
X2612500Y9700000D03*
%TD*%
D14*
%TO.P,C3,1*%
%TO.N,/Midscale1*%
X2636384Y-6400000D03*
%TO.P,C3,2*%
%TO.N,+BATT*%
X2636384Y-4850000D03*
%TD*%
D18*
%TO.P,R19,1*%
%TO.N,Net-(C14-Pad1)*%
X75000Y6200000D03*
%TO.P,R19,2*%
%TO.N,Net-(Q3-Pad3)*%
X-1575000Y6200000D03*
%TD*%
D14*
%TO.P,C10,1*%
%TO.N,/Audio_In*%
X-3863616Y-9475000D03*
%TO.P,C10,2*%
%TO.N,/Midscale2*%
X-3863616Y-7925000D03*
%TD*%
D19*
%TO.P,Q3,1,G*%
%TO.N,/PWM2*%
X587500Y9250000D03*
%TO.P,Q3,2,S*%
%TO.N,GND*%
X587500Y11150000D03*
%TO.P,Q3,3,D*%
%TO.N,Net-(Q3-Pad3)*%
X-1287500Y10200000D03*
%TD*%
D20*
%TO.P,U1,1*%
%TO.N,Net-(C8-Pad1)*%
X-813616Y-7387500D03*
%TO.P,U1,2,V-*%
%TO.N,Net-(C6-Pad2)*%
X136384Y-7387500D03*
%TO.P,U1,3,+*%
%TO.N,/Midscale1*%
X1086384Y-7387500D03*
%TO.P,U1,4,-*%
%TO.N,Net-(C7-Pad2)*%
X1086384Y-5112500D03*
%TO.P,U1,5,V+*%
%TO.N,+BATT*%
X-813616Y-5112500D03*
%TD*%
D16*
%TO.P,C13,1*%
%TO.N,Net-(C13-Pad1)*%
X-1525000Y3200000D03*
%TO.P,C13,2*%
%TO.N,GND*%
X25000Y3200000D03*
%TD*%
D10*
%TO.P,R8,1*%
%TO.N,Net-(C4-Pad1)*%
X4136384Y-9450000D03*
%TO.P,R8,2*%
%TO.N,/Midscale1*%
X4136384Y-7800000D03*
%TD*%
D21*
%TO.P,Q2,1,G*%
%TO.N,/PWM1*%
X5650000Y6937500D03*
%TO.P,Q2,2,S*%
%TO.N,GND*%
X3750000Y6937500D03*
%TO.P,Q2,3,D*%
%TO.N,Net-(Q2-Pad3)*%
X4700000Y5062500D03*
%TD*%
D11*
%TO.P,C6,1*%
%TO.N,+BATT*%
X7300000Y-7525000D03*
%TO.P,C6,2*%
%TO.N,Net-(C6-Pad2)*%
X7300000Y-9075000D03*
%TD*%
D22*
%TO.P,J5,1,Pin_1*%
%TO.N,GND*%
X-9300000Y-6400000D03*
%TD*%
D12*
%TO.P,R13,1*%
%TO.N,Net-(C7-Pad2)*%
X2561384Y-3375000D03*
%TO.P,R13,2*%
%TO.N,Net-(C7-Pad1)*%
X4211384Y-3375000D03*
%TD*%
D22*
%TO.P,J4,1,Pin_1*%
%TO.N,+BATT*%
X9300000Y6400000D03*
%TD*%
D13*
%TO.P,R9,1*%
%TO.N,+BATT*%
X1136384Y-300000D03*
%TO.P,R9,2*%
%TO.N,Net-(C5-Pad2)*%
X1136384Y-1950000D03*
%TD*%
D14*
%TO.P,C4,1*%
%TO.N,Net-(C4-Pad1)*%
X2636384Y-9400000D03*
%TO.P,C4,2*%
%TO.N,/Midscale1*%
X2636384Y-7850000D03*
%TD*%
D12*
%TO.P,R1,1*%
%TO.N,/Audio_raw*%
X-3438616Y-375000D03*
%TO.P,R1,2*%
%TO.N,GND*%
X-1788616Y-375000D03*
%TD*%
D18*
%TO.P,R6,1*%
%TO.N,/gnd_switch*%
X4211384Y-10875000D03*
%TO.P,R6,2*%
%TO.N,Net-(C4-Pad1)*%
X2561384Y-10875000D03*
%TD*%
D21*
%TO.P,Q1,1,G*%
%TO.N,/AFE_En*%
X5600000Y3037500D03*
%TO.P,Q1,2,S*%
%TO.N,GND*%
X3700000Y3037500D03*
%TO.P,Q1,3,D*%
%TO.N,/gnd_switch*%
X4650000Y1162500D03*
%TD*%
D23*
%TO.P,U2,1,VDD*%
%TO.N,+BATT*%
X7200000Y-2712500D03*
%TO.P,U2,2,RA5*%
%TO.N,/Audio_In*%
X7850000Y-2712500D03*
%TO.P,U2,3,RA4*%
%TO.N,unconnected-(U2-Pad3)*%
X8500000Y-2712500D03*
%TO.P,U2,4,~{MCLR}/VPP/RA3*%
%TO.N,/~{MCLR}*%
X9150000Y-2712500D03*
%TO.P,U2,5,RC5*%
%TO.N,unconnected-(U2-Pad5)*%
X9800000Y-2712500D03*
%TO.P,U2,6,RC4*%
%TO.N,unconnected-(U2-Pad6)*%
X10450000Y-2712500D03*
%TO.P,U2,7,RC3*%
%TO.N,unconnected-(U2-Pad7)*%
X11100000Y-2712500D03*
%TO.P,U2,8,RC2*%
%TO.N,/PWM3*%
X11100000Y3012500D03*
%TO.P,U2,9,RC1*%
%TO.N,/PWM2*%
X10450000Y3012500D03*
%TO.P,U2,10,RC0*%
%TO.N,/PWM1*%
X9800000Y3012500D03*
%TO.P,U2,11,RA2*%
%TO.N,/AFE_En*%
X9150000Y3012500D03*
%TO.P,U2,12,RA1/ICSPCLK*%
%TO.N,/ICSP_CLK*%
X8500000Y3012500D03*
%TO.P,U2,13,RA0/ICSPDAT*%
%TO.N,/ICSP_DAT*%
X7850000Y3012500D03*
%TO.P,U2,14,VSS*%
%TO.N,GND*%
X7200000Y3012500D03*
%TD*%
D18*
%TO.P,R2,1*%
%TO.N,/gnd_switch*%
X-5326116Y-9425000D03*
%TO.P,R2,2*%
%TO.N,Net-(C2-Pad1)*%
X-6976116Y-9425000D03*
%TD*%
D10*
%TO.P,R10,1*%
%TO.N,Net-(C5-Pad2)*%
X-363616Y-1950000D03*
%TO.P,R10,2*%
%TO.N,/gnd_switch*%
X-363616Y-300000D03*
%TD*%
D24*
%TO.N,GND*%
X50000Y2000000D03*
X-950000Y8450000D03*
X3700000Y5950000D03*
X-2400000Y-750000D03*
X2500000Y672334D03*
X4500000Y10100000D03*
X550000Y10550000D03*
X7800000Y-6100000D03*
D25*
X9017000Y-127000D03*
D24*
X3700000Y4000000D03*
%TO.N,+BATT*%
X-351116Y-5100000D03*
X5120300Y-3598080D03*
X6500000Y-3720300D03*
D25*
X7747000Y-127000D03*
D24*
X2050000Y-387066D03*
X6600000Y-2700000D03*
%TO.N,/Audio_In*%
X7894204Y-3574798D03*
X9800000Y-4100000D03*
X-2100000Y-9100000D03*
%TO.N,Net-(C6-Pad2)*%
X5700000Y-8650000D03*
X385746Y-8147003D03*
%TO.N,Net-(C7-Pad1)*%
X-950000Y-10050000D03*
X3400000Y-4100000D03*
%TO.N,/Audio_raw*%
X-1600000Y650000D03*
D25*
%TO.N,/~{MCLR}*%
X6477000Y-127000D03*
%TO.N,/ICSP_DAT*%
X10287000Y-127000D03*
%TO.N,/ICSP_CLK*%
X11557000Y-127000D03*
D24*
%TO.N,Net-(C13-Pad1)*%
X-1350000Y5250000D03*
%TO.N,Net-(C14-Pad1)*%
X600000Y5900000D03*
%TO.N,Net-(C15-Pad1)*%
X1200000Y3700000D03*
%TO.N,Net-(Q4-Pad3)*%
X2200000Y7421020D03*
X2400000Y8480420D03*
%TD*%
D26*
%TO.N,GND*%
X9017000Y-127000D02*
X9017000Y576652D01*
X3750000Y6000000D02*
X3700000Y5950000D01*
X2150000Y1022334D02*
X2500000Y672334D01*
X-1788616Y-375000D02*
X-2025000Y-375000D01*
X7875000Y-6025000D02*
X7800000Y-6100000D01*
X7200000Y2393652D02*
X7200000Y3012500D01*
X3750000Y6937500D02*
X3750000Y6000000D01*
X7150000Y-6025000D02*
X7725000Y-6025000D01*
X4487500Y10650000D02*
X4487500Y10112500D01*
X7725000Y-6025000D02*
X7800000Y-6100000D01*
X4487500Y10112500D02*
X4500000Y10100000D01*
X50000Y2000000D02*
X25000Y2025000D01*
X587500Y10587500D02*
X550000Y10550000D01*
X8196652Y1397000D02*
X7200000Y2393652D01*
X3700000Y3037500D02*
X3700000Y4000000D01*
X-1525000Y7700000D02*
X-1525000Y7875000D01*
X8650000Y-6025000D02*
X7875000Y-6025000D01*
X-2025000Y-375000D02*
X-2400000Y-750000D01*
X9017000Y576652D02*
X8196652Y1397000D01*
X-1525000Y7875000D02*
X-950000Y8450000D01*
X25000Y2025000D02*
X25000Y3200000D01*
X587500Y11150000D02*
X587500Y10587500D01*
X2150000Y1225000D02*
X2150000Y1022334D01*
%TO.N,+BATT*%
X8650000Y-4475000D02*
X7175000Y-4475000D01*
X-4489336Y-4199280D02*
X-1726836Y-4199280D01*
X1223450Y-387066D02*
X1136384Y-300000D01*
X7150000Y-4475000D02*
X6399280Y-5225720D01*
X7200000Y-2712500D02*
X6612500Y-2712500D01*
X6399280Y-5225720D02*
X6399280Y-6624280D01*
X5120300Y-4128584D02*
X4448884Y-4800000D01*
X4448884Y-4800000D02*
X4136384Y-4800000D01*
X7150000Y-4475000D02*
X7150000Y-4370300D01*
X-5388616Y-3400000D02*
X-5338616Y-3350000D01*
X2050000Y-387066D02*
X1223450Y-387066D01*
X-1726836Y-4199280D02*
X-813616Y-5112500D01*
X7150000Y-4370300D02*
X6500000Y-3720300D01*
X-351116Y-5100000D02*
X-363616Y-5112500D01*
X6399280Y-6624280D02*
X7300000Y-7525000D01*
X4086384Y-4850000D02*
X4136384Y-4800000D01*
X5120300Y-3598080D02*
X5120300Y-4128584D01*
X-6838616Y-3400000D02*
X-5388616Y-3400000D01*
X2636384Y-4850000D02*
X4086384Y-4850000D01*
X-363616Y-5112500D02*
X-813616Y-5112500D01*
X-5338616Y-3350000D02*
X-4489336Y-4199280D01*
X6612500Y-2712500D02*
X6600000Y-2700000D01*
%TO.N,/Audio_In*%
X7894204Y-3574798D02*
X7894204Y-2756704D01*
X-2363616Y-9363616D02*
X-2100000Y-9100000D01*
X9800000Y-4150000D02*
X10500000Y-4850000D01*
X7894204Y-2756704D02*
X7850000Y-2712500D01*
X-2363616Y-9525000D02*
X-2363616Y-9363616D01*
X-3863616Y-9475000D02*
X-2413616Y-9475000D01*
X9800000Y-4100000D02*
X9800000Y-4150000D01*
X-2413616Y-9475000D02*
X-2363616Y-9525000D01*
%TO.N,Net-(C5-Pad2)*%
X-363616Y-3300000D02*
X-438616Y-3375000D01*
X-438616Y-3375000D02*
X-1838616Y-3375000D01*
X-363616Y-1950000D02*
X1136384Y-1950000D01*
X-363616Y-1950000D02*
X-363616Y-3300000D01*
%TO.N,/Midscale2*%
X-5388616Y-6400000D02*
X-5338616Y-6350000D01*
X-3963616Y-10975000D02*
X-4614336Y-10324280D01*
X-5338616Y-5000000D02*
X-3938616Y-5000000D01*
X-3863616Y-7658125D02*
X-5171741Y-6350000D01*
X-5171741Y-6350000D02*
X-5338616Y-6350000D01*
X-6838616Y-6400000D02*
X-5388616Y-6400000D01*
X-5388616Y-4950000D02*
X-5338616Y-5000000D01*
X-6838616Y-4950000D02*
X-5388616Y-4950000D01*
X-4614336Y-10324280D02*
X-4614336Y-8675720D01*
X-4614336Y-8675720D02*
X-3863616Y-7925000D01*
X-3938616Y-5000000D02*
X-3863616Y-4925000D01*
X-3863616Y-7925000D02*
X-3863616Y-7658125D01*
X-5338616Y-6350000D02*
X-5338616Y-5000000D01*
%TO.N,Net-(C2-Pad1)*%
X-5338616Y-8000000D02*
X-6788616Y-8000000D01*
X-6788616Y-8000000D02*
X-6838616Y-7950000D01*
X-6976116Y-8087500D02*
X-6838616Y-7950000D01*
X-6976116Y-9425000D02*
X-6976116Y-8087500D01*
%TO.N,Net-(C4-Pad1)*%
X4136384Y-9450000D02*
X2686384Y-9450000D01*
X2561384Y-9475000D02*
X2636384Y-9400000D01*
X2561384Y-10875000D02*
X2561384Y-9475000D01*
X2686384Y-9450000D02*
X2636384Y-9400000D01*
%TO.N,/AFE_En*%
X9150000Y3631348D02*
X8737108Y4044240D01*
X6606740Y4044240D02*
X5600000Y3037500D01*
X9150000Y3012500D02*
X9150000Y3631348D01*
X8737108Y4044240D02*
X6606740Y4044240D01*
%TO.N,Net-(C6-Pad2)*%
X385746Y-7636862D02*
X136384Y-7387500D01*
X385746Y-8147003D02*
X385746Y-7636862D01*
X5700000Y-8650000D02*
X5700000Y-9025000D01*
X5700000Y-9025000D02*
X5800000Y-9125000D01*
X7300000Y-9075000D02*
X5850000Y-9075000D01*
X5850000Y-9075000D02*
X5800000Y-9125000D01*
%TO.N,Net-(C7-Pad1)*%
X3400000Y-4100000D02*
X4125000Y-3375000D01*
X-2313616Y-10975000D02*
X-1188616Y-10975000D01*
X4161384Y-1875000D02*
X4161384Y-3325000D01*
X4161384Y-3325000D02*
X4211384Y-3375000D01*
X686384Y-10650000D02*
X-763616Y-10650000D01*
X4125000Y-3375000D02*
X4211384Y-3375000D01*
X-950000Y-10463616D02*
X-813616Y-10600000D01*
X-763616Y-10650000D02*
X-813616Y-10600000D01*
X-1188616Y-10975000D02*
X-813616Y-10600000D01*
X-950000Y-10050000D02*
X-950000Y-10463616D01*
%TO.N,Net-(C7-Pad2)*%
X1086384Y-3500000D02*
X1211384Y-3375000D01*
X1211384Y-3375000D02*
X2561384Y-3375000D01*
X2611384Y-1875000D02*
X2611384Y-3325000D01*
X1086384Y-5112500D02*
X1086384Y-3500000D01*
X2611384Y-3325000D02*
X2561384Y-3375000D01*
%TO.N,/PWM3*%
X6601920Y7822828D02*
X6601920Y5443460D01*
X5674748Y8750000D02*
X6601920Y7822828D01*
X6945380Y5100000D02*
X9631348Y5100000D01*
X11100000Y3631348D02*
X11100000Y3012500D01*
X6601920Y5443460D02*
X6945380Y5100000D01*
X9631348Y5100000D02*
X11100000Y3631348D01*
X4487500Y8750000D02*
X5674748Y8750000D01*
%TO.N,/PWM2*%
X587500Y9250000D02*
X1886780Y7950720D01*
X6250000Y7677058D02*
X6250000Y5297690D01*
X6799610Y4748080D02*
X9401920Y4748080D01*
X3600720Y7950720D02*
X5976338Y7950720D01*
X1886780Y7950720D02*
X3600720Y7950720D01*
X10450000Y3700000D02*
X10450000Y3012500D01*
X9401920Y4748080D02*
X10450000Y3700000D01*
X6250000Y5297690D02*
X6799610Y4748080D01*
X5976338Y7950720D02*
X6250000Y7677058D01*
%TO.N,/PWM1*%
X9800000Y3700000D02*
X9103840Y4396160D01*
X9103840Y4396160D02*
X6653840Y4396160D01*
X5650000Y5400000D02*
X5650000Y6937500D01*
X6653840Y4396160D02*
X5650000Y5400000D01*
X9800000Y3012500D02*
X9800000Y3700000D01*
%TO.N,/Audio_raw*%
X-5200000Y-550000D02*
X-3613616Y-550000D01*
X-3388616Y-3375000D02*
X-3388616Y-1925000D01*
X-2413616Y650000D02*
X-3438616Y-375000D01*
X-3388616Y-1925000D02*
X-3438616Y-1875000D01*
X-3613616Y-550000D02*
X-3438616Y-375000D01*
X-3438616Y-1875000D02*
X-3438616Y-375000D01*
X-1600000Y650000D02*
X-2413616Y650000D01*
%TO.N,Net-(C9-Pad1)*%
X-2363616Y-7875000D02*
X-2363616Y-6525000D01*
X-2413616Y-6475000D02*
X-2363616Y-6525000D01*
X-3863616Y-6475000D02*
X-2413616Y-6475000D01*
%TO.N,/~{MCLR}*%
X8306348Y-1250000D02*
X7600000Y-1250000D01*
X9150000Y-2093652D02*
X8306348Y-1250000D01*
X7600000Y-1250000D02*
X6477000Y-127000D01*
X9150000Y-2712500D02*
X9150000Y-2093652D01*
%TO.N,Net-(C8-Pad1)*%
X-813616Y-9050000D02*
X-813616Y-7387500D01*
X-763616Y-9000000D02*
X-813616Y-9050000D01*
X-2363616Y-4875000D02*
X-2363616Y-5377231D01*
X686384Y-9000000D02*
X-763616Y-9000000D01*
X-813616Y-6927231D02*
X-813616Y-7387500D01*
X-2363616Y-5377231D02*
X-813616Y-6927231D01*
%TO.N,/Midscale1*%
X4136384Y-7800000D02*
X2686384Y-7800000D01*
X2636384Y-6400000D02*
X2636384Y-7850000D01*
X1548884Y-7850000D02*
X2636384Y-7850000D01*
X2686384Y-6450000D02*
X2636384Y-6400000D01*
X2686384Y-7800000D02*
X2636384Y-7850000D01*
X1086384Y-7387500D02*
X1548884Y-7850000D01*
X4136384Y-6450000D02*
X2686384Y-6450000D01*
%TO.N,/ICSP_DAT*%
X7850000Y3012500D02*
X7850000Y2310000D01*
X7850000Y2310000D02*
X10287000Y-127000D01*
%TO.N,/ICSP_CLK*%
X8500000Y2393652D02*
X10244941Y648711D01*
X10781289Y648711D02*
X11557000Y-127000D01*
X10244941Y648711D02*
X10781289Y648711D01*
X8500000Y3012500D02*
X8500000Y2393652D01*
%TO.N,/gnd_switch*%
X312104Y375720D02*
X1608433Y375720D01*
X-1788616Y-1875000D02*
X-1788616Y-1725000D01*
X1608433Y375720D02*
X1841519Y142634D01*
X4887104Y-10199280D02*
X4211384Y-10875000D01*
X-1788616Y-1725000D02*
X-363616Y-300000D01*
X-5326116Y-10760269D02*
X-4336385Y-11750000D01*
X-363616Y-300000D02*
X312104Y375720D01*
X1841519Y142634D02*
X3824565Y142634D01*
X-5326116Y-9425000D02*
X-5326116Y-10760269D01*
X-4336385Y-11750000D02*
X3336384Y-11750000D01*
X4650000Y1162500D02*
X4650000Y968069D01*
X5800000Y-7475000D02*
X4899208Y-7475000D01*
X4899208Y-7475000D02*
X4887104Y-7462896D01*
X5750000Y-2100000D02*
X5750000Y-7425000D01*
X3824565Y-174565D02*
X5750000Y-2100000D01*
X5750000Y-7425000D02*
X5800000Y-7475000D01*
X3336384Y-11750000D02*
X4211384Y-10875000D01*
X4650000Y968069D02*
X3824565Y142634D01*
X4887104Y-7462896D02*
X4887104Y-10199280D01*
X3824565Y142634D02*
X3824565Y-174565D01*
%TO.N,Net-(Q3-Pad3)*%
X-2300000Y9187500D02*
X-1287500Y10200000D01*
X-2300000Y6925000D02*
X-2300000Y9187500D01*
X-1575000Y6200000D02*
X-2300000Y6925000D01*
%TO.N,Net-(C13-Pad1)*%
X-1575000Y3250000D02*
X-1525000Y3200000D01*
X-1575000Y4700000D02*
X-1575000Y3250000D01*
X-1350000Y4925000D02*
X-1575000Y4700000D01*
X-1350000Y5250000D02*
X-1350000Y4925000D01*
%TO.N,Net-(C14-Pad1)*%
X25000Y7700000D02*
X25000Y6250000D01*
X375000Y5900000D02*
X75000Y6200000D01*
X25000Y6250000D02*
X75000Y6200000D01*
X600000Y5900000D02*
X375000Y5900000D01*
%TO.N,Net-(C15-Pad1)*%
X1675000Y3700000D02*
X2150000Y4175000D01*
X2150000Y3225000D02*
X1675000Y3700000D01*
X2150000Y2775000D02*
X2150000Y3225000D01*
X1200000Y3700000D02*
X1675000Y3700000D01*
%TO.N,Net-(Q2-Pad3)*%
X75000Y4700000D02*
X437500Y5062500D01*
X437500Y5062500D02*
X4700000Y5062500D01*
%TO.N,Net-(Q4-Pad3)*%
X2400000Y8480420D02*
X2400000Y9487500D01*
X2150000Y5825000D02*
X2150000Y7371020D01*
X2150000Y7371020D02*
X2200000Y7421020D01*
X2400000Y9487500D02*
X2612500Y9700000D01*
%TD*%
M02*
