M48
; DRILL file {KiCad (6.0.1)} date Thu Feb  9 13:33:20 2023
; FORMAT={-:-/ absolute / inch / decimal}
; #@! TF.CreationDate,2023-02-09T13:33:20-07:00
; #@! TF.GenerationSoftware,Kicad,Pcbnew,(6.0.1)
; #@! TF.FileFunction,Plated,1,2,PTH
FMAT,2
INCH
; #@! TA.AperFunction,Plated,PTH,ViaDrill
T1C0.0100
; #@! TA.AperFunction,Plated,PTH,ViaDrill
T2C0.0276
; #@! TA.AperFunction,Plated,PTH,ComponentDrill
T3C0.0394
%
G90
G05
T1
X-0.0945Y-0.0295
X-0.0827Y-0.3583
X-0.063Y0.0256
X-0.0531Y0.2067
X-0.0374Y0.3327
X-0.0374Y-0.3957
X-0.0138Y-0.2008
X0.002Y0.0787
X0.0152Y-0.3207
X0.0217Y0.4154
X0.0236Y0.2323
X0.0472Y0.1457
X0.0807Y-0.0152
X0.0866Y0.2922
X0.0945Y0.3339
X0.0984Y0.0265
X0.1339Y-0.1614
X0.1457Y0.2343
X0.1457Y0.1575
X0.1772Y0.3976
X0.2016Y-0.1417
X0.2244Y-0.3406
X0.2559Y-0.1465
X0.2598Y-0.1063
X0.3071Y-0.2402
X0.3108Y-0.1407
X0.3858Y-0.1614
T2
X0.255Y-0.005
X0.305Y-0.005
X0.355Y-0.005
X0.405Y-0.005
X0.455Y-0.005
T3
X-0.3661Y-0.252
X0.3661Y0.252
T0
M30
