%TF.GenerationSoftware,KiCad,Pcbnew,8.0.5*%
%TF.CreationDate,2024-11-24T16:22:37-07:00*%
%TF.ProjectId,ProgrammingBed,50726f67-7261-46d6-9d69-6e674265642e,rev?*%
%TF.SameCoordinates,Original*%
%TF.FileFunction,Legend,Top*%
%TF.FilePolarity,Positive*%
%FSLAX46Y46*%
G04 Gerber Fmt 4.6, Leading zero omitted, Abs format (unit mm)*
G04 Created by KiCad (PCBNEW 8.0.5) date 2024-11-24 16:22:37*
%MOMM*%
%LPD*%
G01*
G04 APERTURE LIST*
%ADD10C,0.150000*%
%ADD11C,0.300000*%
%ADD12C,0.120000*%
G04 APERTURE END LIST*
D10*
X-2000000Y6350000D02*
X-2600000Y6950000D01*
X-2600000Y6950000D02*
X-2000000Y6350000D01*
X-4000000Y6350000D02*
X-2000000Y6350000D01*
X-2000000Y6350000D02*
X-2600000Y5750000D01*
X4551905Y-8274819D02*
X4551905Y-7274819D01*
X4551905Y-7274819D02*
X4885238Y-7989104D01*
X4885238Y-7989104D02*
X5218571Y-7274819D01*
X5218571Y-7274819D02*
X5218571Y-8274819D01*
X6266190Y-8179580D02*
X6218571Y-8227200D01*
X6218571Y-8227200D02*
X6075714Y-8274819D01*
X6075714Y-8274819D02*
X5980476Y-8274819D01*
X5980476Y-8274819D02*
X5837619Y-8227200D01*
X5837619Y-8227200D02*
X5742381Y-8131961D01*
X5742381Y-8131961D02*
X5694762Y-8036723D01*
X5694762Y-8036723D02*
X5647143Y-7846247D01*
X5647143Y-7846247D02*
X5647143Y-7703390D01*
X5647143Y-7703390D02*
X5694762Y-7512914D01*
X5694762Y-7512914D02*
X5742381Y-7417676D01*
X5742381Y-7417676D02*
X5837619Y-7322438D01*
X5837619Y-7322438D02*
X5980476Y-7274819D01*
X5980476Y-7274819D02*
X6075714Y-7274819D01*
X6075714Y-7274819D02*
X6218571Y-7322438D01*
X6218571Y-7322438D02*
X6266190Y-7370057D01*
X7170952Y-8274819D02*
X6694762Y-8274819D01*
X6694762Y-8274819D02*
X6694762Y-7274819D01*
X8075714Y-8274819D02*
X7742381Y-7798628D01*
X7504286Y-8274819D02*
X7504286Y-7274819D01*
X7504286Y-7274819D02*
X7885238Y-7274819D01*
X7885238Y-7274819D02*
X7980476Y-7322438D01*
X7980476Y-7322438D02*
X8028095Y-7370057D01*
X8028095Y-7370057D02*
X8075714Y-7465295D01*
X8075714Y-7465295D02*
X8075714Y-7608152D01*
X8075714Y-7608152D02*
X8028095Y-7703390D01*
X8028095Y-7703390D02*
X7980476Y-7751009D01*
X7980476Y-7751009D02*
X7885238Y-7798628D01*
X7885238Y-7798628D02*
X7504286Y-7798628D01*
X4413810Y-6997200D02*
X8166191Y-6997200D01*
X-9392857Y-1752438D02*
X-9488095Y-1704819D01*
X-9488095Y-1704819D02*
X-9630952Y-1704819D01*
X-9630952Y-1704819D02*
X-9773809Y-1752438D01*
X-9773809Y-1752438D02*
X-9869047Y-1847676D01*
X-9869047Y-1847676D02*
X-9916666Y-1942914D01*
X-9916666Y-1942914D02*
X-9964285Y-2133390D01*
X-9964285Y-2133390D02*
X-9964285Y-2276247D01*
X-9964285Y-2276247D02*
X-9916666Y-2466723D01*
X-9916666Y-2466723D02*
X-9869047Y-2561961D01*
X-9869047Y-2561961D02*
X-9773809Y-2657200D01*
X-9773809Y-2657200D02*
X-9630952Y-2704819D01*
X-9630952Y-2704819D02*
X-9535714Y-2704819D01*
X-9535714Y-2704819D02*
X-9392857Y-2657200D01*
X-9392857Y-2657200D02*
X-9345238Y-2609580D01*
X-9345238Y-2609580D02*
X-9345238Y-2276247D01*
X-9345238Y-2276247D02*
X-9535714Y-2276247D01*
X-8916666Y-2038152D02*
X-8916666Y-2704819D01*
X-8916666Y-2133390D02*
X-8869047Y-2085771D01*
X-8869047Y-2085771D02*
X-8773809Y-2038152D01*
X-8773809Y-2038152D02*
X-8630952Y-2038152D01*
X-8630952Y-2038152D02*
X-8535714Y-2085771D01*
X-8535714Y-2085771D02*
X-8488095Y-2181009D01*
X-8488095Y-2181009D02*
X-8488095Y-2704819D01*
X-7583333Y-2704819D02*
X-7583333Y-1704819D01*
X-7583333Y-2657200D02*
X-7678571Y-2704819D01*
X-7678571Y-2704819D02*
X-7869047Y-2704819D01*
X-7869047Y-2704819D02*
X-7964285Y-2657200D01*
X-7964285Y-2657200D02*
X-8011904Y-2609580D01*
X-8011904Y-2609580D02*
X-8059523Y-2514342D01*
X-8059523Y-2514342D02*
X-8059523Y-2228628D01*
X-8059523Y-2228628D02*
X-8011904Y-2133390D01*
X-8011904Y-2133390D02*
X-7964285Y-2085771D01*
X-7964285Y-2085771D02*
X-7869047Y-2038152D01*
X-7869047Y-2038152D02*
X-7678571Y-2038152D01*
X-7678571Y-2038152D02*
X-7583333Y-2085771D01*
X3500000Y5545180D02*
X3500000Y6545180D01*
X3500000Y6545180D02*
X3738095Y6545180D01*
X3738095Y6545180D02*
X3880952Y6497561D01*
X3880952Y6497561D02*
X3976190Y6402323D01*
X3976190Y6402323D02*
X4023809Y6307085D01*
X4023809Y6307085D02*
X4071428Y6116609D01*
X4071428Y6116609D02*
X4071428Y5973752D01*
X4071428Y5973752D02*
X4023809Y5783276D01*
X4023809Y5783276D02*
X3976190Y5688038D01*
X3976190Y5688038D02*
X3880952Y5592800D01*
X3880952Y5592800D02*
X3738095Y5545180D01*
X3738095Y5545180D02*
X3500000Y5545180D01*
X4928571Y5545180D02*
X4928571Y6068990D01*
X4928571Y6068990D02*
X4880952Y6164228D01*
X4880952Y6164228D02*
X4785714Y6211847D01*
X4785714Y6211847D02*
X4595238Y6211847D01*
X4595238Y6211847D02*
X4500000Y6164228D01*
X4928571Y5592800D02*
X4833333Y5545180D01*
X4833333Y5545180D02*
X4595238Y5545180D01*
X4595238Y5545180D02*
X4500000Y5592800D01*
X4500000Y5592800D02*
X4452381Y5688038D01*
X4452381Y5688038D02*
X4452381Y5783276D01*
X4452381Y5783276D02*
X4500000Y5878514D01*
X4500000Y5878514D02*
X4595238Y5926133D01*
X4595238Y5926133D02*
X4833333Y5926133D01*
X4833333Y5926133D02*
X4928571Y5973752D01*
X5261905Y6211847D02*
X5642857Y6211847D01*
X5404762Y6545180D02*
X5404762Y5688038D01*
X5404762Y5688038D02*
X5452381Y5592800D01*
X5452381Y5592800D02*
X5547619Y5545180D01*
X5547619Y5545180D02*
X5642857Y5545180D01*
X8642856Y2890419D02*
X8595237Y2842800D01*
X8595237Y2842800D02*
X8452380Y2795180D01*
X8452380Y2795180D02*
X8357142Y2795180D01*
X8357142Y2795180D02*
X8214285Y2842800D01*
X8214285Y2842800D02*
X8119047Y2938038D01*
X8119047Y2938038D02*
X8071428Y3033276D01*
X8071428Y3033276D02*
X8023809Y3223752D01*
X8023809Y3223752D02*
X8023809Y3366609D01*
X8023809Y3366609D02*
X8071428Y3557085D01*
X8071428Y3557085D02*
X8119047Y3652323D01*
X8119047Y3652323D02*
X8214285Y3747561D01*
X8214285Y3747561D02*
X8357142Y3795180D01*
X8357142Y3795180D02*
X8452380Y3795180D01*
X8452380Y3795180D02*
X8595237Y3747561D01*
X8595237Y3747561D02*
X8642856Y3699942D01*
X9214285Y2795180D02*
X9119047Y2842800D01*
X9119047Y2842800D02*
X9071428Y2938038D01*
X9071428Y2938038D02*
X9071428Y3795180D01*
X9595238Y2795180D02*
X9595238Y3795180D01*
X9690476Y3176133D02*
X9976190Y2795180D01*
X9976190Y3461847D02*
X9595238Y3080895D01*
X9361905Y-3254819D02*
X9695238Y-4254819D01*
X9695238Y-4254819D02*
X10028571Y-3254819D01*
X10790476Y-4254819D02*
X10790476Y-3254819D01*
X10790476Y-4207200D02*
X10695238Y-4254819D01*
X10695238Y-4254819D02*
X10504762Y-4254819D01*
X10504762Y-4254819D02*
X10409524Y-4207200D01*
X10409524Y-4207200D02*
X10361905Y-4159580D01*
X10361905Y-4159580D02*
X10314286Y-4064342D01*
X10314286Y-4064342D02*
X10314286Y-3778628D01*
X10314286Y-3778628D02*
X10361905Y-3683390D01*
X10361905Y-3683390D02*
X10409524Y-3635771D01*
X10409524Y-3635771D02*
X10504762Y-3588152D01*
X10504762Y-3588152D02*
X10695238Y-3588152D01*
X10695238Y-3588152D02*
X10790476Y-3635771D01*
X11695238Y-4254819D02*
X11695238Y-3254819D01*
X11695238Y-4207200D02*
X11600000Y-4254819D01*
X11600000Y-4254819D02*
X11409524Y-4254819D01*
X11409524Y-4254819D02*
X11314286Y-4207200D01*
X11314286Y-4207200D02*
X11266667Y-4159580D01*
X11266667Y-4159580D02*
X11219048Y-4064342D01*
X11219048Y-4064342D02*
X11219048Y-3778628D01*
X11219048Y-3778628D02*
X11266667Y-3683390D01*
X11266667Y-3683390D02*
X11314286Y-3635771D01*
X11314286Y-3635771D02*
X11409524Y-3588152D01*
X11409524Y-3588152D02*
X11600000Y-3588152D01*
X11600000Y-3588152D02*
X11695238Y-3635771D01*
D11*
X-2321671Y-2014285D02*
X-3821671Y-2014285D01*
X-2464528Y-442856D02*
X-2393100Y-514284D01*
X-2393100Y-514284D02*
X-2321671Y-728570D01*
X-2321671Y-728570D02*
X-2321671Y-871427D01*
X-2321671Y-871427D02*
X-2393100Y-1085713D01*
X-2393100Y-1085713D02*
X-2535957Y-1228570D01*
X-2535957Y-1228570D02*
X-2678814Y-1299999D01*
X-2678814Y-1299999D02*
X-2964528Y-1371427D01*
X-2964528Y-1371427D02*
X-3178814Y-1371427D01*
X-3178814Y-1371427D02*
X-3464528Y-1299999D01*
X-3464528Y-1299999D02*
X-3607385Y-1228570D01*
X-3607385Y-1228570D02*
X-3750242Y-1085713D01*
X-3750242Y-1085713D02*
X-3821671Y-871427D01*
X-3821671Y-871427D02*
X-3821671Y-728570D01*
X-3821671Y-728570D02*
X-3750242Y-514284D01*
X-3750242Y-514284D02*
X-3678814Y-442856D01*
X-2393100Y128572D02*
X-2321671Y342858D01*
X-2321671Y342858D02*
X-2321671Y700000D01*
X-2321671Y700000D02*
X-2393100Y842858D01*
X-2393100Y842858D02*
X-2464528Y914286D01*
X-2464528Y914286D02*
X-2607385Y985715D01*
X-2607385Y985715D02*
X-2750242Y985715D01*
X-2750242Y985715D02*
X-2893100Y914286D01*
X-2893100Y914286D02*
X-2964528Y842858D01*
X-2964528Y842858D02*
X-3035957Y700000D01*
X-3035957Y700000D02*
X-3107385Y414286D01*
X-3107385Y414286D02*
X-3178814Y271429D01*
X-3178814Y271429D02*
X-3250242Y200000D01*
X-3250242Y200000D02*
X-3393100Y128572D01*
X-3393100Y128572D02*
X-3535957Y128572D01*
X-3535957Y128572D02*
X-3678814Y200000D01*
X-3678814Y200000D02*
X-3750242Y271429D01*
X-3750242Y271429D02*
X-3821671Y414286D01*
X-3821671Y414286D02*
X-3821671Y771429D01*
X-3821671Y771429D02*
X-3750242Y985715D01*
X-2321671Y1628571D02*
X-3821671Y1628571D01*
X-3821671Y1628571D02*
X-3821671Y2200000D01*
X-3821671Y2200000D02*
X-3750242Y2342857D01*
X-3750242Y2342857D02*
X-3678814Y2414286D01*
X-3678814Y2414286D02*
X-3535957Y2485714D01*
X-3535957Y2485714D02*
X-3321671Y2485714D01*
X-3321671Y2485714D02*
X-3178814Y2414286D01*
X-3178814Y2414286D02*
X-3107385Y2342857D01*
X-3107385Y2342857D02*
X-3035957Y2200000D01*
X-3035957Y2200000D02*
X-3035957Y1628571D01*
D12*
%TO.C,J1*%
X1330000Y5080000D02*
X1330000Y-7680000D01*
X-1330000Y6350000D02*
X-1330000Y7680000D01*
X-1330000Y5080000D02*
X1330000Y5080000D01*
X-1330000Y5080000D02*
X-1330000Y-7680000D01*
X-1330000Y-7680000D02*
X1330000Y-7680000D01*
X-1330000Y7680000D02*
X0Y7680000D01*
%TO.C,J5*%
X8646100Y8850000D02*
G75*
G02*
X7553900Y8850000I-546100J0D01*
G01*
X7553900Y8850000D02*
G75*
G02*
X8646100Y8850000I546100J0D01*
G01*
%TO.C,J2*%
X9656100Y-7610000D02*
G75*
G02*
X8563900Y-7610000I-546100J0D01*
G01*
X8563900Y-7610000D02*
G75*
G02*
X9656100Y-7610000I546100J0D01*
G01*
%TO.C,J3*%
X11246100Y-5300000D02*
G75*
G02*
X10153900Y-5300000I-546100J0D01*
G01*
X10153900Y-5300000D02*
G75*
G02*
X11246100Y-5300000I546100J0D01*
G01*
%TO.C,J4*%
X-8353900Y7950000D02*
G75*
G02*
X-9446100Y7950000I-546100J0D01*
G01*
X-9446100Y7950000D02*
G75*
G02*
X-8353900Y7950000I546100J0D01*
G01*
%TO.C,J6*%
X11446100Y5000000D02*
G75*
G02*
X10353900Y5000000I-546100J0D01*
G01*
X10353900Y5000000D02*
G75*
G02*
X11446100Y5000000I546100J0D01*
G01*
%TD*%
M02*
