%TF.GenerationSoftware,KiCad,Pcbnew,8.0.5*%
%TF.CreationDate,2024-11-24T16:22:37-07:00*%
%TF.ProjectId,ProgrammingBed,50726f67-7261-46d6-9d69-6e674265642e,rev?*%
%TF.SameCoordinates,Original*%
%TF.FileFunction,Legend,Bot*%
%TF.FilePolarity,Positive*%
%FSLAX46Y46*%
G04 Gerber Fmt 4.6, Leading zero omitted, Abs format (unit mm)*
G04 Created by KiCad (PCBNEW 8.0.5) date 2024-11-24 16:22:37*
%MOMM*%
%LPD*%
G01*
G04 APERTURE LIST*
%ADD10C,0.150000*%
G04 APERTURE END LIST*
D10*
X-4327977Y-2096426D02*
X-4327977Y-2453569D01*
X-4327977Y-2453569D02*
X-3577977Y-2453569D01*
X-4327977Y-1846426D02*
X-3827977Y-1846426D01*
X-3577977Y-1846426D02*
X-3613691Y-1882140D01*
X-3613691Y-1882140D02*
X-3649405Y-1846426D01*
X-3649405Y-1846426D02*
X-3613691Y-1810712D01*
X-3613691Y-1810712D02*
X-3577977Y-1846426D01*
X-3577977Y-1846426D02*
X-3649405Y-1846426D01*
X-3827977Y-1167855D02*
X-4435120Y-1167855D01*
X-4435120Y-1167855D02*
X-4506548Y-1203569D01*
X-4506548Y-1203569D02*
X-4542263Y-1239283D01*
X-4542263Y-1239283D02*
X-4577977Y-1310712D01*
X-4577977Y-1310712D02*
X-4577977Y-1417855D01*
X-4577977Y-1417855D02*
X-4542263Y-1489283D01*
X-4292263Y-1167855D02*
X-4327977Y-1239283D01*
X-4327977Y-1239283D02*
X-4327977Y-1382140D01*
X-4327977Y-1382140D02*
X-4292263Y-1453569D01*
X-4292263Y-1453569D02*
X-4256548Y-1489283D01*
X-4256548Y-1489283D02*
X-4185120Y-1524997D01*
X-4185120Y-1524997D02*
X-3970834Y-1524997D01*
X-3970834Y-1524997D02*
X-3899405Y-1489283D01*
X-3899405Y-1489283D02*
X-3863691Y-1453569D01*
X-3863691Y-1453569D02*
X-3827977Y-1382140D01*
X-3827977Y-1382140D02*
X-3827977Y-1239283D01*
X-3827977Y-1239283D02*
X-3863691Y-1167855D01*
X-4327977Y-810712D02*
X-3577977Y-810712D01*
X-4327977Y-489284D02*
X-3935120Y-489284D01*
X-3935120Y-489284D02*
X-3863691Y-524998D01*
X-3863691Y-524998D02*
X-3827977Y-596426D01*
X-3827977Y-596426D02*
X-3827977Y-703569D01*
X-3827977Y-703569D02*
X-3863691Y-774998D01*
X-3863691Y-774998D02*
X-3899405Y-810712D01*
X-3827977Y-239284D02*
X-3827977Y46429D01*
X-3577977Y-132141D02*
X-4220834Y-132141D01*
X-4220834Y-132141D02*
X-4292263Y-96427D01*
X-4292263Y-96427D02*
X-4327977Y-24998D01*
X-4327977Y-24998D02*
X-4327977Y46429D01*
X-3827977Y617858D02*
X-4327977Y617858D01*
X-3827977Y296429D02*
X-4220834Y296429D01*
X-4220834Y296429D02*
X-4292263Y332143D01*
X-4292263Y332143D02*
X-4327977Y403572D01*
X-4327977Y403572D02*
X-4327977Y510715D01*
X-4327977Y510715D02*
X-4292263Y582143D01*
X-4292263Y582143D02*
X-4256548Y617858D01*
X-3827977Y975000D02*
X-4577977Y975000D01*
X-3863691Y975000D02*
X-3827977Y1046429D01*
X-3827977Y1046429D02*
X-3827977Y1189286D01*
X-3827977Y1189286D02*
X-3863691Y1260714D01*
X-3863691Y1260714D02*
X-3899405Y1296429D01*
X-3899405Y1296429D02*
X-3970834Y1332143D01*
X-3970834Y1332143D02*
X-4185120Y1332143D01*
X-4185120Y1332143D02*
X-4256548Y1296429D01*
X-4256548Y1296429D02*
X-4292263Y1260714D01*
X-4292263Y1260714D02*
X-4327977Y1189286D01*
X-4327977Y1189286D02*
X-4327977Y1046429D01*
X-4327977Y1046429D02*
X-4292263Y975000D01*
X-4327977Y2225000D02*
X-3577977Y2225000D01*
X-3577977Y2225000D02*
X-4327977Y2653571D01*
X-4327977Y2653571D02*
X-3577977Y2653571D01*
X-4327977Y3117857D02*
X-4292263Y3046428D01*
X-4292263Y3046428D02*
X-4256548Y3010714D01*
X-4256548Y3010714D02*
X-4185120Y2975000D01*
X-4185120Y2975000D02*
X-3970834Y2975000D01*
X-3970834Y2975000D02*
X-3899405Y3010714D01*
X-3899405Y3010714D02*
X-3863691Y3046428D01*
X-3863691Y3046428D02*
X-3827977Y3117857D01*
X-3827977Y3117857D02*
X-3827977Y3225000D01*
X-3827977Y3225000D02*
X-3863691Y3296428D01*
X-3863691Y3296428D02*
X-3899405Y3332143D01*
X-3899405Y3332143D02*
X-3970834Y3367857D01*
X-3970834Y3367857D02*
X-4185120Y3367857D01*
X-4185120Y3367857D02*
X-4256548Y3332143D01*
X-4256548Y3332143D02*
X-4292263Y3296428D01*
X-4292263Y3296428D02*
X-4327977Y3225000D01*
X-4327977Y3225000D02*
X-4327977Y3117857D01*
X-3827977Y3582142D02*
X-3827977Y3867856D01*
X-3577977Y3689285D02*
X-4220834Y3689285D01*
X-4220834Y3689285D02*
X-4292263Y3724999D01*
X-4292263Y3724999D02*
X-4327977Y3796428D01*
X-4327977Y3796428D02*
X-4327977Y3867856D01*
X-4292263Y4403570D02*
X-4327977Y4332142D01*
X-4327977Y4332142D02*
X-4327977Y4189285D01*
X-4327977Y4189285D02*
X-4292263Y4117856D01*
X-4292263Y4117856D02*
X-4220834Y4082142D01*
X-4220834Y4082142D02*
X-3935120Y4082142D01*
X-3935120Y4082142D02*
X-3863691Y4117856D01*
X-3863691Y4117856D02*
X-3827977Y4189285D01*
X-3827977Y4189285D02*
X-3827977Y4332142D01*
X-3827977Y4332142D02*
X-3863691Y4403570D01*
X-3863691Y4403570D02*
X-3935120Y4439285D01*
X-3935120Y4439285D02*
X-4006548Y4439285D01*
X-4006548Y4439285D02*
X-4077977Y4082142D01*
X-4327977Y5332142D02*
X-3577977Y5332142D01*
X-3577977Y5332142D02*
X-3577977Y5510713D01*
X-3577977Y5510713D02*
X-3613691Y5617856D01*
X-3613691Y5617856D02*
X-3685120Y5689285D01*
X-3685120Y5689285D02*
X-3756548Y5724999D01*
X-3756548Y5724999D02*
X-3899405Y5760713D01*
X-3899405Y5760713D02*
X-4006548Y5760713D01*
X-4006548Y5760713D02*
X-4149405Y5724999D01*
X-4149405Y5724999D02*
X-4220834Y5689285D01*
X-4220834Y5689285D02*
X-4292263Y5617856D01*
X-4292263Y5617856D02*
X-4327977Y5510713D01*
X-4327977Y5510713D02*
X-4327977Y5332142D01*
X-4292263Y6367856D02*
X-4327977Y6296428D01*
X-4327977Y6296428D02*
X-4327977Y6153571D01*
X-4327977Y6153571D02*
X-4292263Y6082142D01*
X-4292263Y6082142D02*
X-4220834Y6046428D01*
X-4220834Y6046428D02*
X-3935120Y6046428D01*
X-3935120Y6046428D02*
X-3863691Y6082142D01*
X-3863691Y6082142D02*
X-3827977Y6153571D01*
X-3827977Y6153571D02*
X-3827977Y6296428D01*
X-3827977Y6296428D02*
X-3863691Y6367856D01*
X-3863691Y6367856D02*
X-3935120Y6403571D01*
X-3935120Y6403571D02*
X-4006548Y6403571D01*
X-4006548Y6403571D02*
X-4077977Y6046428D01*
X-3827977Y6617856D02*
X-3827977Y6903570D01*
X-3577977Y6724999D02*
X-4220834Y6724999D01*
X-4220834Y6724999D02*
X-4292263Y6760713D01*
X-4292263Y6760713D02*
X-4327977Y6832142D01*
X-4327977Y6832142D02*
X-4327977Y6903570D01*
X-4292263Y7439284D02*
X-4327977Y7367856D01*
X-4327977Y7367856D02*
X-4327977Y7224999D01*
X-4327977Y7224999D02*
X-4292263Y7153570D01*
X-4292263Y7153570D02*
X-4220834Y7117856D01*
X-4220834Y7117856D02*
X-3935120Y7117856D01*
X-3935120Y7117856D02*
X-3863691Y7153570D01*
X-3863691Y7153570D02*
X-3827977Y7224999D01*
X-3827977Y7224999D02*
X-3827977Y7367856D01*
X-3827977Y7367856D02*
X-3863691Y7439284D01*
X-3863691Y7439284D02*
X-3935120Y7474999D01*
X-3935120Y7474999D02*
X-4006548Y7474999D01*
X-4006548Y7474999D02*
X-4077977Y7117856D01*
X-4292263Y8117856D02*
X-4327977Y8046427D01*
X-4327977Y8046427D02*
X-4327977Y7903570D01*
X-4327977Y7903570D02*
X-4292263Y7832141D01*
X-4292263Y7832141D02*
X-4256548Y7796427D01*
X-4256548Y7796427D02*
X-4185120Y7760713D01*
X-4185120Y7760713D02*
X-3970834Y7760713D01*
X-3970834Y7760713D02*
X-3899405Y7796427D01*
X-3899405Y7796427D02*
X-3863691Y7832141D01*
X-3863691Y7832141D02*
X-3827977Y7903570D01*
X-3827977Y7903570D02*
X-3827977Y8046427D01*
X-3827977Y8046427D02*
X-3863691Y8117856D01*
X-3827977Y8332141D02*
X-3827977Y8617855D01*
X-3577977Y8439284D02*
X-4220834Y8439284D01*
X-4220834Y8439284D02*
X-4292263Y8474998D01*
X-4292263Y8474998D02*
X-4327977Y8546427D01*
X-4327977Y8546427D02*
X-4327977Y8617855D01*
X-4327977Y8974998D02*
X-4292263Y8903569D01*
X-4292263Y8903569D02*
X-4256548Y8867855D01*
X-4256548Y8867855D02*
X-4185120Y8832141D01*
X-4185120Y8832141D02*
X-3970834Y8832141D01*
X-3970834Y8832141D02*
X-3899405Y8867855D01*
X-3899405Y8867855D02*
X-3863691Y8903569D01*
X-3863691Y8903569D02*
X-3827977Y8974998D01*
X-3827977Y8974998D02*
X-3827977Y9082141D01*
X-3827977Y9082141D02*
X-3863691Y9153569D01*
X-3863691Y9153569D02*
X-3899405Y9189284D01*
X-3899405Y9189284D02*
X-3970834Y9224998D01*
X-3970834Y9224998D02*
X-4185120Y9224998D01*
X-4185120Y9224998D02*
X-4256548Y9189284D01*
X-4256548Y9189284D02*
X-4292263Y9153569D01*
X-4292263Y9153569D02*
X-4327977Y9082141D01*
X-4327977Y9082141D02*
X-4327977Y8974998D01*
X-4327977Y9546426D02*
X-3827977Y9546426D01*
X-3970834Y9546426D02*
X-3899405Y9582140D01*
X-3899405Y9582140D02*
X-3863691Y9617855D01*
X-3863691Y9617855D02*
X-3827977Y9689283D01*
X-3827977Y9689283D02*
X-3827977Y9760712D01*
X-5535435Y-1257141D02*
X-4785435Y-1257141D01*
X-4785435Y-1257141D02*
X-4785435Y-971427D01*
X-4785435Y-971427D02*
X-4821149Y-899998D01*
X-4821149Y-899998D02*
X-4856863Y-864284D01*
X-4856863Y-864284D02*
X-4928292Y-828570D01*
X-4928292Y-828570D02*
X-5035435Y-828570D01*
X-5035435Y-828570D02*
X-5106863Y-864284D01*
X-5106863Y-864284D02*
X-5142578Y-899998D01*
X-5142578Y-899998D02*
X-5178292Y-971427D01*
X-5178292Y-971427D02*
X-5178292Y-1257141D01*
X-5535435Y-507141D02*
X-5035435Y-507141D01*
X-5178292Y-507141D02*
X-5106863Y-471427D01*
X-5106863Y-471427D02*
X-5071149Y-435713D01*
X-5071149Y-435713D02*
X-5035435Y-364284D01*
X-5035435Y-364284D02*
X-5035435Y-292855D01*
X-5535435Y64287D02*
X-5499721Y-7141D01*
X-5499721Y-7141D02*
X-5464006Y-42855D01*
X-5464006Y-42855D02*
X-5392578Y-78569D01*
X-5392578Y-78569D02*
X-5178292Y-78569D01*
X-5178292Y-78569D02*
X-5106863Y-42855D01*
X-5106863Y-42855D02*
X-5071149Y-7141D01*
X-5071149Y-7141D02*
X-5035435Y64287D01*
X-5035435Y64287D02*
X-5035435Y171430D01*
X-5035435Y171430D02*
X-5071149Y242858D01*
X-5071149Y242858D02*
X-5106863Y278573D01*
X-5106863Y278573D02*
X-5178292Y314287D01*
X-5178292Y314287D02*
X-5392578Y314287D01*
X-5392578Y314287D02*
X-5464006Y278573D01*
X-5464006Y278573D02*
X-5499721Y242858D01*
X-5499721Y242858D02*
X-5535435Y171430D01*
X-5535435Y171430D02*
X-5535435Y64287D01*
X-5035435Y957144D02*
X-5642578Y957144D01*
X-5642578Y957144D02*
X-5714006Y921429D01*
X-5714006Y921429D02*
X-5749721Y885715D01*
X-5749721Y885715D02*
X-5785435Y814286D01*
X-5785435Y814286D02*
X-5785435Y707144D01*
X-5785435Y707144D02*
X-5749721Y635715D01*
X-5499721Y957144D02*
X-5535435Y885715D01*
X-5535435Y885715D02*
X-5535435Y742858D01*
X-5535435Y742858D02*
X-5499721Y671429D01*
X-5499721Y671429D02*
X-5464006Y635715D01*
X-5464006Y635715D02*
X-5392578Y600001D01*
X-5392578Y600001D02*
X-5178292Y600001D01*
X-5178292Y600001D02*
X-5106863Y635715D01*
X-5106863Y635715D02*
X-5071149Y671429D01*
X-5071149Y671429D02*
X-5035435Y742858D01*
X-5035435Y742858D02*
X-5035435Y885715D01*
X-5035435Y885715D02*
X-5071149Y957144D01*
X-5535435Y1314286D02*
X-5035435Y1314286D01*
X-5178292Y1314286D02*
X-5106863Y1350000D01*
X-5106863Y1350000D02*
X-5071149Y1385715D01*
X-5071149Y1385715D02*
X-5035435Y1457143D01*
X-5035435Y1457143D02*
X-5035435Y1528572D01*
X-5535435Y2100001D02*
X-5142578Y2100001D01*
X-5142578Y2100001D02*
X-5071149Y2064286D01*
X-5071149Y2064286D02*
X-5035435Y1992858D01*
X-5035435Y1992858D02*
X-5035435Y1850001D01*
X-5035435Y1850001D02*
X-5071149Y1778572D01*
X-5499721Y2100001D02*
X-5535435Y2028572D01*
X-5535435Y2028572D02*
X-5535435Y1850001D01*
X-5535435Y1850001D02*
X-5499721Y1778572D01*
X-5499721Y1778572D02*
X-5428292Y1742858D01*
X-5428292Y1742858D02*
X-5356863Y1742858D01*
X-5356863Y1742858D02*
X-5285435Y1778572D01*
X-5285435Y1778572D02*
X-5249721Y1850001D01*
X-5249721Y1850001D02*
X-5249721Y2028572D01*
X-5249721Y2028572D02*
X-5214006Y2100001D01*
X-5535435Y2457143D02*
X-5035435Y2457143D01*
X-5106863Y2457143D02*
X-5071149Y2492857D01*
X-5071149Y2492857D02*
X-5035435Y2564286D01*
X-5035435Y2564286D02*
X-5035435Y2671429D01*
X-5035435Y2671429D02*
X-5071149Y2742857D01*
X-5071149Y2742857D02*
X-5142578Y2778572D01*
X-5142578Y2778572D02*
X-5535435Y2778572D01*
X-5142578Y2778572D02*
X-5071149Y2814286D01*
X-5071149Y2814286D02*
X-5035435Y2885714D01*
X-5035435Y2885714D02*
X-5035435Y2992857D01*
X-5035435Y2992857D02*
X-5071149Y3064286D01*
X-5071149Y3064286D02*
X-5142578Y3100000D01*
X-5142578Y3100000D02*
X-5535435Y3100000D01*
X-5535435Y3457143D02*
X-5035435Y3457143D01*
X-5106863Y3457143D02*
X-5071149Y3492857D01*
X-5071149Y3492857D02*
X-5035435Y3564286D01*
X-5035435Y3564286D02*
X-5035435Y3671429D01*
X-5035435Y3671429D02*
X-5071149Y3742857D01*
X-5071149Y3742857D02*
X-5142578Y3778572D01*
X-5142578Y3778572D02*
X-5535435Y3778572D01*
X-5142578Y3778572D02*
X-5071149Y3814286D01*
X-5071149Y3814286D02*
X-5035435Y3885714D01*
X-5035435Y3885714D02*
X-5035435Y3992857D01*
X-5035435Y3992857D02*
X-5071149Y4064286D01*
X-5071149Y4064286D02*
X-5142578Y4100000D01*
X-5142578Y4100000D02*
X-5535435Y4100000D01*
X-5535435Y4457143D02*
X-5035435Y4457143D01*
X-4785435Y4457143D02*
X-4821149Y4421429D01*
X-4821149Y4421429D02*
X-4856863Y4457143D01*
X-4856863Y4457143D02*
X-4821149Y4492857D01*
X-4821149Y4492857D02*
X-4785435Y4457143D01*
X-4785435Y4457143D02*
X-4856863Y4457143D01*
X-5035435Y4814286D02*
X-5535435Y4814286D01*
X-5106863Y4814286D02*
X-5071149Y4850000D01*
X-5071149Y4850000D02*
X-5035435Y4921429D01*
X-5035435Y4921429D02*
X-5035435Y5028572D01*
X-5035435Y5028572D02*
X-5071149Y5100000D01*
X-5071149Y5100000D02*
X-5142578Y5135715D01*
X-5142578Y5135715D02*
X-5535435Y5135715D01*
X-5035435Y5814286D02*
X-5642578Y5814286D01*
X-5642578Y5814286D02*
X-5714006Y5778571D01*
X-5714006Y5778571D02*
X-5749721Y5742857D01*
X-5749721Y5742857D02*
X-5785435Y5671428D01*
X-5785435Y5671428D02*
X-5785435Y5564286D01*
X-5785435Y5564286D02*
X-5749721Y5492857D01*
X-5499721Y5814286D02*
X-5535435Y5742857D01*
X-5535435Y5742857D02*
X-5535435Y5600000D01*
X-5535435Y5600000D02*
X-5499721Y5528571D01*
X-5499721Y5528571D02*
X-5464006Y5492857D01*
X-5464006Y5492857D02*
X-5392578Y5457143D01*
X-5392578Y5457143D02*
X-5178292Y5457143D01*
X-5178292Y5457143D02*
X-5106863Y5492857D01*
X-5106863Y5492857D02*
X-5071149Y5528571D01*
X-5071149Y5528571D02*
X-5035435Y5600000D01*
X-5035435Y5600000D02*
X-5035435Y5742857D01*
X-5035435Y5742857D02*
X-5071149Y5814286D01*
X-5142578Y6992857D02*
X-5178292Y7100000D01*
X-5178292Y7100000D02*
X-5214006Y7135714D01*
X-5214006Y7135714D02*
X-5285435Y7171428D01*
X-5285435Y7171428D02*
X-5392578Y7171428D01*
X-5392578Y7171428D02*
X-5464006Y7135714D01*
X-5464006Y7135714D02*
X-5499721Y7100000D01*
X-5499721Y7100000D02*
X-5535435Y7028571D01*
X-5535435Y7028571D02*
X-5535435Y6742857D01*
X-5535435Y6742857D02*
X-4785435Y6742857D01*
X-4785435Y6742857D02*
X-4785435Y6992857D01*
X-4785435Y6992857D02*
X-4821149Y7064286D01*
X-4821149Y7064286D02*
X-4856863Y7100000D01*
X-4856863Y7100000D02*
X-4928292Y7135714D01*
X-4928292Y7135714D02*
X-4999721Y7135714D01*
X-4999721Y7135714D02*
X-5071149Y7100000D01*
X-5071149Y7100000D02*
X-5106863Y7064286D01*
X-5106863Y7064286D02*
X-5142578Y6992857D01*
X-5142578Y6992857D02*
X-5142578Y6742857D01*
X-5499721Y7778571D02*
X-5535435Y7707143D01*
X-5535435Y7707143D02*
X-5535435Y7564286D01*
X-5535435Y7564286D02*
X-5499721Y7492857D01*
X-5499721Y7492857D02*
X-5428292Y7457143D01*
X-5428292Y7457143D02*
X-5142578Y7457143D01*
X-5142578Y7457143D02*
X-5071149Y7492857D01*
X-5071149Y7492857D02*
X-5035435Y7564286D01*
X-5035435Y7564286D02*
X-5035435Y7707143D01*
X-5035435Y7707143D02*
X-5071149Y7778571D01*
X-5071149Y7778571D02*
X-5142578Y7814286D01*
X-5142578Y7814286D02*
X-5214006Y7814286D01*
X-5214006Y7814286D02*
X-5285435Y7457143D01*
X-5535435Y8457143D02*
X-4785435Y8457143D01*
X-5499721Y8457143D02*
X-5535435Y8385714D01*
X-5535435Y8385714D02*
X-5535435Y8242857D01*
X-5535435Y8242857D02*
X-5499721Y8171428D01*
X-5499721Y8171428D02*
X-5464006Y8135714D01*
X-5464006Y8135714D02*
X-5392578Y8100000D01*
X-5392578Y8100000D02*
X-5178292Y8100000D01*
X-5178292Y8100000D02*
X-5106863Y8135714D01*
X-5106863Y8135714D02*
X-5071149Y8171428D01*
X-5071149Y8171428D02*
X-5035435Y8242857D01*
X-5035435Y8242857D02*
X-5035435Y8385714D01*
X-5035435Y8385714D02*
X-5071149Y8457143D01*
X-6742893Y-1417858D02*
X-6742893Y-1846429D01*
X-6742893Y-1632144D02*
X-5992893Y-1632144D01*
X-5992893Y-1632144D02*
X-6100036Y-1703572D01*
X-6100036Y-1703572D02*
X-6171464Y-1775001D01*
X-6171464Y-1775001D02*
X-6207179Y-1846429D01*
X-6742893Y-703572D02*
X-6742893Y-1132143D01*
X-6742893Y-917858D02*
X-5992893Y-917858D01*
X-5992893Y-917858D02*
X-6100036Y-989286D01*
X-6100036Y-989286D02*
X-6171464Y-1060715D01*
X-6171464Y-1060715D02*
X-6207179Y-1132143D01*
X-6457179Y-382143D02*
X-6457179Y189285D01*
X-6064321Y510713D02*
X-6028607Y546427D01*
X-6028607Y546427D02*
X-5992893Y617856D01*
X-5992893Y617856D02*
X-5992893Y796427D01*
X-5992893Y796427D02*
X-6028607Y867856D01*
X-6028607Y867856D02*
X-6064321Y903570D01*
X-6064321Y903570D02*
X-6135750Y939284D01*
X-6135750Y939284D02*
X-6207179Y939284D01*
X-6207179Y939284D02*
X-6314321Y903570D01*
X-6314321Y903570D02*
X-6742893Y474998D01*
X-6742893Y474998D02*
X-6742893Y939284D01*
X-6242893Y1582142D02*
X-6742893Y1582142D01*
X-5957179Y1403570D02*
X-6492893Y1224999D01*
X-6492893Y1224999D02*
X-6492893Y1689284D01*
X-6457179Y1974999D02*
X-6457179Y2546428D01*
X-6064321Y2867856D02*
X-6028607Y2903570D01*
X-6028607Y2903570D02*
X-5992893Y2974999D01*
X-5992893Y2974999D02*
X-5992893Y3153570D01*
X-5992893Y3153570D02*
X-6028607Y3224999D01*
X-6028607Y3224999D02*
X-6064321Y3260713D01*
X-6064321Y3260713D02*
X-6135750Y3296427D01*
X-6135750Y3296427D02*
X-6207179Y3296427D01*
X-6207179Y3296427D02*
X-6314321Y3260713D01*
X-6314321Y3260713D02*
X-6742893Y2832141D01*
X-6742893Y2832141D02*
X-6742893Y3296427D01*
X-5992893Y3760713D02*
X-5992893Y3832142D01*
X-5992893Y3832142D02*
X-6028607Y3903570D01*
X-6028607Y3903570D02*
X-6064321Y3939285D01*
X-6064321Y3939285D02*
X-6135750Y3974999D01*
X-6135750Y3974999D02*
X-6278607Y4010713D01*
X-6278607Y4010713D02*
X-6457179Y4010713D01*
X-6457179Y4010713D02*
X-6600036Y3974999D01*
X-6600036Y3974999D02*
X-6671464Y3939285D01*
X-6671464Y3939285D02*
X-6707179Y3903570D01*
X-6707179Y3903570D02*
X-6742893Y3832142D01*
X-6742893Y3832142D02*
X-6742893Y3760713D01*
X-6742893Y3760713D02*
X-6707179Y3689285D01*
X-6707179Y3689285D02*
X-6671464Y3653570D01*
X-6671464Y3653570D02*
X-6600036Y3617856D01*
X-6600036Y3617856D02*
X-6457179Y3582142D01*
X-6457179Y3582142D02*
X-6278607Y3582142D01*
X-6278607Y3582142D02*
X-6135750Y3617856D01*
X-6135750Y3617856D02*
X-6064321Y3653570D01*
X-6064321Y3653570D02*
X-6028607Y3689285D01*
X-6028607Y3689285D02*
X-5992893Y3760713D01*
X-6064321Y4296428D02*
X-6028607Y4332142D01*
X-6028607Y4332142D02*
X-5992893Y4403571D01*
X-5992893Y4403571D02*
X-5992893Y4582142D01*
X-5992893Y4582142D02*
X-6028607Y4653571D01*
X-6028607Y4653571D02*
X-6064321Y4689285D01*
X-6064321Y4689285D02*
X-6135750Y4724999D01*
X-6135750Y4724999D02*
X-6207179Y4724999D01*
X-6207179Y4724999D02*
X-6314321Y4689285D01*
X-6314321Y4689285D02*
X-6742893Y4260713D01*
X-6742893Y4260713D02*
X-6742893Y4724999D01*
X-6242893Y5367857D02*
X-6742893Y5367857D01*
X-5957179Y5189285D02*
X-6492893Y5010714D01*
X-6492893Y5010714D02*
X-6492893Y5474999D01*
X-6707179Y5796428D02*
X-6742893Y5796428D01*
X-6742893Y5796428D02*
X-6814321Y5760714D01*
X-6814321Y5760714D02*
X-6850036Y5725000D01*
X-6742893Y7117857D02*
X-6385750Y6867857D01*
X-6742893Y6689286D02*
X-5992893Y6689286D01*
X-5992893Y6689286D02*
X-5992893Y6975000D01*
X-5992893Y6975000D02*
X-6028607Y7046429D01*
X-6028607Y7046429D02*
X-6064321Y7082143D01*
X-6064321Y7082143D02*
X-6135750Y7117857D01*
X-6135750Y7117857D02*
X-6242893Y7117857D01*
X-6242893Y7117857D02*
X-6314321Y7082143D01*
X-6314321Y7082143D02*
X-6350036Y7046429D01*
X-6350036Y7046429D02*
X-6385750Y6975000D01*
X-6385750Y6975000D02*
X-6385750Y6689286D01*
X-6707179Y7725000D02*
X-6742893Y7653572D01*
X-6742893Y7653572D02*
X-6742893Y7510715D01*
X-6742893Y7510715D02*
X-6707179Y7439286D01*
X-6707179Y7439286D02*
X-6635750Y7403572D01*
X-6635750Y7403572D02*
X-6350036Y7403572D01*
X-6350036Y7403572D02*
X-6278607Y7439286D01*
X-6278607Y7439286D02*
X-6242893Y7510715D01*
X-6242893Y7510715D02*
X-6242893Y7653572D01*
X-6242893Y7653572D02*
X-6278607Y7725000D01*
X-6278607Y7725000D02*
X-6350036Y7760715D01*
X-6350036Y7760715D02*
X-6421464Y7760715D01*
X-6421464Y7760715D02*
X-6492893Y7403572D01*
X-6242893Y8010714D02*
X-6742893Y8189286D01*
X-6742893Y8189286D02*
X-6242893Y8367857D01*
X-6064321Y8617858D02*
X-6028607Y8653572D01*
X-6028607Y8653572D02*
X-5992893Y8725001D01*
X-5992893Y8725001D02*
X-5992893Y8903572D01*
X-5992893Y8903572D02*
X-6028607Y8975001D01*
X-6028607Y8975001D02*
X-6064321Y9010715D01*
X-6064321Y9010715D02*
X-6135750Y9046429D01*
X-6135750Y9046429D02*
X-6207179Y9046429D01*
X-6207179Y9046429D02*
X-6314321Y9010715D01*
X-6314321Y9010715D02*
X-6742893Y8582143D01*
X-6742893Y8582143D02*
X-6742893Y9046429D01*
X-7950351Y1064286D02*
X-7200351Y1064286D01*
X-7200351Y1064286D02*
X-7736065Y1314286D01*
X-7736065Y1314286D02*
X-7200351Y1564286D01*
X-7200351Y1564286D02*
X-7950351Y1564286D01*
X-7950351Y2242858D02*
X-7557494Y2242858D01*
X-7557494Y2242858D02*
X-7486065Y2207143D01*
X-7486065Y2207143D02*
X-7450351Y2135715D01*
X-7450351Y2135715D02*
X-7450351Y1992858D01*
X-7450351Y1992858D02*
X-7486065Y1921429D01*
X-7914637Y2242858D02*
X-7950351Y2171429D01*
X-7950351Y2171429D02*
X-7950351Y1992858D01*
X-7950351Y1992858D02*
X-7914637Y1921429D01*
X-7914637Y1921429D02*
X-7843208Y1885715D01*
X-7843208Y1885715D02*
X-7771779Y1885715D01*
X-7771779Y1885715D02*
X-7700351Y1921429D01*
X-7700351Y1921429D02*
X-7664637Y1992858D01*
X-7664637Y1992858D02*
X-7664637Y2171429D01*
X-7664637Y2171429D02*
X-7628922Y2242858D01*
X-7450351Y2492857D02*
X-7450351Y2778571D01*
X-7200351Y2600000D02*
X-7843208Y2600000D01*
X-7843208Y2600000D02*
X-7914637Y2635714D01*
X-7914637Y2635714D02*
X-7950351Y2707143D01*
X-7950351Y2707143D02*
X-7950351Y2778571D01*
X-7450351Y2921428D02*
X-7450351Y3207142D01*
X-7200351Y3028571D02*
X-7843208Y3028571D01*
X-7843208Y3028571D02*
X-7914637Y3064285D01*
X-7914637Y3064285D02*
X-7950351Y3135714D01*
X-7950351Y3135714D02*
X-7950351Y3207142D01*
X-7950351Y4028571D02*
X-7200351Y4028571D01*
X-7200351Y4028571D02*
X-7200351Y4207142D01*
X-7200351Y4207142D02*
X-7236065Y4314285D01*
X-7236065Y4314285D02*
X-7307494Y4385714D01*
X-7307494Y4385714D02*
X-7378922Y4421428D01*
X-7378922Y4421428D02*
X-7521779Y4457142D01*
X-7521779Y4457142D02*
X-7628922Y4457142D01*
X-7628922Y4457142D02*
X-7771779Y4421428D01*
X-7771779Y4421428D02*
X-7843208Y4385714D01*
X-7843208Y4385714D02*
X-7914637Y4314285D01*
X-7914637Y4314285D02*
X-7950351Y4207142D01*
X-7950351Y4207142D02*
X-7950351Y4028571D01*
X-7950351Y4778571D02*
X-7450351Y4778571D01*
X-7200351Y4778571D02*
X-7236065Y4742857D01*
X-7236065Y4742857D02*
X-7271779Y4778571D01*
X-7271779Y4778571D02*
X-7236065Y4814285D01*
X-7236065Y4814285D02*
X-7200351Y4778571D01*
X-7200351Y4778571D02*
X-7271779Y4778571D01*
X-7950351Y5242857D02*
X-7914637Y5171428D01*
X-7914637Y5171428D02*
X-7878922Y5135714D01*
X-7878922Y5135714D02*
X-7807494Y5100000D01*
X-7807494Y5100000D02*
X-7593208Y5100000D01*
X-7593208Y5100000D02*
X-7521779Y5135714D01*
X-7521779Y5135714D02*
X-7486065Y5171428D01*
X-7486065Y5171428D02*
X-7450351Y5242857D01*
X-7450351Y5242857D02*
X-7450351Y5350000D01*
X-7450351Y5350000D02*
X-7486065Y5421428D01*
X-7486065Y5421428D02*
X-7521779Y5457143D01*
X-7521779Y5457143D02*
X-7593208Y5492857D01*
X-7593208Y5492857D02*
X-7807494Y5492857D01*
X-7807494Y5492857D02*
X-7878922Y5457143D01*
X-7878922Y5457143D02*
X-7914637Y5421428D01*
X-7914637Y5421428D02*
X-7950351Y5350000D01*
X-7950351Y5350000D02*
X-7950351Y5242857D01*
X-7450351Y5814285D02*
X-7950351Y5814285D01*
X-7521779Y5814285D02*
X-7486065Y5849999D01*
X-7486065Y5849999D02*
X-7450351Y5921428D01*
X-7450351Y5921428D02*
X-7450351Y6028571D01*
X-7450351Y6028571D02*
X-7486065Y6099999D01*
X-7486065Y6099999D02*
X-7557494Y6135714D01*
X-7557494Y6135714D02*
X-7950351Y6135714D01*
M02*
