%TF.GenerationSoftware,KiCad,Pcbnew,(6.0.1)*%
%TF.CreationDate,2023-03-20T17:22:50-07:00*%
%TF.ProjectId,ProgrammingBed,50726f67-7261-46d6-9d69-6e674265642e,rev?*%
%TF.SameCoordinates,Original*%
%TF.FileFunction,Legend,Bot*%
%TF.FilePolarity,Positive*%
%FSLAX46Y46*%
G04 Gerber Fmt 4.6, Leading zero omitted, Abs format (unit mm)*
G04 Created by KiCad (PCBNEW (6.0.1)) date 2023-03-20 17:22:50*
%MOMM*%
%LPD*%
G01*
G04 APERTURE LIST*
%ADD10C,0.150000*%
G04 APERTURE END LIST*
D10*
X-4328035Y-2096428D02*
X-4328035Y-2453571D01*
X-3578035Y-2453571D01*
X-4328035Y-1846428D02*
X-3828035Y-1846428D01*
X-3578035Y-1846428D02*
X-3613750Y-1882142D01*
X-3649464Y-1846428D01*
X-3613750Y-1810714D01*
X-3578035Y-1846428D01*
X-3649464Y-1846428D01*
X-3828035Y-1167857D02*
X-4435178Y-1167857D01*
X-4506607Y-1203571D01*
X-4542321Y-1239285D01*
X-4578035Y-1310714D01*
X-4578035Y-1417857D01*
X-4542321Y-1489285D01*
X-4292321Y-1167857D02*
X-4328035Y-1239285D01*
X-4328035Y-1382142D01*
X-4292321Y-1453571D01*
X-4256607Y-1489285D01*
X-4185178Y-1525000D01*
X-3970892Y-1525000D01*
X-3899464Y-1489285D01*
X-3863750Y-1453571D01*
X-3828035Y-1382142D01*
X-3828035Y-1239285D01*
X-3863750Y-1167857D01*
X-4328035Y-810714D02*
X-3578035Y-810714D01*
X-4328035Y-489285D02*
X-3935178Y-489285D01*
X-3863750Y-525000D01*
X-3828035Y-596428D01*
X-3828035Y-703571D01*
X-3863750Y-775000D01*
X-3899464Y-810714D01*
X-3828035Y-239285D02*
X-3828035Y46428D01*
X-3578035Y-132142D02*
X-4220892Y-132142D01*
X-4292321Y-96428D01*
X-4328035Y-25000D01*
X-4328035Y46428D01*
X-3828035Y617857D02*
X-4328035Y617857D01*
X-3828035Y296428D02*
X-4220892Y296428D01*
X-4292321Y332142D01*
X-4328035Y403571D01*
X-4328035Y510714D01*
X-4292321Y582142D01*
X-4256607Y617857D01*
X-3828035Y975000D02*
X-4578035Y975000D01*
X-3863750Y975000D02*
X-3828035Y1046428D01*
X-3828035Y1189285D01*
X-3863750Y1260714D01*
X-3899464Y1296428D01*
X-3970892Y1332142D01*
X-4185178Y1332142D01*
X-4256607Y1296428D01*
X-4292321Y1260714D01*
X-4328035Y1189285D01*
X-4328035Y1046428D01*
X-4292321Y975000D01*
X-4328035Y2225000D02*
X-3578035Y2225000D01*
X-4328035Y2653571D01*
X-3578035Y2653571D01*
X-4328035Y3117857D02*
X-4292321Y3046428D01*
X-4256607Y3010714D01*
X-4185178Y2975000D01*
X-3970892Y2975000D01*
X-3899464Y3010714D01*
X-3863750Y3046428D01*
X-3828035Y3117857D01*
X-3828035Y3225000D01*
X-3863750Y3296428D01*
X-3899464Y3332142D01*
X-3970892Y3367857D01*
X-4185178Y3367857D01*
X-4256607Y3332142D01*
X-4292321Y3296428D01*
X-4328035Y3225000D01*
X-4328035Y3117857D01*
X-3828035Y3582142D02*
X-3828035Y3867857D01*
X-3578035Y3689285D02*
X-4220892Y3689285D01*
X-4292321Y3725000D01*
X-4328035Y3796428D01*
X-4328035Y3867857D01*
X-4292321Y4403571D02*
X-4328035Y4332142D01*
X-4328035Y4189285D01*
X-4292321Y4117857D01*
X-4220892Y4082142D01*
X-3935178Y4082142D01*
X-3863750Y4117857D01*
X-3828035Y4189285D01*
X-3828035Y4332142D01*
X-3863750Y4403571D01*
X-3935178Y4439285D01*
X-4006607Y4439285D01*
X-4078035Y4082142D01*
X-4328035Y5332142D02*
X-3578035Y5332142D01*
X-3578035Y5510714D01*
X-3613749Y5617857D01*
X-3685178Y5689285D01*
X-3756607Y5725000D01*
X-3899464Y5760714D01*
X-4006607Y5760714D01*
X-4149464Y5725000D01*
X-4220892Y5689285D01*
X-4292321Y5617857D01*
X-4328035Y5510714D01*
X-4328035Y5332142D01*
X-4292321Y6367857D02*
X-4328035Y6296428D01*
X-4328035Y6153571D01*
X-4292321Y6082142D01*
X-4220892Y6046428D01*
X-3935178Y6046428D01*
X-3863749Y6082142D01*
X-3828035Y6153571D01*
X-3828035Y6296428D01*
X-3863749Y6367857D01*
X-3935178Y6403571D01*
X-4006607Y6403571D01*
X-4078035Y6046428D01*
X-3828035Y6617857D02*
X-3828035Y6903571D01*
X-3578035Y6725000D02*
X-4220892Y6725000D01*
X-4292321Y6760714D01*
X-4328035Y6832142D01*
X-4328035Y6903571D01*
X-4292321Y7439285D02*
X-4328035Y7367857D01*
X-4328035Y7225000D01*
X-4292321Y7153571D01*
X-4220892Y7117857D01*
X-3935178Y7117857D01*
X-3863749Y7153571D01*
X-3828035Y7225000D01*
X-3828035Y7367857D01*
X-3863749Y7439285D01*
X-3935178Y7475000D01*
X-4006607Y7475000D01*
X-4078035Y7117857D01*
X-4292321Y8117857D02*
X-4328035Y8046428D01*
X-4328035Y7903571D01*
X-4292321Y7832142D01*
X-4256607Y7796428D01*
X-4185178Y7760714D01*
X-3970892Y7760714D01*
X-3899464Y7796428D01*
X-3863749Y7832142D01*
X-3828035Y7903571D01*
X-3828035Y8046428D01*
X-3863749Y8117857D01*
X-3828035Y8332142D02*
X-3828035Y8617857D01*
X-3578035Y8439285D02*
X-4220892Y8439285D01*
X-4292321Y8475000D01*
X-4328035Y8546428D01*
X-4328035Y8617857D01*
X-4328035Y8975000D02*
X-4292321Y8903571D01*
X-4256607Y8867857D01*
X-4185178Y8832142D01*
X-3970892Y8832142D01*
X-3899464Y8867857D01*
X-3863749Y8903571D01*
X-3828035Y8975000D01*
X-3828035Y9082142D01*
X-3863749Y9153571D01*
X-3899464Y9189285D01*
X-3970892Y9225000D01*
X-4185178Y9225000D01*
X-4256607Y9189285D01*
X-4292321Y9153571D01*
X-4328035Y9082142D01*
X-4328035Y8975000D01*
X-4328035Y9546428D02*
X-3828035Y9546428D01*
X-3970892Y9546428D02*
X-3899464Y9582142D01*
X-3863749Y9617857D01*
X-3828035Y9689285D01*
X-3828035Y9760714D01*
X-5535535Y-1257142D02*
X-4785535Y-1257142D01*
X-4785535Y-971428D01*
X-4821250Y-900000D01*
X-4856964Y-864285D01*
X-4928392Y-828571D01*
X-5035535Y-828571D01*
X-5106964Y-864285D01*
X-5142678Y-900000D01*
X-5178392Y-971428D01*
X-5178392Y-1257142D01*
X-5535535Y-507142D02*
X-5035535Y-507142D01*
X-5178392Y-507142D02*
X-5106964Y-471428D01*
X-5071250Y-435714D01*
X-5035535Y-364285D01*
X-5035535Y-292857D01*
X-5535535Y64285D02*
X-5499821Y-7142D01*
X-5464107Y-42857D01*
X-5392678Y-78571D01*
X-5178392Y-78571D01*
X-5106964Y-42857D01*
X-5071250Y-7142D01*
X-5035535Y64285D01*
X-5035535Y171428D01*
X-5071250Y242857D01*
X-5106964Y278571D01*
X-5178392Y314285D01*
X-5392678Y314285D01*
X-5464107Y278571D01*
X-5499821Y242857D01*
X-5535535Y171428D01*
X-5535535Y64285D01*
X-5035535Y957142D02*
X-5642678Y957142D01*
X-5714107Y921428D01*
X-5749821Y885714D01*
X-5785535Y814285D01*
X-5785535Y707142D01*
X-5749821Y635714D01*
X-5499821Y957142D02*
X-5535535Y885714D01*
X-5535535Y742857D01*
X-5499821Y671428D01*
X-5464107Y635714D01*
X-5392678Y600000D01*
X-5178392Y600000D01*
X-5106964Y635714D01*
X-5071250Y671428D01*
X-5035535Y742857D01*
X-5035535Y885714D01*
X-5071250Y957142D01*
X-5535535Y1314285D02*
X-5035535Y1314285D01*
X-5178392Y1314285D02*
X-5106964Y1350000D01*
X-5071250Y1385714D01*
X-5035535Y1457142D01*
X-5035535Y1528571D01*
X-5535535Y2100000D02*
X-5142678Y2100000D01*
X-5071250Y2064285D01*
X-5035535Y1992857D01*
X-5035535Y1850000D01*
X-5071250Y1778571D01*
X-5499821Y2100000D02*
X-5535535Y2028571D01*
X-5535535Y1850000D01*
X-5499821Y1778571D01*
X-5428392Y1742857D01*
X-5356964Y1742857D01*
X-5285535Y1778571D01*
X-5249821Y1850000D01*
X-5249821Y2028571D01*
X-5214107Y2100000D01*
X-5535535Y2457142D02*
X-5035535Y2457142D01*
X-5106964Y2457142D02*
X-5071250Y2492857D01*
X-5035535Y2564285D01*
X-5035535Y2671428D01*
X-5071250Y2742857D01*
X-5142678Y2778571D01*
X-5535535Y2778571D01*
X-5142678Y2778571D02*
X-5071250Y2814285D01*
X-5035535Y2885714D01*
X-5035535Y2992857D01*
X-5071250Y3064285D01*
X-5142678Y3100000D01*
X-5535535Y3100000D01*
X-5535535Y3457142D02*
X-5035535Y3457142D01*
X-5106964Y3457142D02*
X-5071250Y3492857D01*
X-5035535Y3564285D01*
X-5035535Y3671428D01*
X-5071250Y3742857D01*
X-5142678Y3778571D01*
X-5535535Y3778571D01*
X-5142678Y3778571D02*
X-5071250Y3814285D01*
X-5035535Y3885714D01*
X-5035535Y3992857D01*
X-5071250Y4064285D01*
X-5142678Y4100000D01*
X-5535535Y4100000D01*
X-5535535Y4457142D02*
X-5035535Y4457142D01*
X-4785535Y4457142D02*
X-4821250Y4421428D01*
X-4856964Y4457142D01*
X-4821250Y4492857D01*
X-4785535Y4457142D01*
X-4856964Y4457142D01*
X-5035535Y4814285D02*
X-5535535Y4814285D01*
X-5106964Y4814285D02*
X-5071250Y4850000D01*
X-5035535Y4921428D01*
X-5035535Y5028571D01*
X-5071250Y5100000D01*
X-5142678Y5135714D01*
X-5535535Y5135714D01*
X-5035535Y5814285D02*
X-5642678Y5814285D01*
X-5714107Y5778571D01*
X-5749821Y5742857D01*
X-5785535Y5671428D01*
X-5785535Y5564285D01*
X-5749821Y5492857D01*
X-5499821Y5814285D02*
X-5535535Y5742857D01*
X-5535535Y5600000D01*
X-5499821Y5528571D01*
X-5464107Y5492857D01*
X-5392678Y5457142D01*
X-5178392Y5457142D01*
X-5106964Y5492857D01*
X-5071250Y5528571D01*
X-5035535Y5600000D01*
X-5035535Y5742857D01*
X-5071250Y5814285D01*
X-5142678Y6992857D02*
X-5178392Y7100000D01*
X-5214107Y7135714D01*
X-5285535Y7171428D01*
X-5392678Y7171428D01*
X-5464107Y7135714D01*
X-5499821Y7100000D01*
X-5535535Y7028571D01*
X-5535535Y6742857D01*
X-4785535Y6742857D01*
X-4785535Y6992857D01*
X-4821249Y7064285D01*
X-4856964Y7100000D01*
X-4928392Y7135714D01*
X-4999821Y7135714D01*
X-5071249Y7100000D01*
X-5106964Y7064285D01*
X-5142678Y6992857D01*
X-5142678Y6742857D01*
X-5499821Y7778571D02*
X-5535535Y7707142D01*
X-5535535Y7564285D01*
X-5499821Y7492857D01*
X-5428392Y7457142D01*
X-5142678Y7457142D01*
X-5071249Y7492857D01*
X-5035535Y7564285D01*
X-5035535Y7707142D01*
X-5071249Y7778571D01*
X-5142678Y7814285D01*
X-5214107Y7814285D01*
X-5285535Y7457142D01*
X-5535535Y8457142D02*
X-4785535Y8457142D01*
X-5499821Y8457142D02*
X-5535535Y8385714D01*
X-5535535Y8242857D01*
X-5499821Y8171428D01*
X-5464107Y8135714D01*
X-5392678Y8100000D01*
X-5178392Y8100000D01*
X-5106964Y8135714D01*
X-5071249Y8171428D01*
X-5035535Y8242857D01*
X-5035535Y8385714D01*
X-5071249Y8457142D01*
X-5993035Y-1667857D02*
X-5993035Y-1596428D01*
X-6028750Y-1525000D01*
X-6064464Y-1489285D01*
X-6135892Y-1453571D01*
X-6278750Y-1417857D01*
X-6457321Y-1417857D01*
X-6600178Y-1453571D01*
X-6671607Y-1489285D01*
X-6707321Y-1525000D01*
X-6743035Y-1596428D01*
X-6743035Y-1667857D01*
X-6707321Y-1739285D01*
X-6671607Y-1775000D01*
X-6600178Y-1810714D01*
X-6457321Y-1846428D01*
X-6278750Y-1846428D01*
X-6135892Y-1810714D01*
X-6064464Y-1775000D01*
X-6028750Y-1739285D01*
X-5993035Y-1667857D01*
X-5993035Y-1167857D02*
X-5993035Y-703571D01*
X-6278750Y-953571D01*
X-6278750Y-846428D01*
X-6314464Y-775000D01*
X-6350178Y-739285D01*
X-6421607Y-703571D01*
X-6600178Y-703571D01*
X-6671607Y-739285D01*
X-6707321Y-775000D01*
X-6743035Y-846428D01*
X-6743035Y-1060714D01*
X-6707321Y-1132142D01*
X-6671607Y-1167857D01*
X-6457321Y-382142D02*
X-6457321Y189285D01*
X-6064464Y510714D02*
X-6028750Y546428D01*
X-5993035Y617857D01*
X-5993035Y796428D01*
X-6028750Y867857D01*
X-6064464Y903571D01*
X-6135892Y939285D01*
X-6207321Y939285D01*
X-6314464Y903571D01*
X-6743035Y475000D01*
X-6743035Y939285D01*
X-5993035Y1403571D02*
X-5993035Y1475000D01*
X-6028750Y1546428D01*
X-6064464Y1582142D01*
X-6135892Y1617857D01*
X-6278750Y1653571D01*
X-6457321Y1653571D01*
X-6600178Y1617857D01*
X-6671607Y1582142D01*
X-6707321Y1546428D01*
X-6743035Y1475000D01*
X-6743035Y1403571D01*
X-6707321Y1332142D01*
X-6671607Y1296428D01*
X-6600178Y1260714D01*
X-6457321Y1225000D01*
X-6278750Y1225000D01*
X-6135892Y1260714D01*
X-6064464Y1296428D01*
X-6028750Y1332142D01*
X-5993035Y1403571D01*
X-6457321Y1975000D02*
X-6457321Y2546428D01*
X-6064464Y2867857D02*
X-6028750Y2903571D01*
X-5993035Y2975000D01*
X-5993035Y3153571D01*
X-6028750Y3225000D01*
X-6064464Y3260714D01*
X-6135892Y3296428D01*
X-6207321Y3296428D01*
X-6314464Y3260714D01*
X-6743035Y2832142D01*
X-6743035Y3296428D01*
X-5993035Y3760714D02*
X-5993035Y3832142D01*
X-6028750Y3903571D01*
X-6064464Y3939285D01*
X-6135892Y3975000D01*
X-6278750Y4010714D01*
X-6457321Y4010714D01*
X-6600178Y3975000D01*
X-6671607Y3939285D01*
X-6707321Y3903571D01*
X-6743035Y3832142D01*
X-6743035Y3760714D01*
X-6707321Y3689285D01*
X-6671607Y3653571D01*
X-6600178Y3617857D01*
X-6457321Y3582142D01*
X-6278750Y3582142D01*
X-6135892Y3617857D01*
X-6064464Y3653571D01*
X-6028750Y3689285D01*
X-5993035Y3760714D01*
X-6064464Y4296428D02*
X-6028750Y4332142D01*
X-5993035Y4403571D01*
X-5993035Y4582142D01*
X-6028750Y4653571D01*
X-6064464Y4689285D01*
X-6135892Y4725000D01*
X-6207321Y4725000D01*
X-6314464Y4689285D01*
X-6743035Y4260714D01*
X-6743035Y4725000D01*
X-5993035Y4975000D02*
X-5993035Y5439285D01*
X-6278750Y5189285D01*
X-6278750Y5296428D01*
X-6314464Y5367857D01*
X-6350178Y5403571D01*
X-6421607Y5439285D01*
X-6600178Y5439285D01*
X-6671607Y5403571D01*
X-6707321Y5367857D01*
X-6743035Y5296428D01*
X-6743035Y5082142D01*
X-6707321Y5010714D01*
X-6671607Y4975000D01*
X-6707321Y5796428D02*
X-6743035Y5796428D01*
X-6814464Y5760714D01*
X-6850178Y5725000D01*
X-6743035Y7117857D02*
X-6385892Y6867857D01*
X-6743035Y6689285D02*
X-5993035Y6689285D01*
X-5993035Y6975000D01*
X-6028749Y7046428D01*
X-6064464Y7082142D01*
X-6135892Y7117857D01*
X-6243035Y7117857D01*
X-6314464Y7082142D01*
X-6350178Y7046428D01*
X-6385892Y6975000D01*
X-6385892Y6689285D01*
X-6707321Y7725000D02*
X-6743035Y7653571D01*
X-6743035Y7510714D01*
X-6707321Y7439285D01*
X-6635892Y7403571D01*
X-6350178Y7403571D01*
X-6278749Y7439285D01*
X-6243035Y7510714D01*
X-6243035Y7653571D01*
X-6278749Y7725000D01*
X-6350178Y7760714D01*
X-6421607Y7760714D01*
X-6493035Y7403571D01*
X-6243035Y8010714D02*
X-6743035Y8189285D01*
X-6243035Y8367857D01*
X-6743035Y9046428D02*
X-6743035Y8617857D01*
X-6743035Y8832142D02*
X-5993035Y8832142D01*
X-6100178Y8760714D01*
X-6171607Y8689285D01*
X-6207321Y8617857D01*
X-7950535Y1064285D02*
X-7200535Y1064285D01*
X-7736250Y1314285D01*
X-7200535Y1564285D01*
X-7950535Y1564285D01*
X-7950535Y2242857D02*
X-7557678Y2242857D01*
X-7486250Y2207142D01*
X-7450535Y2135714D01*
X-7450535Y1992857D01*
X-7486250Y1921428D01*
X-7914821Y2242857D02*
X-7950535Y2171428D01*
X-7950535Y1992857D01*
X-7914821Y1921428D01*
X-7843392Y1885714D01*
X-7771964Y1885714D01*
X-7700535Y1921428D01*
X-7664821Y1992857D01*
X-7664821Y2171428D01*
X-7629107Y2242857D01*
X-7450535Y2492857D02*
X-7450535Y2778571D01*
X-7200535Y2600000D02*
X-7843392Y2600000D01*
X-7914821Y2635714D01*
X-7950535Y2707142D01*
X-7950535Y2778571D01*
X-7450535Y2921428D02*
X-7450535Y3207142D01*
X-7200535Y3028571D02*
X-7843392Y3028571D01*
X-7914821Y3064285D01*
X-7950535Y3135714D01*
X-7950535Y3207142D01*
X-7950535Y4028571D02*
X-7200535Y4028571D01*
X-7200535Y4207142D01*
X-7236250Y4314285D01*
X-7307678Y4385714D01*
X-7379107Y4421428D01*
X-7521964Y4457142D01*
X-7629107Y4457142D01*
X-7771964Y4421428D01*
X-7843392Y4385714D01*
X-7914821Y4314285D01*
X-7950535Y4207142D01*
X-7950535Y4028571D01*
X-7950535Y4778571D02*
X-7450535Y4778571D01*
X-7200535Y4778571D02*
X-7236250Y4742857D01*
X-7271964Y4778571D01*
X-7236250Y4814285D01*
X-7200535Y4778571D01*
X-7271964Y4778571D01*
X-7950535Y5242857D02*
X-7914821Y5171428D01*
X-7879107Y5135714D01*
X-7807678Y5100000D01*
X-7593392Y5100000D01*
X-7521964Y5135714D01*
X-7486250Y5171428D01*
X-7450535Y5242857D01*
X-7450535Y5350000D01*
X-7486250Y5421428D01*
X-7521964Y5457142D01*
X-7593392Y5492857D01*
X-7807678Y5492857D01*
X-7879107Y5457142D01*
X-7914821Y5421428D01*
X-7950535Y5350000D01*
X-7950535Y5242857D01*
X-7450535Y5814285D02*
X-7950535Y5814285D01*
X-7521964Y5814285D02*
X-7486250Y5850000D01*
X-7450535Y5921428D01*
X-7450535Y6028571D01*
X-7486250Y6100000D01*
X-7557678Y6135714D01*
X-7950535Y6135714D01*
M02*
