%TF.GenerationSoftware,KiCad,Pcbnew,(6.0.1)*%
%TF.CreationDate,2023-03-20T17:22:50-07:00*%
%TF.ProjectId,ProgrammingBed,50726f67-7261-46d6-9d69-6e674265642e,rev?*%
%TF.SameCoordinates,Original*%
%TF.FileFunction,Legend,Top*%
%TF.FilePolarity,Positive*%
%FSLAX46Y46*%
G04 Gerber Fmt 4.6, Leading zero omitted, Abs format (unit mm)*
G04 Created by KiCad (PCBNEW (6.0.1)) date 2023-03-20 17:22:50*
%MOMM*%
%LPD*%
G01*
G04 APERTURE LIST*
%ADD10C,0.150000*%
%ADD11C,0.300000*%
%ADD12C,0.120000*%
G04 APERTURE END LIST*
D10*
X-2000000Y6350000D02*
X-2600000Y6950000D01*
X-2600000Y6950000D02*
X-2000000Y6350000D01*
X-4000000Y6350000D02*
X-2000000Y6350000D01*
X-2000000Y6350000D02*
X-2600000Y5750000D01*
X6523809Y-420000D02*
X7666666Y-420000D01*
X6761904Y-1702380D02*
X6761904Y-702380D01*
X7095238Y-1416666D01*
X7428571Y-702380D01*
X7428571Y-1702380D01*
X7666666Y-420000D02*
X8666666Y-420000D01*
X8476190Y-1607142D02*
X8428571Y-1654761D01*
X8285714Y-1702380D01*
X8190476Y-1702380D01*
X8047619Y-1654761D01*
X7952380Y-1559523D01*
X7904761Y-1464285D01*
X7857142Y-1273809D01*
X7857142Y-1130952D01*
X7904761Y-940476D01*
X7952380Y-845238D01*
X8047619Y-750000D01*
X8190476Y-702380D01*
X8285714Y-702380D01*
X8428571Y-750000D01*
X8476190Y-797619D01*
X8666666Y-420000D02*
X9476190Y-420000D01*
X9380952Y-1702380D02*
X8904761Y-1702380D01*
X8904761Y-702380D01*
X9476190Y-420000D02*
X10476190Y-420000D01*
X10285714Y-1702380D02*
X9952380Y-1226190D01*
X9714285Y-1702380D02*
X9714285Y-702380D01*
X10095238Y-702380D01*
X10190476Y-750000D01*
X10238095Y-797619D01*
X10285714Y-892857D01*
X10285714Y-1035714D01*
X10238095Y-1130952D01*
X10190476Y-1178571D01*
X10095238Y-1226190D01*
X9714285Y-1226190D01*
X-9392857Y-1750000D02*
X-9488095Y-1702380D01*
X-9630952Y-1702380D01*
X-9773809Y-1750000D01*
X-9869047Y-1845238D01*
X-9916666Y-1940476D01*
X-9964285Y-2130952D01*
X-9964285Y-2273809D01*
X-9916666Y-2464285D01*
X-9869047Y-2559523D01*
X-9773809Y-2654761D01*
X-9630952Y-2702380D01*
X-9535714Y-2702380D01*
X-9392857Y-2654761D01*
X-9345238Y-2607142D01*
X-9345238Y-2273809D01*
X-9535714Y-2273809D01*
X-8916666Y-2035714D02*
X-8916666Y-2702380D01*
X-8916666Y-2130952D02*
X-8869047Y-2083333D01*
X-8773809Y-2035714D01*
X-8630952Y-2035714D01*
X-8535714Y-2083333D01*
X-8488095Y-2178571D01*
X-8488095Y-2702380D01*
X-7583333Y-2702380D02*
X-7583333Y-1702380D01*
X-7583333Y-2654761D02*
X-7678571Y-2702380D01*
X-7869047Y-2702380D01*
X-7964285Y-2654761D01*
X-8011904Y-2607142D01*
X-8059523Y-2511904D01*
X-8059523Y-2226190D01*
X-8011904Y-2130952D01*
X-7964285Y-2083333D01*
X-7869047Y-2035714D01*
X-7678571Y-2035714D01*
X-7583333Y-2083333D01*
X3500000Y5547619D02*
X3500000Y6547619D01*
X3738095Y6547619D01*
X3880952Y6500000D01*
X3976190Y6404761D01*
X4023809Y6309523D01*
X4071428Y6119047D01*
X4071428Y5976190D01*
X4023809Y5785714D01*
X3976190Y5690476D01*
X3880952Y5595238D01*
X3738095Y5547619D01*
X3500000Y5547619D01*
X4928571Y5547619D02*
X4928571Y6071428D01*
X4880952Y6166666D01*
X4785714Y6214285D01*
X4595238Y6214285D01*
X4500000Y6166666D01*
X4928571Y5595238D02*
X4833333Y5547619D01*
X4595238Y5547619D01*
X4500000Y5595238D01*
X4452380Y5690476D01*
X4452380Y5785714D01*
X4500000Y5880952D01*
X4595238Y5928571D01*
X4833333Y5928571D01*
X4928571Y5976190D01*
X5261904Y6214285D02*
X5642857Y6214285D01*
X5404761Y6547619D02*
X5404761Y5690476D01*
X5452380Y5595238D01*
X5547619Y5547619D01*
X5642857Y5547619D01*
X8642857Y2892857D02*
X8595238Y2845238D01*
X8452380Y2797619D01*
X8357142Y2797619D01*
X8214285Y2845238D01*
X8119047Y2940476D01*
X8071428Y3035714D01*
X8023809Y3226190D01*
X8023809Y3369047D01*
X8071428Y3559523D01*
X8119047Y3654761D01*
X8214285Y3750000D01*
X8357142Y3797619D01*
X8452380Y3797619D01*
X8595238Y3750000D01*
X8642857Y3702380D01*
X9214285Y2797619D02*
X9119047Y2845238D01*
X9071428Y2940476D01*
X9071428Y3797619D01*
X9595238Y2797619D02*
X9595238Y3797619D01*
X9690476Y3178571D02*
X9976190Y2797619D01*
X9976190Y3464285D02*
X9595238Y3083333D01*
X7611904Y-5602380D02*
X7945238Y-6602380D01*
X8278571Y-5602380D01*
X9040476Y-6602380D02*
X9040476Y-5602380D01*
X9040476Y-6554761D02*
X8945238Y-6602380D01*
X8754761Y-6602380D01*
X8659523Y-6554761D01*
X8611904Y-6507142D01*
X8564285Y-6411904D01*
X8564285Y-6126190D01*
X8611904Y-6030952D01*
X8659523Y-5983333D01*
X8754761Y-5935714D01*
X8945238Y-5935714D01*
X9040476Y-5983333D01*
X9945238Y-6602380D02*
X9945238Y-5602380D01*
X9945238Y-6554761D02*
X9850000Y-6602380D01*
X9659523Y-6602380D01*
X9564285Y-6554761D01*
X9516666Y-6507142D01*
X9469047Y-6411904D01*
X9469047Y-6126190D01*
X9516666Y-6030952D01*
X9564285Y-5983333D01*
X9659523Y-5935714D01*
X9850000Y-5935714D01*
X9945238Y-5983333D01*
D11*
X-2321428Y-2014285D02*
X-3821428Y-2014285D01*
X-2464285Y-442857D02*
X-2392857Y-514285D01*
X-2321428Y-728571D01*
X-2321428Y-871428D01*
X-2392857Y-1085714D01*
X-2535714Y-1228571D01*
X-2678571Y-1300000D01*
X-2964285Y-1371428D01*
X-3178571Y-1371428D01*
X-3464285Y-1300000D01*
X-3607142Y-1228571D01*
X-3750000Y-1085714D01*
X-3821428Y-871428D01*
X-3821428Y-728571D01*
X-3750000Y-514285D01*
X-3678571Y-442857D01*
X-2392857Y128571D02*
X-2321428Y342857D01*
X-2321428Y699999D01*
X-2392857Y842857D01*
X-2464285Y914285D01*
X-2607142Y985714D01*
X-2750000Y985714D01*
X-2892857Y914285D01*
X-2964285Y842857D01*
X-3035714Y699999D01*
X-3107142Y414285D01*
X-3178571Y271428D01*
X-3250000Y199999D01*
X-3392857Y128571D01*
X-3535714Y128571D01*
X-3678571Y199999D01*
X-3750000Y271428D01*
X-3821428Y414285D01*
X-3821428Y771428D01*
X-3750000Y985714D01*
X-2321428Y1628571D02*
X-3821428Y1628571D01*
X-3821428Y2199999D01*
X-3750000Y2342857D01*
X-3678571Y2414285D01*
X-3535714Y2485714D01*
X-3321428Y2485714D01*
X-3178571Y2414285D01*
X-3107142Y2342857D01*
X-3035714Y2199999D01*
X-3035714Y1628571D01*
D12*
%TO.C,J1*%
X1330000Y5080000D02*
X1330000Y-7680000D01*
X-1330000Y6350000D02*
X-1330000Y7680000D01*
X-1330000Y5080000D02*
X1330000Y5080000D01*
X-1330000Y5080000D02*
X-1330000Y-7680000D01*
X-1330000Y-7680000D02*
X1330000Y-7680000D01*
X-1330000Y7680000D02*
X0Y7680000D01*
%TO.C,J5*%
X8646100Y8850000D02*
G75*
G03*
X8646100Y8850000I-546100J0D01*
G01*
%TO.C,J2*%
X5846100Y-1000000D02*
G75*
G03*
X5846100Y-1000000I-546100J0D01*
G01*
%TO.C,J3*%
X11246100Y-5300000D02*
G75*
G03*
X11246100Y-5300000I-546100J0D01*
G01*
%TO.C,J4*%
X-8353900Y7950000D02*
G75*
G03*
X-8353900Y7950000I-546100J0D01*
G01*
%TO.C,J6*%
X11446100Y5000000D02*
G75*
G03*
X11446100Y5000000I-546100J0D01*
G01*
%TD*%
M02*
