%TF.GenerationSoftware,KiCad,Pcbnew,(6.0.1)*%
%TF.CreationDate,2022-02-08T09:51:35-07:00*%
%TF.ProjectId,NoteDetector,4e6f7465-4465-4746-9563-746f722e6b69,rev?*%
%TF.SameCoordinates,Original*%
%TF.FileFunction,Copper,L2,Bot*%
%TF.FilePolarity,Positive*%
%FSLAX46Y46*%
G04 Gerber Fmt 4.6, Leading zero omitted, Abs format (unit mm)*
G04 Created by KiCad (PCBNEW (6.0.1)) date 2022-02-08 09:51:35*
%MOMM*%
%LPD*%
G01*
G04 APERTURE LIST*
%TA.AperFunction,ComponentPad*%
%ADD10C,2.000000*%
%TD*%
%TA.AperFunction,WasherPad*%
%ADD11C,0.970000*%
%TD*%
%TA.AperFunction,ComponentPad*%
%ADD12R,1.700000X1.700000*%
%TD*%
%TA.AperFunction,ComponentPad*%
%ADD13O,1.700000X1.700000*%
%TD*%
%TA.AperFunction,ViaPad*%
%ADD14C,0.600000*%
%TD*%
%TA.AperFunction,ViaPad*%
%ADD15C,0.800000*%
%TD*%
%TA.AperFunction,Conductor*%
%ADD16C,0.200000*%
%TD*%
%TA.AperFunction,Conductor*%
%ADD17C,0.152400*%
%TD*%
%TA.AperFunction,Conductor*%
%ADD18C,0.381000*%
%TD*%
G04 APERTURE END LIST*
D10*
%TO.P,J4,1,Pin_1*%
%TO.N,/Audio_raw*%
X3900000Y-3950000D03*
%TD*%
D11*
%TO.P,U1,*%
%TO.N,*%
X3925000Y-9700000D03*
%TD*%
D10*
%TO.P,J3,1,Pin_1*%
%TO.N,/Audio_In*%
X15000000Y-3400000D03*
%TD*%
D12*
%TO.P,J1,1,Pin_1*%
%TO.N,/UPDI*%
X1825000Y-23200000D03*
D13*
%TO.P,J1,2,Pin_2*%
%TO.N,+BATT*%
X1825000Y-20660000D03*
%TO.P,J1,3,Pin_3*%
%TO.N,unconnected-(J1-Pad3)*%
X4365000Y-23200000D03*
%TO.P,J1,4,Pin_4*%
%TO.N,unconnected-(J1-Pad4)*%
X4365000Y-20660000D03*
%TO.P,J1,5,Pin_5*%
%TO.N,unconnected-(J1-Pad5)*%
X6905000Y-23200000D03*
%TO.P,J1,6,Pin_6*%
%TO.N,GND*%
X6905000Y-20660000D03*
%TD*%
D14*
%TO.N,GND*%
X11300000Y-19300000D03*
X4200000Y-15500000D03*
X9749500Y-15550000D03*
X12619803Y-18530197D03*
X8350000Y-15600000D03*
X5650000Y-15350000D03*
D15*
%TO.N,+BATT*%
X22200000Y-8500000D03*
X5700000Y-5700000D03*
X6950000Y-11500000D03*
X19700000Y-7800000D03*
D14*
X11350000Y-22600000D03*
%TO.N,/UPDI*%
X15000000Y-20775000D03*
X12500000Y-22850000D03*
%TD*%
D16*
%TO.N,/UPDI*%
X15000000Y-20775000D02*
X14575000Y-20775000D01*
X14575000Y-20775000D02*
X12500000Y-22850000D01*
D17*
%TO.N,GND*%
X8400000Y-15550000D02*
X8350000Y-15600000D01*
D18*
X9749500Y-15550000D02*
X8400000Y-15550000D01*
D17*
X4350000Y-15350000D02*
X4200000Y-15500000D01*
D18*
X12619803Y-18530197D02*
X11850000Y-19300000D01*
X11850000Y-19300000D02*
X11300000Y-19300000D01*
X5650000Y-15350000D02*
X4350000Y-15350000D01*
%TD*%
%TA.AperFunction,Conductor*%
%TO.N,+BATT*%
G36*
X3433068Y-5056091D02*
G01*
X3527436Y-5096635D01*
X3530783Y-5097392D01*
X3530785Y-5097393D01*
X3739277Y-5144570D01*
X3739279Y-5144570D01*
X3742632Y-5145329D01*
X3963098Y-5153991D01*
X4181452Y-5122331D01*
X4382808Y-5053980D01*
X4406916Y-5050000D01*
X24773000Y-5050000D01*
X24821209Y-5067547D01*
X24846861Y-5111976D01*
X24848000Y-5125000D01*
X24848000Y-24773000D01*
X24830453Y-24821209D01*
X24786024Y-24846861D01*
X24773000Y-24848000D01*
X227000Y-24848000D01*
X178791Y-24830453D01*
X153139Y-24786024D01*
X152000Y-24773000D01*
X152000Y-20920249D01*
X491724Y-20920249D01*
X491748Y-20921269D01*
X524024Y-21064484D01*
X525859Y-21070341D01*
X607559Y-21271545D01*
X610321Y-21277012D01*
X723782Y-21462164D01*
X727407Y-21467118D01*
X869589Y-21631257D01*
X873965Y-21635541D01*
X1041043Y-21774252D01*
X1046074Y-21777775D01*
X1233563Y-21887335D01*
X1239094Y-21889985D01*
X1441951Y-21967448D01*
X1447853Y-21969163D01*
X1604369Y-22001006D01*
X1648112Y-22027811D01*
X1664390Y-22076463D01*
X1645588Y-22124196D01*
X1600502Y-22148676D01*
X1589416Y-22149500D01*
X955252Y-22149500D01*
X896769Y-22161133D01*
X830448Y-22205448D01*
X786133Y-22271769D01*
X774500Y-22330252D01*
X774500Y-24069748D01*
X786133Y-24128231D01*
X830448Y-24194552D01*
X896769Y-24238867D01*
X955252Y-24250500D01*
X2694748Y-24250500D01*
X2753231Y-24238867D01*
X2819552Y-24194552D01*
X2863867Y-24128231D01*
X2875500Y-24069748D01*
X2875500Y-23185262D01*
X3309520Y-23185262D01*
X3309827Y-23188918D01*
X3309827Y-23188919D01*
X3323282Y-23349142D01*
X3326759Y-23390553D01*
X3383544Y-23588586D01*
X3385220Y-23591848D01*
X3385222Y-23591852D01*
X3476035Y-23768555D01*
X3477712Y-23771818D01*
X3479990Y-23774692D01*
X3603397Y-23930394D01*
X3603400Y-23930397D01*
X3605677Y-23933270D01*
X3762564Y-24066791D01*
X3942398Y-24167297D01*
X3945884Y-24168430D01*
X3945887Y-24168431D01*
X3997288Y-24185132D01*
X4138329Y-24230959D01*
X4212701Y-24239827D01*
X4339243Y-24254916D01*
X4339246Y-24254916D01*
X4342894Y-24255351D01*
X4548300Y-24239546D01*
X4611009Y-24222038D01*
X4743191Y-24185132D01*
X4743194Y-24185131D01*
X4746725Y-24184145D01*
X4930610Y-24091258D01*
X4933499Y-24089001D01*
X4933502Y-24088999D01*
X5090061Y-23966682D01*
X5090062Y-23966681D01*
X5092951Y-23964424D01*
X5227564Y-23808472D01*
X5329323Y-23629344D01*
X5394351Y-23433863D01*
X5420171Y-23229474D01*
X5420583Y-23200000D01*
X5419138Y-23185262D01*
X5849520Y-23185262D01*
X5849827Y-23188918D01*
X5849827Y-23188919D01*
X5863282Y-23349142D01*
X5866759Y-23390553D01*
X5923544Y-23588586D01*
X5925220Y-23591848D01*
X5925222Y-23591852D01*
X6016035Y-23768555D01*
X6017712Y-23771818D01*
X6019990Y-23774692D01*
X6143397Y-23930394D01*
X6143400Y-23930397D01*
X6145677Y-23933270D01*
X6302564Y-24066791D01*
X6482398Y-24167297D01*
X6485884Y-24168430D01*
X6485887Y-24168431D01*
X6537288Y-24185132D01*
X6678329Y-24230959D01*
X6752701Y-24239827D01*
X6879243Y-24254916D01*
X6879246Y-24254916D01*
X6882894Y-24255351D01*
X7088300Y-24239546D01*
X7151009Y-24222038D01*
X7283191Y-24185132D01*
X7283194Y-24185131D01*
X7286725Y-24184145D01*
X7470610Y-24091258D01*
X7473499Y-24089001D01*
X7473502Y-24088999D01*
X7630061Y-23966682D01*
X7630062Y-23966681D01*
X7632951Y-23964424D01*
X7767564Y-23808472D01*
X7869323Y-23629344D01*
X7934351Y-23433863D01*
X7960171Y-23229474D01*
X7960583Y-23200000D01*
X7940480Y-22994970D01*
X7894846Y-22843823D01*
X11994391Y-22843823D01*
X11995083Y-22849115D01*
X11995083Y-22849118D01*
X11995578Y-22852901D01*
X12012980Y-22985979D01*
X12070720Y-23117203D01*
X12074159Y-23121294D01*
X12074160Y-23121296D01*
X12124865Y-23181617D01*
X12162970Y-23226948D01*
X12282313Y-23306390D01*
X12287409Y-23307982D01*
X12287411Y-23307983D01*
X12392798Y-23340907D01*
X12419157Y-23349142D01*
X12562499Y-23351770D01*
X12611941Y-23338291D01*
X12695662Y-23315466D01*
X12695666Y-23315464D01*
X12700817Y-23314060D01*
X12705367Y-23311266D01*
X12705370Y-23311265D01*
X12818436Y-23241842D01*
X12818437Y-23241841D01*
X12822991Y-23239045D01*
X12856442Y-23202089D01*
X12915617Y-23136713D01*
X12915618Y-23136711D01*
X12919200Y-23132754D01*
X12981710Y-23003733D01*
X12982596Y-22998468D01*
X12982597Y-22998464D01*
X13005015Y-22865214D01*
X13005015Y-22865212D01*
X13005496Y-22862354D01*
X13005647Y-22850000D01*
X13000859Y-22816566D01*
X13011395Y-22766358D01*
X13022069Y-22752902D01*
X14595541Y-21179430D01*
X14642037Y-21157748D01*
X14690133Y-21170030D01*
X14777866Y-21228430D01*
X14782313Y-21231390D01*
X14787409Y-21232982D01*
X14787411Y-21232983D01*
X14890788Y-21265279D01*
X14919157Y-21274142D01*
X15062499Y-21276770D01*
X15111941Y-21263291D01*
X15195662Y-21240466D01*
X15195666Y-21240464D01*
X15200817Y-21239060D01*
X15205367Y-21236266D01*
X15205370Y-21236265D01*
X15318436Y-21166842D01*
X15318437Y-21166841D01*
X15322991Y-21164045D01*
X15387722Y-21092531D01*
X15415617Y-21061713D01*
X15415618Y-21061711D01*
X15419200Y-21057754D01*
X15481710Y-20928733D01*
X15482596Y-20923468D01*
X15482597Y-20923464D01*
X15505015Y-20790214D01*
X15505015Y-20790212D01*
X15505496Y-20787354D01*
X15505647Y-20775000D01*
X15485323Y-20633082D01*
X15429995Y-20511394D01*
X15428197Y-20507439D01*
X15428197Y-20507438D01*
X15425984Y-20502572D01*
X15332400Y-20393963D01*
X15212095Y-20315985D01*
X15074739Y-20274907D01*
X15069397Y-20274874D01*
X15069395Y-20274874D01*
X15005317Y-20274483D01*
X14931376Y-20274031D01*
X14926245Y-20275497D01*
X14926241Y-20275498D01*
X14798667Y-20311959D01*
X14798664Y-20311961D01*
X14793529Y-20313428D01*
X14672280Y-20389930D01*
X14668742Y-20393936D01*
X14668741Y-20393937D01*
X14619982Y-20449147D01*
X14574918Y-20473666D01*
X14563767Y-20474500D01*
X14547052Y-20474500D01*
X14543658Y-20475132D01*
X14540299Y-20475442D01*
X14536226Y-20475706D01*
X14526088Y-20476087D01*
X14514709Y-20476514D01*
X14514707Y-20476514D01*
X14507792Y-20476774D01*
X14501435Y-20479505D01*
X14501431Y-20479506D01*
X14494764Y-20482371D01*
X14478895Y-20487193D01*
X14464947Y-20489791D01*
X14459055Y-20493423D01*
X14459052Y-20493424D01*
X14440776Y-20504690D01*
X14431032Y-20509752D01*
X14404937Y-20520964D01*
X14400051Y-20524978D01*
X14393703Y-20531326D01*
X14380025Y-20542138D01*
X14375545Y-20544899D01*
X14375543Y-20544900D01*
X14369652Y-20548532D01*
X14365462Y-20554042D01*
X14365461Y-20554043D01*
X14351002Y-20573058D01*
X14344335Y-20580694D01*
X12597277Y-22327752D01*
X12550781Y-22349434D01*
X12543789Y-22349718D01*
X12431376Y-22349031D01*
X12426245Y-22350497D01*
X12426241Y-22350498D01*
X12298667Y-22386959D01*
X12298664Y-22386961D01*
X12293529Y-22388428D01*
X12289008Y-22391280D01*
X12289009Y-22391280D01*
X12181614Y-22459041D01*
X12172280Y-22464930D01*
X12077377Y-22572388D01*
X12075108Y-22577220D01*
X12075107Y-22577222D01*
X12018716Y-22697330D01*
X12016447Y-22702163D01*
X11994391Y-22843823D01*
X7894846Y-22843823D01*
X7880935Y-22797749D01*
X7871195Y-22779430D01*
X7785941Y-22619089D01*
X7785940Y-22619087D01*
X7784218Y-22615849D01*
X7654011Y-22456200D01*
X7566244Y-22383593D01*
X7498102Y-22327220D01*
X7498097Y-22327217D01*
X7495275Y-22324882D01*
X7314055Y-22226897D01*
X7117254Y-22165977D01*
X7071166Y-22161133D01*
X6916017Y-22144826D01*
X6916013Y-22144826D01*
X6912369Y-22144443D01*
X6707203Y-22163114D01*
X6577444Y-22201304D01*
X6513088Y-22220245D01*
X6513086Y-22220246D01*
X6509572Y-22221280D01*
X6506321Y-22222980D01*
X6506320Y-22222980D01*
X6330257Y-22315024D01*
X6330255Y-22315026D01*
X6327002Y-22316726D01*
X6166447Y-22445815D01*
X6164090Y-22448624D01*
X6164088Y-22448626D01*
X6147045Y-22468937D01*
X6034024Y-22603630D01*
X5934776Y-22784162D01*
X5933667Y-22787657D01*
X5933666Y-22787660D01*
X5917524Y-22838546D01*
X5872484Y-22980532D01*
X5849520Y-23185262D01*
X5419138Y-23185262D01*
X5400480Y-22994970D01*
X5340935Y-22797749D01*
X5331195Y-22779430D01*
X5245941Y-22619089D01*
X5245940Y-22619087D01*
X5244218Y-22615849D01*
X5114011Y-22456200D01*
X5026244Y-22383593D01*
X4958102Y-22327220D01*
X4958097Y-22327217D01*
X4955275Y-22324882D01*
X4774055Y-22226897D01*
X4577254Y-22165977D01*
X4531166Y-22161133D01*
X4376017Y-22144826D01*
X4376013Y-22144826D01*
X4372369Y-22144443D01*
X4167203Y-22163114D01*
X4037444Y-22201304D01*
X3973088Y-22220245D01*
X3973086Y-22220246D01*
X3969572Y-22221280D01*
X3966321Y-22222980D01*
X3966320Y-22222980D01*
X3790257Y-22315024D01*
X3790255Y-22315026D01*
X3787002Y-22316726D01*
X3626447Y-22445815D01*
X3624090Y-22448624D01*
X3624088Y-22448626D01*
X3607045Y-22468937D01*
X3494024Y-22603630D01*
X3394776Y-22784162D01*
X3393667Y-22787657D01*
X3393666Y-22787660D01*
X3377524Y-22838546D01*
X3332484Y-22980532D01*
X3309520Y-23185262D01*
X2875500Y-23185262D01*
X2875500Y-22330252D01*
X2863867Y-22271769D01*
X2819552Y-22205448D01*
X2753231Y-22161133D01*
X2694748Y-22149500D01*
X2061394Y-22149500D01*
X2013185Y-22131953D01*
X1987533Y-22087524D01*
X1996442Y-22037000D01*
X2035742Y-22004023D01*
X2051864Y-22000108D01*
X2105255Y-21993269D01*
X2111262Y-21991992D01*
X2319252Y-21929592D01*
X2324966Y-21927352D01*
X2519973Y-21831819D01*
X2525241Y-21828679D01*
X2702036Y-21702573D01*
X2706713Y-21698621D01*
X2860530Y-21545339D01*
X2864512Y-21540660D01*
X2991226Y-21364318D01*
X2994387Y-21359057D01*
X3090597Y-21164392D01*
X3092860Y-21158678D01*
X3155985Y-20950910D01*
X3157282Y-20944907D01*
X3174744Y-20812269D01*
X3198433Y-20766762D01*
X3245830Y-20747129D01*
X3294759Y-20762556D01*
X3322324Y-20805825D01*
X3323839Y-20815782D01*
X3326759Y-20850553D01*
X3383544Y-21048586D01*
X3385220Y-21051848D01*
X3385222Y-21051852D01*
X3443060Y-21164392D01*
X3477712Y-21231818D01*
X3479990Y-21234692D01*
X3603397Y-21390394D01*
X3603400Y-21390397D01*
X3605677Y-21393270D01*
X3762564Y-21526791D01*
X3942398Y-21627297D01*
X3945884Y-21628430D01*
X3945887Y-21628431D01*
X3997288Y-21645132D01*
X4138329Y-21690959D01*
X4212701Y-21699827D01*
X4339243Y-21714916D01*
X4339246Y-21714916D01*
X4342894Y-21715351D01*
X4548300Y-21699546D01*
X4611009Y-21682038D01*
X4743191Y-21645132D01*
X4743194Y-21645131D01*
X4746725Y-21644145D01*
X4930610Y-21551258D01*
X4933499Y-21549001D01*
X4933502Y-21548999D01*
X5090061Y-21426682D01*
X5090062Y-21426681D01*
X5092951Y-21424424D01*
X5227564Y-21268472D01*
X5329323Y-21089344D01*
X5394351Y-20893863D01*
X5420171Y-20689474D01*
X5420583Y-20660000D01*
X5419138Y-20645262D01*
X5849520Y-20645262D01*
X5849827Y-20648918D01*
X5849827Y-20648919D01*
X5860415Y-20775000D01*
X5866759Y-20850553D01*
X5923544Y-21048586D01*
X5925220Y-21051848D01*
X5925222Y-21051852D01*
X5983060Y-21164392D01*
X6017712Y-21231818D01*
X6019990Y-21234692D01*
X6143397Y-21390394D01*
X6143400Y-21390397D01*
X6145677Y-21393270D01*
X6302564Y-21526791D01*
X6482398Y-21627297D01*
X6485884Y-21628430D01*
X6485887Y-21628431D01*
X6537288Y-21645132D01*
X6678329Y-21690959D01*
X6752701Y-21699827D01*
X6879243Y-21714916D01*
X6879246Y-21714916D01*
X6882894Y-21715351D01*
X7088300Y-21699546D01*
X7151009Y-21682038D01*
X7283191Y-21645132D01*
X7283194Y-21645131D01*
X7286725Y-21644145D01*
X7470610Y-21551258D01*
X7473499Y-21549001D01*
X7473502Y-21548999D01*
X7630061Y-21426682D01*
X7630062Y-21426681D01*
X7632951Y-21424424D01*
X7767564Y-21268472D01*
X7869323Y-21089344D01*
X7934351Y-20893863D01*
X7960171Y-20689474D01*
X7960583Y-20660000D01*
X7940480Y-20454970D01*
X7880935Y-20257749D01*
X7862909Y-20223847D01*
X7785941Y-20079089D01*
X7785940Y-20079087D01*
X7784218Y-20075849D01*
X7654011Y-19916200D01*
X7519590Y-19804997D01*
X7498102Y-19787220D01*
X7498097Y-19787217D01*
X7495275Y-19784882D01*
X7314055Y-19686897D01*
X7117254Y-19625977D01*
X7075280Y-19621565D01*
X6916017Y-19604826D01*
X6916013Y-19604826D01*
X6912369Y-19604443D01*
X6707203Y-19623114D01*
X6606587Y-19652727D01*
X6513088Y-19680245D01*
X6513086Y-19680246D01*
X6509572Y-19681280D01*
X6506321Y-19682980D01*
X6506320Y-19682980D01*
X6330257Y-19775024D01*
X6330255Y-19775026D01*
X6327002Y-19776726D01*
X6166447Y-19905815D01*
X6034024Y-20063630D01*
X5934776Y-20244162D01*
X5933667Y-20247657D01*
X5933666Y-20247660D01*
X5912478Y-20314454D01*
X5872484Y-20440532D01*
X5849520Y-20645262D01*
X5419138Y-20645262D01*
X5400480Y-20454970D01*
X5340935Y-20257749D01*
X5322909Y-20223847D01*
X5245941Y-20079089D01*
X5245940Y-20079087D01*
X5244218Y-20075849D01*
X5114011Y-19916200D01*
X4979590Y-19804997D01*
X4958102Y-19787220D01*
X4958097Y-19787217D01*
X4955275Y-19784882D01*
X4774055Y-19686897D01*
X4577254Y-19625977D01*
X4535280Y-19621565D01*
X4376017Y-19604826D01*
X4376013Y-19604826D01*
X4372369Y-19604443D01*
X4167203Y-19623114D01*
X4066587Y-19652727D01*
X3973088Y-19680245D01*
X3973086Y-19680246D01*
X3969572Y-19681280D01*
X3966321Y-19682980D01*
X3966320Y-19682980D01*
X3790257Y-19775024D01*
X3790255Y-19775026D01*
X3787002Y-19776726D01*
X3626447Y-19905815D01*
X3494024Y-20063630D01*
X3394776Y-20244162D01*
X3393667Y-20247657D01*
X3393666Y-20247660D01*
X3372478Y-20314454D01*
X3332484Y-20440532D01*
X3324964Y-20507581D01*
X3324536Y-20511394D01*
X3301725Y-20557347D01*
X3254713Y-20577886D01*
X3205497Y-20563401D01*
X3177106Y-20520670D01*
X3175255Y-20509180D01*
X3169609Y-20440506D01*
X3168607Y-20434458D01*
X3115704Y-20223847D01*
X3113730Y-20218047D01*
X3027138Y-20018896D01*
X3024242Y-20013496D01*
X2906291Y-19831171D01*
X2902541Y-19826301D01*
X2756405Y-19665701D01*
X2751904Y-19661504D01*
X2581505Y-19526931D01*
X2576380Y-19523526D01*
X2386276Y-19418582D01*
X2380684Y-19416069D01*
X2175983Y-19343581D01*
X2170058Y-19342015D01*
X2092019Y-19328114D01*
X2081399Y-19329968D01*
X2079000Y-19332816D01*
X2079000Y-20839000D01*
X2061453Y-20887209D01*
X2017024Y-20912861D01*
X2004000Y-20914000D01*
X503335Y-20914000D01*
X493203Y-20917688D01*
X491724Y-20920249D01*
X152000Y-20920249D01*
X152000Y-20396685D01*
X488695Y-20396685D01*
X490335Y-20403316D01*
X494015Y-20406000D01*
X1557775Y-20406000D01*
X1567907Y-20402312D01*
X1571000Y-20396955D01*
X1571000Y-19338212D01*
X1567312Y-19328080D01*
X1563850Y-19326081D01*
X1512253Y-19333977D01*
X1506282Y-19335399D01*
X1299870Y-19402865D01*
X1294224Y-19405238D01*
X1101601Y-19505512D01*
X1096415Y-19508777D01*
X922757Y-19639164D01*
X918174Y-19643232D01*
X768145Y-19800229D01*
X764284Y-19804997D01*
X641911Y-19984389D01*
X638885Y-19989716D01*
X547455Y-20186685D01*
X545336Y-20192445D01*
X488695Y-20396685D01*
X152000Y-20396685D01*
X152000Y-19293823D01*
X10794391Y-19293823D01*
X10795083Y-19299115D01*
X10795083Y-19299118D01*
X10808650Y-19402865D01*
X10812980Y-19435979D01*
X10870720Y-19567203D01*
X10874159Y-19571294D01*
X10874160Y-19571296D01*
X10952957Y-19665036D01*
X10962970Y-19676948D01*
X11082313Y-19756390D01*
X11087409Y-19757982D01*
X11087411Y-19757983D01*
X11167933Y-19783139D01*
X11219157Y-19799142D01*
X11362499Y-19801770D01*
X11424443Y-19784882D01*
X11495662Y-19765466D01*
X11495666Y-19765464D01*
X11500817Y-19764060D01*
X11505367Y-19761266D01*
X11505370Y-19761265D01*
X11601752Y-19702086D01*
X11640995Y-19691000D01*
X11911928Y-19691000D01*
X11917537Y-19689177D01*
X11917540Y-19689177D01*
X11935940Y-19683198D01*
X11947385Y-19680450D01*
X11966500Y-19677423D01*
X11966502Y-19677422D01*
X11972332Y-19676499D01*
X11979482Y-19672856D01*
X11994829Y-19665036D01*
X12005703Y-19660532D01*
X12024108Y-19654552D01*
X12024112Y-19654550D01*
X12029723Y-19652727D01*
X12034495Y-19649260D01*
X12034499Y-19649258D01*
X12050158Y-19637881D01*
X12060189Y-19631734D01*
X12082689Y-19620269D01*
X12170269Y-19532689D01*
X12170270Y-19532687D01*
X12652664Y-19050293D01*
X12685970Y-19030967D01*
X12815465Y-18995663D01*
X12815469Y-18995661D01*
X12820620Y-18994257D01*
X12825170Y-18991463D01*
X12825173Y-18991462D01*
X12938239Y-18922039D01*
X12938240Y-18922038D01*
X12942794Y-18919242D01*
X13015943Y-18838428D01*
X13035420Y-18816910D01*
X13035421Y-18816908D01*
X13039003Y-18812951D01*
X13101513Y-18683930D01*
X13102399Y-18678665D01*
X13102400Y-18678661D01*
X13124818Y-18545411D01*
X13124818Y-18545409D01*
X13125299Y-18542551D01*
X13125450Y-18530197D01*
X13105126Y-18388279D01*
X13045787Y-18257769D01*
X12952203Y-18149160D01*
X12831898Y-18071182D01*
X12694542Y-18030104D01*
X12689200Y-18030071D01*
X12689198Y-18030071D01*
X12625120Y-18029680D01*
X12551179Y-18029228D01*
X12546048Y-18030694D01*
X12546044Y-18030695D01*
X12418470Y-18067156D01*
X12418467Y-18067158D01*
X12413332Y-18068625D01*
X12292083Y-18145127D01*
X12288545Y-18149133D01*
X12288544Y-18149134D01*
X12200717Y-18248580D01*
X12197180Y-18252585D01*
X12136250Y-18382360D01*
X12135429Y-18387635D01*
X12135428Y-18387637D01*
X12125552Y-18451070D01*
X12104478Y-18492565D01*
X11710010Y-18887033D01*
X11663514Y-18908715D01*
X11656977Y-18909000D01*
X11639210Y-18909000D01*
X11598417Y-18896936D01*
X11516578Y-18843891D01*
X11512095Y-18840985D01*
X11374739Y-18799907D01*
X11369397Y-18799874D01*
X11369395Y-18799874D01*
X11305317Y-18799483D01*
X11231376Y-18799031D01*
X11226245Y-18800497D01*
X11226241Y-18800498D01*
X11098667Y-18836959D01*
X11098664Y-18836961D01*
X11093529Y-18838428D01*
X11089008Y-18841280D01*
X11089009Y-18841280D01*
X10981679Y-18909000D01*
X10972280Y-18914930D01*
X10968742Y-18918936D01*
X10968741Y-18918937D01*
X10880914Y-19018383D01*
X10877377Y-19022388D01*
X10875108Y-19027220D01*
X10875107Y-19027222D01*
X10864275Y-19050293D01*
X10816447Y-19152163D01*
X10794391Y-19293823D01*
X152000Y-19293823D01*
X152000Y-15493823D01*
X3694391Y-15493823D01*
X3695083Y-15499115D01*
X3695083Y-15499118D01*
X3703352Y-15562354D01*
X3712980Y-15635979D01*
X3770720Y-15767203D01*
X3774159Y-15771294D01*
X3774160Y-15771296D01*
X3854778Y-15867203D01*
X3862970Y-15876948D01*
X3982313Y-15956390D01*
X3987409Y-15957982D01*
X3987411Y-15957983D01*
X4057594Y-15979909D01*
X4119157Y-15999142D01*
X4262499Y-16001770D01*
X4311941Y-15988291D01*
X4395662Y-15965466D01*
X4395666Y-15965464D01*
X4400817Y-15964060D01*
X4405367Y-15961266D01*
X4405370Y-15961265D01*
X4518436Y-15891842D01*
X4518437Y-15891841D01*
X4522991Y-15889045D01*
X4589591Y-15815466D01*
X4615616Y-15786714D01*
X4615617Y-15786712D01*
X4619200Y-15782754D01*
X4621529Y-15777947D01*
X4624150Y-15774061D01*
X4665654Y-15743906D01*
X4686328Y-15741000D01*
X5311400Y-15741000D01*
X5352959Y-15753567D01*
X5432313Y-15806390D01*
X5437409Y-15807982D01*
X5437411Y-15807983D01*
X5501311Y-15827946D01*
X5569157Y-15849142D01*
X5712499Y-15851770D01*
X5782249Y-15832754D01*
X5845662Y-15815466D01*
X5845666Y-15815464D01*
X5850817Y-15814060D01*
X5855367Y-15811266D01*
X5855370Y-15811265D01*
X5968436Y-15741842D01*
X5968437Y-15741841D01*
X5972991Y-15739045D01*
X6009723Y-15698464D01*
X6065617Y-15636713D01*
X6065618Y-15636711D01*
X6069200Y-15632754D01*
X6088062Y-15593823D01*
X7844391Y-15593823D01*
X7845083Y-15599115D01*
X7845083Y-15599118D01*
X7850543Y-15640873D01*
X7862980Y-15735979D01*
X7920720Y-15867203D01*
X7924159Y-15871294D01*
X7924160Y-15871296D01*
X8003318Y-15965466D01*
X8012970Y-15976948D01*
X8132313Y-16056390D01*
X8137409Y-16057982D01*
X8137411Y-16057983D01*
X8242798Y-16090907D01*
X8269157Y-16099142D01*
X8412499Y-16101770D01*
X8461941Y-16088291D01*
X8545662Y-16065466D01*
X8545666Y-16065464D01*
X8550817Y-16064060D01*
X8555367Y-16061266D01*
X8555370Y-16061265D01*
X8668436Y-15991842D01*
X8668437Y-15991841D01*
X8672991Y-15989045D01*
X8694151Y-15965668D01*
X8739509Y-15941703D01*
X8749753Y-15941000D01*
X9410900Y-15941000D01*
X9452459Y-15953567D01*
X9531813Y-16006390D01*
X9536909Y-16007982D01*
X9536911Y-16007983D01*
X9642298Y-16040907D01*
X9668657Y-16049142D01*
X9811999Y-16051770D01*
X9861441Y-16038291D01*
X9945162Y-16015466D01*
X9945166Y-16015464D01*
X9950317Y-16014060D01*
X9954867Y-16011266D01*
X9954870Y-16011265D01*
X10067936Y-15941842D01*
X10067937Y-15941841D01*
X10072491Y-15939045D01*
X10115217Y-15891842D01*
X10165117Y-15836713D01*
X10165118Y-15836711D01*
X10168700Y-15832754D01*
X10231210Y-15703733D01*
X10232096Y-15698468D01*
X10232097Y-15698464D01*
X10254515Y-15565214D01*
X10254515Y-15565212D01*
X10254996Y-15562354D01*
X10255147Y-15550000D01*
X10234823Y-15408082D01*
X10175484Y-15277572D01*
X10081900Y-15168963D01*
X10039191Y-15141280D01*
X10016328Y-15126461D01*
X9961595Y-15090985D01*
X9824239Y-15049907D01*
X9818897Y-15049874D01*
X9818895Y-15049874D01*
X9754817Y-15049483D01*
X9680876Y-15049031D01*
X9675745Y-15050497D01*
X9675741Y-15050498D01*
X9548167Y-15086959D01*
X9548164Y-15086961D01*
X9543029Y-15088428D01*
X9538508Y-15091280D01*
X9538509Y-15091280D01*
X9449516Y-15147430D01*
X9409495Y-15159000D01*
X8612069Y-15159000D01*
X8571275Y-15146935D01*
X8566580Y-15143892D01*
X8562095Y-15140985D01*
X8424739Y-15099907D01*
X8419397Y-15099874D01*
X8419395Y-15099874D01*
X8355317Y-15099483D01*
X8281376Y-15099031D01*
X8276245Y-15100497D01*
X8276241Y-15100498D01*
X8148667Y-15136959D01*
X8148664Y-15136961D01*
X8143529Y-15138428D01*
X8022280Y-15214930D01*
X8018742Y-15218936D01*
X8018741Y-15218937D01*
X7930914Y-15318383D01*
X7927377Y-15322388D01*
X7925108Y-15327220D01*
X7925107Y-15327222D01*
X7907270Y-15365214D01*
X7866447Y-15452163D01*
X7844391Y-15593823D01*
X6088062Y-15593823D01*
X6131710Y-15503733D01*
X6132596Y-15498468D01*
X6132597Y-15498464D01*
X6155015Y-15365214D01*
X6155015Y-15365212D01*
X6155496Y-15362354D01*
X6155557Y-15357440D01*
X6155612Y-15352901D01*
X6155612Y-15352895D01*
X6155647Y-15350000D01*
X6135323Y-15208082D01*
X6082217Y-15091280D01*
X6078197Y-15082439D01*
X6078197Y-15082438D01*
X6075984Y-15077572D01*
X5982400Y-14968963D01*
X5967741Y-14959461D01*
X5866578Y-14893891D01*
X5862095Y-14890985D01*
X5724739Y-14849907D01*
X5719397Y-14849874D01*
X5719395Y-14849874D01*
X5655317Y-14849483D01*
X5581376Y-14849031D01*
X5576245Y-14850497D01*
X5576241Y-14850498D01*
X5448667Y-14886959D01*
X5448664Y-14886961D01*
X5443529Y-14888428D01*
X5439008Y-14891280D01*
X5439009Y-14891280D01*
X5350016Y-14947430D01*
X5309995Y-14959000D01*
X4319226Y-14959000D01*
X4277351Y-14965632D01*
X4233499Y-14972577D01*
X4233496Y-14972578D01*
X4227668Y-14973501D01*
X4193276Y-14991025D01*
X4158770Y-14999198D01*
X4146328Y-14999122D01*
X4131376Y-14999031D01*
X4126245Y-15000497D01*
X4126241Y-15000498D01*
X3998667Y-15036959D01*
X3998664Y-15036961D01*
X3993529Y-15038428D01*
X3989008Y-15041280D01*
X3989009Y-15041280D01*
X3897479Y-15099031D01*
X3872280Y-15114930D01*
X3868742Y-15118936D01*
X3868741Y-15118937D01*
X3786482Y-15212078D01*
X3777377Y-15222388D01*
X3775108Y-15227220D01*
X3775107Y-15227222D01*
X3718716Y-15347330D01*
X3716447Y-15352163D01*
X3715626Y-15357437D01*
X3715625Y-15357440D01*
X3714860Y-15362354D01*
X3694391Y-15493823D01*
X152000Y-15493823D01*
X152000Y-9692769D01*
X3234503Y-9692769D01*
X3234999Y-9697262D01*
X3234999Y-9697265D01*
X3250619Y-9838746D01*
X3252710Y-9857684D01*
X3309729Y-10013496D01*
X3402268Y-10151210D01*
X3524986Y-10262874D01*
X3670797Y-10342043D01*
X3675167Y-10343190D01*
X3675171Y-10343191D01*
X3751041Y-10363095D01*
X3831284Y-10384146D01*
X3997181Y-10386752D01*
X4001585Y-10385743D01*
X4001588Y-10385743D01*
X4154504Y-10350720D01*
X4154503Y-10350720D01*
X4158910Y-10349711D01*
X4307136Y-10275161D01*
X4310569Y-10272229D01*
X4310572Y-10272227D01*
X4429861Y-10170345D01*
X4433301Y-10167407D01*
X4530120Y-10032668D01*
X4592006Y-9878724D01*
X4615384Y-9714461D01*
X4615535Y-9700000D01*
X4595602Y-9535284D01*
X4536955Y-9380078D01*
X4442978Y-9243341D01*
X4439601Y-9240332D01*
X4322477Y-9135978D01*
X4322474Y-9135976D01*
X4319098Y-9132968D01*
X4172466Y-9055330D01*
X4168078Y-9054228D01*
X4168076Y-9054227D01*
X4015932Y-9016011D01*
X4015929Y-9016011D01*
X4011547Y-9014910D01*
X4007031Y-9014886D01*
X4007028Y-9014886D01*
X3927965Y-9014472D01*
X3845632Y-9014041D01*
X3684299Y-9052774D01*
X3536862Y-9128872D01*
X3492377Y-9167678D01*
X3415238Y-9234970D01*
X3415235Y-9234974D01*
X3411832Y-9237942D01*
X3409233Y-9241639D01*
X3409232Y-9241641D01*
X3405417Y-9247069D01*
X3316429Y-9373687D01*
X3256159Y-9528271D01*
X3234503Y-9692769D01*
X152000Y-9692769D01*
X152000Y-5125000D01*
X169547Y-5076791D01*
X213976Y-5051139D01*
X227000Y-5050000D01*
X3403461Y-5050000D01*
X3433068Y-5056091D01*
G37*
%TD.AperFunction*%
%TD*%
M02*
