%TF.GenerationSoftware,KiCad,Pcbnew,(6.0.1)*%
%TF.CreationDate,2022-02-08T09:51:35-07:00*%
%TF.ProjectId,NoteDetector,4e6f7465-4465-4746-9563-746f722e6b69,rev?*%
%TF.SameCoordinates,Original*%
%TF.FileFunction,Legend,Top*%
%TF.FilePolarity,Positive*%
%FSLAX46Y46*%
G04 Gerber Fmt 4.6, Leading zero omitted, Abs format (unit mm)*
G04 Created by KiCad (PCBNEW (6.0.1)) date 2022-02-08 09:51:35*
%MOMM*%
%LPD*%
G01*
G04 APERTURE LIST*
%ADD10C,0.100000*%
%ADD11C,0.150000*%
%ADD12C,0.120000*%
G04 APERTURE END LIST*
D10*
X18257142Y-2605428D02*
X18257142Y-2005428D01*
X18600000Y-2605428D01*
X18600000Y-2005428D01*
X18971428Y-2605428D02*
X18914285Y-2576857D01*
X18885714Y-2548285D01*
X18857142Y-2491142D01*
X18857142Y-2319714D01*
X18885714Y-2262571D01*
X18914285Y-2234000D01*
X18971428Y-2205428D01*
X19057142Y-2205428D01*
X19114285Y-2234000D01*
X19142857Y-2262571D01*
X19171428Y-2319714D01*
X19171428Y-2491142D01*
X19142857Y-2548285D01*
X19114285Y-2576857D01*
X19057142Y-2605428D01*
X18971428Y-2605428D01*
X19342857Y-2205428D02*
X19571428Y-2205428D01*
X19428571Y-2005428D02*
X19428571Y-2519714D01*
X19457142Y-2576857D01*
X19514285Y-2605428D01*
X19571428Y-2605428D01*
X20000000Y-2576857D02*
X19942857Y-2605428D01*
X19828571Y-2605428D01*
X19771428Y-2576857D01*
X19742857Y-2519714D01*
X19742857Y-2291142D01*
X19771428Y-2234000D01*
X19828571Y-2205428D01*
X19942857Y-2205428D01*
X20000000Y-2234000D01*
X20028571Y-2291142D01*
X20028571Y-2348285D01*
X19742857Y-2405428D01*
X21000000Y-2605428D02*
X21000000Y-2005428D01*
X21000000Y-2576857D02*
X20942857Y-2605428D01*
X20828571Y-2605428D01*
X20771428Y-2576857D01*
X20742857Y-2548285D01*
X20714285Y-2491142D01*
X20714285Y-2319714D01*
X20742857Y-2262571D01*
X20771428Y-2234000D01*
X20828571Y-2205428D01*
X20942857Y-2205428D01*
X21000000Y-2234000D01*
X21514285Y-2576857D02*
X21457142Y-2605428D01*
X21342857Y-2605428D01*
X21285714Y-2576857D01*
X21257142Y-2519714D01*
X21257142Y-2291142D01*
X21285714Y-2234000D01*
X21342857Y-2205428D01*
X21457142Y-2205428D01*
X21514285Y-2234000D01*
X21542857Y-2291142D01*
X21542857Y-2348285D01*
X21257142Y-2405428D01*
X21714285Y-2205428D02*
X21942857Y-2205428D01*
X21800000Y-2005428D02*
X21800000Y-2519714D01*
X21828571Y-2576857D01*
X21885714Y-2605428D01*
X21942857Y-2605428D01*
X22371428Y-2576857D02*
X22314285Y-2605428D01*
X22200000Y-2605428D01*
X22142857Y-2576857D01*
X22114285Y-2519714D01*
X22114285Y-2291142D01*
X22142857Y-2234000D01*
X22200000Y-2205428D01*
X22314285Y-2205428D01*
X22371428Y-2234000D01*
X22400000Y-2291142D01*
X22400000Y-2348285D01*
X22114285Y-2405428D01*
X22914285Y-2576857D02*
X22857142Y-2605428D01*
X22742857Y-2605428D01*
X22685714Y-2576857D01*
X22657142Y-2548285D01*
X22628571Y-2491142D01*
X22628571Y-2319714D01*
X22657142Y-2262571D01*
X22685714Y-2234000D01*
X22742857Y-2205428D01*
X22857142Y-2205428D01*
X22914285Y-2234000D01*
X23085714Y-2205428D02*
X23314285Y-2205428D01*
X23171428Y-2005428D02*
X23171428Y-2519714D01*
X23200000Y-2576857D01*
X23257142Y-2605428D01*
X23314285Y-2605428D01*
X23600000Y-2605428D02*
X23542857Y-2576857D01*
X23514285Y-2548285D01*
X23485714Y-2491142D01*
X23485714Y-2319714D01*
X23514285Y-2262571D01*
X23542857Y-2234000D01*
X23600000Y-2205428D01*
X23685714Y-2205428D01*
X23742857Y-2234000D01*
X23771428Y-2262571D01*
X23800000Y-2319714D01*
X23800000Y-2491142D01*
X23771428Y-2548285D01*
X23742857Y-2576857D01*
X23685714Y-2605428D01*
X23600000Y-2605428D01*
X24057142Y-2605428D02*
X24057142Y-2205428D01*
X24057142Y-2319714D02*
X24085714Y-2262571D01*
X24114285Y-2234000D01*
X24171428Y-2205428D01*
X24228571Y-2205428D01*
X18185714Y-3571428D02*
X18185714Y-2971428D01*
X18414285Y-2971428D01*
X18471428Y-3000000D01*
X18500000Y-3028571D01*
X18528571Y-3085714D01*
X18528571Y-3171428D01*
X18500000Y-3228571D01*
X18471428Y-3257142D01*
X18414285Y-3285714D01*
X18185714Y-3285714D01*
X18785714Y-3571428D02*
X18785714Y-3171428D01*
X18785714Y-3285714D02*
X18814285Y-3228571D01*
X18842857Y-3200000D01*
X18900000Y-3171428D01*
X18957142Y-3171428D01*
X19242857Y-3571428D02*
X19185714Y-3542857D01*
X19157142Y-3514285D01*
X19128571Y-3457142D01*
X19128571Y-3285714D01*
X19157142Y-3228571D01*
X19185714Y-3200000D01*
X19242857Y-3171428D01*
X19328571Y-3171428D01*
X19385714Y-3200000D01*
X19414285Y-3228571D01*
X19442857Y-3285714D01*
X19442857Y-3457142D01*
X19414285Y-3514285D01*
X19385714Y-3542857D01*
X19328571Y-3571428D01*
X19242857Y-3571428D01*
X19614285Y-3171428D02*
X19842857Y-3171428D01*
X19700000Y-2971428D02*
X19700000Y-3485714D01*
X19728571Y-3542857D01*
X19785714Y-3571428D01*
X19842857Y-3571428D01*
X20128571Y-3571428D02*
X20071428Y-3542857D01*
X20042857Y-3514285D01*
X20014285Y-3457142D01*
X20014285Y-3285714D01*
X20042857Y-3228571D01*
X20071428Y-3200000D01*
X20128571Y-3171428D01*
X20214285Y-3171428D01*
X20271428Y-3200000D01*
X20300000Y-3228571D01*
X20328571Y-3285714D01*
X20328571Y-3457142D01*
X20300000Y-3514285D01*
X20271428Y-3542857D01*
X20214285Y-3571428D01*
X20128571Y-3571428D01*
X21385714Y-3571428D02*
X21185714Y-3285714D01*
X21042857Y-3571428D02*
X21042857Y-2971428D01*
X21271428Y-2971428D01*
X21328571Y-3000000D01*
X21357142Y-3028571D01*
X21385714Y-3085714D01*
X21385714Y-3171428D01*
X21357142Y-3228571D01*
X21328571Y-3257142D01*
X21271428Y-3285714D01*
X21042857Y-3285714D01*
X21871428Y-3542857D02*
X21814285Y-3571428D01*
X21700000Y-3571428D01*
X21642857Y-3542857D01*
X21614285Y-3485714D01*
X21614285Y-3257142D01*
X21642857Y-3200000D01*
X21700000Y-3171428D01*
X21814285Y-3171428D01*
X21871428Y-3200000D01*
X21900000Y-3257142D01*
X21900000Y-3314285D01*
X21614285Y-3371428D01*
X22100000Y-3171428D02*
X22242857Y-3571428D01*
X22385714Y-3171428D01*
X23185714Y-2971428D02*
X23242857Y-2971428D01*
X23300000Y-3000000D01*
X23328571Y-3028571D01*
X23357142Y-3085714D01*
X23385714Y-3200000D01*
X23385714Y-3342857D01*
X23357142Y-3457142D01*
X23328571Y-3514285D01*
X23300000Y-3542857D01*
X23242857Y-3571428D01*
X23185714Y-3571428D01*
X23128571Y-3542857D01*
X23100000Y-3514285D01*
X23071428Y-3457142D01*
X23042857Y-3342857D01*
X23042857Y-3200000D01*
X23071428Y-3085714D01*
X23100000Y-3028571D01*
X23128571Y-3000000D01*
X23185714Y-2971428D01*
X23642857Y-3514285D02*
X23671428Y-3542857D01*
X23642857Y-3571428D01*
X23614285Y-3542857D01*
X23642857Y-3514285D01*
X23642857Y-3571428D01*
X24242857Y-3571428D02*
X23900000Y-3571428D01*
X24071428Y-3571428D02*
X24071428Y-2971428D01*
X24014285Y-3057142D01*
X23957142Y-3114285D01*
X23900000Y-3142857D01*
X18971428Y-3994571D02*
X19000000Y-3966000D01*
X19057142Y-3937428D01*
X19200000Y-3937428D01*
X19257142Y-3966000D01*
X19285714Y-3994571D01*
X19314285Y-4051714D01*
X19314285Y-4108857D01*
X19285714Y-4194571D01*
X18942857Y-4537428D01*
X19314285Y-4537428D01*
X20000000Y-3908857D02*
X19485714Y-4680285D01*
X20285714Y-4194571D02*
X20228571Y-4166000D01*
X20200000Y-4137428D01*
X20171428Y-4080285D01*
X20171428Y-4051714D01*
X20200000Y-3994571D01*
X20228571Y-3966000D01*
X20285714Y-3937428D01*
X20400000Y-3937428D01*
X20457142Y-3966000D01*
X20485714Y-3994571D01*
X20514285Y-4051714D01*
X20514285Y-4080285D01*
X20485714Y-4137428D01*
X20457142Y-4166000D01*
X20400000Y-4194571D01*
X20285714Y-4194571D01*
X20228571Y-4223142D01*
X20200000Y-4251714D01*
X20171428Y-4308857D01*
X20171428Y-4423142D01*
X20200000Y-4480285D01*
X20228571Y-4508857D01*
X20285714Y-4537428D01*
X20400000Y-4537428D01*
X20457142Y-4508857D01*
X20485714Y-4480285D01*
X20514285Y-4423142D01*
X20514285Y-4308857D01*
X20485714Y-4251714D01*
X20457142Y-4223142D01*
X20400000Y-4194571D01*
X21200000Y-3908857D02*
X20685714Y-4680285D01*
X21371428Y-3994571D02*
X21400000Y-3966000D01*
X21457142Y-3937428D01*
X21600000Y-3937428D01*
X21657142Y-3966000D01*
X21685714Y-3994571D01*
X21714285Y-4051714D01*
X21714285Y-4108857D01*
X21685714Y-4194571D01*
X21342857Y-4537428D01*
X21714285Y-4537428D01*
X22085714Y-3937428D02*
X22142857Y-3937428D01*
X22200000Y-3966000D01*
X22228571Y-3994571D01*
X22257142Y-4051714D01*
X22285714Y-4166000D01*
X22285714Y-4308857D01*
X22257142Y-4423142D01*
X22228571Y-4480285D01*
X22200000Y-4508857D01*
X22142857Y-4537428D01*
X22085714Y-4537428D01*
X22028571Y-4508857D01*
X22000000Y-4480285D01*
X21971428Y-4423142D01*
X21942857Y-4308857D01*
X21942857Y-4166000D01*
X21971428Y-4051714D01*
X22000000Y-3994571D01*
X22028571Y-3966000D01*
X22085714Y-3937428D01*
X22514285Y-3994571D02*
X22542857Y-3966000D01*
X22600000Y-3937428D01*
X22742857Y-3937428D01*
X22800000Y-3966000D01*
X22828571Y-3994571D01*
X22857142Y-4051714D01*
X22857142Y-4108857D01*
X22828571Y-4194571D01*
X22485714Y-4537428D01*
X22857142Y-4537428D01*
X23085714Y-3994571D02*
X23114285Y-3966000D01*
X23171428Y-3937428D01*
X23314285Y-3937428D01*
X23371428Y-3966000D01*
X23400000Y-3994571D01*
X23428571Y-4051714D01*
X23428571Y-4108857D01*
X23400000Y-4194571D01*
X23057142Y-4537428D01*
X23428571Y-4537428D01*
D11*
X7400000Y-9650000D02*
X7500000Y-7800000D01*
D10*
X6514285Y-17267000D02*
X6457142Y-17238428D01*
X6371428Y-17238428D01*
X6285714Y-17267000D01*
X6228571Y-17324142D01*
X6200000Y-17381285D01*
X6171428Y-17495571D01*
X6171428Y-17581285D01*
X6200000Y-17695571D01*
X6228571Y-17752714D01*
X6285714Y-17809857D01*
X6371428Y-17838428D01*
X6428571Y-17838428D01*
X6514285Y-17809857D01*
X6542857Y-17781285D01*
X6542857Y-17581285D01*
X6428571Y-17581285D01*
X6800000Y-17438428D02*
X6800000Y-17838428D01*
X6800000Y-17495571D02*
X6828571Y-17467000D01*
X6885714Y-17438428D01*
X6971428Y-17438428D01*
X7028571Y-17467000D01*
X7057142Y-17524142D01*
X7057142Y-17838428D01*
X7600000Y-17838428D02*
X7600000Y-17238428D01*
X7600000Y-17809857D02*
X7542857Y-17838428D01*
X7428571Y-17838428D01*
X7371428Y-17809857D01*
X7342857Y-17781285D01*
X7314285Y-17724142D01*
X7314285Y-17552714D01*
X7342857Y-17495571D01*
X7371428Y-17467000D01*
X7428571Y-17438428D01*
X7542857Y-17438428D01*
X7600000Y-17467000D01*
X6514285Y-18404428D02*
X6514285Y-18804428D01*
X6514285Y-18461571D02*
X6542857Y-18433000D01*
X6600000Y-18404428D01*
X6685714Y-18404428D01*
X6742857Y-18433000D01*
X6771428Y-18490142D01*
X6771428Y-18804428D01*
X7314285Y-18775857D02*
X7257142Y-18804428D01*
X7142857Y-18804428D01*
X7085714Y-18775857D01*
X7057142Y-18747285D01*
X7028571Y-18690142D01*
X7028571Y-18518714D01*
X7057142Y-18461571D01*
X7085714Y-18433000D01*
X7142857Y-18404428D01*
X7257142Y-18404428D01*
X7314285Y-18433000D01*
X3964285Y-17438428D02*
X3964285Y-17838428D01*
X3964285Y-17495571D02*
X3992857Y-17467000D01*
X4050000Y-17438428D01*
X4135714Y-17438428D01*
X4192857Y-17467000D01*
X4221428Y-17524142D01*
X4221428Y-17838428D01*
X4764285Y-17809857D02*
X4707142Y-17838428D01*
X4592857Y-17838428D01*
X4535714Y-17809857D01*
X4507142Y-17781285D01*
X4478571Y-17724142D01*
X4478571Y-17552714D01*
X4507142Y-17495571D01*
X4535714Y-17467000D01*
X4592857Y-17438428D01*
X4707142Y-17438428D01*
X4764285Y-17467000D01*
X3964285Y-18404428D02*
X3964285Y-18804428D01*
X3964285Y-18461571D02*
X3992857Y-18433000D01*
X4050000Y-18404428D01*
X4135714Y-18404428D01*
X4192857Y-18433000D01*
X4221428Y-18490142D01*
X4221428Y-18804428D01*
X4764285Y-18775857D02*
X4707142Y-18804428D01*
X4592857Y-18804428D01*
X4535714Y-18775857D01*
X4507142Y-18747285D01*
X4478571Y-18690142D01*
X4478571Y-18518714D01*
X4507142Y-18461571D01*
X4535714Y-18433000D01*
X4592857Y-18404428D01*
X4707142Y-18404428D01*
X4764285Y-18433000D01*
X1228571Y-17088428D02*
X1428571Y-17688428D01*
X1628571Y-17088428D01*
X1828571Y-17459857D02*
X2285714Y-17459857D01*
X2057142Y-17688428D02*
X2057142Y-17231285D01*
X885714Y-18054428D02*
X885714Y-18540142D01*
X914285Y-18597285D01*
X942857Y-18625857D01*
X1000000Y-18654428D01*
X1114285Y-18654428D01*
X1171428Y-18625857D01*
X1200000Y-18597285D01*
X1228571Y-18540142D01*
X1228571Y-18054428D01*
X1514285Y-18654428D02*
X1514285Y-18054428D01*
X1742857Y-18054428D01*
X1800000Y-18083000D01*
X1828571Y-18111571D01*
X1857142Y-18168714D01*
X1857142Y-18254428D01*
X1828571Y-18311571D01*
X1800000Y-18340142D01*
X1742857Y-18368714D01*
X1514285Y-18368714D01*
X2114285Y-18654428D02*
X2114285Y-18054428D01*
X2257142Y-18054428D01*
X2342857Y-18083000D01*
X2400000Y-18140142D01*
X2428571Y-18197285D01*
X2457142Y-18311571D01*
X2457142Y-18397285D01*
X2428571Y-18511571D01*
X2400000Y-18568714D01*
X2342857Y-18625857D01*
X2257142Y-18654428D01*
X2114285Y-18654428D01*
X2714285Y-18654428D02*
X2714285Y-18054428D01*
X12828571Y-1250000D02*
X13114285Y-1250000D01*
X12771428Y-1421428D02*
X12971428Y-821428D01*
X13171428Y-1421428D01*
X13371428Y-1421428D02*
X13371428Y-1021428D01*
X13371428Y-1078571D02*
X13400000Y-1050000D01*
X13457142Y-1021428D01*
X13542857Y-1021428D01*
X13600000Y-1050000D01*
X13628571Y-1107142D01*
X13628571Y-1421428D01*
X13628571Y-1107142D02*
X13657142Y-1050000D01*
X13714285Y-1021428D01*
X13800000Y-1021428D01*
X13857142Y-1050000D01*
X13885714Y-1107142D01*
X13885714Y-1421428D01*
X14171428Y-1021428D02*
X14171428Y-1621428D01*
X14171428Y-1050000D02*
X14228571Y-1021428D01*
X14342857Y-1021428D01*
X14400000Y-1050000D01*
X14428571Y-1078571D01*
X14457142Y-1135714D01*
X14457142Y-1307142D01*
X14428571Y-1364285D01*
X14400000Y-1392857D01*
X14342857Y-1421428D01*
X14228571Y-1421428D01*
X14171428Y-1392857D01*
X15428571Y-1421428D02*
X15428571Y-1107142D01*
X15400000Y-1050000D01*
X15342857Y-1021428D01*
X15228571Y-1021428D01*
X15171428Y-1050000D01*
X15428571Y-1392857D02*
X15371428Y-1421428D01*
X15228571Y-1421428D01*
X15171428Y-1392857D01*
X15142857Y-1335714D01*
X15142857Y-1278571D01*
X15171428Y-1221428D01*
X15228571Y-1192857D01*
X15371428Y-1192857D01*
X15428571Y-1164285D01*
X15971428Y-1021428D02*
X15971428Y-1421428D01*
X15714285Y-1021428D02*
X15714285Y-1335714D01*
X15742857Y-1392857D01*
X15800000Y-1421428D01*
X15885714Y-1421428D01*
X15942857Y-1392857D01*
X15971428Y-1364285D01*
X16514285Y-1421428D02*
X16514285Y-821428D01*
X16514285Y-1392857D02*
X16457142Y-1421428D01*
X16342857Y-1421428D01*
X16285714Y-1392857D01*
X16257142Y-1364285D01*
X16228571Y-1307142D01*
X16228571Y-1135714D01*
X16257142Y-1078571D01*
X16285714Y-1050000D01*
X16342857Y-1021428D01*
X16457142Y-1021428D01*
X16514285Y-1050000D01*
X16800000Y-1421428D02*
X16800000Y-1021428D01*
X16800000Y-821428D02*
X16771428Y-850000D01*
X16800000Y-878571D01*
X16828571Y-850000D01*
X16800000Y-821428D01*
X16800000Y-878571D01*
X17171428Y-1421428D02*
X17114285Y-1392857D01*
X17085714Y-1364285D01*
X17057142Y-1307142D01*
X17057142Y-1135714D01*
X17085714Y-1078571D01*
X17114285Y-1050000D01*
X17171428Y-1021428D01*
X17257142Y-1021428D01*
X17314285Y-1050000D01*
X17342857Y-1078571D01*
X17371428Y-1135714D01*
X17371428Y-1307142D01*
X17342857Y-1364285D01*
X17314285Y-1392857D01*
X17257142Y-1421428D01*
X17171428Y-1421428D01*
X2142857Y-1821428D02*
X1942857Y-1535714D01*
X1799999Y-1821428D02*
X1799999Y-1221428D01*
X2028571Y-1221428D01*
X2085714Y-1250000D01*
X2114285Y-1278571D01*
X2142857Y-1335714D01*
X2142857Y-1421428D01*
X2114285Y-1478571D01*
X2085714Y-1507142D01*
X2028571Y-1535714D01*
X1799999Y-1535714D01*
X2657142Y-1821428D02*
X2657142Y-1507142D01*
X2628571Y-1450000D01*
X2571428Y-1421428D01*
X2457142Y-1421428D01*
X2399999Y-1450000D01*
X2657142Y-1792857D02*
X2599999Y-1821428D01*
X2457142Y-1821428D01*
X2399999Y-1792857D01*
X2371428Y-1735714D01*
X2371428Y-1678571D01*
X2399999Y-1621428D01*
X2457142Y-1592857D01*
X2599999Y-1592857D01*
X2657142Y-1564285D01*
X2885714Y-1421428D02*
X2999999Y-1821428D01*
X3114285Y-1535714D01*
X3228571Y-1821428D01*
X3342857Y-1421428D01*
X4285714Y-1821428D02*
X4285714Y-1507142D01*
X4257142Y-1450000D01*
X4200000Y-1421428D01*
X4085714Y-1421428D01*
X4028571Y-1450000D01*
X4285714Y-1792857D02*
X4228571Y-1821428D01*
X4085714Y-1821428D01*
X4028571Y-1792857D01*
X3999999Y-1735714D01*
X3999999Y-1678571D01*
X4028571Y-1621428D01*
X4085714Y-1592857D01*
X4228571Y-1592857D01*
X4285714Y-1564285D01*
X4828571Y-1421428D02*
X4828571Y-1821428D01*
X4571428Y-1421428D02*
X4571428Y-1735714D01*
X4600000Y-1792857D01*
X4657142Y-1821428D01*
X4742857Y-1821428D01*
X4800000Y-1792857D01*
X4828571Y-1764285D01*
X5371428Y-1821428D02*
X5371428Y-1221428D01*
X5371428Y-1792857D02*
X5314285Y-1821428D01*
X5200000Y-1821428D01*
X5142857Y-1792857D01*
X5114285Y-1764285D01*
X5085714Y-1707142D01*
X5085714Y-1535714D01*
X5114285Y-1478571D01*
X5142857Y-1450000D01*
X5200000Y-1421428D01*
X5314285Y-1421428D01*
X5371428Y-1450000D01*
X5657142Y-1821428D02*
X5657142Y-1421428D01*
X5657142Y-1221428D02*
X5628571Y-1250000D01*
X5657142Y-1278571D01*
X5685714Y-1250000D01*
X5657142Y-1221428D01*
X5657142Y-1278571D01*
X6028571Y-1821428D02*
X5971428Y-1792857D01*
X5942857Y-1764285D01*
X5914285Y-1707142D01*
X5914285Y-1535714D01*
X5942857Y-1478571D01*
X5971428Y-1450000D01*
X6028571Y-1421428D01*
X6114285Y-1421428D01*
X6171428Y-1450000D01*
X6200000Y-1478571D01*
X6228571Y-1535714D01*
X6228571Y-1707142D01*
X6200000Y-1764285D01*
X6171428Y-1792857D01*
X6114285Y-1821428D01*
X6028571Y-1821428D01*
%TO.C,C6*%
X10814285Y-23100000D02*
X10842857Y-23128571D01*
X10871428Y-23214285D01*
X10871428Y-23271428D01*
X10842857Y-23357142D01*
X10785714Y-23414285D01*
X10728571Y-23442857D01*
X10614285Y-23471428D01*
X10528571Y-23471428D01*
X10414285Y-23442857D01*
X10357142Y-23414285D01*
X10300000Y-23357142D01*
X10271428Y-23271428D01*
X10271428Y-23214285D01*
X10300000Y-23128571D01*
X10328571Y-23100000D01*
X10271428Y-22585714D02*
X10271428Y-22700000D01*
X10300000Y-22757142D01*
X10328571Y-22785714D01*
X10414285Y-22842857D01*
X10528571Y-22871428D01*
X10757142Y-22871428D01*
X10814285Y-22842857D01*
X10842857Y-22814285D01*
X10871428Y-22757142D01*
X10871428Y-22642857D01*
X10842857Y-22585714D01*
X10814285Y-22557142D01*
X10757142Y-22528571D01*
X10614285Y-22528571D01*
X10557142Y-22557142D01*
X10528571Y-22585714D01*
X10500000Y-22642857D01*
X10500000Y-22757142D01*
X10528571Y-22814285D01*
X10557142Y-22842857D01*
X10614285Y-22871428D01*
%TO.C,R3*%
X11100000Y-13301428D02*
X10900000Y-13015714D01*
X10757142Y-13301428D02*
X10757142Y-12701428D01*
X10985714Y-12701428D01*
X11042857Y-12730000D01*
X11071428Y-12758571D01*
X11100000Y-12815714D01*
X11100000Y-12901428D01*
X11071428Y-12958571D01*
X11042857Y-12987142D01*
X10985714Y-13015714D01*
X10757142Y-13015714D01*
X11300000Y-12701428D02*
X11671428Y-12701428D01*
X11471428Y-12930000D01*
X11557142Y-12930000D01*
X11614285Y-12958571D01*
X11642857Y-12987142D01*
X11671428Y-13044285D01*
X11671428Y-13187142D01*
X11642857Y-13244285D01*
X11614285Y-13272857D01*
X11557142Y-13301428D01*
X11385714Y-13301428D01*
X11328571Y-13272857D01*
X11300000Y-13244285D01*
%TO.C,C7*%
X12164285Y-23000000D02*
X12192857Y-23028571D01*
X12221428Y-23114285D01*
X12221428Y-23171428D01*
X12192857Y-23257142D01*
X12135714Y-23314285D01*
X12078571Y-23342857D01*
X11964285Y-23371428D01*
X11878571Y-23371428D01*
X11764285Y-23342857D01*
X11707142Y-23314285D01*
X11650000Y-23257142D01*
X11621428Y-23171428D01*
X11621428Y-23114285D01*
X11650000Y-23028571D01*
X11678571Y-23000000D01*
X11621428Y-22800000D02*
X11621428Y-22400000D01*
X12221428Y-22657142D01*
%TO.C,R9*%
X23071428Y-15350000D02*
X22785714Y-15550000D01*
X23071428Y-15692857D02*
X22471428Y-15692857D01*
X22471428Y-15464285D01*
X22500000Y-15407142D01*
X22528571Y-15378571D01*
X22585714Y-15350000D01*
X22671428Y-15350000D01*
X22728571Y-15378571D01*
X22757142Y-15407142D01*
X22785714Y-15464285D01*
X22785714Y-15692857D01*
X23071428Y-15064285D02*
X23071428Y-14950000D01*
X23042857Y-14892857D01*
X23014285Y-14864285D01*
X22928571Y-14807142D01*
X22814285Y-14778571D01*
X22585714Y-14778571D01*
X22528571Y-14807142D01*
X22500000Y-14835714D01*
X22471428Y-14892857D01*
X22471428Y-15007142D01*
X22500000Y-15064285D01*
X22528571Y-15092857D01*
X22585714Y-15121428D01*
X22728571Y-15121428D01*
X22785714Y-15092857D01*
X22814285Y-15064285D01*
X22842857Y-15007142D01*
X22842857Y-14892857D01*
X22814285Y-14835714D01*
X22785714Y-14807142D01*
X22728571Y-14778571D01*
%TO.C,C4*%
X20164285Y-6550000D02*
X20192857Y-6578571D01*
X20221428Y-6664285D01*
X20221428Y-6721428D01*
X20192857Y-6807142D01*
X20135714Y-6864285D01*
X20078571Y-6892857D01*
X19964285Y-6921428D01*
X19878571Y-6921428D01*
X19764285Y-6892857D01*
X19707142Y-6864285D01*
X19650000Y-6807142D01*
X19621428Y-6721428D01*
X19621428Y-6664285D01*
X19650000Y-6578571D01*
X19678571Y-6550000D01*
X19821428Y-6035714D02*
X20221428Y-6035714D01*
X19592857Y-6178571D02*
X20021428Y-6321428D01*
X20021428Y-5950000D01*
%TO.C,U1*%
X1742857Y-9471428D02*
X1742857Y-9957142D01*
X1771428Y-10014285D01*
X1800000Y-10042857D01*
X1857142Y-10071428D01*
X1971428Y-10071428D01*
X2028571Y-10042857D01*
X2057142Y-10014285D01*
X2085714Y-9957142D01*
X2085714Y-9471428D01*
X2685714Y-10071428D02*
X2342857Y-10071428D01*
X2514285Y-10071428D02*
X2514285Y-9471428D01*
X2457142Y-9557142D01*
X2400000Y-9614285D01*
X2342857Y-9642857D01*
%TO.C,R7*%
X19971428Y-15350000D02*
X19685714Y-15550000D01*
X19971428Y-15692857D02*
X19371428Y-15692857D01*
X19371428Y-15464285D01*
X19400000Y-15407142D01*
X19428571Y-15378571D01*
X19485714Y-15350000D01*
X19571428Y-15350000D01*
X19628571Y-15378571D01*
X19657142Y-15407142D01*
X19685714Y-15464285D01*
X19685714Y-15692857D01*
X19371428Y-15150000D02*
X19371428Y-14750000D01*
X19971428Y-15007142D01*
%TO.C,C3*%
X7250000Y-4864285D02*
X7221428Y-4892857D01*
X7135714Y-4921428D01*
X7078571Y-4921428D01*
X6992857Y-4892857D01*
X6935714Y-4835714D01*
X6907142Y-4778571D01*
X6878571Y-4664285D01*
X6878571Y-4578571D01*
X6907142Y-4464285D01*
X6935714Y-4407142D01*
X6992857Y-4350000D01*
X7078571Y-4321428D01*
X7135714Y-4321428D01*
X7221428Y-4350000D01*
X7250000Y-4378571D01*
X7450000Y-4321428D02*
X7821428Y-4321428D01*
X7621428Y-4550000D01*
X7707142Y-4550000D01*
X7764285Y-4578571D01*
X7792857Y-4607142D01*
X7821428Y-4664285D01*
X7821428Y-4807142D01*
X7792857Y-4864285D01*
X7764285Y-4892857D01*
X7707142Y-4921428D01*
X7535714Y-4921428D01*
X7478571Y-4892857D01*
X7450000Y-4864285D01*
%TO.C,C1*%
X5114285Y-12900000D02*
X5142857Y-12928571D01*
X5171428Y-13014285D01*
X5171428Y-13071428D01*
X5142857Y-13157142D01*
X5085714Y-13214285D01*
X5028571Y-13242857D01*
X4914285Y-13271428D01*
X4828571Y-13271428D01*
X4714285Y-13242857D01*
X4657142Y-13214285D01*
X4600000Y-13157142D01*
X4571428Y-13071428D01*
X4571428Y-13014285D01*
X4600000Y-12928571D01*
X4628571Y-12900000D01*
X5171428Y-12328571D02*
X5171428Y-12671428D01*
X5171428Y-12500000D02*
X4571428Y-12500000D01*
X4657142Y-12557142D01*
X4714285Y-12614285D01*
X4742857Y-12671428D01*
%TO.C,R4*%
X9971428Y-4500000D02*
X9685714Y-4700000D01*
X9971428Y-4842857D02*
X9371428Y-4842857D01*
X9371428Y-4614285D01*
X9400000Y-4557142D01*
X9428571Y-4528571D01*
X9485714Y-4500000D01*
X9571428Y-4500000D01*
X9628571Y-4528571D01*
X9657142Y-4557142D01*
X9685714Y-4614285D01*
X9685714Y-4842857D01*
X9571428Y-3985714D02*
X9971428Y-3985714D01*
X9342857Y-4128571D02*
X9771428Y-4271428D01*
X9771428Y-3900000D01*
%TO.C,Q1*%
X15242857Y-16578571D02*
X15185714Y-16550000D01*
X15128571Y-16492857D01*
X15042857Y-16407142D01*
X14985714Y-16378571D01*
X14928571Y-16378571D01*
X14957142Y-16521428D02*
X14900000Y-16492857D01*
X14842857Y-16435714D01*
X14814285Y-16321428D01*
X14814285Y-16121428D01*
X14842857Y-16007142D01*
X14900000Y-15950000D01*
X14957142Y-15921428D01*
X15071428Y-15921428D01*
X15128571Y-15950000D01*
X15185714Y-16007142D01*
X15214285Y-16121428D01*
X15214285Y-16321428D01*
X15185714Y-16435714D01*
X15128571Y-16492857D01*
X15071428Y-16521428D01*
X14957142Y-16521428D01*
X15785714Y-16521428D02*
X15442857Y-16521428D01*
X15614285Y-16521428D02*
X15614285Y-15921428D01*
X15557142Y-16007142D01*
X15500000Y-16064285D01*
X15442857Y-16092857D01*
%TO.C,R8*%
X21521428Y-15350000D02*
X21235714Y-15550000D01*
X21521428Y-15692857D02*
X20921428Y-15692857D01*
X20921428Y-15464285D01*
X20950000Y-15407142D01*
X20978571Y-15378571D01*
X21035714Y-15350000D01*
X21121428Y-15350000D01*
X21178571Y-15378571D01*
X21207142Y-15407142D01*
X21235714Y-15464285D01*
X21235714Y-15692857D01*
X21178571Y-15007142D02*
X21150000Y-15064285D01*
X21121428Y-15092857D01*
X21064285Y-15121428D01*
X21035714Y-15121428D01*
X20978571Y-15092857D01*
X20950000Y-15064285D01*
X20921428Y-15007142D01*
X20921428Y-14892857D01*
X20950000Y-14835714D01*
X20978571Y-14807142D01*
X21035714Y-14778571D01*
X21064285Y-14778571D01*
X21121428Y-14807142D01*
X21150000Y-14835714D01*
X21178571Y-14892857D01*
X21178571Y-15007142D01*
X21207142Y-15064285D01*
X21235714Y-15092857D01*
X21292857Y-15121428D01*
X21407142Y-15121428D01*
X21464285Y-15092857D01*
X21492857Y-15064285D01*
X21521428Y-15007142D01*
X21521428Y-14892857D01*
X21492857Y-14835714D01*
X21464285Y-14807142D01*
X21407142Y-14778571D01*
X21292857Y-14778571D01*
X21235714Y-14807142D01*
X21207142Y-14835714D01*
X21178571Y-14892857D01*
%TO.C,R2*%
X7671428Y-10400000D02*
X7385714Y-10600000D01*
X7671428Y-10742857D02*
X7071428Y-10742857D01*
X7071428Y-10514285D01*
X7100000Y-10457142D01*
X7128571Y-10428571D01*
X7185714Y-10400000D01*
X7271428Y-10400000D01*
X7328571Y-10428571D01*
X7357142Y-10457142D01*
X7385714Y-10514285D01*
X7385714Y-10742857D01*
X7128571Y-10171428D02*
X7100000Y-10142857D01*
X7071428Y-10085714D01*
X7071428Y-9942857D01*
X7100000Y-9885714D01*
X7128571Y-9857142D01*
X7185714Y-9828571D01*
X7242857Y-9828571D01*
X7328571Y-9857142D01*
X7671428Y-10200000D01*
X7671428Y-9828571D01*
%TO.C,D1*%
X23821428Y-10642857D02*
X23221428Y-10642857D01*
X23221428Y-10500000D01*
X23250000Y-10414285D01*
X23307142Y-10357142D01*
X23364285Y-10328571D01*
X23478571Y-10300000D01*
X23564285Y-10300000D01*
X23678571Y-10328571D01*
X23735714Y-10357142D01*
X23792857Y-10414285D01*
X23821428Y-10500000D01*
X23821428Y-10642857D01*
X23821428Y-9728571D02*
X23821428Y-10071428D01*
X23821428Y-9900000D02*
X23221428Y-9900000D01*
X23307142Y-9957142D01*
X23364285Y-10014285D01*
X23392857Y-10071428D01*
%TO.C,R6*%
X18650000Y-10771428D02*
X18450000Y-10485714D01*
X18307142Y-10771428D02*
X18307142Y-10171428D01*
X18535714Y-10171428D01*
X18592857Y-10200000D01*
X18621428Y-10228571D01*
X18650000Y-10285714D01*
X18650000Y-10371428D01*
X18621428Y-10428571D01*
X18592857Y-10457142D01*
X18535714Y-10485714D01*
X18307142Y-10485714D01*
X19164285Y-10171428D02*
X19050000Y-10171428D01*
X18992857Y-10200000D01*
X18964285Y-10228571D01*
X18907142Y-10314285D01*
X18878571Y-10428571D01*
X18878571Y-10657142D01*
X18907142Y-10714285D01*
X18935714Y-10742857D01*
X18992857Y-10771428D01*
X19107142Y-10771428D01*
X19164285Y-10742857D01*
X19192857Y-10714285D01*
X19221428Y-10657142D01*
X19221428Y-10514285D01*
X19192857Y-10457142D01*
X19164285Y-10428571D01*
X19107142Y-10400000D01*
X18992857Y-10400000D01*
X18935714Y-10428571D01*
X18907142Y-10457142D01*
X18878571Y-10514285D01*
%TO.C,U3*%
X22421428Y-21107142D02*
X22907142Y-21107142D01*
X22964285Y-21078571D01*
X22992857Y-21050000D01*
X23021428Y-20992857D01*
X23021428Y-20878571D01*
X22992857Y-20821428D01*
X22964285Y-20792857D01*
X22907142Y-20764285D01*
X22421428Y-20764285D01*
X22421428Y-20535714D02*
X22421428Y-20164285D01*
X22650000Y-20364285D01*
X22650000Y-20278571D01*
X22678571Y-20221428D01*
X22707142Y-20192857D01*
X22764285Y-20164285D01*
X22907142Y-20164285D01*
X22964285Y-20192857D01*
X22992857Y-20221428D01*
X23021428Y-20278571D01*
X23021428Y-20450000D01*
X22992857Y-20507142D01*
X22964285Y-20535714D01*
%TO.C,C2*%
X8750000Y-10014285D02*
X8721428Y-10042857D01*
X8635714Y-10071428D01*
X8578571Y-10071428D01*
X8492857Y-10042857D01*
X8435714Y-9985714D01*
X8407142Y-9928571D01*
X8378571Y-9814285D01*
X8378571Y-9728571D01*
X8407142Y-9614285D01*
X8435714Y-9557142D01*
X8492857Y-9500000D01*
X8578571Y-9471428D01*
X8635714Y-9471428D01*
X8721428Y-9500000D01*
X8750000Y-9528571D01*
X8978571Y-9528571D02*
X9007142Y-9500000D01*
X9064285Y-9471428D01*
X9207142Y-9471428D01*
X9264285Y-9500000D01*
X9292857Y-9528571D01*
X9321428Y-9585714D01*
X9321428Y-9642857D01*
X9292857Y-9728571D01*
X8950000Y-10071428D01*
X9321428Y-10071428D01*
%TO.C,C5*%
X17250000Y-14414285D02*
X17221428Y-14442857D01*
X17135714Y-14471428D01*
X17078571Y-14471428D01*
X16992857Y-14442857D01*
X16935714Y-14385714D01*
X16907142Y-14328571D01*
X16878571Y-14214285D01*
X16878571Y-14128571D01*
X16907142Y-14014285D01*
X16935714Y-13957142D01*
X16992857Y-13900000D01*
X17078571Y-13871428D01*
X17135714Y-13871428D01*
X17221428Y-13900000D01*
X17250000Y-13928571D01*
X17792857Y-13871428D02*
X17507142Y-13871428D01*
X17478571Y-14157142D01*
X17507142Y-14128571D01*
X17564285Y-14100000D01*
X17707142Y-14100000D01*
X17764285Y-14128571D01*
X17792857Y-14157142D01*
X17821428Y-14214285D01*
X17821428Y-14357142D01*
X17792857Y-14414285D01*
X17764285Y-14442857D01*
X17707142Y-14471428D01*
X17564285Y-14471428D01*
X17507142Y-14442857D01*
X17478571Y-14414285D01*
%TO.C,U2*%
X11742857Y-4621428D02*
X11742857Y-5107142D01*
X11771428Y-5164285D01*
X11800000Y-5192857D01*
X11857142Y-5221428D01*
X11971428Y-5221428D01*
X12028571Y-5192857D01*
X12057142Y-5164285D01*
X12085714Y-5107142D01*
X12085714Y-4621428D01*
X12342857Y-4678571D02*
X12371428Y-4650000D01*
X12428571Y-4621428D01*
X12571428Y-4621428D01*
X12628571Y-4650000D01*
X12657142Y-4678571D01*
X12685714Y-4735714D01*
X12685714Y-4792857D01*
X12657142Y-4878571D01*
X12314285Y-5221428D01*
X12685714Y-5221428D01*
%TO.C,R5*%
X14200000Y-12921428D02*
X14000000Y-12635714D01*
X13857142Y-12921428D02*
X13857142Y-12321428D01*
X14085714Y-12321428D01*
X14142857Y-12350000D01*
X14171428Y-12378571D01*
X14200000Y-12435714D01*
X14200000Y-12521428D01*
X14171428Y-12578571D01*
X14142857Y-12607142D01*
X14085714Y-12635714D01*
X13857142Y-12635714D01*
X14742857Y-12321428D02*
X14457142Y-12321428D01*
X14428571Y-12607142D01*
X14457142Y-12578571D01*
X14514285Y-12550000D01*
X14657142Y-12550000D01*
X14714285Y-12578571D01*
X14742857Y-12607142D01*
X14771428Y-12664285D01*
X14771428Y-12807142D01*
X14742857Y-12864285D01*
X14714285Y-12892857D01*
X14657142Y-12921428D01*
X14514285Y-12921428D01*
X14457142Y-12892857D01*
X14428571Y-12864285D01*
%TO.C,R1*%
X1800000Y-7621428D02*
X1600000Y-7335714D01*
X1457142Y-7621428D02*
X1457142Y-7021428D01*
X1685714Y-7021428D01*
X1742857Y-7050000D01*
X1771428Y-7078571D01*
X1800000Y-7135714D01*
X1800000Y-7221428D01*
X1771428Y-7278571D01*
X1742857Y-7307142D01*
X1685714Y-7335714D01*
X1457142Y-7335714D01*
X2371428Y-7621428D02*
X2028571Y-7621428D01*
X2200000Y-7621428D02*
X2200000Y-7021428D01*
X2142857Y-7107142D01*
X2085714Y-7164285D01*
X2028571Y-7192857D01*
D12*
%TO.C,C6*%
X10090000Y-21040580D02*
X10090000Y-20759420D01*
X11110000Y-21040580D02*
X11110000Y-20759420D01*
%TO.C,R3*%
X11437258Y-12122500D02*
X10962742Y-12122500D01*
X11437258Y-11077500D02*
X10962742Y-11077500D01*
%TO.C,C7*%
X11640000Y-21040580D02*
X11640000Y-20759420D01*
X12660000Y-21040580D02*
X12660000Y-20759420D01*
%TO.C,R9*%
X22227500Y-12987742D02*
X22227500Y-13462258D01*
X23272500Y-12987742D02*
X23272500Y-13462258D01*
%TO.C,C4*%
X19210000Y-6434420D02*
X19210000Y-6715580D01*
X18190000Y-6434420D02*
X18190000Y-6715580D01*
%TO.C,J4*%
X5400000Y-3950000D02*
G75*
G03*
X5400000Y-3950000I-1500000J0D01*
G01*
%TO.C,U1*%
X2775000Y-8225000D02*
X6535000Y-8225000D01*
X2775000Y-8225000D02*
X2775000Y-11175000D01*
X6535000Y-11175000D02*
X2775000Y-11175000D01*
X6535000Y-8225000D02*
X6535000Y-11175000D01*
X7125000Y-8390000D02*
G75*
G03*
X7125000Y-8390000I-200000J0D01*
G01*
%TO.C,R7*%
X19127500Y-12987742D02*
X19127500Y-13462258D01*
X20172500Y-12987742D02*
X20172500Y-13462258D01*
%TO.C,C3*%
X7490580Y-5240000D02*
X7209420Y-5240000D01*
X7490580Y-6260000D02*
X7209420Y-6260000D01*
%TO.C,C1*%
X6510000Y-12940580D02*
X6510000Y-12659420D01*
X5490000Y-12940580D02*
X5490000Y-12659420D01*
%TO.C,R4*%
X10172500Y-6737258D02*
X10172500Y-6262742D01*
X9127500Y-6737258D02*
X9127500Y-6262742D01*
%TO.C,Q1*%
X13900000Y-16610000D02*
X14550000Y-16610000D01*
X13900000Y-13490000D02*
X14550000Y-13490000D01*
X13900000Y-13490000D02*
X12225000Y-13490000D01*
X13900000Y-16610000D02*
X13250000Y-16610000D01*
%TO.C,R8*%
X21722500Y-12987742D02*
X21722500Y-13462258D01*
X20677500Y-12987742D02*
X20677500Y-13462258D01*
%TO.C,R2*%
X7112742Y-7772500D02*
X7587258Y-7772500D01*
X7112742Y-6727500D02*
X7587258Y-6727500D01*
%TO.C,D1*%
X20900000Y-11600000D02*
X23000000Y-11600000D01*
X23000000Y-11600000D02*
X23000000Y-8900000D01*
X23000000Y-8900000D02*
X20900000Y-8900000D01*
X20900000Y-8900000D02*
X20900000Y-11600000D01*
X23000000Y-8700000D02*
G75*
G03*
X23000000Y-8700000I-100000J0D01*
G01*
%TO.C,R6*%
X17112742Y-12122500D02*
X17587258Y-12122500D01*
X17112742Y-11077500D02*
X17587258Y-11077500D01*
%TO.C,U3*%
X13115000Y-20700000D02*
X13115000Y-18750000D01*
X13115000Y-20700000D02*
X13115000Y-24150000D01*
X21985000Y-20700000D02*
X21985000Y-22650000D01*
X21985000Y-20700000D02*
X21985000Y-18750000D01*
%TO.C,C2*%
X8734420Y-8240000D02*
X9015580Y-8240000D01*
X8734420Y-9260000D02*
X9015580Y-9260000D01*
%TO.C,C5*%
X17515580Y-13660000D02*
X17234420Y-13660000D01*
X17515580Y-12640000D02*
X17234420Y-12640000D01*
%TO.C,U2*%
X14150000Y-5530000D02*
X16100000Y-5530000D01*
X14150000Y-10650000D02*
X16100000Y-10650000D01*
X14150000Y-10650000D02*
X12200000Y-10650000D01*
X14150000Y-5530000D02*
X10700000Y-5530000D01*
%TO.C,J3*%
X16500000Y-3400000D02*
G75*
G03*
X16500000Y-3400000I-1500000J0D01*
G01*
%TO.C,R5*%
X14062742Y-12122500D02*
X14537258Y-12122500D01*
X14062742Y-11077500D02*
X14537258Y-11077500D01*
%TO.C,R1*%
X4137258Y-7822500D02*
X3662742Y-7822500D01*
X4137258Y-6777500D02*
X3662742Y-6777500D01*
%TD*%
M02*
