%TF.GenerationSoftware,KiCad,Pcbnew,(6.0.1)*%
%TF.CreationDate,2023-03-20T17:12:11-07:00*%
%TF.ProjectId,NoteDetector,4e6f7465-4465-4746-9563-746f722e6b69,rev?*%
%TF.SameCoordinates,Original*%
%TF.FileFunction,Copper,L2,Bot*%
%TF.FilePolarity,Positive*%
%FSLAX46Y46*%
G04 Gerber Fmt 4.6, Leading zero omitted, Abs format (unit mm)*
G04 Created by KiCad (PCBNEW (6.0.1)) date 2023-03-20 17:12:11*
%MOMM*%
%LPD*%
G01*
G04 APERTURE LIST*
G04 Aperture macros list*
%AMRoundRect*
0 Rectangle with rounded corners*
0 $1 Rounding radius*
0 $2 $3 $4 $5 $6 $7 $8 $9 X,Y pos of 4 corners*
0 Add a 4 corners polygon primitive as box body*
4,1,4,$2,$3,$4,$5,$6,$7,$8,$9,$2,$3,0*
0 Add four circle primitives for the rounded corners*
1,1,$1+$1,$2,$3*
1,1,$1+$1,$4,$5*
1,1,$1+$1,$6,$7*
1,1,$1+$1,$8,$9*
0 Add four rect primitives between the rounded corners*
20,1,$1+$1,$2,$3,$4,$5,0*
20,1,$1+$1,$4,$5,$6,$7,0*
20,1,$1+$1,$6,$7,$8,$9,0*
20,1,$1+$1,$8,$9,$2,$3,0*%
G04 Aperture macros list end*
%TA.AperFunction,ComponentPad*%
%ADD10C,2.000000*%
%TD*%
%TA.AperFunction,SMDPad,CuDef*%
%ADD11RoundRect,0.090000X1.210000X0.360000X-1.210000X0.360000X-1.210000X-0.360000X1.210000X-0.360000X0*%
%TD*%
%TA.AperFunction,SMDPad,CuDef*%
%ADD12RoundRect,0.360000X0.140000X0.040000X-0.140000X0.040000X-0.140000X-0.040000X0.140000X-0.040000X0*%
%TD*%
%TA.AperFunction,SMDPad,CuDef*%
%ADD13R,1.000000X0.800000*%
%TD*%
%TA.AperFunction,ViaPad*%
%ADD14C,0.381000*%
%TD*%
%TA.AperFunction,ViaPad*%
%ADD15C,0.508000*%
%TD*%
%TA.AperFunction,ViaPad*%
%ADD16C,0.800000*%
%TD*%
%TA.AperFunction,Conductor*%
%ADD17C,0.152400*%
%TD*%
G04 APERTURE END LIST*
D10*
%TO.P,BT1,1,+*%
%TO.N,+BATT*%
X9599987Y7200017D03*
%TO.P,BT1,2,-*%
%TO.N,GND*%
X-6399991Y-4800011D03*
%TD*%
D11*
%TO.P,MK1,1,-*%
%TO.N,/Audio_raw*%
X0Y650000D03*
%TO.P,MK1,2,+*%
%TO.N,+BATT*%
X0Y-650000D03*
%TD*%
D12*
%TO.P,D1,1,A*%
%TO.N,+BATT*%
X-750000Y4050000D03*
D13*
%TO.P,D1,2,BK*%
%TO.N,Net-(C15-Pad1)*%
X750000Y4050000D03*
%TO.P,D1,3,GK*%
%TO.N,Net-(C14-Pad1)*%
X750000Y5150000D03*
%TO.P,D1,4,RK*%
%TO.N,Net-(C13-Pad1)*%
X-750000Y5150000D03*
%TD*%
D14*
%TO.N,GND*%
X-1850000Y2500000D03*
X-5800000Y5250000D03*
X1450000Y8500000D03*
D15*
X-2250000Y7900000D03*
D16*
X6224500Y5300000D03*
D15*
X2500000Y672334D03*
D14*
X-4200000Y1600000D03*
D15*
X7800000Y-6100000D03*
X3700000Y4000000D03*
D16*
X-8900000Y7950000D03*
D15*
%TO.N,+BATT*%
X-351116Y-5100000D03*
X5120300Y-3598080D03*
X6500000Y-3720300D03*
X6600000Y-2700000D03*
%TO.N,/Audio_In*%
X7894204Y-3574798D03*
X-1800000Y-7100000D03*
%TO.N,Net-(C6-Pad2)*%
X5700000Y-8650000D03*
X385746Y-8147003D03*
%TO.N,Net-(C7-Pad1)*%
X-950000Y-10050000D03*
X3400000Y-4100000D03*
D14*
%TO.N,/PWM3*%
X10959202Y4111968D03*
X6000000Y7700000D03*
X7400000Y7350000D03*
X10000000Y4950000D03*
%TO.N,/PWM2*%
X7327998Y7926019D03*
X10403481Y3944173D03*
X9637382Y4496689D03*
X6570346Y8529654D03*
%TO.N,/PWM1*%
X6033800Y6500000D03*
X8740774Y4699918D03*
X9800000Y2050000D03*
X3500000Y7800000D03*
X2300000Y11150000D03*
X6966200Y6350000D03*
D15*
%TO.N,/Audio_raw*%
X-1600000Y650000D03*
D14*
%TO.N,Net-(C13-Pad1)*%
X-208439Y5340929D03*
D15*
%TO.N,Net-(C14-Pad1)*%
X600000Y5900000D03*
%TO.N,Net-(C15-Pad1)*%
X1200000Y3700000D03*
%TD*%
D17*
%TO.N,/Audio_In*%
X4450000Y-4250000D02*
X7219002Y-4250000D01*
X-1800000Y-7100000D02*
X-450000Y-7100000D01*
X3079711Y-3570289D02*
X3770289Y-3570289D01*
X3770289Y-3570289D02*
X4450000Y-4250000D01*
X-450000Y-7100000D02*
X3079711Y-3570289D01*
X7219002Y-4250000D02*
X7894204Y-3574798D01*
%TO.N,Net-(C6-Pad2)*%
X385746Y-8147003D02*
X888743Y-8650000D01*
X888743Y-8650000D02*
X5700000Y-8650000D01*
%TO.N,Net-(C7-Pad1)*%
X3300000Y-4100000D02*
X-950000Y-8350000D01*
X3400000Y-4100000D02*
X3300000Y-4100000D01*
X-950000Y-8350000D02*
X-950000Y-10050000D01*
%TO.N,/PWM3*%
X6000000Y7700000D02*
X6050000Y7700000D01*
X6050000Y7700000D02*
X6400000Y7350000D01*
X10000000Y4950000D02*
X10121170Y4950000D01*
X10121170Y4950000D02*
X10959202Y4111968D01*
X6400000Y7350000D02*
X7400000Y7350000D01*
%TO.N,/PWM2*%
X9637382Y4496689D02*
X10189898Y3944173D01*
X10189898Y3944173D02*
X10403481Y3944173D01*
X7173981Y7926019D02*
X6570346Y8529654D01*
X7327998Y7926019D02*
X7173981Y7926019D01*
%TO.N,/PWM1*%
X9800000Y2050000D02*
X9800000Y3012500D01*
X6183800Y6350000D02*
X6033800Y6500000D01*
X9800000Y3640692D02*
X8740774Y4699918D01*
X9800000Y3012500D02*
X9800000Y3640692D01*
X2300000Y9000000D02*
X2300000Y11150000D01*
X3500000Y7800000D02*
X2300000Y9000000D01*
X6966200Y6350000D02*
X6183800Y6350000D01*
%TO.N,/Audio_raw*%
X-1600000Y650000D02*
X0Y650000D01*
%TO.N,Net-(C13-Pad1)*%
X-750000Y5150000D02*
X-399368Y5150000D01*
X-399368Y5150000D02*
X-208439Y5340929D01*
%TO.N,Net-(C14-Pad1)*%
X750000Y5750000D02*
X600000Y5900000D01*
X750000Y5150000D02*
X750000Y5750000D01*
%TO.N,Net-(C15-Pad1)*%
X850000Y4050000D02*
X1200000Y3700000D01*
X750000Y4050000D02*
X850000Y4050000D01*
%TD*%
%TA.AperFunction,Conductor*%
%TO.N,GND*%
G36*
X91116Y12547571D02*
G01*
X437748Y12535467D01*
X784389Y12523361D01*
X791394Y12522921D01*
X1482228Y12460050D01*
X1489214Y12459217D01*
X2175456Y12357882D01*
X2182386Y12356660D01*
X2861888Y12217178D01*
X2868738Y12215572D01*
X3539424Y12038369D01*
X3546174Y12036382D01*
X4205891Y11822027D01*
X4212520Y11819667D01*
X4859273Y11568808D01*
X4865759Y11566081D01*
X5067056Y11474769D01*
X5497482Y11279519D01*
X5503781Y11276447D01*
X6118549Y10955054D01*
X6124691Y10951621D01*
X6720528Y10596431D01*
X6726469Y10592661D01*
X6768125Y10564564D01*
X6824795Y10526340D01*
X6870084Y10471666D01*
X6878625Y10401186D01*
X6864302Y10360373D01*
X6828103Y10295657D01*
X6808101Y10227536D01*
X6800000Y10171190D01*
X6800000Y9036682D01*
X6779998Y8968561D01*
X6726342Y8922068D01*
X6654290Y8912233D01*
X6580139Y8923977D01*
X6570346Y8925528D01*
X6448014Y8906153D01*
X6337657Y8849923D01*
X6250077Y8762343D01*
X6193847Y8651986D01*
X6174472Y8529654D01*
X6193847Y8407322D01*
X6250077Y8296965D01*
X6269753Y8277289D01*
X6303779Y8214977D01*
X6298714Y8144162D01*
X6256167Y8087326D01*
X6189647Y8062515D01*
X6141671Y8072233D01*
X6140599Y8068933D01*
X6131166Y8071998D01*
X6122332Y8076499D01*
X6000000Y8095874D01*
X5877668Y8076499D01*
X5767311Y8020269D01*
X5679731Y7932689D01*
X5623501Y7822332D01*
X5604126Y7700000D01*
X5623501Y7577668D01*
X5679731Y7467311D01*
X5767311Y7379731D01*
X5877668Y7323501D01*
X5887461Y7321950D01*
X5990207Y7305677D01*
X6000000Y7304126D01*
X6003964Y7304754D01*
X6068941Y7285675D01*
X6089915Y7268772D01*
X6170544Y7188143D01*
X6171807Y7186680D01*
X6174013Y7182167D01*
X6182498Y7174296D01*
X6206928Y7151634D01*
X6210333Y7148354D01*
X6222542Y7136145D01*
X6226292Y7133573D01*
X6228282Y7131825D01*
X6249584Y7112065D01*
X6260392Y7107753D01*
X6266672Y7103783D01*
X6269578Y7102231D01*
X6276361Y7099225D01*
X6285956Y7092643D01*
X6307327Y7087572D01*
X6324930Y7082005D01*
X6337062Y7077164D01*
X6337065Y7077163D01*
X6345324Y7073868D01*
X6351117Y7073300D01*
X6354202Y7073300D01*
X6357269Y7073150D01*
X6357250Y7072770D01*
X6363312Y7072061D01*
X6363314Y7072098D01*
X6374927Y7071530D01*
X6386250Y7068843D01*
X6397779Y7070412D01*
X6397780Y7070412D01*
X6406515Y7071601D01*
X6410543Y7072149D01*
X6427533Y7073300D01*
X6678158Y7073300D01*
X6746279Y7053298D01*
X6792772Y6999642D01*
X6802875Y6929367D01*
X6800640Y6913824D01*
X6800639Y6913813D01*
X6800000Y6909367D01*
X6800000Y6845178D01*
X6800326Y6833766D01*
X6801147Y6819401D01*
X6802370Y6814140D01*
X6802371Y6814136D01*
X6802655Y6812914D01*
X6802624Y6812375D01*
X6803139Y6808793D01*
X6802413Y6808689D01*
X6798598Y6742033D01*
X6756865Y6684598D01*
X6749172Y6679731D01*
X6742343Y6674769D01*
X6733511Y6670269D01*
X6726500Y6663258D01*
X6718479Y6657430D01*
X6717644Y6658580D01*
X6664535Y6629579D01*
X6637752Y6626700D01*
X6485286Y6626700D01*
X6417165Y6646702D01*
X6373019Y6695498D01*
X6358571Y6723855D01*
X6358568Y6723859D01*
X6354069Y6732689D01*
X6266489Y6820269D01*
X6156132Y6876499D01*
X6033800Y6895874D01*
X5911468Y6876499D01*
X5801111Y6820269D01*
X5713531Y6732689D01*
X5657301Y6622332D01*
X5637926Y6500000D01*
X5657301Y6377668D01*
X5713531Y6267311D01*
X5801111Y6179731D01*
X5911468Y6123501D01*
X5921261Y6121950D01*
X6033800Y6104126D01*
X6033556Y6102582D01*
X6064957Y6095936D01*
X6069756Y6092644D01*
X6091132Y6087571D01*
X6108719Y6082008D01*
X6129124Y6073868D01*
X6134917Y6073300D01*
X6138002Y6073300D01*
X6141069Y6073150D01*
X6141050Y6072770D01*
X6147109Y6072061D01*
X6147111Y6072098D01*
X6158729Y6071530D01*
X6170050Y6068843D01*
X6181579Y6070412D01*
X6181580Y6070412D01*
X6190315Y6071601D01*
X6194343Y6072149D01*
X6211333Y6073300D01*
X6535079Y6073300D01*
X6603200Y6053298D01*
X6649693Y5999642D01*
X6659797Y5929368D01*
X6636049Y5871928D01*
X6603257Y5827999D01*
X6567450Y5760379D01*
X6555762Y5733802D01*
X6545345Y5645406D01*
X6546101Y5638374D01*
X6546101Y5638373D01*
X6547543Y5624965D01*
X6552934Y5574819D01*
X6567012Y5519662D01*
X6568732Y5515510D01*
X6608344Y5419877D01*
X6616857Y5388105D01*
X6626291Y5316446D01*
X6626291Y5283553D01*
X6616857Y5211897D01*
X6608344Y5180127D01*
X6580682Y5113344D01*
X6564240Y5084863D01*
X6520240Y5027521D01*
X6496984Y5004265D01*
X6439638Y4960262D01*
X6411152Y4943816D01*
X6344374Y4916156D01*
X6312603Y4907643D01*
X6268065Y4901779D01*
X6240944Y4898209D01*
X6208054Y4898209D01*
X6159161Y4904646D01*
X6136395Y4907643D01*
X6104623Y4916157D01*
X6012723Y4954224D01*
X6006361Y4957253D01*
X6006298Y4957120D01*
X6003254Y4958573D01*
X6003255Y4958573D01*
X5998082Y4961042D01*
X5928205Y4979888D01*
X5922498Y4980354D01*
X5922493Y4980355D01*
X5893339Y4982736D01*
X5857444Y4985668D01*
X5846155Y4985897D01*
X5841994Y4985982D01*
X5832985Y4986165D01*
X5747090Y4962827D01*
X5740846Y4959499D01*
X5688408Y4931550D01*
X5688403Y4931547D01*
X5684437Y4929433D01*
X5680812Y4926776D01*
X5680807Y4926773D01*
X5642157Y4898445D01*
X5642153Y4898441D01*
X5638523Y4895781D01*
X5635310Y4892632D01*
X5635305Y4892628D01*
X4838054Y4111322D01*
X4511909Y3791699D01*
X4455082Y3736009D01*
X4392429Y3702615D01*
X4366891Y3700000D01*
X1768415Y3700000D01*
X1700294Y3720002D01*
X1653801Y3773658D01*
X1643688Y3808136D01*
X1641991Y3819986D01*
X1640718Y3828875D01*
X1586832Y3947390D01*
X1501850Y4046017D01*
X1494319Y4050899D01*
X1493667Y4051467D01*
X1455485Y4111322D01*
X1450500Y4146413D01*
X1450500Y4469748D01*
X1438867Y4528231D01*
X1431974Y4538547D01*
X1427223Y4550017D01*
X1430937Y4551555D01*
X1416472Y4597751D01*
X1431312Y4648289D01*
X1427223Y4649983D01*
X1431974Y4661453D01*
X1438867Y4671769D01*
X1450500Y4730252D01*
X1450500Y5569748D01*
X1438867Y5628231D01*
X1394552Y5694552D01*
X1328231Y5738867D01*
X1316062Y5741288D01*
X1316061Y5741288D01*
X1275816Y5749293D01*
X1269748Y5750500D01*
X1184065Y5750500D01*
X1115944Y5770502D01*
X1069451Y5824158D01*
X1058717Y5886880D01*
X1059037Y5888781D01*
X1059174Y5900000D01*
X1040718Y6028875D01*
X997694Y6123501D01*
X990548Y6139218D01*
X990547Y6139220D01*
X986832Y6147390D01*
X901850Y6246017D01*
X792601Y6316828D01*
X667870Y6354130D01*
X658894Y6354185D01*
X658893Y6354185D01*
X605678Y6354510D01*
X537683Y6354926D01*
X412505Y6319150D01*
X302400Y6249679D01*
X216219Y6152097D01*
X212404Y6143972D01*
X212403Y6143970D01*
X177868Y6070412D01*
X160890Y6034249D01*
X140860Y5905610D01*
X142024Y5896708D01*
X142024Y5896705D01*
X152407Y5817308D01*
X141407Y5747168D01*
X94233Y5694111D01*
X25862Y5674980D01*
X-29733Y5688704D01*
X-77272Y5712927D01*
X-77276Y5712928D01*
X-86107Y5717428D01*
X-95897Y5718979D01*
X-95898Y5718979D01*
X-136516Y5725412D01*
X-162672Y5732789D01*
X-171769Y5738867D01*
X-230252Y5750500D01*
X-1269748Y5750500D01*
X-1275816Y5749293D01*
X-1316061Y5741288D01*
X-1316062Y5741288D01*
X-1328231Y5738867D01*
X-1394552Y5694552D01*
X-1438867Y5628231D01*
X-1450500Y5569748D01*
X-1450500Y4730252D01*
X-1438867Y4671769D01*
X-1394552Y4605448D01*
X-1384239Y4598557D01*
X-1384236Y4598554D01*
X-1378443Y4594683D01*
X-1332916Y4540206D01*
X-1324069Y4469762D01*
X-1348483Y4413216D01*
X-1379596Y4372668D01*
X-1436074Y4236320D01*
X-1450500Y4126741D01*
X-1450499Y3973260D01*
X-1449961Y3969175D01*
X-1449961Y3969171D01*
X-1437205Y3872268D01*
X-1436074Y3863680D01*
X-1379596Y3727331D01*
X-1374569Y3720780D01*
X-1374567Y3720776D01*
X-1351378Y3690555D01*
X-1325778Y3624335D01*
X-1340043Y3554786D01*
X-1389645Y3503990D01*
X-1434865Y3491427D01*
X-1434531Y3489101D01*
X-1504805Y3478997D01*
X-1506681Y3478609D01*
X-1506692Y3478607D01*
X-1512543Y3477396D01*
X-1528762Y3474041D01*
X-1607314Y3432183D01*
X-1660970Y3385690D01*
X-1678445Y3368568D01*
X-1721897Y3290886D01*
X-1741899Y3222765D01*
X-1750000Y3166419D01*
X-1750000Y2798888D01*
X-1749918Y2793163D01*
X-1749712Y2785970D01*
X-1738163Y2724485D01*
X-1736499Y2719822D01*
X-1717262Y2665906D01*
X-1717635Y2665773D01*
X-1712677Y2655175D01*
X-1712146Y2655374D01*
X-1709661Y2648754D01*
X-1707932Y2641891D01*
X-1704720Y2635588D01*
X-1670560Y2568544D01*
X-1662188Y2547704D01*
X-1652617Y2515946D01*
X-1612275Y2442686D01*
X-1565782Y2389030D01*
X-1548660Y2371555D01*
X-1470978Y2328103D01*
X-1437513Y2318277D01*
X-1407180Y2309370D01*
X-1407176Y2309369D01*
X-1402857Y2308101D01*
X-1398409Y2307461D01*
X-1398402Y2307460D01*
X-1350959Y2300639D01*
X-1350952Y2300639D01*
X-1346511Y2300000D01*
X2674000Y2300000D01*
X2742121Y2279998D01*
X2788614Y2226342D01*
X2800000Y2174000D01*
X2800000Y326000D01*
X2779998Y257879D01*
X2726342Y211386D01*
X2674000Y200000D01*
X1918656Y200000D01*
X1863452Y192231D01*
X1859219Y191016D01*
X1859217Y191015D01*
X1816428Y178727D01*
X1796597Y173032D01*
X1774636Y165315D01*
X1767383Y160132D01*
X1767380Y160130D01*
X1740277Y140760D01*
X1702220Y113562D01*
X1701620Y114402D01*
X1643421Y86494D01*
X1572971Y95280D01*
X1518454Y140760D01*
X1497179Y208494D01*
X1498005Y225440D01*
X1500500Y246842D01*
X1500500Y1053158D01*
X1497486Y1078489D01*
X1493649Y1087128D01*
X1493648Y1087131D01*
X1458277Y1166763D01*
X1458276Y1166764D01*
X1453556Y1177391D01*
X1376966Y1253847D01*
X1277987Y1297605D01*
X1261717Y1299502D01*
X1256797Y1300076D01*
X1256792Y1300076D01*
X1253158Y1300500D01*
X-1253158Y1300500D01*
X-1261745Y1299478D01*
X-1269097Y1298604D01*
X-1269100Y1298603D01*
X-1278489Y1297486D01*
X-1287128Y1293649D01*
X-1287131Y1293648D01*
X-1366763Y1258277D01*
X-1366764Y1258276D01*
X-1377391Y1253556D01*
X-1453847Y1176966D01*
X-1458552Y1166325D01*
X-1463456Y1159162D01*
X-1518446Y1114255D01*
X-1568189Y1104350D01*
X-1662317Y1104926D01*
X-1787495Y1069150D01*
X-1897600Y999679D01*
X-1983781Y902097D01*
X-1987596Y893972D01*
X-1987597Y893970D01*
X-1998019Y871771D01*
X-2039110Y784249D01*
X-2040491Y775380D01*
X-2052962Y695285D01*
X-2059140Y655610D01*
X-2042259Y526519D01*
X-1989826Y407355D01*
X-1906054Y307697D01*
X-1898586Y302726D01*
X-1898585Y302725D01*
X-1805150Y240528D01*
X-1805147Y240527D01*
X-1797680Y235556D01*
X-1789113Y232880D01*
X-1789112Y232879D01*
X-1765326Y225448D01*
X-1673413Y196733D01*
X-1664440Y196569D01*
X-1664437Y196568D01*
X-1564540Y194737D01*
X-1496798Y173489D01*
X-1463011Y140127D01*
X-1458279Y133241D01*
X-1453556Y122609D01*
X-1420051Y89163D01*
X-1385973Y26884D01*
X-1390976Y-43936D01*
X-1419894Y-89022D01*
X-1453847Y-123034D01*
X-1497605Y-222013D01*
X-1500500Y-246842D01*
X-1500500Y-1053158D01*
X-1497486Y-1078489D01*
X-1493649Y-1087128D01*
X-1493648Y-1087131D01*
X-1458277Y-1166763D01*
X-1453556Y-1177391D01*
X-1376966Y-1253847D01*
X-1277987Y-1297605D01*
X-1261717Y-1299502D01*
X-1256797Y-1300076D01*
X-1256792Y-1300076D01*
X-1253158Y-1300500D01*
X-887532Y-1300500D01*
X-819411Y-1320502D01*
X-772918Y-1374158D01*
X-762814Y-1444432D01*
X-792308Y-1509012D01*
X-798437Y-1515595D01*
X-1545937Y-2263095D01*
X-1608249Y-2297121D01*
X-1635032Y-2300000D01*
X-7374000Y-2300000D01*
X-7377346Y-2300360D01*
X-7377352Y-2300360D01*
X-7391436Y-2301874D01*
X-7416512Y-2304570D01*
X-7468854Y-2315956D01*
X-7478762Y-2318378D01*
X-7557314Y-2360236D01*
X-7610970Y-2406729D01*
X-7628445Y-2423851D01*
X-7671897Y-2501533D01*
X-7691899Y-2569654D01*
X-7692539Y-2574102D01*
X-7692540Y-2574109D01*
X-7697538Y-2608876D01*
X-7700000Y-2626000D01*
X-7700000Y-3892751D01*
X-7699102Y-3911680D01*
X-7696845Y-3935420D01*
X-7695160Y-3941171D01*
X-7695159Y-3941178D01*
X-7693776Y-3945900D01*
X-7693824Y-4016897D01*
X-7707263Y-4047150D01*
X-7745195Y-4109050D01*
X-7749679Y-4117850D01*
X-7836725Y-4327999D01*
X-7839774Y-4337384D01*
X-7892876Y-4558565D01*
X-7894419Y-4568312D01*
X-7912266Y-4795081D01*
X-7912266Y-4804941D01*
X-7894419Y-5031710D01*
X-7892876Y-5041457D01*
X-7839774Y-5262638D01*
X-7836725Y-5272023D01*
X-7749678Y-5482174D01*
X-7745196Y-5490969D01*
X-7642559Y-5658456D01*
X-7632101Y-5667918D01*
X-7623325Y-5664135D01*
X-6489086Y-4529896D01*
X-6426774Y-4495870D01*
X-6355959Y-4500935D01*
X-6310896Y-4529896D01*
X-5559783Y-5281009D01*
X-5525757Y-5343321D01*
X-5524139Y-5369782D01*
X-5523183Y-5369758D01*
X-5522994Y-5377159D01*
X-5523674Y-5384531D01*
X-5513570Y-5454805D01*
X-5508614Y-5478762D01*
X-5466756Y-5557314D01*
X-5420263Y-5610970D01*
X-5403141Y-5628445D01*
X-5325459Y-5671897D01*
X-5291994Y-5681723D01*
X-5261661Y-5690630D01*
X-5261657Y-5690631D01*
X-5257338Y-5691899D01*
X-5252890Y-5692539D01*
X-5252883Y-5692540D01*
X-5205440Y-5699361D01*
X-5205433Y-5699361D01*
X-5200992Y-5700000D01*
X-52190Y-5700000D01*
X-30814Y-5698854D01*
X-4031Y-5695975D01*
X70445Y-5672656D01*
X96450Y-5658456D01*
X128806Y-5640788D01*
X128811Y-5640785D01*
X132757Y-5638630D01*
X146362Y-5628445D01*
X174721Y-5607215D01*
X174723Y-5607213D01*
X178326Y-5604516D01*
X1545937Y-4236905D01*
X1608249Y-4202879D01*
X1635032Y-4200000D01*
X1754497Y-4200000D01*
X1822618Y-4220002D01*
X1869111Y-4273658D01*
X1879215Y-4343932D01*
X1849721Y-4408512D01*
X1843592Y-4415095D01*
X-527708Y-6786395D01*
X-590020Y-6820421D01*
X-616803Y-6823300D01*
X-1380670Y-6823300D01*
X-1448791Y-6803298D01*
X-1476119Y-6779551D01*
X-1498150Y-6753983D01*
X-1607399Y-6683172D01*
X-1732130Y-6645870D01*
X-1741106Y-6645815D01*
X-1741107Y-6645815D01*
X-1794322Y-6645490D01*
X-1862317Y-6645074D01*
X-1987495Y-6680850D01*
X-2097600Y-6750321D01*
X-2183781Y-6847903D01*
X-2187596Y-6856028D01*
X-2187597Y-6856030D01*
X-2228878Y-6943957D01*
X-2239110Y-6965751D01*
X-2259140Y-7094390D01*
X-2242259Y-7223481D01*
X-2189826Y-7342645D01*
X-2106054Y-7442303D01*
X-2098586Y-7447274D01*
X-2098585Y-7447275D01*
X-2005150Y-7509472D01*
X-2005147Y-7509473D01*
X-1997680Y-7514444D01*
X-1989113Y-7517120D01*
X-1989112Y-7517121D01*
X-1967829Y-7523770D01*
X-1873413Y-7553267D01*
X-1864440Y-7553431D01*
X-1864437Y-7553432D01*
X-1807210Y-7554481D01*
X-1743245Y-7555653D01*
X-1691083Y-7541432D01*
X-1626299Y-7523770D01*
X-1626297Y-7523769D01*
X-1617640Y-7521409D01*
X-1506694Y-7453288D01*
X-1474884Y-7418145D01*
X-1414341Y-7381063D01*
X-1381469Y-7376700D01*
X-672203Y-7376700D01*
X-604082Y-7396702D01*
X-557589Y-7450358D01*
X-547485Y-7520632D01*
X-576979Y-7585212D01*
X-583108Y-7591795D01*
X-1111857Y-8120544D01*
X-1113320Y-8121807D01*
X-1117833Y-8124013D01*
X-1125704Y-8132498D01*
X-1148366Y-8156928D01*
X-1151646Y-8160333D01*
X-1163855Y-8172542D01*
X-1166427Y-8176292D01*
X-1168175Y-8178282D01*
X-1180023Y-8191054D01*
X-1180024Y-8191056D01*
X-1187935Y-8199584D01*
X-1192246Y-8210389D01*
X-1196211Y-8216662D01*
X-1197768Y-8219578D01*
X-1200775Y-8226363D01*
X-1207356Y-8235956D01*
X-1210042Y-8247272D01*
X-1210042Y-8247273D01*
X-1212429Y-8257332D01*
X-1217992Y-8274919D01*
X-1226132Y-8295324D01*
X-1226700Y-8301117D01*
X-1226700Y-8304202D01*
X-1226850Y-8307269D01*
X-1227230Y-8307250D01*
X-1227939Y-8313309D01*
X-1227902Y-8313311D01*
X-1228470Y-8324929D01*
X-1231157Y-8336250D01*
X-1229588Y-8347779D01*
X-1229588Y-8347780D01*
X-1227851Y-8360542D01*
X-1226700Y-8377533D01*
X-1226700Y-9628982D01*
X-1246702Y-9697103D01*
X-1258259Y-9712389D01*
X-1327836Y-9791170D01*
X-1327840Y-9791176D01*
X-1333781Y-9797903D01*
X-1389110Y-9915751D01*
X-1390491Y-9924620D01*
X-1401427Y-9994857D01*
X-1409140Y-10044390D01*
X-1407976Y-10053292D01*
X-1407976Y-10053295D01*
X-1401632Y-10101808D01*
X-1392259Y-10173481D01*
X-1339826Y-10292645D01*
X-1256054Y-10392303D01*
X-1248586Y-10397274D01*
X-1248585Y-10397275D01*
X-1155150Y-10459472D01*
X-1155147Y-10459473D01*
X-1147680Y-10464444D01*
X-1139113Y-10467120D01*
X-1139112Y-10467121D01*
X-1117829Y-10473770D01*
X-1023413Y-10503267D01*
X-1014440Y-10503431D01*
X-1014437Y-10503432D01*
X-957210Y-10504481D01*
X-893245Y-10505653D01*
X-841083Y-10491432D01*
X-776299Y-10473770D01*
X-776297Y-10473769D01*
X-767640Y-10471409D01*
X-656694Y-10403288D01*
X-569328Y-10306767D01*
X-557062Y-10281451D01*
X-516478Y-10197685D01*
X-516478Y-10197684D01*
X-512563Y-10189604D01*
X-490963Y-10061219D01*
X-490826Y-10050000D01*
X-509282Y-9921125D01*
X-563168Y-9802610D01*
X-642754Y-9710245D01*
X-672067Y-9645585D01*
X-673300Y-9628000D01*
X-673300Y-8516803D01*
X-653298Y-8448682D01*
X-636395Y-8427708D01*
X-286257Y-8077570D01*
X-223945Y-8043544D01*
X-153130Y-8048609D01*
X-96294Y-8091156D01*
X-72226Y-8150327D01*
X-59009Y-8251395D01*
X-56513Y-8270484D01*
X-4080Y-8389648D01*
X79692Y-8489306D01*
X87160Y-8494277D01*
X87161Y-8494278D01*
X180596Y-8556475D01*
X180599Y-8556476D01*
X188066Y-8561447D01*
X196633Y-8564123D01*
X196634Y-8564124D01*
X243503Y-8578766D01*
X312333Y-8600270D01*
X321306Y-8600434D01*
X321309Y-8600435D01*
X399395Y-8601866D01*
X467138Y-8623113D01*
X486181Y-8638750D01*
X659284Y-8811853D01*
X660550Y-8813319D01*
X662756Y-8817833D01*
X671238Y-8825701D01*
X695684Y-8848378D01*
X699089Y-8851658D01*
X711285Y-8863854D01*
X715032Y-8866424D01*
X717003Y-8868155D01*
X729797Y-8880023D01*
X729800Y-8880025D01*
X738327Y-8887935D01*
X749132Y-8892246D01*
X755395Y-8896205D01*
X758329Y-8897772D01*
X765106Y-8900775D01*
X774699Y-8907356D01*
X794596Y-8912078D01*
X796067Y-8912427D01*
X813663Y-8917992D01*
X825807Y-8922837D01*
X825810Y-8922838D01*
X834067Y-8926132D01*
X839860Y-8926700D01*
X842943Y-8926700D01*
X846012Y-8926850D01*
X845993Y-8927230D01*
X852051Y-8927939D01*
X852053Y-8927902D01*
X863671Y-8928470D01*
X874992Y-8931157D01*
X886521Y-8929588D01*
X886522Y-8929588D01*
X895257Y-8928399D01*
X899285Y-8927851D01*
X916275Y-8926700D01*
X5280113Y-8926700D01*
X5348234Y-8946702D01*
X5376561Y-8971621D01*
X5393946Y-8992303D01*
X5401414Y-8997274D01*
X5401415Y-8997275D01*
X5494850Y-9059472D01*
X5494853Y-9059473D01*
X5502320Y-9064444D01*
X5510887Y-9067120D01*
X5510888Y-9067121D01*
X5532171Y-9073770D01*
X5626587Y-9103267D01*
X5635560Y-9103431D01*
X5635563Y-9103432D01*
X5692790Y-9104481D01*
X5756755Y-9105653D01*
X5825507Y-9086909D01*
X5873701Y-9073770D01*
X5873703Y-9073769D01*
X5882360Y-9071409D01*
X5993306Y-9003288D01*
X6044525Y-8946702D01*
X6074644Y-8913427D01*
X6074645Y-8913426D01*
X6080672Y-8906767D01*
X6085790Y-8896205D01*
X6133522Y-8797685D01*
X6133522Y-8797684D01*
X6137437Y-8789604D01*
X6159037Y-8661219D01*
X6159174Y-8650000D01*
X6140718Y-8521125D01*
X6107780Y-8448682D01*
X6090548Y-8410782D01*
X6090547Y-8410780D01*
X6086832Y-8402610D01*
X6013470Y-8317469D01*
X6007713Y-8310787D01*
X6007712Y-8310786D01*
X6001850Y-8303983D01*
X5892601Y-8233172D01*
X5767870Y-8195870D01*
X5758894Y-8195815D01*
X5758893Y-8195815D01*
X5705678Y-8195490D01*
X5637683Y-8195074D01*
X5512505Y-8230850D01*
X5504918Y-8235637D01*
X5504916Y-8235638D01*
X5463793Y-8261585D01*
X5402400Y-8300321D01*
X5396458Y-8307049D01*
X5396457Y-8307050D01*
X5375563Y-8330708D01*
X5315477Y-8368526D01*
X5281122Y-8373300D01*
X1055546Y-8373300D01*
X987425Y-8353298D01*
X966451Y-8336395D01*
X881451Y-8251395D01*
X847425Y-8189083D01*
X845500Y-8158231D01*
X844783Y-8158222D01*
X844861Y-8151863D01*
X844861Y-8151859D01*
X844920Y-8147003D01*
X826464Y-8018128D01*
X772578Y-7899613D01*
X687596Y-7800986D01*
X578347Y-7730175D01*
X453616Y-7692873D01*
X444639Y-7692818D01*
X444638Y-7692818D01*
X402171Y-7692558D01*
X334174Y-7672139D01*
X288011Y-7618200D01*
X278338Y-7547865D01*
X308226Y-7483466D01*
X313848Y-7477465D01*
X3205904Y-4585409D01*
X3268216Y-4551383D01*
X3315143Y-4550125D01*
X3318023Y-4550591D01*
X3326587Y-4553267D01*
X3456755Y-4555653D01*
X3546605Y-4531157D01*
X3573701Y-4523770D01*
X3573703Y-4523769D01*
X3582360Y-4521409D01*
X3669060Y-4468175D01*
X3685658Y-4457984D01*
X3685659Y-4457984D01*
X3693306Y-4453288D01*
X3712373Y-4432223D01*
X3774644Y-4363427D01*
X3774645Y-4363426D01*
X3780672Y-4356767D01*
X3820287Y-4275003D01*
X3829020Y-4256977D01*
X3876722Y-4204394D01*
X3945281Y-4185948D01*
X4012928Y-4207495D01*
X4031507Y-4222820D01*
X4220544Y-4411857D01*
X4221807Y-4413320D01*
X4224013Y-4417833D01*
X4232498Y-4425704D01*
X4256928Y-4448366D01*
X4260333Y-4451646D01*
X4272542Y-4463855D01*
X4276292Y-4466427D01*
X4278282Y-4468175D01*
X4299584Y-4487935D01*
X4310392Y-4492247D01*
X4316672Y-4496217D01*
X4319578Y-4497769D01*
X4326361Y-4500775D01*
X4335956Y-4507357D01*
X4357327Y-4512428D01*
X4374930Y-4517995D01*
X4387062Y-4522836D01*
X4387065Y-4522837D01*
X4395324Y-4526132D01*
X4401117Y-4526700D01*
X4404202Y-4526700D01*
X4407269Y-4526850D01*
X4407250Y-4527230D01*
X4413312Y-4527939D01*
X4413314Y-4527902D01*
X4424927Y-4528470D01*
X4436250Y-4531157D01*
X4447779Y-4529588D01*
X4447780Y-4529588D01*
X4459161Y-4528039D01*
X4460543Y-4527851D01*
X4477533Y-4526700D01*
X7171202Y-4526700D01*
X7173129Y-4526841D01*
X7177881Y-4528473D01*
X7189442Y-4528039D01*
X7222738Y-4526789D01*
X7227465Y-4526700D01*
X7244738Y-4526700D01*
X7249210Y-4525867D01*
X7251843Y-4525696D01*
X7280887Y-4524606D01*
X7291576Y-4520014D01*
X7298817Y-4518382D01*
X7301980Y-4517421D01*
X7308904Y-4514750D01*
X7320339Y-4512620D01*
X7330238Y-4506518D01*
X7330244Y-4506516D01*
X7339045Y-4501091D01*
X7355414Y-4492588D01*
X7367426Y-4487427D01*
X7367427Y-4487426D01*
X7375595Y-4483917D01*
X7380093Y-4480222D01*
X7382283Y-4478032D01*
X7384545Y-4475981D01*
X7384801Y-4476263D01*
X7389591Y-4472476D01*
X7389567Y-4472449D01*
X7398184Y-4464636D01*
X7408087Y-4458531D01*
X7422928Y-4439014D01*
X7434129Y-4426186D01*
X7794179Y-4066136D01*
X7856491Y-4032110D01*
X7885580Y-4029252D01*
X7950959Y-4030451D01*
X7999482Y-4017222D01*
X8070462Y-4018601D01*
X8128405Y-4057450D01*
X8128562Y-4057314D01*
X8130505Y-4059556D01*
X8130507Y-4059559D01*
X8153192Y-4085739D01*
X8175055Y-4110970D01*
X8192177Y-4128445D01*
X8269859Y-4171897D01*
X8293488Y-4178835D01*
X8333657Y-4190630D01*
X8333661Y-4190631D01*
X8337980Y-4191899D01*
X8342428Y-4192539D01*
X8342435Y-4192540D01*
X8389878Y-4199361D01*
X8389885Y-4199361D01*
X8394326Y-4200000D01*
X8870727Y-4200000D01*
X8874279Y-4199595D01*
X8874280Y-4199595D01*
X8912191Y-4195273D01*
X8912194Y-4195273D01*
X8915742Y-4194868D01*
X8919221Y-4194064D01*
X8919223Y-4194064D01*
X8970006Y-4182333D01*
X8970020Y-4182330D01*
X8971005Y-4182102D01*
X8971970Y-4181846D01*
X8972000Y-4181839D01*
X8973940Y-4181325D01*
X8983341Y-4178835D01*
X9060794Y-4134977D01*
X9066014Y-4130214D01*
X9066017Y-4130212D01*
X9111817Y-4088423D01*
X9111828Y-4088413D01*
X9113240Y-4087124D01*
X9130268Y-4069561D01*
X9171715Y-3990792D01*
X9189965Y-3922181D01*
X9196620Y-3865643D01*
X9194923Y-3799431D01*
X9139547Y-1639778D01*
X9135392Y-1477733D01*
X9101223Y-145158D01*
X9099852Y-126354D01*
X9098460Y-114802D01*
X9097730Y-108745D01*
X9097729Y-108743D01*
X9097014Y-102806D01*
X9073987Y-30888D01*
X9039964Y31421D01*
X9005849Y76993D01*
X8336905Y745937D01*
X8302879Y808249D01*
X8300000Y835032D01*
X8300000Y2414968D01*
X8320002Y2483089D01*
X8336905Y2504063D01*
X9308205Y3475363D01*
X9370517Y3509389D01*
X9441332Y3504324D01*
X9498168Y3461777D01*
X9522979Y3395257D01*
X9523300Y3386268D01*
X9523300Y2378448D01*
X9503298Y2310327D01*
X9487360Y2290551D01*
X9486741Y2289699D01*
X9479731Y2282689D01*
X9423501Y2172332D01*
X9404126Y2050000D01*
X9423501Y1927668D01*
X9479731Y1817311D01*
X9567311Y1729731D01*
X9677668Y1673501D01*
X9800000Y1654126D01*
X9922332Y1673501D01*
X10032689Y1729731D01*
X10120269Y1817311D01*
X10176499Y1927668D01*
X10195874Y2050000D01*
X10176499Y2172332D01*
X10120269Y2282689D01*
X10113257Y2289701D01*
X10107430Y2297721D01*
X10108580Y2298556D01*
X10079579Y2351665D01*
X10076700Y2378448D01*
X10076700Y3466232D01*
X10096702Y3534353D01*
X10150358Y3580846D01*
X10220632Y3590950D01*
X10259901Y3578500D01*
X10272314Y3572175D01*
X10272318Y3572174D01*
X10281149Y3567674D01*
X10290942Y3566123D01*
X10377184Y3552464D01*
X10403481Y3548299D01*
X10429779Y3552464D01*
X10516020Y3566123D01*
X10525813Y3567674D01*
X10636170Y3623904D01*
X10716227Y3703961D01*
X10778539Y3737987D01*
X10836807Y3735072D01*
X10836870Y3735469D01*
X10959202Y3716094D01*
X11081534Y3735469D01*
X11191891Y3791699D01*
X11279471Y3879279D01*
X11325274Y3969171D01*
X11331200Y3980802D01*
X11331200Y3980803D01*
X11335701Y3989636D01*
X11355076Y4111968D01*
X11335701Y4234300D01*
X11279471Y4344657D01*
X11191891Y4432237D01*
X11081534Y4488467D01*
X10994218Y4502296D01*
X10930065Y4532708D01*
X10924833Y4537650D01*
X10736757Y4725726D01*
X10702731Y4788038D01*
X10707796Y4858853D01*
X10739487Y4901187D01*
X10736758Y4903916D01*
X11167601Y5334759D01*
X11229913Y5368785D01*
X11300728Y5363720D01*
X11357564Y5321173D01*
X11371803Y5296913D01*
X11599776Y4784878D01*
X11602457Y4778372D01*
X11848783Y4129914D01*
X11851097Y4123270D01*
X11899980Y3969171D01*
X12055597Y3478607D01*
X12060851Y3462044D01*
X12062786Y3455294D01*
X12234639Y2785970D01*
X12235299Y2783400D01*
X12236856Y2776548D01*
X12315772Y2377989D01*
X12371592Y2096078D01*
X12372766Y2089141D01*
X12469311Y1402191D01*
X12470095Y1395198D01*
X12528140Y703959D01*
X12528533Y696934D01*
X12547926Y2642D01*
X12547963Y-2635D01*
X12543145Y-347717D01*
X12542961Y-352992D01*
X12504188Y-1046481D01*
X12503599Y-1053492D01*
X12426275Y-1742859D01*
X12425296Y-1749823D01*
X12331346Y-2305288D01*
X12309614Y-2433772D01*
X12308250Y-2440666D01*
X12215610Y-2848423D01*
X12154562Y-3117128D01*
X12152812Y-3123943D01*
X11961603Y-3790765D01*
X11959479Y-3797460D01*
X11731668Y-4451646D01*
X11731355Y-4452546D01*
X11728860Y-4459116D01*
X11492853Y-5031710D01*
X11464509Y-5100478D01*
X11461650Y-5106900D01*
X11177991Y-5698945D01*
X11161919Y-5732489D01*
X11158708Y-5738737D01*
X11003917Y-6020301D01*
X10824515Y-6346632D01*
X10820954Y-6352701D01*
X10453349Y-6940991D01*
X10449481Y-6946814D01*
X10075147Y-7477465D01*
X10049604Y-7513675D01*
X10045395Y-7519301D01*
X9880297Y-7727603D01*
X9614510Y-8062943D01*
X9609987Y-8068333D01*
X9149438Y-8587061D01*
X9144622Y-8592190D01*
X8948582Y-8789604D01*
X8672997Y-9067121D01*
X8655818Y-9084420D01*
X8650729Y-9089266D01*
X8135226Y-9553427D01*
X8129886Y-9557972D01*
X7956842Y-9697103D01*
X7589256Y-9992649D01*
X7583652Y-9996903D01*
X7019586Y-10400735D01*
X7013785Y-10404647D01*
X6428086Y-10776343D01*
X6422045Y-10779944D01*
X5929858Y-11055019D01*
X5816517Y-11118363D01*
X5810289Y-11121620D01*
X5186800Y-11425715D01*
X5180392Y-11428622D01*
X4540902Y-11697438D01*
X4534342Y-11699982D01*
X4366660Y-11759691D01*
X3880860Y-11932676D01*
X3874190Y-11934844D01*
X3591424Y-12018067D01*
X3208702Y-12130708D01*
X3201899Y-12132505D01*
X2526557Y-12290905D01*
X2519665Y-12292320D01*
X2282094Y-12334211D01*
X1836500Y-12412781D01*
X1829574Y-12413803D01*
X1140733Y-12495943D01*
X1133741Y-12496578D01*
X441422Y-12540136D01*
X434423Y-12540380D01*
X53936Y-12543037D01*
X-259260Y-12545223D01*
X-266294Y-12545076D01*
X-732091Y-12522295D01*
X-959164Y-12511189D01*
X-966167Y-12510650D01*
X-1656060Y-12438140D01*
X-1663035Y-12437209D01*
X-2347777Y-12326304D01*
X-2354688Y-12324986D01*
X-2892911Y-12206651D01*
X-3032218Y-12176022D01*
X-3039026Y-12174324D01*
X-3707142Y-11987783D01*
X-3713864Y-11985703D01*
X-4370562Y-11762144D01*
X-4377156Y-11759691D01*
X-4672155Y-11640504D01*
X-5020324Y-11499835D01*
X-5026756Y-11497026D01*
X-5654417Y-11201670D01*
X-5660696Y-11198499D01*
X-6270907Y-10868559D01*
X-6277000Y-10865041D01*
X-6867825Y-10501563D01*
X-6873713Y-10497710D01*
X-7443340Y-10101808D01*
X-7449003Y-10097632D01*
X-7995617Y-9670571D01*
X-8001039Y-9666086D01*
X-8522971Y-9209169D01*
X-8528134Y-9204389D01*
X-8631396Y-9103267D01*
X-8828712Y-8910042D01*
X-9023774Y-8719023D01*
X-9028661Y-8713961D01*
X-9496394Y-8201728D01*
X-9500992Y-8196402D01*
X-9939428Y-7658826D01*
X-9943721Y-7653251D01*
X-10351459Y-7092048D01*
X-10355434Y-7086242D01*
X-10526744Y-6820421D01*
X-10731210Y-6503152D01*
X-10734839Y-6497162D01*
X-10998700Y-6032681D01*
X-7267831Y-6032681D01*
X-7262104Y-6040331D01*
X-7090949Y-6145216D01*
X-7082154Y-6149698D01*
X-6872003Y-6236745D01*
X-6862618Y-6239794D01*
X-6641437Y-6292896D01*
X-6631690Y-6294439D01*
X-6404921Y-6312286D01*
X-6395061Y-6312286D01*
X-6168292Y-6294439D01*
X-6158545Y-6292896D01*
X-5937364Y-6239794D01*
X-5927979Y-6236745D01*
X-5717828Y-6149698D01*
X-5709033Y-6145216D01*
X-5541546Y-6042579D01*
X-5532084Y-6032121D01*
X-5535867Y-6023345D01*
X-6387179Y-5172033D01*
X-6401123Y-5164419D01*
X-6402956Y-5164550D01*
X-6409571Y-5168801D01*
X-7261071Y-6020301D01*
X-7267831Y-6032681D01*
X-10998700Y-6032681D01*
X-11077488Y-5893988D01*
X-11080788Y-5887783D01*
X-11174321Y-5699361D01*
X-11389231Y-5266429D01*
X-11392180Y-5260047D01*
X-11460571Y-5100478D01*
X-11665453Y-4622452D01*
X-11668040Y-4615916D01*
X-11905293Y-3964068D01*
X-11907514Y-3957392D01*
X-12108009Y-3293323D01*
X-12109854Y-3286533D01*
X-12150006Y-3120561D01*
X-12187727Y-2964641D01*
X-12272968Y-2612297D01*
X-12274431Y-2605415D01*
X-12330419Y-2300360D01*
X-12399658Y-1923112D01*
X-12400732Y-1916168D01*
X-12421745Y-1749827D01*
X-12487671Y-1227968D01*
X-12488358Y-1220965D01*
X-12536747Y-528973D01*
X-12537042Y-521943D01*
X-12546728Y171692D01*
X-12546629Y178727D01*
X-12517582Y871771D01*
X-12517092Y878791D01*
X-12449398Y1569183D01*
X-12448516Y1576163D01*
X-12424742Y1729731D01*
X-12342394Y2261672D01*
X-12341124Y2268593D01*
X-12196897Y2947128D01*
X-12195242Y2953967D01*
X-12121037Y3227088D01*
X-12013363Y3623393D01*
X-12011333Y3630115D01*
X-12011066Y3630915D01*
X-11792377Y4288320D01*
X-11789971Y4294932D01*
X-11534604Y4939914D01*
X-11531832Y4946381D01*
X-11358654Y5321173D01*
X-11240858Y5576106D01*
X-11237734Y5582399D01*
X-11219835Y5616061D01*
X-10912074Y6194876D01*
X-10908603Y6200987D01*
X-10885452Y6239213D01*
X-10549252Y6794347D01*
X-10545441Y6800260D01*
X-10153534Y7372624D01*
X-10149401Y7378312D01*
X-9726144Y7927922D01*
X-9721697Y7933375D01*
X-9356888Y8356011D01*
X-9268437Y8458482D01*
X-9263699Y8463672D01*
X-9227290Y8501374D01*
X-8834902Y8907704D01*
X-8781823Y8962669D01*
X-8776796Y8967592D01*
X-8267814Y9438914D01*
X-8262540Y9443532D01*
X-7728010Y9885734D01*
X-7722505Y9890034D01*
X-7164130Y10301704D01*
X-7158359Y10305714D01*
X-7074832Y10360372D01*
X-6577921Y10685542D01*
X-6571928Y10689229D01*
X-5971189Y11036065D01*
X-5965000Y11039412D01*
X-5746074Y11150000D01*
X1904126Y11150000D01*
X1923501Y11027668D01*
X1979731Y10917311D01*
X1986743Y10910299D01*
X1992570Y10902279D01*
X1991420Y10901444D01*
X2020421Y10848335D01*
X2023300Y10821552D01*
X2023300Y9047800D01*
X2023159Y9045873D01*
X2021527Y9041121D01*
X2021961Y9029560D01*
X2023211Y8996264D01*
X2023300Y8991537D01*
X2023300Y8974264D01*
X2024133Y8969792D01*
X2024304Y8967159D01*
X2025394Y8938115D01*
X2029986Y8927426D01*
X2031618Y8920185D01*
X2032579Y8917022D01*
X2035250Y8910098D01*
X2037380Y8898663D01*
X2043482Y8888764D01*
X2043484Y8888758D01*
X2048909Y8879957D01*
X2057412Y8863588D01*
X2066083Y8843407D01*
X2069778Y8838909D01*
X2071968Y8836719D01*
X2074019Y8834457D01*
X2073737Y8834201D01*
X2077524Y8829411D01*
X2077551Y8829435D01*
X2085364Y8820818D01*
X2091469Y8810915D01*
X2110986Y8796074D01*
X2123814Y8784873D01*
X3074318Y7834369D01*
X3108344Y7772057D01*
X3109671Y7764989D01*
X3123501Y7677668D01*
X3128002Y7668835D01*
X3128002Y7668834D01*
X3136665Y7651832D01*
X3179731Y7567311D01*
X3267311Y7479731D01*
X3377668Y7423501D01*
X3500000Y7404126D01*
X3622332Y7423501D01*
X3732689Y7479731D01*
X3820269Y7567311D01*
X3863335Y7651832D01*
X3871998Y7668834D01*
X3871998Y7668835D01*
X3876499Y7677668D01*
X3895874Y7800000D01*
X3876499Y7922332D01*
X3820269Y8032689D01*
X3732689Y8120269D01*
X3622332Y8176499D01*
X3535016Y8190328D01*
X3470863Y8220740D01*
X3465631Y8225682D01*
X2613605Y9077708D01*
X2579579Y9140020D01*
X2576700Y9166803D01*
X2576700Y10821552D01*
X2596702Y10889673D01*
X2612640Y10909449D01*
X2613259Y10910301D01*
X2620269Y10917311D01*
X2676499Y11027668D01*
X2695874Y11150000D01*
X2676499Y11272332D01*
X2620269Y11382689D01*
X2532689Y11470269D01*
X2422332Y11526499D01*
X2300000Y11545874D01*
X2177668Y11526499D01*
X2067311Y11470269D01*
X1979731Y11382689D01*
X1923501Y11272332D01*
X1904126Y11150000D01*
X-5746074Y11150000D01*
X-5345819Y11352184D01*
X-5339452Y11355180D01*
X-5260438Y11389700D01*
X-4703791Y11632893D01*
X-4697267Y11635529D01*
X-4198720Y11820937D01*
X-4047074Y11877334D01*
X-4040424Y11879597D01*
X-3527514Y12038369D01*
X-3377765Y12084724D01*
X-3370988Y12086616D01*
X-2697915Y12254432D01*
X-2691043Y12255943D01*
X-2440146Y12303804D01*
X-2009630Y12385930D01*
X-2002716Y12387049D01*
X-1632187Y12436489D01*
X-1315120Y12478794D01*
X-1308123Y12479530D01*
X-846662Y12515037D01*
X-616460Y12532750D01*
X-609439Y12533093D01*
X-480103Y12535802D01*
X84080Y12547620D01*
X91116Y12547571D01*
G37*
%TD.AperFunction*%
%TD*%
%TA.AperFunction,Conductor*%
%TO.N,+BATT*%
G36*
X7196458Y10275649D02*
G01*
X7301563Y10204755D01*
X7307282Y10200661D01*
X7808739Y9820035D01*
X7859819Y9781263D01*
X7865300Y9776857D01*
X8393578Y9327256D01*
X8398789Y9322564D01*
X8901157Y8844166D01*
X8906097Y8839191D01*
X8923866Y8820269D01*
X8980301Y8760172D01*
X9012352Y8696821D01*
X9005065Y8626200D01*
X8960754Y8570729D01*
X8936671Y8557511D01*
X8917827Y8549705D01*
X8909029Y8545222D01*
X8741542Y8442585D01*
X8732080Y8432127D01*
X8735863Y8423351D01*
X10816590Y6342624D01*
X10836171Y6317290D01*
X10888752Y6227668D01*
X10994121Y6048070D01*
X10997506Y6041912D01*
X11157291Y5731006D01*
X11170638Y5661278D01*
X11144168Y5595401D01*
X11134319Y5584319D01*
X10595337Y5045337D01*
X10533025Y5011311D01*
X10462210Y5016376D01*
X10417147Y5045337D01*
X10376429Y5086055D01*
X10353257Y5117947D01*
X10348304Y5127668D01*
X10320269Y5182689D01*
X10232689Y5270269D01*
X10122332Y5326499D01*
X10000000Y5345874D01*
X9877668Y5326499D01*
X9767311Y5270269D01*
X9679731Y5182689D01*
X9651696Y5127668D01*
X9635455Y5095792D01*
X9623501Y5072332D01*
X9621950Y5062541D01*
X9621950Y5062540D01*
X9607939Y4974076D01*
X9577527Y4909923D01*
X9523239Y4874485D01*
X9515050Y4873188D01*
X9404693Y4816958D01*
X9332155Y4744420D01*
X9269843Y4710394D01*
X9199028Y4715459D01*
X9142192Y4758006D01*
X9123011Y4803389D01*
X9121889Y4803024D01*
X9118824Y4812458D01*
X9117273Y4822250D01*
X9061043Y4932607D01*
X8973463Y5020187D01*
X8863106Y5076417D01*
X8740774Y5095792D01*
X8618442Y5076417D01*
X8508085Y5020187D01*
X8420505Y4932607D01*
X8364275Y4822250D01*
X8344900Y4699918D01*
X8364275Y4577586D01*
X8420505Y4467229D01*
X8508085Y4379649D01*
X8618442Y4323419D01*
X8628235Y4321868D01*
X8705757Y4309590D01*
X8769910Y4279178D01*
X8775142Y4274236D01*
X9210594Y3838784D01*
X9244620Y3776472D01*
X9239555Y3705657D01*
X9210594Y3660594D01*
X8100000Y2550000D01*
X8100000Y700000D01*
X8864428Y-64428D01*
X8898451Y-126737D01*
X8901289Y-150285D01*
X8939613Y-1644905D01*
X8996686Y-3870770D01*
X8978436Y-3939381D01*
X8925990Y-3987234D01*
X8870727Y-4000000D01*
X8394326Y-4000000D01*
X8326205Y-3979998D01*
X8279712Y-3926342D01*
X8269608Y-3856068D01*
X8280934Y-3819062D01*
X8327726Y-3722483D01*
X8327726Y-3722482D01*
X8331641Y-3714402D01*
X8353241Y-3586017D01*
X8353378Y-3574798D01*
X8334922Y-3445923D01*
X8301276Y-3371923D01*
X8284752Y-3335580D01*
X8284751Y-3335578D01*
X8281036Y-3327408D01*
X8196054Y-3228781D01*
X8086805Y-3157970D01*
X7962074Y-3120668D01*
X7953098Y-3120613D01*
X7953097Y-3120613D01*
X7899882Y-3120288D01*
X7831887Y-3119872D01*
X7706709Y-3155648D01*
X7596604Y-3225119D01*
X7510423Y-3322701D01*
X7506608Y-3330826D01*
X7506607Y-3330828D01*
X7482923Y-3381275D01*
X7455094Y-3440549D01*
X7435064Y-3569188D01*
X7436228Y-3578092D01*
X7436119Y-3587064D01*
X7433242Y-3587029D01*
X7424515Y-3642715D01*
X7399668Y-3678021D01*
X7141294Y-3936395D01*
X7078982Y-3970421D01*
X7052199Y-3973300D01*
X4616803Y-3973300D01*
X4548682Y-3953298D01*
X4527708Y-3936395D01*
X3999745Y-3408432D01*
X3998482Y-3406969D01*
X3996276Y-3402456D01*
X3963361Y-3371923D01*
X3959956Y-3368643D01*
X3947747Y-3356434D01*
X3943997Y-3353862D01*
X3942007Y-3352114D01*
X3929235Y-3340266D01*
X3929233Y-3340265D01*
X3920705Y-3332354D01*
X3909900Y-3328043D01*
X3903627Y-3324078D01*
X3900711Y-3322521D01*
X3893926Y-3319514D01*
X3884333Y-3312933D01*
X3873017Y-3310247D01*
X3873016Y-3310247D01*
X3862957Y-3307860D01*
X3845370Y-3302297D01*
X3824965Y-3294157D01*
X3819172Y-3293589D01*
X3816087Y-3293589D01*
X3813020Y-3293439D01*
X3813039Y-3293059D01*
X3806980Y-3292350D01*
X3806978Y-3292387D01*
X3795360Y-3291819D01*
X3784039Y-3289132D01*
X3772510Y-3290701D01*
X3772509Y-3290701D01*
X3764317Y-3291816D01*
X3760122Y-3292387D01*
X3759747Y-3292438D01*
X3742756Y-3293589D01*
X3127511Y-3293589D01*
X3125584Y-3293448D01*
X3120832Y-3291816D01*
X3109271Y-3292250D01*
X3075975Y-3293500D01*
X3071248Y-3293589D01*
X3053975Y-3293589D01*
X3049503Y-3294422D01*
X3046870Y-3294593D01*
X3017826Y-3295683D01*
X3007139Y-3300275D01*
X2999909Y-3301904D01*
X2996732Y-3302869D01*
X2989813Y-3305539D01*
X2978374Y-3307669D01*
X2968470Y-3313774D01*
X2968468Y-3313775D01*
X2959670Y-3319198D01*
X2943293Y-3327706D01*
X2923118Y-3336373D01*
X2918620Y-3340067D01*
X2916439Y-3342248D01*
X2914163Y-3344312D01*
X2913907Y-3344030D01*
X2909122Y-3347813D01*
X2909146Y-3347840D01*
X2900529Y-3355653D01*
X2890626Y-3361758D01*
X2875785Y-3381275D01*
X2864584Y-3394103D01*
X2295592Y-3963095D01*
X2233280Y-3997121D01*
X2206497Y-4000000D01*
X1500000Y-4000000D01*
X36905Y-5463095D01*
X-25407Y-5497121D01*
X-52190Y-5500000D01*
X-5200992Y-5500000D01*
X-5269113Y-5479998D01*
X-5315606Y-5426342D01*
X-5325710Y-5356068D01*
X-5310927Y-5312435D01*
X-5301404Y-5295430D01*
X-5298581Y-5290390D01*
X-5296725Y-5284923D01*
X-5296723Y-5284918D01*
X-5229516Y-5086932D01*
X-5229515Y-5086927D01*
X-5227660Y-5081463D01*
X-5226832Y-5075754D01*
X-5226831Y-5075749D01*
X-5196533Y-4866783D01*
X-5196000Y-4863109D01*
X-5194348Y-4800011D01*
X-5214537Y-4580300D01*
X-5228396Y-4531157D01*
X-5246573Y-4466708D01*
X-5274426Y-4367947D01*
X-5372011Y-4170064D01*
X-5424330Y-4100000D01*
X-5500571Y-3997902D01*
X-5500571Y-3997901D01*
X-5504024Y-3993278D01*
X-5636552Y-3870770D01*
X-5661802Y-3847429D01*
X-5661805Y-3847427D01*
X-5666042Y-3843510D01*
X-5852641Y-3725775D01*
X-6057570Y-3644017D01*
X-6063230Y-3642891D01*
X-6063234Y-3642890D01*
X-6268300Y-3602100D01*
X-6268303Y-3602100D01*
X-6273967Y-3600973D01*
X-6279742Y-3600897D01*
X-6279746Y-3600897D01*
X-6390487Y-3599448D01*
X-6494585Y-3598085D01*
X-6500282Y-3599064D01*
X-6500283Y-3599064D01*
X-6706337Y-3634470D01*
X-6706338Y-3634470D01*
X-6712034Y-3635449D01*
X-6919034Y-3711815D01*
X-6923995Y-3714767D01*
X-6923996Y-3714767D01*
X-7099299Y-3819062D01*
X-7108650Y-3824625D01*
X-7274534Y-3970101D01*
X-7278115Y-3974643D01*
X-7282086Y-3978828D01*
X-7283945Y-3977064D01*
X-7332891Y-4011856D01*
X-7403810Y-4015174D01*
X-7465264Y-3979623D01*
X-7497743Y-3916491D01*
X-7500000Y-3892751D01*
X-7500000Y-2626000D01*
X-7479998Y-2557879D01*
X-7426342Y-2511386D01*
X-7374000Y-2500000D01*
X-1500000Y-2500000D01*
X-644905Y-1644905D01*
X-582593Y-1610879D01*
X-555810Y-1608000D01*
X-272115Y-1608000D01*
X-256876Y-1603525D01*
X-255671Y-1602135D01*
X-254000Y-1594452D01*
X-254000Y-1589885D01*
X254000Y-1589885D01*
X258475Y-1605124D01*
X259865Y-1606329D01*
X267548Y-1608000D01*
X1245072Y-1608000D01*
X1253281Y-1607462D01*
X1357921Y-1593686D01*
X1373738Y-1589448D01*
X1503950Y-1535512D01*
X1518131Y-1527325D01*
X1629953Y-1441522D01*
X1641522Y-1429953D01*
X1727325Y-1318131D01*
X1735512Y-1303950D01*
X1789448Y-1173738D01*
X1793686Y-1157921D01*
X1807462Y-1053281D01*
X1808000Y-1045072D01*
X1808000Y-922115D01*
X1803525Y-906876D01*
X1802135Y-905671D01*
X1794452Y-904000D01*
X272115Y-904000D01*
X256876Y-908475D01*
X255671Y-909865D01*
X254000Y-917548D01*
X254000Y-1589885D01*
X-254000Y-1589885D01*
X-254000Y-1254000D01*
X604000Y-396000D01*
X1789885Y-396000D01*
X1805124Y-391525D01*
X1806329Y-390135D01*
X1808000Y-382452D01*
X1808000Y-254928D01*
X1807462Y-246719D01*
X1793734Y-142446D01*
X1804673Y-72298D01*
X1851801Y-19199D01*
X1918656Y0D01*
X3000000Y0D01*
X3000000Y2500000D01*
X-1346511Y2500000D01*
X-1414632Y2520002D01*
X-1461125Y2573658D01*
X-1470959Y2606288D01*
X-1471948Y2612534D01*
X-1471950Y2612541D01*
X-1473501Y2622332D01*
X-1529731Y2732689D01*
X-1528893Y2733116D01*
X-1549794Y2791695D01*
X-1550000Y2798888D01*
X-1550000Y3166419D01*
X-1529998Y3234540D01*
X-1476342Y3281033D01*
X-1406068Y3291137D01*
X-1360526Y3274207D01*
X-1360410Y3274440D01*
X-1358197Y3273341D01*
X-1356111Y3272566D01*
X-1354295Y3271404D01*
X-1197596Y3193618D01*
X-1184864Y3188934D01*
X-1016844Y3147041D01*
X-1006816Y3149259D01*
X-1004000Y3160371D01*
X-1004000Y4178000D01*
X-983998Y4246121D01*
X-930342Y4292614D01*
X-878000Y4304000D01*
X-622000Y4304000D01*
X-553879Y4283998D01*
X-507386Y4230342D01*
X-496000Y4178000D01*
X-496000Y3162769D01*
X-491597Y3147775D01*
X-485019Y3146577D01*
X-315136Y3188934D01*
X-302404Y3193618D01*
X-145700Y3271407D01*
X-134274Y3278714D01*
X2070Y3388336D01*
X11664Y3397931D01*
X32191Y3423462D01*
X90464Y3464019D01*
X161412Y3466633D01*
X165639Y3465229D01*
X171769Y3461133D01*
X230252Y3449500D01*
X758089Y3449500D01*
X826210Y3429498D01*
X854539Y3404577D01*
X893946Y3357697D01*
X901414Y3352726D01*
X901415Y3352725D01*
X994850Y3290528D01*
X994853Y3290527D01*
X1002320Y3285556D01*
X1010887Y3282880D01*
X1010888Y3282879D01*
X1057757Y3268237D01*
X1126587Y3246733D01*
X1135560Y3246569D01*
X1135563Y3246568D01*
X1192790Y3245519D01*
X1256755Y3244347D01*
X1360261Y3272566D01*
X1373701Y3276230D01*
X1373703Y3276231D01*
X1382360Y3278591D01*
X1493306Y3346712D01*
X1545682Y3404576D01*
X1574648Y3436577D01*
X1574650Y3436580D01*
X1580672Y3443233D01*
X1582139Y3446260D01*
X1634639Y3489748D01*
X1684422Y3500000D01*
X4500000Y3500000D01*
X4507750Y3507595D01*
X5778509Y4752938D01*
X5841162Y4786332D01*
X5911923Y4780552D01*
X5920139Y4776630D01*
X5921659Y4775464D01*
X6067738Y4714956D01*
X6224500Y4694318D01*
X6232688Y4695396D01*
X6373074Y4713878D01*
X6381262Y4714956D01*
X6527341Y4775464D01*
X6652782Y4871718D01*
X6665913Y4888830D01*
X6744009Y4990608D01*
X6749036Y4997159D01*
X6809544Y5143238D01*
X6830182Y5300000D01*
X6809544Y5456762D01*
X6751788Y5596198D01*
X6744199Y5666785D01*
X6780006Y5734405D01*
X6982799Y5933143D01*
X7050775Y5967347D01*
X8732147Y5967347D01*
X8737874Y5959697D01*
X8909029Y5854812D01*
X8917824Y5850330D01*
X9127975Y5763283D01*
X9137360Y5760234D01*
X9358541Y5707132D01*
X9368288Y5705589D01*
X9595057Y5687742D01*
X9604917Y5687742D01*
X9831686Y5705589D01*
X9841433Y5707132D01*
X10062614Y5760234D01*
X10071999Y5763283D01*
X10282150Y5850330D01*
X10290945Y5854812D01*
X10458432Y5957449D01*
X10467894Y5967907D01*
X10464111Y5976683D01*
X9612799Y6827995D01*
X9598855Y6835609D01*
X9597022Y6835478D01*
X9590407Y6831227D01*
X8738907Y5979727D01*
X8732147Y5967347D01*
X7050775Y5967347D01*
X7051280Y5967601D01*
X7078740Y5971950D01*
X7078741Y5971950D01*
X7088532Y5973501D01*
X7198889Y6029731D01*
X7286469Y6117311D01*
X7342699Y6227668D01*
X7362074Y6350000D01*
X7342699Y6472332D01*
X7286469Y6582689D01*
X7198889Y6670269D01*
X7088532Y6726499D01*
X7084424Y6727150D01*
X7028459Y6765417D01*
X7000821Y6830813D01*
X7000000Y6845178D01*
X7000000Y6909367D01*
X7020002Y6977488D01*
X7073658Y7023981D01*
X7143932Y7034085D01*
X7183203Y7021633D01*
X7268829Y6978004D01*
X7268833Y6978003D01*
X7277668Y6973501D01*
X7400000Y6954126D01*
X7522332Y6973501D01*
X7632689Y7029731D01*
X7720269Y7117311D01*
X7759898Y7195087D01*
X8087712Y7195087D01*
X8105559Y6968318D01*
X8107102Y6958571D01*
X8160204Y6737390D01*
X8163253Y6728005D01*
X8250300Y6517854D01*
X8254782Y6509059D01*
X8357419Y6341572D01*
X8367877Y6332110D01*
X8376653Y6335893D01*
X9227965Y7187205D01*
X9235579Y7201149D01*
X9235448Y7202982D01*
X9231197Y7209597D01*
X8379697Y8061097D01*
X8367317Y8067857D01*
X8359667Y8062130D01*
X8254782Y7890975D01*
X8250300Y7882180D01*
X8163253Y7672029D01*
X8160204Y7662644D01*
X8107102Y7441463D01*
X8105559Y7431716D01*
X8087712Y7204947D01*
X8087712Y7195087D01*
X7759898Y7195087D01*
X7776499Y7227668D01*
X7795874Y7350000D01*
X7787302Y7404126D01*
X7778050Y7462539D01*
X7776499Y7472332D01*
X7720269Y7582689D01*
X7699957Y7603001D01*
X7665931Y7665313D01*
X7670996Y7736128D01*
X7676785Y7749299D01*
X7699996Y7794853D01*
X7699996Y7794854D01*
X7704497Y7803687D01*
X7723872Y7926019D01*
X7704497Y8048351D01*
X7648267Y8158708D01*
X7560687Y8246288D01*
X7461507Y8296823D01*
X7459164Y8298017D01*
X7459163Y8298017D01*
X7450330Y8302518D01*
X7327998Y8321893D01*
X7254510Y8310254D01*
X7184099Y8319354D01*
X7145705Y8345608D01*
X7036905Y8454408D01*
X7002879Y8516720D01*
X7000000Y8543503D01*
X7000000Y10171190D01*
X7020002Y10239311D01*
X7073658Y10285804D01*
X7143932Y10295908D01*
X7196458Y10275649D01*
G37*
%TD.AperFunction*%
%TD*%
M02*
