%TF.GenerationSoftware,KiCad,Pcbnew,(6.0.1)*%
%TF.CreationDate,2023-03-20T17:09:28-07:00*%
%TF.ProjectId,NoteDetector,4e6f7465-4465-4746-9563-746f722e6b69,rev?*%
%TF.SameCoordinates,Original*%
%TF.FileFunction,Legend,Top*%
%TF.FilePolarity,Positive*%
%FSLAX46Y46*%
G04 Gerber Fmt 4.6, Leading zero omitted, Abs format (unit mm)*
G04 Created by KiCad (PCBNEW (6.0.1)) date 2023-03-20 17:09:28*
%MOMM*%
%LPD*%
G01*
G04 APERTURE LIST*
%ADD10C,0.150000*%
%ADD11C,0.100000*%
%ADD12C,0.120000*%
G04 APERTURE END LIST*
D10*
X7400000Y-1450000D02*
G75*
G03*
X7400000Y-1450000I-200000J0D01*
G01*
X-6835714Y-2950000D02*
X-6892857Y-2921428D01*
X-6978571Y-2921428D01*
X-7064285Y-2950000D01*
X-7121428Y-3007142D01*
X-7150000Y-3064285D01*
X-7178571Y-3178571D01*
X-7178571Y-3264285D01*
X-7150000Y-3378571D01*
X-7121428Y-3435714D01*
X-7064285Y-3492857D01*
X-6978571Y-3521428D01*
X-6921428Y-3521428D01*
X-6835714Y-3492857D01*
X-6807142Y-3464285D01*
X-6807142Y-3264285D01*
X-6921428Y-3264285D01*
X-6550000Y-3121428D02*
X-6550000Y-3521428D01*
X-6550000Y-3178571D02*
X-6521428Y-3150000D01*
X-6464285Y-3121428D01*
X-6378571Y-3121428D01*
X-6321428Y-3150000D01*
X-6292857Y-3207142D01*
X-6292857Y-3521428D01*
X-5750000Y-3521428D02*
X-5750000Y-2921428D01*
X-5750000Y-3492857D02*
X-5807142Y-3521428D01*
X-5921428Y-3521428D01*
X-5978571Y-3492857D01*
X-6007142Y-3464285D01*
X-6035714Y-3407142D01*
X-6035714Y-3235714D01*
X-6007142Y-3178571D01*
X-5978571Y-3150000D01*
X-5921428Y-3121428D01*
X-5807142Y-3121428D01*
X-5750000Y-3150000D01*
X7878571Y6428571D02*
X8078571Y5828571D01*
X8278571Y6428571D01*
X8478571Y6057142D02*
X8935714Y6057142D01*
X8707142Y5828571D02*
X8707142Y6285714D01*
X5100000Y-6900000D02*
X4850000Y-7150000D01*
X1550000Y-9100000D02*
X1550000Y-11400000D01*
X2126384Y-8625000D02*
X3613884Y-8625000D01*
X2126384Y-8625000D02*
X1550000Y-9100000D01*
X4850000Y-7150000D02*
X3450000Y-7150000D01*
X3450000Y-7150000D02*
X3250000Y-6900000D01*
D11*
X-9368690Y3715952D02*
X-8868690Y3715952D01*
X-9225833Y3549285D01*
X-8868690Y3382619D01*
X-9368690Y3382619D01*
X-9368690Y2930238D02*
X-9106785Y2930238D01*
X-9059166Y2954047D01*
X-9035357Y3001666D01*
X-9035357Y3096904D01*
X-9059166Y3144523D01*
X-9344880Y2930238D02*
X-9368690Y2977857D01*
X-9368690Y3096904D01*
X-9344880Y3144523D01*
X-9297261Y3168333D01*
X-9249642Y3168333D01*
X-9202023Y3144523D01*
X-9178214Y3096904D01*
X-9178214Y2977857D01*
X-9154404Y2930238D01*
X-9035357Y2763571D02*
X-9035357Y2573095D01*
X-8868690Y2692142D02*
X-9297261Y2692142D01*
X-9344880Y2668333D01*
X-9368690Y2620714D01*
X-9368690Y2573095D01*
X-9035357Y2477857D02*
X-9035357Y2287380D01*
X-8868690Y2406428D02*
X-9297261Y2406428D01*
X-9344880Y2382619D01*
X-9368690Y2335000D01*
X-9368690Y2287380D01*
X-9368690Y1739761D02*
X-8868690Y1739761D01*
X-8868690Y1620714D01*
X-8892500Y1549285D01*
X-8940119Y1501666D01*
X-8987738Y1477857D01*
X-9082976Y1454047D01*
X-9154404Y1454047D01*
X-9249642Y1477857D01*
X-9297261Y1501666D01*
X-9344880Y1549285D01*
X-9368690Y1620714D01*
X-9368690Y1739761D01*
X-9368690Y1239761D02*
X-9035357Y1239761D01*
X-8868690Y1239761D02*
X-8892500Y1263571D01*
X-8916309Y1239761D01*
X-8892500Y1215952D01*
X-8868690Y1239761D01*
X-8916309Y1239761D01*
X-9368690Y930238D02*
X-9344880Y977857D01*
X-9321071Y1001666D01*
X-9273452Y1025476D01*
X-9130595Y1025476D01*
X-9082976Y1001666D01*
X-9059166Y977857D01*
X-9035357Y930238D01*
X-9035357Y858809D01*
X-9059166Y811190D01*
X-9082976Y787380D01*
X-9130595Y763571D01*
X-9273452Y763571D01*
X-9321071Y787380D01*
X-9344880Y811190D01*
X-9368690Y858809D01*
X-9368690Y930238D01*
X-9035357Y549285D02*
X-9368690Y549285D01*
X-9082976Y549285D02*
X-9059166Y525476D01*
X-9035357Y477857D01*
X-9035357Y406428D01*
X-9059166Y358809D01*
X-9106785Y335000D01*
X-9368690Y335000D01*
X-10173690Y3477857D02*
X-10173690Y3715952D01*
X-9673690Y3715952D01*
X-10173690Y3311190D02*
X-9840357Y3311190D01*
X-9673690Y3311190D02*
X-9697500Y3335000D01*
X-9721309Y3311190D01*
X-9697500Y3287380D01*
X-9673690Y3311190D01*
X-9721309Y3311190D01*
X-9840357Y2858809D02*
X-10245119Y2858809D01*
X-10292738Y2882619D01*
X-10316547Y2906428D01*
X-10340357Y2954047D01*
X-10340357Y3025476D01*
X-10316547Y3073095D01*
X-10149880Y2858809D02*
X-10173690Y2906428D01*
X-10173690Y3001666D01*
X-10149880Y3049285D01*
X-10126071Y3073095D01*
X-10078452Y3096904D01*
X-9935595Y3096904D01*
X-9887976Y3073095D01*
X-9864166Y3049285D01*
X-9840357Y3001666D01*
X-9840357Y2906428D01*
X-9864166Y2858809D01*
X-10173690Y2620714D02*
X-9673690Y2620714D01*
X-10173690Y2406428D02*
X-9911785Y2406428D01*
X-9864166Y2430238D01*
X-9840357Y2477857D01*
X-9840357Y2549285D01*
X-9864166Y2596904D01*
X-9887976Y2620714D01*
X-9840357Y2239761D02*
X-9840357Y2049285D01*
X-9673690Y2168333D02*
X-10102261Y2168333D01*
X-10149880Y2144523D01*
X-10173690Y2096904D01*
X-10173690Y2049285D01*
X-9840357Y1668333D02*
X-10173690Y1668333D01*
X-9840357Y1882619D02*
X-10102261Y1882619D01*
X-10149880Y1858809D01*
X-10173690Y1811190D01*
X-10173690Y1739761D01*
X-10149880Y1692142D01*
X-10126071Y1668333D01*
X-9840357Y1430238D02*
X-10340357Y1430238D01*
X-9864166Y1430238D02*
X-9840357Y1382619D01*
X-9840357Y1287380D01*
X-9864166Y1239761D01*
X-9887976Y1215952D01*
X-9935595Y1192142D01*
X-10078452Y1192142D01*
X-10126071Y1215952D01*
X-10149880Y1239761D01*
X-10173690Y1287380D01*
X-10173690Y1382619D01*
X-10149880Y1430238D01*
X-9840357Y596904D02*
X-10173690Y596904D01*
X-9887976Y596904D02*
X-9864166Y573095D01*
X-9840357Y525476D01*
X-9840357Y454047D01*
X-9864166Y406428D01*
X-9911785Y382619D01*
X-10173690Y382619D01*
X-10173690Y73095D02*
X-10149880Y120714D01*
X-10126071Y144523D01*
X-10078452Y168333D01*
X-9935595Y168333D01*
X-9887976Y144523D01*
X-9864166Y120714D01*
X-9840357Y73095D01*
X-9840357Y1666D01*
X-9864166Y-45952D01*
X-9887976Y-69761D01*
X-9935595Y-93571D01*
X-10078452Y-93571D01*
X-10126071Y-69761D01*
X-10149880Y-45952D01*
X-10173690Y1666D01*
X-10173690Y73095D01*
X-9840357Y-236428D02*
X-9840357Y-426904D01*
X-9673690Y-307857D02*
X-10102261Y-307857D01*
X-10149880Y-331666D01*
X-10173690Y-379285D01*
X-10173690Y-426904D01*
X-10149880Y-784047D02*
X-10173690Y-736428D01*
X-10173690Y-641190D01*
X-10149880Y-593571D01*
X-10102261Y-569761D01*
X-9911785Y-569761D01*
X-9864166Y-593571D01*
X-9840357Y-641190D01*
X-9840357Y-736428D01*
X-9864166Y-784047D01*
X-9911785Y-807857D01*
X-9959404Y-807857D01*
X-10007023Y-569761D01*
X-10978690Y3501666D02*
X-10478690Y3501666D01*
X-10954880Y3501666D02*
X-10978690Y3549285D01*
X-10978690Y3644523D01*
X-10954880Y3692142D01*
X-10931071Y3715952D01*
X-10883452Y3739761D01*
X-10740595Y3739761D01*
X-10692976Y3715952D01*
X-10669166Y3692142D01*
X-10645357Y3644523D01*
X-10645357Y3549285D01*
X-10669166Y3501666D01*
X-10954880Y3073095D02*
X-10978690Y3120714D01*
X-10978690Y3215952D01*
X-10954880Y3263571D01*
X-10907261Y3287380D01*
X-10716785Y3287380D01*
X-10669166Y3263571D01*
X-10645357Y3215952D01*
X-10645357Y3120714D01*
X-10669166Y3073095D01*
X-10716785Y3049285D01*
X-10764404Y3049285D01*
X-10812023Y3287380D01*
X-10645357Y2906428D02*
X-10645357Y2715952D01*
X-10478690Y2835000D02*
X-10907261Y2835000D01*
X-10954880Y2811190D01*
X-10978690Y2763571D01*
X-10978690Y2715952D01*
X-10954880Y2358809D02*
X-10978690Y2406428D01*
X-10978690Y2501666D01*
X-10954880Y2549285D01*
X-10907261Y2573095D01*
X-10716785Y2573095D01*
X-10669166Y2549285D01*
X-10645357Y2501666D01*
X-10645357Y2406428D01*
X-10669166Y2358809D01*
X-10716785Y2335000D01*
X-10764404Y2335000D01*
X-10812023Y2573095D01*
X-10954880Y1906428D02*
X-10978690Y1954047D01*
X-10978690Y2049285D01*
X-10954880Y2096904D01*
X-10931071Y2120714D01*
X-10883452Y2144523D01*
X-10740595Y2144523D01*
X-10692976Y2120714D01*
X-10669166Y2096904D01*
X-10645357Y2049285D01*
X-10645357Y1954047D01*
X-10669166Y1906428D01*
X-10645357Y1763571D02*
X-10645357Y1573095D01*
X-10478690Y1692142D02*
X-10907261Y1692142D01*
X-10954880Y1668333D01*
X-10978690Y1620714D01*
X-10978690Y1573095D01*
X-10978690Y1335000D02*
X-10954880Y1382619D01*
X-10931071Y1406428D01*
X-10883452Y1430238D01*
X-10740595Y1430238D01*
X-10692976Y1406428D01*
X-10669166Y1382619D01*
X-10645357Y1335000D01*
X-10645357Y1263571D01*
X-10669166Y1215952D01*
X-10692976Y1192142D01*
X-10740595Y1168333D01*
X-10883452Y1168333D01*
X-10931071Y1192142D01*
X-10954880Y1215952D01*
X-10978690Y1263571D01*
X-10978690Y1335000D01*
X-10978690Y954047D02*
X-10645357Y954047D01*
X-10740595Y954047D02*
X-10692976Y930238D01*
X-10669166Y906428D01*
X-10645357Y858809D01*
X-10645357Y811190D01*
X-11783690Y3430238D02*
X-11545595Y3596904D01*
X-11783690Y3715952D02*
X-11283690Y3715952D01*
X-11283690Y3525476D01*
X-11307500Y3477857D01*
X-11331309Y3454047D01*
X-11378928Y3430238D01*
X-11450357Y3430238D01*
X-11497976Y3454047D01*
X-11521785Y3477857D01*
X-11545595Y3525476D01*
X-11545595Y3715952D01*
X-11759880Y3025476D02*
X-11783690Y3073095D01*
X-11783690Y3168333D01*
X-11759880Y3215952D01*
X-11712261Y3239761D01*
X-11521785Y3239761D01*
X-11474166Y3215952D01*
X-11450357Y3168333D01*
X-11450357Y3073095D01*
X-11474166Y3025476D01*
X-11521785Y3001666D01*
X-11569404Y3001666D01*
X-11617023Y3239761D01*
X-11450357Y2835000D02*
X-11783690Y2715952D01*
X-11450357Y2596904D01*
X-11283690Y2454047D02*
X-11283690Y2144523D01*
X-11474166Y2311190D01*
X-11474166Y2239761D01*
X-11497976Y2192142D01*
X-11521785Y2168333D01*
X-11569404Y2144523D01*
X-11688452Y2144523D01*
X-11736071Y2168333D01*
X-11759880Y2192142D01*
X-11783690Y2239761D01*
X-11783690Y2382619D01*
X-11759880Y2430238D01*
X-11736071Y2454047D01*
X-11783690Y1549285D02*
X-11283690Y1549285D01*
X-11640833Y1382619D01*
X-11283690Y1215952D01*
X-11783690Y1215952D01*
X-11783690Y763571D02*
X-11521785Y763571D01*
X-11474166Y787380D01*
X-11450357Y835000D01*
X-11450357Y930238D01*
X-11474166Y977857D01*
X-11759880Y763571D02*
X-11783690Y811190D01*
X-11783690Y930238D01*
X-11759880Y977857D01*
X-11712261Y1001666D01*
X-11664642Y1001666D01*
X-11617023Y977857D01*
X-11593214Y930238D01*
X-11593214Y811190D01*
X-11569404Y763571D01*
X-11783690Y525476D02*
X-11450357Y525476D01*
X-11545595Y525476D02*
X-11497976Y501666D01*
X-11474166Y477857D01*
X-11450357Y430238D01*
X-11450357Y382619D01*
X-11331309Y-141190D02*
X-11307500Y-165000D01*
X-11283690Y-212619D01*
X-11283690Y-331666D01*
X-11307500Y-379285D01*
X-11331309Y-403095D01*
X-11378928Y-426904D01*
X-11426547Y-426904D01*
X-11497976Y-403095D01*
X-11783690Y-117380D01*
X-11783690Y-426904D01*
X-11283690Y-736428D02*
X-11283690Y-784047D01*
X-11307500Y-831666D01*
X-11331309Y-855476D01*
X-11378928Y-879285D01*
X-11474166Y-903095D01*
X-11593214Y-903095D01*
X-11688452Y-879285D01*
X-11736071Y-855476D01*
X-11759880Y-831666D01*
X-11783690Y-784047D01*
X-11783690Y-736428D01*
X-11759880Y-688809D01*
X-11736071Y-665000D01*
X-11688452Y-641190D01*
X-11593214Y-617380D01*
X-11474166Y-617380D01*
X-11378928Y-641190D01*
X-11331309Y-665000D01*
X-11307500Y-688809D01*
X-11283690Y-736428D01*
X-11331309Y-1474523D02*
X-11307500Y-1498333D01*
X-11283690Y-1545952D01*
X-11283690Y-1664999D01*
X-11307500Y-1712619D01*
X-11331309Y-1736428D01*
X-11378928Y-1760238D01*
X-11426547Y-1760238D01*
X-11497976Y-1736428D01*
X-11783690Y-1450714D01*
X-11783690Y-1760238D01*
X-11283690Y-2069761D02*
X-11283690Y-2117380D01*
X-11307500Y-2164999D01*
X-11331309Y-2188809D01*
X-11378928Y-2212619D01*
X-11474166Y-2236428D01*
X-11593214Y-2236428D01*
X-11688452Y-2212619D01*
X-11736071Y-2188809D01*
X-11759880Y-2164999D01*
X-11783690Y-2117380D01*
X-11783690Y-2069761D01*
X-11759880Y-2022142D01*
X-11736071Y-1998333D01*
X-11688452Y-1974523D01*
X-11593214Y-1950714D01*
X-11474166Y-1950714D01*
X-11378928Y-1974523D01*
X-11331309Y-1998333D01*
X-11307500Y-2022142D01*
X-11283690Y-2069761D01*
X-11331309Y-2426904D02*
X-11307500Y-2450714D01*
X-11283690Y-2498333D01*
X-11283690Y-2617380D01*
X-11307500Y-2664999D01*
X-11331309Y-2688809D01*
X-11378928Y-2712619D01*
X-11426547Y-2712619D01*
X-11497976Y-2688809D01*
X-11783690Y-2403095D01*
X-11783690Y-2712619D01*
X-11283690Y-2879285D02*
X-11283690Y-3188809D01*
X-11474166Y-3022142D01*
X-11474166Y-3093571D01*
X-11497976Y-3141190D01*
X-11521785Y-3164999D01*
X-11569404Y-3188809D01*
X-11688452Y-3188809D01*
X-11736071Y-3164999D01*
X-11759880Y-3141190D01*
X-11783690Y-3093571D01*
X-11783690Y-2950714D01*
X-11759880Y-2903095D01*
X-11736071Y-2879285D01*
%TO.C,R22*%
X4064285Y5928571D02*
X3864285Y6214285D01*
X3721428Y5928571D02*
X3721428Y6528571D01*
X3950000Y6528571D01*
X4007142Y6500000D01*
X4035714Y6471428D01*
X4064285Y6414285D01*
X4064285Y6328571D01*
X4035714Y6271428D01*
X4007142Y6242857D01*
X3950000Y6214285D01*
X3721428Y6214285D01*
X4292857Y6471428D02*
X4321428Y6500000D01*
X4378571Y6528571D01*
X4521428Y6528571D01*
X4578571Y6500000D01*
X4607142Y6471428D01*
X4635714Y6414285D01*
X4635714Y6357142D01*
X4607142Y6271428D01*
X4264285Y5928571D01*
X4635714Y5928571D01*
X4864285Y6471428D02*
X4892857Y6500000D01*
X4950000Y6528571D01*
X5092857Y6528571D01*
X5150000Y6500000D01*
X5178571Y6471428D01*
X5207142Y6414285D01*
X5207142Y6357142D01*
X5178571Y6271428D01*
X4835714Y5928571D01*
X5207142Y5928571D01*
%TO.C,R21*%
X4564285Y10478571D02*
X4364285Y10764285D01*
X4221428Y10478571D02*
X4221428Y11078571D01*
X4450000Y11078571D01*
X4507142Y11050000D01*
X4535714Y11021428D01*
X4564285Y10964285D01*
X4564285Y10878571D01*
X4535714Y10821428D01*
X4507142Y10792857D01*
X4450000Y10764285D01*
X4221428Y10764285D01*
X4792857Y11021428D02*
X4821428Y11050000D01*
X4878571Y11078571D01*
X5021428Y11078571D01*
X5078571Y11050000D01*
X5107142Y11021428D01*
X5135714Y10964285D01*
X5135714Y10907142D01*
X5107142Y10821428D01*
X4764285Y10478571D01*
X5135714Y10478571D01*
X5707142Y10478571D02*
X5364285Y10478571D01*
X5535714Y10478571D02*
X5535714Y11078571D01*
X5478571Y10992857D01*
X5421428Y10935714D01*
X5364285Y10907142D01*
%TO.C,R7*%
X5521428Y-5000000D02*
X5235714Y-5200000D01*
X5521428Y-5342857D02*
X4921428Y-5342857D01*
X4921428Y-5114285D01*
X4950000Y-5057142D01*
X4978571Y-5028571D01*
X5035714Y-5000000D01*
X5121428Y-5000000D01*
X5178571Y-5028571D01*
X5207142Y-5057142D01*
X5235714Y-5114285D01*
X5235714Y-5342857D01*
X4921428Y-4800000D02*
X4921428Y-4400000D01*
X5521428Y-4657142D01*
%TO.C,C8*%
X-1535714Y-9750000D02*
X-1507142Y-9778571D01*
X-1478571Y-9864285D01*
X-1478571Y-9921428D01*
X-1507142Y-10007142D01*
X-1564285Y-10064285D01*
X-1621428Y-10092857D01*
X-1735714Y-10121428D01*
X-1821428Y-10121428D01*
X-1935714Y-10092857D01*
X-1992857Y-10064285D01*
X-2050000Y-10007142D01*
X-2078571Y-9921428D01*
X-2078571Y-9864285D01*
X-2050000Y-9778571D01*
X-2021428Y-9750000D01*
X-1821428Y-9407142D02*
X-1850000Y-9464285D01*
X-1878571Y-9492857D01*
X-1935714Y-9521428D01*
X-1964285Y-9521428D01*
X-2021428Y-9492857D01*
X-2050000Y-9464285D01*
X-2078571Y-9407142D01*
X-2078571Y-9292857D01*
X-2050000Y-9235714D01*
X-2021428Y-9207142D01*
X-1964285Y-9178571D01*
X-1935714Y-9178571D01*
X-1878571Y-9207142D01*
X-1850000Y-9235714D01*
X-1821428Y-9292857D01*
X-1821428Y-9407142D01*
X-1792857Y-9464285D01*
X-1764285Y-9492857D01*
X-1707142Y-9521428D01*
X-1592857Y-9521428D01*
X-1535714Y-9492857D01*
X-1507142Y-9464285D01*
X-1478571Y-9407142D01*
X-1478571Y-9292857D01*
X-1507142Y-9235714D01*
X-1535714Y-9207142D01*
X-1592857Y-9178571D01*
X-1707142Y-9178571D01*
X-1764285Y-9207142D01*
X-1792857Y-9235714D01*
X-1821428Y-9292857D01*
%TO.C,R11*%
X-135714Y-4571428D02*
X-335714Y-4285714D01*
X-478571Y-4571428D02*
X-478571Y-3971428D01*
X-249999Y-3971428D01*
X-192857Y-4000000D01*
X-164285Y-4028571D01*
X-135714Y-4085714D01*
X-135714Y-4171428D01*
X-164285Y-4228571D01*
X-192857Y-4257142D01*
X-249999Y-4285714D01*
X-478571Y-4285714D01*
X435714Y-4571428D02*
X92857Y-4571428D01*
X264285Y-4571428D02*
X264285Y-3971428D01*
X207142Y-4057142D01*
X150000Y-4114285D01*
X92857Y-4142857D01*
X1007142Y-4571428D02*
X664285Y-4571428D01*
X835714Y-4571428D02*
X835714Y-3971428D01*
X778571Y-4057142D01*
X721428Y-4114285D01*
X664285Y-4142857D01*
%TO.C,R20*%
X1421428Y5214285D02*
X1135714Y5014285D01*
X1421428Y4871428D02*
X821428Y4871428D01*
X821428Y5100000D01*
X850000Y5157142D01*
X878571Y5185714D01*
X935714Y5214285D01*
X1021428Y5214285D01*
X1078571Y5185714D01*
X1107142Y5157142D01*
X1135714Y5100000D01*
X1135714Y4871428D01*
X878571Y5442857D02*
X850000Y5471428D01*
X821428Y5528571D01*
X821428Y5671428D01*
X850000Y5728571D01*
X878571Y5757142D01*
X935714Y5785714D01*
X992857Y5785714D01*
X1078571Y5757142D01*
X1421428Y5414285D01*
X1421428Y5785714D01*
X821428Y6157142D02*
X821428Y6214285D01*
X850000Y6271428D01*
X878571Y6300000D01*
X935714Y6328571D01*
X1050000Y6357142D01*
X1192857Y6357142D01*
X1307142Y6328571D01*
X1364285Y6300000D01*
X1392857Y6271428D01*
X1421428Y6214285D01*
X1421428Y6157142D01*
X1392857Y6100000D01*
X1364285Y6071428D01*
X1307142Y6042857D01*
X1192857Y6014285D01*
X1050000Y6014285D01*
X935714Y6042857D01*
X878571Y6071428D01*
X850000Y6100000D01*
X821428Y6157142D01*
%TO.C,R16*%
X-3178571Y-6085714D02*
X-3464285Y-6285714D01*
X-3178571Y-6428571D02*
X-3778571Y-6428571D01*
X-3778571Y-6200000D01*
X-3750000Y-6142857D01*
X-3721428Y-6114285D01*
X-3664285Y-6085714D01*
X-3578571Y-6085714D01*
X-3521428Y-6114285D01*
X-3492857Y-6142857D01*
X-3464285Y-6200000D01*
X-3464285Y-6428571D01*
X-3178571Y-5514285D02*
X-3178571Y-5857142D01*
X-3178571Y-5685714D02*
X-3778571Y-5685714D01*
X-3692857Y-5742857D01*
X-3635714Y-5799999D01*
X-3607142Y-5857142D01*
X-3778571Y-5000000D02*
X-3778571Y-5114285D01*
X-3750000Y-5171428D01*
X-3721428Y-5200000D01*
X-3635714Y-5257142D01*
X-3521428Y-5285714D01*
X-3292857Y-5285714D01*
X-3235714Y-5257142D01*
X-3207142Y-5228571D01*
X-3178571Y-5171428D01*
X-3178571Y-5057142D01*
X-3207142Y-5000000D01*
X-3235714Y-4971428D01*
X-3292857Y-4942857D01*
X-3435714Y-4942857D01*
X-3492857Y-4971428D01*
X-3521428Y-5000000D01*
X-3550000Y-5057142D01*
X-3550000Y-5171428D01*
X-3521428Y-5228571D01*
X-3492857Y-5257142D01*
X-3435714Y-5285714D01*
%TO.C,C1*%
X-10261384Y-2564285D02*
X-10289955Y-2592857D01*
X-10375669Y-2621428D01*
X-10432812Y-2621428D01*
X-10518526Y-2592857D01*
X-10575669Y-2535714D01*
X-10604241Y-2478571D01*
X-10632812Y-2364285D01*
X-10632812Y-2278571D01*
X-10604241Y-2164285D01*
X-10575669Y-2107142D01*
X-10518526Y-2050000D01*
X-10432812Y-2021428D01*
X-10375669Y-2021428D01*
X-10289955Y-2050000D01*
X-10261384Y-2078571D01*
X-9689955Y-2621428D02*
X-10032812Y-2621428D01*
X-9861384Y-2621428D02*
X-9861384Y-2021428D01*
X-9918526Y-2107142D01*
X-9975669Y-2164285D01*
X-10032812Y-2192857D01*
%TO.C,J2*%
X-3850000Y-6871428D02*
X-3850000Y-7300000D01*
X-3878571Y-7385714D01*
X-3935714Y-7442857D01*
X-4021428Y-7471428D01*
X-4078571Y-7471428D01*
X-3592857Y-6928571D02*
X-3564285Y-6900000D01*
X-3507142Y-6871428D01*
X-3364285Y-6871428D01*
X-3307142Y-6900000D01*
X-3278571Y-6928571D01*
X-3250000Y-6985714D01*
X-3250000Y-7042857D01*
X-3278571Y-7128571D01*
X-3621428Y-7471428D01*
X-3250000Y-7471428D01*
%TO.C,C5*%
X-4085714Y-3550000D02*
X-4057142Y-3578571D01*
X-4028571Y-3664285D01*
X-4028571Y-3721428D01*
X-4057142Y-3807142D01*
X-4114285Y-3864285D01*
X-4171428Y-3892857D01*
X-4285714Y-3921428D01*
X-4371428Y-3921428D01*
X-4485714Y-3892857D01*
X-4542857Y-3864285D01*
X-4600000Y-3807142D01*
X-4628571Y-3721428D01*
X-4628571Y-3664285D01*
X-4600000Y-3578571D01*
X-4571428Y-3550000D01*
X-4628571Y-3007142D02*
X-4628571Y-3292857D01*
X-4342857Y-3321428D01*
X-4371428Y-3292857D01*
X-4400000Y-3235714D01*
X-4400000Y-3092857D01*
X-4371428Y-3035714D01*
X-4342857Y-3007142D01*
X-4285714Y-2978571D01*
X-4142857Y-2978571D01*
X-4085714Y-3007142D01*
X-4057142Y-3035714D01*
X-4028571Y-3092857D01*
X-4028571Y-3235714D01*
X-4057142Y-3292857D01*
X-4085714Y-3321428D01*
%TO.C,R12*%
X5464285Y-10421428D02*
X5264285Y-10135714D01*
X5121428Y-10421428D02*
X5121428Y-9821428D01*
X5350000Y-9821428D01*
X5407142Y-9850000D01*
X5435714Y-9878571D01*
X5464285Y-9935714D01*
X5464285Y-10021428D01*
X5435714Y-10078571D01*
X5407142Y-10107142D01*
X5350000Y-10135714D01*
X5121428Y-10135714D01*
X6035714Y-10421428D02*
X5692857Y-10421428D01*
X5864285Y-10421428D02*
X5864285Y-9821428D01*
X5807142Y-9907142D01*
X5750000Y-9964285D01*
X5692857Y-9992857D01*
X6264285Y-9878571D02*
X6292857Y-9850000D01*
X6350000Y-9821428D01*
X6492857Y-9821428D01*
X6550000Y-9850000D01*
X6578571Y-9878571D01*
X6607142Y-9935714D01*
X6607142Y-9992857D01*
X6578571Y-10078571D01*
X6235714Y-10421428D01*
X6607142Y-10421428D01*
%TO.C,J1*%
X5700000Y828571D02*
X5700000Y400000D01*
X5671428Y314285D01*
X5614285Y257142D01*
X5528571Y228571D01*
X5471428Y228571D01*
X6300000Y228571D02*
X5957142Y228571D01*
X6128571Y228571D02*
X6128571Y828571D01*
X6071428Y742857D01*
X6014285Y685714D01*
X5957142Y657142D01*
%TO.C,C12*%
X6414285Y-5685714D02*
X6442857Y-5714285D01*
X6471428Y-5799999D01*
X6471428Y-5857142D01*
X6442857Y-5942857D01*
X6385714Y-5999999D01*
X6328571Y-6028571D01*
X6214285Y-6057142D01*
X6128571Y-6057142D01*
X6014285Y-6028571D01*
X5957142Y-5999999D01*
X5900000Y-5942857D01*
X5871428Y-5857142D01*
X5871428Y-5799999D01*
X5900000Y-5714285D01*
X5928571Y-5685714D01*
X6471428Y-5114285D02*
X6471428Y-5457142D01*
X6471428Y-5285714D02*
X5871428Y-5285714D01*
X5957142Y-5342857D01*
X6014285Y-5400000D01*
X6042857Y-5457142D01*
X5928571Y-4885714D02*
X5900000Y-4857142D01*
X5871428Y-4800000D01*
X5871428Y-4657142D01*
X5900000Y-4600000D01*
X5928571Y-4571428D01*
X5985714Y-4542857D01*
X6042857Y-4542857D01*
X6128571Y-4571428D01*
X6471428Y-4914285D01*
X6471428Y-4542857D01*
%TO.C,R17*%
X-4835714Y10078571D02*
X-5035714Y10364285D01*
X-5178571Y10078571D02*
X-5178571Y10678571D01*
X-4950000Y10678571D01*
X-4892857Y10650000D01*
X-4864285Y10621428D01*
X-4835714Y10564285D01*
X-4835714Y10478571D01*
X-4864285Y10421428D01*
X-4892857Y10392857D01*
X-4950000Y10364285D01*
X-5178571Y10364285D01*
X-4264285Y10078571D02*
X-4607142Y10078571D01*
X-4435714Y10078571D02*
X-4435714Y10678571D01*
X-4492857Y10592857D01*
X-4550000Y10535714D01*
X-4607142Y10507142D01*
X-4064285Y10678571D02*
X-3664285Y10678571D01*
X-3921428Y10078571D01*
%TO.C,R14*%
X171428Y-12235714D02*
X-114285Y-12435714D01*
X171428Y-12578571D02*
X-428571Y-12578571D01*
X-428571Y-12350000D01*
X-400000Y-12292857D01*
X-371428Y-12264285D01*
X-314285Y-12235714D01*
X-228571Y-12235714D01*
X-171428Y-12264285D01*
X-142857Y-12292857D01*
X-114285Y-12350000D01*
X-114285Y-12578571D01*
X171428Y-11664285D02*
X171428Y-12007142D01*
X171428Y-11835714D02*
X-428571Y-11835714D01*
X-342857Y-11892857D01*
X-285714Y-11950000D01*
X-257142Y-12007142D01*
X-228571Y-11150000D02*
X171428Y-11150000D01*
X-457142Y-11292857D02*
X-28571Y-11435714D01*
X-28571Y-11064285D01*
%TO.C,C7*%
X3300000Y-1164285D02*
X3271428Y-1192857D01*
X3185714Y-1221428D01*
X3128571Y-1221428D01*
X3042857Y-1192857D01*
X2985714Y-1135714D01*
X2957142Y-1078571D01*
X2928571Y-964285D01*
X2928571Y-878571D01*
X2957142Y-764285D01*
X2985714Y-707142D01*
X3042857Y-650000D01*
X3128571Y-621428D01*
X3185714Y-621428D01*
X3271428Y-650000D01*
X3300000Y-678571D01*
X3500000Y-621428D02*
X3900000Y-621428D01*
X3642857Y-1221428D01*
%TO.C,R15*%
X-3585714Y-10321428D02*
X-3785714Y-10035714D01*
X-3928571Y-10321428D02*
X-3928571Y-9721428D01*
X-3700000Y-9721428D01*
X-3642857Y-9750000D01*
X-3614285Y-9778571D01*
X-3585714Y-9835714D01*
X-3585714Y-9921428D01*
X-3614285Y-9978571D01*
X-3642857Y-10007142D01*
X-3700000Y-10035714D01*
X-3928571Y-10035714D01*
X-3014285Y-10321428D02*
X-3357142Y-10321428D01*
X-3185714Y-10321428D02*
X-3185714Y-9721428D01*
X-3242857Y-9807142D01*
X-3300000Y-9864285D01*
X-3357142Y-9892857D01*
X-2471428Y-9721428D02*
X-2757142Y-9721428D01*
X-2785714Y-10007142D01*
X-2757142Y-9978571D01*
X-2700000Y-9950000D01*
X-2557142Y-9950000D01*
X-2500000Y-9978571D01*
X-2471428Y-10007142D01*
X-2442857Y-10064285D01*
X-2442857Y-10207142D01*
X-2471428Y-10264285D01*
X-2500000Y-10292857D01*
X-2557142Y-10321428D01*
X-2700000Y-10321428D01*
X-2757142Y-10292857D01*
X-2785714Y-10264285D01*
%TO.C,R18*%
X-3335714Y4478571D02*
X-3535714Y4764285D01*
X-3678571Y4478571D02*
X-3678571Y5078571D01*
X-3450000Y5078571D01*
X-3392857Y5050000D01*
X-3364285Y5021428D01*
X-3335714Y4964285D01*
X-3335714Y4878571D01*
X-3364285Y4821428D01*
X-3392857Y4792857D01*
X-3450000Y4764285D01*
X-3678571Y4764285D01*
X-2764285Y4478571D02*
X-3107142Y4478571D01*
X-2935714Y4478571D02*
X-2935714Y5078571D01*
X-2992857Y4992857D01*
X-3050000Y4935714D01*
X-3107142Y4907142D01*
X-2421428Y4821428D02*
X-2478571Y4850000D01*
X-2507142Y4878571D01*
X-2535714Y4935714D01*
X-2535714Y4964285D01*
X-2507142Y5021428D01*
X-2478571Y5050000D01*
X-2421428Y5078571D01*
X-2307142Y5078571D01*
X-2250000Y5050000D01*
X-2221428Y5021428D01*
X-2192857Y4964285D01*
X-2192857Y4935714D01*
X-2221428Y4878571D01*
X-2250000Y4850000D01*
X-2307142Y4821428D01*
X-2421428Y4821428D01*
X-2478571Y4792857D01*
X-2507142Y4764285D01*
X-2535714Y4707142D01*
X-2535714Y4592857D01*
X-2507142Y4535714D01*
X-2478571Y4507142D01*
X-2421428Y4478571D01*
X-2307142Y4478571D01*
X-2250000Y4507142D01*
X-2221428Y4535714D01*
X-2192857Y4592857D01*
X-2192857Y4707142D01*
X-2221428Y4764285D01*
X-2250000Y4792857D01*
X-2307142Y4821428D01*
%TO.C,C14*%
X-1135714Y8485714D02*
X-1164285Y8457142D01*
X-1250000Y8428571D01*
X-1307142Y8428571D01*
X-1392857Y8457142D01*
X-1450000Y8514285D01*
X-1478571Y8571428D01*
X-1507142Y8685714D01*
X-1507142Y8771428D01*
X-1478571Y8885714D01*
X-1450000Y8942857D01*
X-1392857Y9000000D01*
X-1307142Y9028571D01*
X-1250000Y9028571D01*
X-1164285Y9000000D01*
X-1135714Y8971428D01*
X-564285Y8428571D02*
X-907142Y8428571D01*
X-735714Y8428571D02*
X-735714Y9028571D01*
X-792857Y8942857D01*
X-850000Y8885714D01*
X-907142Y8857142D01*
X-50000Y8828571D02*
X-50000Y8428571D01*
X-192857Y9057142D02*
X-335714Y8628571D01*
X35714Y8628571D01*
%TO.C,C11*%
X9964285Y-7035714D02*
X9992857Y-7064285D01*
X10021428Y-7150000D01*
X10021428Y-7207142D01*
X9992857Y-7292857D01*
X9935714Y-7350000D01*
X9878571Y-7378571D01*
X9764285Y-7407142D01*
X9678571Y-7407142D01*
X9564285Y-7378571D01*
X9507142Y-7350000D01*
X9450000Y-7292857D01*
X9421428Y-7207142D01*
X9421428Y-7150000D01*
X9450000Y-7064285D01*
X9478571Y-7035714D01*
X10021428Y-6464285D02*
X10021428Y-6807142D01*
X10021428Y-6635714D02*
X9421428Y-6635714D01*
X9507142Y-6692857D01*
X9564285Y-6750000D01*
X9592857Y-6807142D01*
X10021428Y-5892857D02*
X10021428Y-6235714D01*
X10021428Y-6064285D02*
X9421428Y-6064285D01*
X9507142Y-6121428D01*
X9564285Y-6178571D01*
X9592857Y-6235714D01*
%TO.C,R5*%
X-6028571Y-7300000D02*
X-6314285Y-7500000D01*
X-6028571Y-7642857D02*
X-6628571Y-7642857D01*
X-6628571Y-7414285D01*
X-6600000Y-7357142D01*
X-6571428Y-7328571D01*
X-6514285Y-7300000D01*
X-6428571Y-7300000D01*
X-6371428Y-7328571D01*
X-6342857Y-7357142D01*
X-6314285Y-7414285D01*
X-6314285Y-7642857D01*
X-6628571Y-6757142D02*
X-6628571Y-7042857D01*
X-6342857Y-7071428D01*
X-6371428Y-7042857D01*
X-6400000Y-6985714D01*
X-6400000Y-6842857D01*
X-6371428Y-6785714D01*
X-6342857Y-6757142D01*
X-6285714Y-6728571D01*
X-6142857Y-6728571D01*
X-6085714Y-6757142D01*
X-6057142Y-6785714D01*
X-6028571Y-6842857D01*
X-6028571Y-6985714D01*
X-6057142Y-7042857D01*
X-6085714Y-7071428D01*
%TO.C,R4*%
X-8911384Y-2671428D02*
X-9111384Y-2385714D01*
X-9254241Y-2671428D02*
X-9254241Y-2071428D01*
X-9025669Y-2071428D01*
X-8968526Y-2100000D01*
X-8939955Y-2128571D01*
X-8911384Y-2185714D01*
X-8911384Y-2271428D01*
X-8939955Y-2328571D01*
X-8968526Y-2357142D01*
X-9025669Y-2385714D01*
X-9254241Y-2385714D01*
X-8397098Y-2271428D02*
X-8397098Y-2671428D01*
X-8539955Y-2042857D02*
X-8682812Y-2471428D01*
X-8311384Y-2471428D01*
%TO.C,C2*%
X-8285714Y-7400000D02*
X-8257142Y-7428571D01*
X-8228571Y-7514285D01*
X-8228571Y-7571428D01*
X-8257142Y-7657142D01*
X-8314285Y-7714285D01*
X-8371428Y-7742857D01*
X-8485714Y-7771428D01*
X-8571428Y-7771428D01*
X-8685714Y-7742857D01*
X-8742857Y-7714285D01*
X-8800000Y-7657142D01*
X-8828571Y-7571428D01*
X-8828571Y-7514285D01*
X-8800000Y-7428571D01*
X-8771428Y-7400000D01*
X-8771428Y-7171428D02*
X-8800000Y-7142857D01*
X-8828571Y-7085714D01*
X-8828571Y-6942857D01*
X-8800000Y-6885714D01*
X-8771428Y-6857142D01*
X-8714285Y-6828571D01*
X-8657142Y-6828571D01*
X-8571428Y-6857142D01*
X-8228571Y-7200000D01*
X-8228571Y-6828571D01*
%TO.C,R3*%
X-4650000Y-2071428D02*
X-4850000Y-1785714D01*
X-4992857Y-2071428D02*
X-4992857Y-1471428D01*
X-4764285Y-1471428D01*
X-4707142Y-1500000D01*
X-4678571Y-1528571D01*
X-4650000Y-1585714D01*
X-4650000Y-1671428D01*
X-4678571Y-1728571D01*
X-4707142Y-1757142D01*
X-4764285Y-1785714D01*
X-4992857Y-1785714D01*
X-4450000Y-1471428D02*
X-4078571Y-1471428D01*
X-4278571Y-1700000D01*
X-4192857Y-1700000D01*
X-4135714Y-1728571D01*
X-4107142Y-1757142D01*
X-4078571Y-1814285D01*
X-4078571Y-1957142D01*
X-4107142Y-2014285D01*
X-4135714Y-2042857D01*
X-4192857Y-2071428D01*
X-4364285Y-2071428D01*
X-4421428Y-2042857D01*
X-4450000Y-2014285D01*
%TO.C,J3*%
X-4200000Y378571D02*
X-4200000Y-50000D01*
X-4228571Y-135714D01*
X-4285714Y-192857D01*
X-4371428Y-221428D01*
X-4428571Y-221428D01*
X-3971428Y378571D02*
X-3600000Y378571D01*
X-3800000Y150000D01*
X-3714285Y150000D01*
X-3657142Y121428D01*
X-3628571Y92857D01*
X-3600000Y35714D01*
X-3600000Y-107142D01*
X-3628571Y-164285D01*
X-3657142Y-192857D01*
X-3714285Y-221428D01*
X-3885714Y-221428D01*
X-3942857Y-192857D01*
X-3971428Y-164285D01*
%TO.C,C15*%
X1314285Y1714285D02*
X1342857Y1685714D01*
X1371428Y1600000D01*
X1371428Y1542857D01*
X1342857Y1457142D01*
X1285714Y1400000D01*
X1228571Y1371428D01*
X1114285Y1342857D01*
X1028571Y1342857D01*
X914285Y1371428D01*
X857142Y1400000D01*
X800000Y1457142D01*
X771428Y1542857D01*
X771428Y1600000D01*
X800000Y1685714D01*
X828571Y1714285D01*
X1371428Y2285714D02*
X1371428Y1942857D01*
X1371428Y2114285D02*
X771428Y2114285D01*
X857142Y2057142D01*
X914285Y2000000D01*
X942857Y1942857D01*
X771428Y2828571D02*
X771428Y2542857D01*
X1057142Y2514285D01*
X1028571Y2542857D01*
X1000000Y2600000D01*
X1000000Y2742857D01*
X1028571Y2800000D01*
X1057142Y2828571D01*
X1114285Y2857142D01*
X1257142Y2857142D01*
X1314285Y2828571D01*
X1342857Y2800000D01*
X1371428Y2742857D01*
X1371428Y2600000D01*
X1342857Y2542857D01*
X1314285Y2514285D01*
%TO.C,Q4*%
X878571Y9692857D02*
X850000Y9635714D01*
X792857Y9578571D01*
X707142Y9492857D01*
X678571Y9435714D01*
X678571Y9378571D01*
X821428Y9407142D02*
X792857Y9350000D01*
X735714Y9292857D01*
X621428Y9264285D01*
X421428Y9264285D01*
X307142Y9292857D01*
X250000Y9350000D01*
X221428Y9407142D01*
X221428Y9521428D01*
X250000Y9578571D01*
X307142Y9635714D01*
X421428Y9664285D01*
X621428Y9664285D01*
X735714Y9635714D01*
X792857Y9578571D01*
X821428Y9521428D01*
X821428Y9407142D01*
X421428Y10178571D02*
X821428Y10178571D01*
X192857Y10035714D02*
X621428Y9892857D01*
X621428Y10264285D01*
%TO.C,C3*%
X5464285Y-6400000D02*
X5492857Y-6428571D01*
X5521428Y-6514285D01*
X5521428Y-6571428D01*
X5492857Y-6657142D01*
X5435714Y-6714285D01*
X5378571Y-6742857D01*
X5264285Y-6771428D01*
X5178571Y-6771428D01*
X5064285Y-6742857D01*
X5007142Y-6714285D01*
X4950000Y-6657142D01*
X4921428Y-6571428D01*
X4921428Y-6514285D01*
X4950000Y-6428571D01*
X4978571Y-6400000D01*
X4921428Y-6200000D02*
X4921428Y-5828571D01*
X5150000Y-6028571D01*
X5150000Y-5942857D01*
X5178571Y-5885714D01*
X5207142Y-5857142D01*
X5264285Y-5828571D01*
X5407142Y-5828571D01*
X5464285Y-5857142D01*
X5492857Y-5885714D01*
X5521428Y-5942857D01*
X5521428Y-6114285D01*
X5492857Y-6171428D01*
X5464285Y-6200000D01*
%TO.C,R19*%
X-2278571Y5814285D02*
X-2564285Y5614285D01*
X-2278571Y5471428D02*
X-2878571Y5471428D01*
X-2878571Y5700000D01*
X-2850000Y5757142D01*
X-2821428Y5785714D01*
X-2764285Y5814285D01*
X-2678571Y5814285D01*
X-2621428Y5785714D01*
X-2592857Y5757142D01*
X-2564285Y5700000D01*
X-2564285Y5471428D01*
X-2278571Y6385714D02*
X-2278571Y6042857D01*
X-2278571Y6214285D02*
X-2878571Y6214285D01*
X-2792857Y6157142D01*
X-2735714Y6100000D01*
X-2707142Y6042857D01*
X-2278571Y6671428D02*
X-2278571Y6785714D01*
X-2307142Y6842857D01*
X-2335714Y6871428D01*
X-2421428Y6928571D01*
X-2535714Y6957142D01*
X-2764285Y6957142D01*
X-2821428Y6928571D01*
X-2850000Y6900000D01*
X-2878571Y6842857D01*
X-2878571Y6728571D01*
X-2850000Y6671428D01*
X-2821428Y6642857D01*
X-2764285Y6614285D01*
X-2621428Y6614285D01*
X-2564285Y6642857D01*
X-2535714Y6671428D01*
X-2507142Y6728571D01*
X-2507142Y6842857D01*
X-2535714Y6900000D01*
X-2564285Y6928571D01*
X-2621428Y6957142D01*
%TO.C,Q3*%
X-6821428Y7542857D02*
X-6850000Y7485714D01*
X-6907142Y7428571D01*
X-6992857Y7342857D01*
X-7021428Y7285714D01*
X-7021428Y7228571D01*
X-6878571Y7257142D02*
X-6907142Y7200000D01*
X-6964285Y7142857D01*
X-7078571Y7114285D01*
X-7278571Y7114285D01*
X-7392857Y7142857D01*
X-7450000Y7200000D01*
X-7478571Y7257142D01*
X-7478571Y7371428D01*
X-7450000Y7428571D01*
X-7392857Y7485714D01*
X-7278571Y7514285D01*
X-7078571Y7514285D01*
X-6964285Y7485714D01*
X-6907142Y7428571D01*
X-6878571Y7371428D01*
X-6878571Y7257142D01*
X-7478571Y7714285D02*
X-7478571Y8085714D01*
X-7250000Y7885714D01*
X-7250000Y7971428D01*
X-7221428Y8028571D01*
X-7192857Y8057142D01*
X-7135714Y8085714D01*
X-6992857Y8085714D01*
X-6935714Y8057142D01*
X-6907142Y8028571D01*
X-6878571Y7971428D01*
X-6878571Y7800000D01*
X-6907142Y7742857D01*
X-6935714Y7714285D01*
%TO.C,U1*%
X-178571Y-6307142D02*
X307142Y-6307142D01*
X364285Y-6278571D01*
X392857Y-6250000D01*
X421428Y-6192857D01*
X421428Y-6078571D01*
X392857Y-6021428D01*
X364285Y-5992857D01*
X307142Y-5964285D01*
X-178571Y-5964285D01*
X421428Y-5364285D02*
X421428Y-5707142D01*
X421428Y-5535714D02*
X-178571Y-5535714D01*
X-92857Y-5592857D01*
X-35714Y-5650000D01*
X-7142Y-5707142D01*
%TO.C,C13*%
X-1185714Y1935714D02*
X-1214285Y1907142D01*
X-1300000Y1878571D01*
X-1357142Y1878571D01*
X-1442857Y1907142D01*
X-1500000Y1964285D01*
X-1528571Y2021428D01*
X-1557142Y2135714D01*
X-1557142Y2221428D01*
X-1528571Y2335714D01*
X-1500000Y2392857D01*
X-1442857Y2450000D01*
X-1357142Y2478571D01*
X-1300000Y2478571D01*
X-1214285Y2450000D01*
X-1185714Y2421428D01*
X-614285Y1878571D02*
X-957142Y1878571D01*
X-785714Y1878571D02*
X-785714Y2478571D01*
X-842857Y2392857D01*
X-900000Y2335714D01*
X-957142Y2307142D01*
X-414285Y2478571D02*
X-42857Y2478571D01*
X-242857Y2250000D01*
X-157142Y2250000D01*
X-100000Y2221428D01*
X-71428Y2192857D01*
X-42857Y2135714D01*
X-42857Y1992857D01*
X-71428Y1935714D01*
X-100000Y1907142D01*
X-157142Y1878571D01*
X-328571Y1878571D01*
X-385714Y1907142D01*
X-414285Y1935714D01*
%TO.C,R8*%
X2121428Y-12050000D02*
X1835714Y-12250000D01*
X2121428Y-12392857D02*
X1521428Y-12392857D01*
X1521428Y-12164285D01*
X1550000Y-12107142D01*
X1578571Y-12078571D01*
X1635714Y-12050000D01*
X1721428Y-12050000D01*
X1778571Y-12078571D01*
X1807142Y-12107142D01*
X1835714Y-12164285D01*
X1835714Y-12392857D01*
X1778571Y-11707142D02*
X1750000Y-11764285D01*
X1721428Y-11792857D01*
X1664285Y-11821428D01*
X1635714Y-11821428D01*
X1578571Y-11792857D01*
X1550000Y-11764285D01*
X1521428Y-11707142D01*
X1521428Y-11592857D01*
X1550000Y-11535714D01*
X1578571Y-11507142D01*
X1635714Y-11478571D01*
X1664285Y-11478571D01*
X1721428Y-11507142D01*
X1750000Y-11535714D01*
X1778571Y-11592857D01*
X1778571Y-11707142D01*
X1807142Y-11764285D01*
X1835714Y-11792857D01*
X1892857Y-11821428D01*
X2007142Y-11821428D01*
X2064285Y-11792857D01*
X2092857Y-11764285D01*
X2121428Y-11707142D01*
X2121428Y-11592857D01*
X2092857Y-11535714D01*
X2064285Y-11507142D01*
X2007142Y-11478571D01*
X1892857Y-11478571D01*
X1835714Y-11507142D01*
X1807142Y-11535714D01*
X1778571Y-11592857D01*
%TO.C,Q2*%
X-6271428Y1542857D02*
X-6300000Y1485714D01*
X-6357142Y1428571D01*
X-6442857Y1342857D01*
X-6471428Y1285714D01*
X-6471428Y1228571D01*
X-6328571Y1257142D02*
X-6357142Y1200000D01*
X-6414285Y1142857D01*
X-6528571Y1114285D01*
X-6728571Y1114285D01*
X-6842857Y1142857D01*
X-6900000Y1200000D01*
X-6928571Y1257142D01*
X-6928571Y1371428D01*
X-6900000Y1428571D01*
X-6842857Y1485714D01*
X-6728571Y1514285D01*
X-6528571Y1514285D01*
X-6414285Y1485714D01*
X-6357142Y1428571D01*
X-6328571Y1371428D01*
X-6328571Y1257142D01*
X-6871428Y1742857D02*
X-6900000Y1771428D01*
X-6928571Y1828571D01*
X-6928571Y1971428D01*
X-6900000Y2028571D01*
X-6871428Y2057142D01*
X-6814285Y2085714D01*
X-6757142Y2085714D01*
X-6671428Y2057142D01*
X-6328571Y1714285D01*
X-6328571Y2085714D01*
%TO.C,C6*%
X8564285Y-8400000D02*
X8592857Y-8428571D01*
X8621428Y-8514285D01*
X8621428Y-8571428D01*
X8592857Y-8657142D01*
X8535714Y-8714285D01*
X8478571Y-8742857D01*
X8364285Y-8771428D01*
X8278571Y-8771428D01*
X8164285Y-8742857D01*
X8107142Y-8714285D01*
X8050000Y-8657142D01*
X8021428Y-8571428D01*
X8021428Y-8514285D01*
X8050000Y-8428571D01*
X8078571Y-8400000D01*
X8021428Y-7885714D02*
X8021428Y-8000000D01*
X8050000Y-8057142D01*
X8078571Y-8085714D01*
X8164285Y-8142857D01*
X8278571Y-8171428D01*
X8507142Y-8171428D01*
X8564285Y-8142857D01*
X8592857Y-8114285D01*
X8621428Y-8057142D01*
X8621428Y-7942857D01*
X8592857Y-7885714D01*
X8564285Y-7857142D01*
X8507142Y-7828571D01*
X8364285Y-7828571D01*
X8307142Y-7857142D01*
X8278571Y-7885714D01*
X8250000Y-7942857D01*
X8250000Y-8057142D01*
X8278571Y-8114285D01*
X8307142Y-8142857D01*
X8364285Y-8171428D01*
%TO.C,J5*%
X-9900000Y7128571D02*
X-9900000Y6700000D01*
X-9928571Y6614285D01*
X-9985714Y6557142D01*
X-10071428Y6528571D01*
X-10128571Y6528571D01*
X-9328571Y7128571D02*
X-9614285Y7128571D01*
X-9642857Y6842857D01*
X-9614285Y6871428D01*
X-9557142Y6900000D01*
X-9414285Y6900000D01*
X-9357142Y6871428D01*
X-9328571Y6842857D01*
X-9300000Y6785714D01*
X-9300000Y6642857D01*
X-9328571Y6585714D01*
X-9357142Y6557142D01*
X-9414285Y6528571D01*
X-9557142Y6528571D01*
X-9614285Y6557142D01*
X-9642857Y6585714D01*
%TO.C,R13*%
X5471428Y-3035714D02*
X5185714Y-3235714D01*
X5471428Y-3378571D02*
X4871428Y-3378571D01*
X4871428Y-3150000D01*
X4900000Y-3092857D01*
X4928571Y-3064285D01*
X4985714Y-3035714D01*
X5071428Y-3035714D01*
X5128571Y-3064285D01*
X5157142Y-3092857D01*
X5185714Y-3150000D01*
X5185714Y-3378571D01*
X5471428Y-2464285D02*
X5471428Y-2807142D01*
X5471428Y-2635714D02*
X4871428Y-2635714D01*
X4957142Y-2692857D01*
X5014285Y-2750000D01*
X5042857Y-2807142D01*
X4871428Y-2264285D02*
X4871428Y-1892857D01*
X5100000Y-2092857D01*
X5100000Y-2007142D01*
X5128571Y-1950000D01*
X5157142Y-1921428D01*
X5214285Y-1892857D01*
X5357142Y-1892857D01*
X5414285Y-1921428D01*
X5442857Y-1950000D01*
X5471428Y-2007142D01*
X5471428Y-2178571D01*
X5442857Y-2235714D01*
X5414285Y-2264285D01*
%TO.C,J4*%
X10550000Y-3971428D02*
X10550000Y-4400000D01*
X10521428Y-4485714D01*
X10464285Y-4542857D01*
X10378571Y-4571428D01*
X10321428Y-4571428D01*
X11092857Y-4171428D02*
X11092857Y-4571428D01*
X10950000Y-3942857D02*
X10807142Y-4371428D01*
X11178571Y-4371428D01*
%TO.C,J7*%
X9700000Y5828571D02*
X9700000Y5400000D01*
X9671428Y5314285D01*
X9614285Y5257142D01*
X9528571Y5228571D01*
X9471428Y5228571D01*
X9928571Y5828571D02*
X10328571Y5828571D01*
X10071428Y5228571D01*
%TO.C,C4*%
X1314285Y-12100000D02*
X1342857Y-12128571D01*
X1371428Y-12214285D01*
X1371428Y-12271428D01*
X1342857Y-12357142D01*
X1285714Y-12414285D01*
X1228571Y-12442857D01*
X1114285Y-12471428D01*
X1028571Y-12471428D01*
X914285Y-12442857D01*
X857142Y-12414285D01*
X800000Y-12357142D01*
X771428Y-12271428D01*
X771428Y-12214285D01*
X800000Y-12128571D01*
X828571Y-12100000D01*
X971428Y-11585714D02*
X1371428Y-11585714D01*
X742857Y-11728571D02*
X1171428Y-11871428D01*
X1171428Y-11500000D01*
%TO.C,R1*%
X-8553571Y5250000D02*
X-8839285Y5050000D01*
X-8553571Y4907142D02*
X-9153571Y4907142D01*
X-9153571Y5135714D01*
X-9125000Y5192857D01*
X-9096428Y5221428D01*
X-9039285Y5250000D01*
X-8953571Y5250000D01*
X-8896428Y5221428D01*
X-8867857Y5192857D01*
X-8839285Y5135714D01*
X-8839285Y4907142D01*
X-8553571Y5821428D02*
X-8553571Y5478571D01*
X-8553571Y5650000D02*
X-9153571Y5650000D01*
X-9067857Y5592857D01*
X-9010714Y5535714D01*
X-8982142Y5478571D01*
%TO.C,R6*%
X5300000Y-11221428D02*
X5100000Y-10935714D01*
X4957142Y-11221428D02*
X4957142Y-10621428D01*
X5185714Y-10621428D01*
X5242857Y-10650000D01*
X5271428Y-10678571D01*
X5300000Y-10735714D01*
X5300000Y-10821428D01*
X5271428Y-10878571D01*
X5242857Y-10907142D01*
X5185714Y-10935714D01*
X4957142Y-10935714D01*
X5814285Y-10621428D02*
X5700000Y-10621428D01*
X5642857Y-10650000D01*
X5614285Y-10678571D01*
X5557142Y-10764285D01*
X5528571Y-10878571D01*
X5528571Y-11107142D01*
X5557142Y-11164285D01*
X5585714Y-11192857D01*
X5642857Y-11221428D01*
X5757142Y-11221428D01*
X5814285Y-11192857D01*
X5842857Y-11164285D01*
X5871428Y-11107142D01*
X5871428Y-10964285D01*
X5842857Y-10907142D01*
X5814285Y-10878571D01*
X5757142Y-10850000D01*
X5642857Y-10850000D01*
X5585714Y-10878571D01*
X5557142Y-10907142D01*
X5528571Y-10964285D01*
%TO.C,Q1*%
X3828571Y792857D02*
X3800000Y735714D01*
X3742857Y678571D01*
X3657142Y592857D01*
X3628571Y535714D01*
X3628571Y478571D01*
X3771428Y507142D02*
X3742857Y450000D01*
X3685714Y392857D01*
X3571428Y364285D01*
X3371428Y364285D01*
X3257142Y392857D01*
X3200000Y450000D01*
X3171428Y507142D01*
X3171428Y621428D01*
X3200000Y678571D01*
X3257142Y735714D01*
X3371428Y764285D01*
X3571428Y764285D01*
X3685714Y735714D01*
X3742857Y678571D01*
X3771428Y621428D01*
X3771428Y507142D01*
X3771428Y1335714D02*
X3771428Y992857D01*
X3771428Y1164285D02*
X3171428Y1164285D01*
X3257142Y1107142D01*
X3314285Y1050000D01*
X3342857Y992857D01*
%TO.C,U2*%
X5821428Y-2357142D02*
X6307142Y-2357142D01*
X6364285Y-2328571D01*
X6392857Y-2300000D01*
X6421428Y-2242857D01*
X6421428Y-2128571D01*
X6392857Y-2071428D01*
X6364285Y-2042857D01*
X6307142Y-2014285D01*
X5821428Y-2014285D01*
X5878571Y-1757142D02*
X5850000Y-1728571D01*
X5821428Y-1671428D01*
X5821428Y-1528571D01*
X5850000Y-1471428D01*
X5878571Y-1442857D01*
X5935714Y-1414285D01*
X5992857Y-1414285D01*
X6078571Y-1442857D01*
X6421428Y-1785714D01*
X6421428Y-1414285D01*
%TO.C,J6*%
X7000000Y10028571D02*
X7000000Y9600000D01*
X6971428Y9514285D01*
X6914285Y9457142D01*
X6828571Y9428571D01*
X6771428Y9428571D01*
X7542857Y10028571D02*
X7428571Y10028571D01*
X7371428Y10000000D01*
X7342857Y9971428D01*
X7285714Y9885714D01*
X7257142Y9771428D01*
X7257142Y9542857D01*
X7285714Y9485714D01*
X7314285Y9457142D01*
X7371428Y9428571D01*
X7485714Y9428571D01*
X7542857Y9457142D01*
X7571428Y9485714D01*
X7600000Y9542857D01*
X7600000Y9685714D01*
X7571428Y9742857D01*
X7542857Y9771428D01*
X7485714Y9800000D01*
X7371428Y9800000D01*
X7314285Y9771428D01*
X7285714Y9742857D01*
X7257142Y9685714D01*
%TO.C,R2*%
X-6200000Y-10821428D02*
X-6400000Y-10535714D01*
X-6542857Y-10821428D02*
X-6542857Y-10221428D01*
X-6314285Y-10221428D01*
X-6257142Y-10250000D01*
X-6228571Y-10278571D01*
X-6200000Y-10335714D01*
X-6200000Y-10421428D01*
X-6228571Y-10478571D01*
X-6257142Y-10507142D01*
X-6314285Y-10535714D01*
X-6542857Y-10535714D01*
X-5971428Y-10278571D02*
X-5942857Y-10250000D01*
X-5885714Y-10221428D01*
X-5742857Y-10221428D01*
X-5685714Y-10250000D01*
X-5657142Y-10278571D01*
X-5628571Y-10335714D01*
X-5628571Y-10392857D01*
X-5657142Y-10478571D01*
X-6000000Y-10821428D01*
X-5628571Y-10821428D01*
D12*
%TO.C,R22*%
X4162742Y4677500D02*
X4637258Y4677500D01*
X4162742Y5722500D02*
X4637258Y5722500D01*
%TO.C,R21*%
X5622500Y8612742D02*
X5622500Y9087258D01*
X4577500Y8612742D02*
X4577500Y9087258D01*
%TO.C,R7*%
X3613884Y-5862258D02*
X3613884Y-5387742D01*
X4658884Y-5862258D02*
X4658884Y-5387742D01*
%TO.C,C8*%
X-303616Y-9684420D02*
X-303616Y-9965580D01*
X-1323616Y-9684420D02*
X-1323616Y-9965580D01*
%TO.C,R11*%
X149126Y-3897500D02*
X623642Y-3897500D01*
X149126Y-2852500D02*
X623642Y-2852500D01*
%TO.C,R20*%
X2672500Y4762742D02*
X2672500Y5237258D01*
X1627500Y4762742D02*
X1627500Y5237258D01*
%TO.C,R16*%
X-1841116Y-5462742D02*
X-1841116Y-5937258D01*
X-2886116Y-5462742D02*
X-2886116Y-5937258D01*
%TO.C,C1*%
X-9490000Y-4315580D02*
X-9490000Y-4034420D01*
X-10510000Y-4315580D02*
X-10510000Y-4034420D01*
%TO.C,J2*%
X-2350000Y-8300000D02*
G75*
G03*
X-2350000Y-8300000I-700000J0D01*
G01*
%TO.C,C5*%
X-2754196Y-2865000D02*
X-2473036Y-2865000D01*
X-2754196Y-3885000D02*
X-2473036Y-3885000D01*
%TO.C,R12*%
X5277500Y-8062742D02*
X5277500Y-8537258D01*
X6322500Y-8062742D02*
X6322500Y-8537258D01*
%TO.C,J1*%
X6050000Y-600000D02*
G75*
G03*
X6050000Y-600000I-700000J0D01*
G01*
%TO.C,C12*%
X7660000Y-5109420D02*
X7660000Y-5390580D01*
X6640000Y-5109420D02*
X6640000Y-5390580D01*
%TO.C,R17*%
X-5237258Y9872500D02*
X-4762742Y9872500D01*
X-5237258Y8827500D02*
X-4762742Y8827500D01*
%TO.C,R14*%
X1208884Y-10062258D02*
X1208884Y-9587742D01*
X163884Y-10062258D02*
X163884Y-9587742D01*
%TO.C,C7*%
X3526964Y-1365000D02*
X3245804Y-1365000D01*
X3526964Y-2385000D02*
X3245804Y-2385000D01*
%TO.C,R15*%
X-2901358Y-10452500D02*
X-3375874Y-10452500D01*
X-2901358Y-11497500D02*
X-3375874Y-11497500D01*
%TO.C,R18*%
X-512742Y5222500D02*
X-987258Y5222500D01*
X-512742Y4177500D02*
X-987258Y4177500D01*
%TO.C,C14*%
X-609420Y8210000D02*
X-890580Y8210000D01*
X-609420Y7190000D02*
X-890580Y7190000D01*
%TO.C,C11*%
X9160000Y-5109420D02*
X9160000Y-5390580D01*
X8140000Y-5109420D02*
X8140000Y-5390580D01*
%TO.C,R5*%
X-4816116Y-7412258D02*
X-4816116Y-6937742D01*
X-5861116Y-7412258D02*
X-5861116Y-6937742D01*
%TO.C,R4*%
X-7977500Y-4412258D02*
X-7977500Y-3937742D01*
X-9022500Y-4412258D02*
X-9022500Y-3937742D01*
%TO.C,C2*%
X-8010000Y-7315580D02*
X-8010000Y-7034420D01*
X-6990000Y-7315580D02*
X-6990000Y-7034420D01*
%TO.C,R3*%
X-2850874Y-1352500D02*
X-2376358Y-1352500D01*
X-2850874Y-2397500D02*
X-2376358Y-2397500D01*
%TO.C,J3*%
X-4500000Y-550000D02*
G75*
G03*
X-4500000Y-550000I-700000J0D01*
G01*
%TO.C,C15*%
X2660000Y2140580D02*
X2660000Y1859420D01*
X1640000Y2140580D02*
X1640000Y1859420D01*
%TO.C,Q4*%
X990000Y8450000D02*
X990000Y7800000D01*
X4110000Y8450000D02*
X4110000Y10125000D01*
X4110000Y8450000D02*
X4110000Y7800000D01*
X990000Y8450000D02*
X990000Y9100000D01*
%TO.C,C3*%
X3146384Y-5765580D02*
X3146384Y-5484420D01*
X2126384Y-5765580D02*
X2126384Y-5484420D01*
%TO.C,R19*%
X-512742Y5677500D02*
X-987258Y5677500D01*
X-512742Y6722500D02*
X-987258Y6722500D01*
%TO.C,Q3*%
X-4950000Y8410000D02*
X-6625000Y8410000D01*
X-4950000Y5290000D02*
X-4300000Y5290000D01*
X-4950000Y8410000D02*
X-4300000Y8410000D01*
X-4950000Y5290000D02*
X-5600000Y5290000D01*
%TO.C,U1*%
X-1423616Y-6250000D02*
X-1423616Y-5450000D01*
X1696384Y-6250000D02*
X1696384Y-5450000D01*
X1696384Y-6250000D02*
X1696384Y-7050000D01*
X-1423616Y-6250000D02*
X-1423616Y-8050000D01*
%TO.C,C13*%
X-609420Y3710000D02*
X-890580Y3710000D01*
X-609420Y2690000D02*
X-890580Y2690000D01*
%TO.C,R8*%
X4658884Y-8862258D02*
X4658884Y-8387742D01*
X3613884Y-8862258D02*
X3613884Y-8387742D01*
%TO.C,Q2*%
X-4300000Y4260000D02*
X-3650000Y4260000D01*
X-4300000Y1140000D02*
X-4950000Y1140000D01*
X-4300000Y4260000D02*
X-5975000Y4260000D01*
X-4300000Y1140000D02*
X-3650000Y1140000D01*
%TO.C,C6*%
X6790000Y-8159420D02*
X6790000Y-8440580D01*
X7810000Y-8159420D02*
X7810000Y-8440580D01*
%TO.C,J5*%
X-8200000Y7950000D02*
G75*
G03*
X-8200000Y7950000I-700000J0D01*
G01*
%TO.C,R13*%
X3149126Y-3897500D02*
X3623642Y-3897500D01*
X3149126Y-2852500D02*
X3623642Y-2852500D01*
%TO.C,J4*%
X11400000Y-5300000D02*
G75*
G03*
X11400000Y-5300000I-700000J0D01*
G01*
%TO.C,J7*%
X11600000Y5000000D02*
G75*
G03*
X11600000Y5000000I-700000J0D01*
G01*
%TO.C,C4*%
X2126384Y-8765580D02*
X2126384Y-8484420D01*
X3146384Y-8765580D02*
X3146384Y-8484420D01*
%TO.C,R1*%
X-8222500Y4612742D02*
X-8222500Y5087258D01*
X-7177500Y4612742D02*
X-7177500Y5087258D01*
%TO.C,R6*%
X3623642Y-10352500D02*
X3149126Y-10352500D01*
X3623642Y-11397500D02*
X3149126Y-11397500D01*
%TO.C,Q1*%
X3090000Y2100000D02*
X3090000Y1450000D01*
X6210000Y2100000D02*
X6210000Y1450000D01*
X3090000Y2100000D02*
X3090000Y2750000D01*
X6210000Y2100000D02*
X6210000Y3775000D01*
%TO.C,U2*%
X6540000Y150000D02*
X6540000Y-3450000D01*
X11760000Y150000D02*
X11760000Y-2050000D01*
X6540000Y150000D02*
X6540000Y2350000D01*
X11760000Y150000D02*
X11760000Y2350000D01*
%TO.C,J6*%
X8800000Y8850000D02*
G75*
G03*
X8800000Y8850000I-700000J0D01*
G01*
%TO.C,R2*%
X-5913858Y-9947500D02*
X-6388374Y-9947500D01*
X-5913858Y-8902500D02*
X-6388374Y-8902500D01*
%TD*%
M02*
