M48
; DRILL file {KiCad (6.0.1)} date Mon Mar 20 17:09:31 2023
; FORMAT={-:-/ absolute / inch / decimal}
; #@! TF.CreationDate,2023-03-20T17:09:31-07:00
; #@! TF.GenerationSoftware,Kicad,Pcbnew,(6.0.1)
; #@! TF.FileFunction,Plated,1,2,PTH
FMAT,2
INCH
; #@! TA.AperFunction,Plated,PTH,ViaDrill
T1C0.0100
; #@! TA.AperFunction,Plated,PTH,ViaDrill
T2C0.0157
; #@! TA.AperFunction,Plated,PTH,ComponentDrill
T3C0.0512
%
G90
G05
T1
X-0.2283Y0.2067
X-0.1654Y0.063
X-0.0886Y0.311
X-0.0728Y0.0984
X-0.0709Y-0.2795
X-0.063Y0.0256
X-0.0374Y-0.3957
X-0.0138Y-0.2008
X-0.0082Y0.2103
X0.0152Y-0.3207
X0.0236Y0.2323
X0.0472Y0.1457
X0.0571Y0.3346
X0.0906Y0.439
X0.0984Y0.0265
X0.1339Y-0.1614
X0.1378Y0.3071
X0.1457Y0.1575
X0.2016Y-0.1417
X0.2244Y-0.3406
X0.2362Y0.3031
X0.2376Y0.2559
X0.2559Y-0.1465
X0.2587Y0.3358
X0.2598Y-0.1063
X0.2743Y0.25
X0.2885Y0.312
X0.2913Y0.2894
X0.3071Y-0.2402
X0.3108Y-0.1407
X0.3441Y0.185
X0.3794Y0.177
X0.3858Y0.0807
X0.3937Y0.1949
X0.4096Y0.1553
X0.4315Y0.1619
T2
X-0.3504Y0.313
X0.2451Y0.2087
T3
X-0.252Y-0.189
X0.378Y0.2835
T0
M30
