M48
; DRILL file {KiCad (6.0.1)} date Tue Feb  8 09:50:29 2022
; FORMAT={-:-/ absolute / inch / decimal}
; #@! TF.CreationDate,2022-02-08T09:50:29-07:00
; #@! TF.GenerationSoftware,Kicad,Pcbnew,(6.0.1)
; #@! TF.FileFunction,Plated,1,2,PTH
FMAT,2
INCH
; #@! TA.AperFunction,Plated,PTH,ViaDrill
T1C0.0157
; #@! TA.AperFunction,Plated,PTH,ComponentDrill
T2C0.0394
%
G90
G05
T1
X0.1654Y-0.6102
X0.2224Y-0.6043
X0.2244Y-0.2244
X0.2736Y-0.4528
X0.3287Y-0.6142
X0.3838Y-0.6122
X0.4449Y-0.7598
X0.4469Y-0.8898
X0.4921Y-0.8996
X0.4968Y-0.7295
X0.5906Y-0.8179
X0.7756Y-0.3071
X0.874Y-0.3346
T2
X0.0719Y-0.8134
X0.0719Y-0.9134
X0.1535Y-0.1555
X0.1719Y-0.8134
X0.1719Y-0.9134
X0.2719Y-0.8134
X0.2719Y-0.9134
X0.5906Y-0.1339
T0
M30
